<svg xmlns="http://www.w3.org/2000/svg" viewBox="0 0 300 300"><defs><style>.a{fill:#00092f;}.a,.b,.c,.d,.e,.f,.g,.h,.i,.k{fill-rule:evenodd;}.b{fill:#2c2c2c;}.c{fill:#fff;}.d{fill:#e88d95;}.e{fill:#df8905;}.f{fill:#da6771;}.g{fill:#b4b4b4;}.h{fill:#fcbe30;}.i{fill:#464646;}.j,.l{fill:none;stroke-linecap:round;stroke-linejoin:round;}.j{stroke:#504b4b;stroke-width:1.444px;}.k{fill:#332727;}.l{stroke:#1a1a1a;stroke-width:1.587px;}</style></defs><title>Drawing</title><path class="a" d="M86.464,63.638C81.081,61.423,76.012,53.1,75.611,45.677a15.681,15.681,0,0,1,4.243-11.756,12.142,12.142,0,0,1-1.209-6.734c.428-3.847,3.228-9.08,6.878-12.179S95.893,6.048,103.7,5.27s12.6.088,15.267,3.053,3.513,8.254,1.968,11.481c4.558,1.915,4.354,5.779,4.287,7.8s-1.632,4.546-2.9,5.894a20.127,20.127,0,0,1-3.045,2.529"/><path class="b" d="M124.057,48.118c2.187-2.846,1.188-5.517,5.571-6.12a50.954,50.954,0,0,1,11.115-.833h36.334c1.624,0,14.607-1.306,17.353-1.511s12.832.266,17.143.185l29.748-.562c2.273-.043,4.705,4.358,3.492,7.412L232.222,78.4c-2.458,6.192-3.337,8.466-7.363,16.733-3.837,7.879-3.834,11.248-5.7,15.084-2.065,4.239-5.965,7.744-11.494,7.712L194,117.848c-6.456-.04-12.591-.113-18.775-.113s-7.7.079-16.3.715a180.34,180.34,0,0,1-18.18.755c-7.955,0-13.6.679-19.523.975s-15.031-.355-15.031-.355-3.595-10.332-2.485-16.812,8.314-24.651,11.589-31.194,7.573-22.148,8.764-23.7Z"/><path class="c" d="M121.721,72.977c.983-2.93,5-11.886,6.4-16.052s2.7-7.3,4.67-8.781,5.566-.563,8.673-.736,32.018,1.732,38.466,1.253,28.013-.352,29.446-.408l5.114-.2c2.743-.106,10.1.17,13.525.408s6,.388,3.7,5.5-3.946,11.012-5.174,13.675-3.764,9.56-4.95,12.13c-1.1,2.373-3.835,8.911-6.259,14.34s-3.674,8.233-3.974,8.906-1.739,4.766-4.279,5.524-5.5,1.262-11.111,1.054l-19.753-.73c-6.03-.223-19.478-.255-26.261.392s-26.7,1.876-30.676,1.159-6.556-7.4-7.292-7.4,9.579-29.558,9.74-30.036Z"/><path class="d" d="M115.282,25.272a21.858,21.858,0,0,1,4.105,12.176,69.428,69.428,0,0,1-.345,9.379s.67,1.032,2.354,3.62c1.524,2.342,1.729,4.8-.176,4.949l-2.906.228c-.584,2.229-1.833,6.634-4.2,9.559-3.289,4.068-6.42,7.775-10.744,8.651s-8.982.312-11.865-2.341a19.761,19.761,0,0,1-5.533-9.385c-.986-3.456-.655-11.912-.655-11.912a10.437,10.437,0,0,1-1.14-2.576c-.412-1.457-.85-3.739.406-5.35a4.6,4.6,0,0,1,4.631-1.818,3.721,3.721,0,0,1,2.236,1.127,6.567,6.567,0,0,0,.791,4.035,4.938,4.938,0,0,0,6.143,1.343,7.947,7.947,0,0,0,3.276-4.093,13.831,13.831,0,0,0,.213-5.6,30.357,30.357,0,0,0,4.85-3.76l4.4-3.988a37.445,37.445,0,0,0,4.157-4.247Z"/><path class="d" d="M157.365,42.411c.884-1.017,2.453-2.814,2.781-4.135s4.253-2.731,5.6-3,2.807,1.742,3.222,2.087,1.249.7,3.3.914,3.031,2.886.7,2.886H167.04l1.981,1.639c1.43,1.182-.565,2.985-1.695,2.051s-2.169-1.145-3-1.828-.821-1.2-1.582-.813a10.927,10.927,0,0,0-2.21,2.661c.015.013-4.048-1.449-3.164-2.464Z"/><path class="e" d="M94.012,78.4c3.035-.165,18.106-3.04,20.824-3.769l14.623-3.915c2.541-.68,6.049-1.848,7.5-3.431s5.405-7.841,7.264-10.377l11.541-15.744,5.459,4.255s-2.4,5.935-3.774,8.64L145.979,76.7c-1.738,3.432-6.841,6.555-10.326,9.2-3.935,2.983-10.825,8.725-14.433,10.944"/><path class="d" d="M89.173,67.286a20.522,20.522,0,0,1,.483,3.561c.209,3.248-.406,6.933.231,10.119.063.318,2.983.261,3.322.309a32.166,32.166,0,0,0,4.4.541c.243,0,1.23.108,1.236-.232.03-1.479-.231-3.593-.231-5.111V70.306"/><path class="f" d="M98.616,74.188a21.555,21.555,0,0,1-5.31-2.952A55.065,55.065,0,0,0,98.777,79.6s-.161-3.538-.161-5.414Z"/><path class="g" d="M179.531,89.543a21.787,21.787,0,0,1,.5,4.564c-.269-.315-1.642-1.829-1.865-2.177-1.064-1.655-1.437-2.481-2.428-4.193-3.894-6.728-6.076-13.89-9.178-20.979a24.573,24.573,0,0,1-2.253-6.788c-.065-.559-.185-1.617.406-1.914.526-.262,1.423.839,1.635,1.168a41.809,41.809,0,0,1,3.071,6.288c1.537,3.544,2.746,6.731,4.425,10.21.419.87.979,2.232,1.432,3.084a67.373,67.373,0,0,1,3.47,8.376c.161.436.358.857.509,1.3.063.178.234.9.278,1.065Z"/><path class="d" d="M161.44,84.343c.993-.819,1.907-1.288,2.043-2.4s.269-2.433.838-2.99,3.332-1.112,5.638-.556,5.379,1.025,7.545,2.608,2.01,2.263,1.537,3.11-1.444,1.922-2.23,1.652.034.782-.008,1.981a2.96,2.96,0,0,1-2.487,3.071c-2.05.529-4.119,1.238-5.684-.106a7.838,7.838,0,0,1-2.582-4.154c0-.722-2.277,2.006-2.277,2.006s-3.326-3.408-2.333-4.226Z"/><path class="h" d="M79.845,126.1c-.29-3.438-1.223-11.783-1.517-17.942s-.56-12.745,1.294-16.979,2.735-6.765,6.143-9.344,6.3-3.7,9.627-3.377S102.04,81.94,105.8,84.08l14.9,8.5a29.668,29.668,0,0,0,10.579,3.943c2.23.245,9-3.783,12.712-5.6l16.682-8.185,3.646,6.872s-3.04,2.418-4.514,3.818l-8.919,8.479c-2.778,2.9-5.459,5.449-8.7,9.082a18.737,18.737,0,0,1-12.527,6.626c-5.831.815-13.7-4.4-16.785-6.472l-6.227-4.175s.437,7.387.624,10.546.509,8.592.509,8.592H89.173c-3.109,0-9.037,3.439-9.328,0Z"/><path class="g" d="M116.734,285.409c-1.063,3.245-1.79,6.242-1.266,7.7s2.6,1.509,4.481,1.412,3.623.571,6.431.468,8.862-.322,10.661-.388,3.34-.121,3.658-.921c.454-1.137-2.659-2.165-6.205-3.577s-8.02-2.627-8.633-3.439l-1.056-1.4s-7.007-3.1-8.071.146Z"/><path class="g" d="M68.656,269.963a7.713,7.713,0,0,0-.23,5.544c.608,2.4,2.121,5,2.655,6.913.764,2.742,3.543,8.559,2.568,9.217s-2.094.488-4.068-2.173L58.7,274.789c-1.475-1.991-4.174-3.394-3.8-5.126s.934-2.81,2.251-3.353L62.77,264s6.639,3.921,5.886,5.967Z"/><path class="b" d="M107.032,129.322c8.879,4.311,4.534,22.63,8.261,29.477s3.529,8.752,5.927,13.158,5.625,8.439,4.029,12.326-5.394,11.614,2.769,10.728c1.637-.178-11.516,22.286-15.756,27.143s-9.538,14.962-15.114,21.569S85,254.877,81.559,258.409s-7.116,7.3-8.672,8.9l-3.4,3.494-7.211-7.311s3.658-6.323,5.714-9.065,6.346-12.7,7.6-15.561l20.336-46.29c1.225-2.79,1.225-5.064,1.225-8.924s1.005-58.639,9.884-54.33Z"/><path class="i" d="M79.79,125.96c-1.672,5.343-4.667,14.4-1.672,23.586a64.186,64.186,0,0,0,11.055,21.248c4.839,6.238,7.958,12.7,11.244,19.461s7.763,20.133,9.607,25.708,5.695,13.948,5.285,19.607.438,11.38-.062,18.278,1.148,28.112.96,30.666,9.042.665,9.042.665,3.939-24.808,3.939-30.4,2.837-22.019,3.463-29.445-1.1-31.471-1.016-36.057-2.357-20.969-6.386-30.1l-12.073-27.363c-1.072-2.429-5.392-5.712-5.392-5.712l-20.14-1.032-4.58-.024c-1.318-.008-3.134.472-3.274.919Z"/><path class="j" d="M184.239,97.053c1.879,1.073,3.665,2.268,6,2.153a8.849,8.849,0,0,0,5.464-2.762c4.072-4.008,6.174-10.6,3.914-16.067a11.666,11.666,0,0,0-2.055-3.211,9.856,9.856,0,0,0-2.818-2.536c-2.565-1.292-5.217,1.26-5.593,3.768a4.254,4.254,0,0,0,3.17,4.687,6.4,6.4,0,0,0,2.648.281,13.935,13.935,0,0,0,5.186-1.916,23.359,23.359,0,0,0,10.3-11.376c1.364-3.241,1.636-7.5-.422-10.516a7.487,7.487,0,0,0-4.244-2.8,14.084,14.084,0,0,0-11.95,2.03c-3.873,2.506-8.365,6.51-13.077,3.551"/><path class="k" d="M112.475,38.083a3.583,3.583,0,0,0-.985,1.648,7.94,7.94,0,0,0-.362,3.113,1.5,1.5,0,0,0,1.557,1.123c1.5-.333,1.923-2.669,1.99-3.874a2.947,2.947,0,0,0-.8-1.846,1.282,1.282,0,0,0-1.405-.164Z"/><path class="l" d="M108.487,59.394c.238.225.43.574.685.813a4.073,4.073,0,0,0,2.856,1.05"/><path class="e" d="M106.651,106.959c-3.6-2.324-7.926-5.74-12.076-8.423,2.089,3.179,3.834,4.781,7.16,8.675,3.244,3.8,4.646,5.668,5.3,6.2-.063-1.069-.136-2.3-.381-6.456Z"/></svg>