<svg xmlns="http://www.w3.org/2000/svg" viewBox="0 0 300 300"><defs><style>.a{fill:#fff;}.a,.b,.c,.e,.f,.g,.h,.i,.j,.k,.l,.m,.n,.p{fill-rule:evenodd;}.b{fill:#dff2fc;}.c{fill:#c0deed;}.d,.o,.q{fill:none;stroke-linecap:round;stroke-linejoin:round;}.d{stroke:#dff2fc;}.d,.o{stroke-width:1.278px;}.e{fill:#fcbe30;}.f{fill:#31ffc0;}.g{fill:#33c79c;}.h{fill:#37a4b9;}.i{fill:#78e8fd;}.j{fill:#e88d95;}.k{fill:#da6771;}.l{fill:#8b8b8b;}.m{fill:#2c2c2c;}.n{fill:#464646;}.o{stroke:#1a1a1a;}.p{fill:#332727;}.q{stroke:#c0deed;stroke-width:0.779px;}</style></defs><title>Having a break</title><polygon class="a" points="87.758 19.227 89.11 180.553 220 181.016 220 20.236 87.758 19.227 87.758 19.227"/><path class="b" d="M81.041,186.078c-2.54,9.742-17.907,78.391-19.327,84.608s1.132,11.654,4.293.98,23.837-80.485,25.06-84.612-7.485-10.717-10.026-.976Z"/><path class="c" d="M72.664,176.783c2.721.19,38.2.256,51.258.256H172.67v9.881l-48.886.5c-17.707.182-46.4-.228-49.977-.191s-6.1-.161-6.113-2.394-.039-4.745-.048-5.9,1.33-2.41,5.018-2.154Z"/><path class="b" d="M89.633,8.225,88.1,28.731s41.046-.521,69.567-.566l61.127-.1L220,10.185,89.633,8.225Z"/><path class="c" d="M85,138.891c-.162-6.856-1.3-117.637-1.293-123.652s7.473-7.427,7.473,0V137.634c0,7.925-6.017,8.112-6.18,1.257Z"/><path class="c" d="M217.557,134.321c-.162-6.854-1.3-117.636-1.293-123.651s7.473-7.428,7.473,0v122.4c0,7.926-6.018,8.112-6.18,1.256Z"/><path class="c" d="M79.089,13.923c3.154.074,66.2-1.391,77.827-1.346s56.014.213,64.455.245,8.44-.975,8.44-3.423.92-3.178-3.3-3.783-35.35,0-55.783,0S112.775,4.7,98.452,5.1L80.2,5.616c-2.226.062-2.829,1.613-2.728,3.89s-.13,4.376,1.614,4.417Z"/><path class="c" d="M70.8,145.2c-.91-3.214.07-7.6,7.951-7.871l34.174-1.179c4.8-.165,9.192,1.45,11.514,7.232s9.125,22.709,10.779,26.825-2.2,6.54-6.441,6.54H87.234c-4.308,0-7.336-.928-9.34-6.54S71.827,148.826,70.8,145.2Z"/><path class="b" d="M80.207,172.849c6.37-.151,30.1-.423,38.637-.408s20.174.033,24.782.042,7.119-.581,7.192,1,.091,2.006.122,2.687-3.462.681-7.182.681H106.109c-14.35,0-19.6.087-21.5.087s-3.823-.027-4.461-1.066a13.008,13.008,0,0,1-1.229-2.524c-.048-.382.165-.47,1.292-.5Z"/><path class="d" d="M107.533,28.511c.115,9.188.109,23.678.423,33.862"/><path class="c" d="M106.143,62.585c-.712.092-1.027,3.963-1.376,5.491s1.1,1.8,2.3,1.8l2.633-.011c1.031-.006,1.739-.934,1.429-2.207s-1.013-4.155-1.191-4.879-1.087-.25-1.979-.269a9.143,9.143,0,0,0-1.812.077Z"/><path class="e" d="M181.913,77.427c-4.307-3.516-10.768-14.4-4.362-22.768s20.37-5.655,26.727-1.518a28.117,28.117,0,0,1,10.81,14.325c2.9-2.2,6.249,1.6,3.278,4.314,3.4,3.718,3.809,10.768,2.583,16.81s-6.936,10.474-12.571,11.642-22.157-19.29-26.465-22.8Z"/><path class="f" d="M193.584,114.589c-5.721,1.063-10.387,3.894-17.04,10.267s-10.632,15.335-10.632,15.335l13.59,13.222,18.715,13.306,20.124,1.356.858-18.214,18.927-2.537s-2.258-13.191-10.557-20.948-20.978-11.617-20.978-11.617-7.285-1.233-13.007-.17Z"/><path class="g" d="M219.2,149.861a80.741,80.741,0,0,0-.975-12.352l-1.96,18.574a2.459,2.459,0,0,0,2.935-1.7c.3-.822-.034-3.341,0-4.521Z"/><path class="g" d="M181.311,154.7c1.526-5.124,2.478-7.87,4.138-13.448-.8,7.525-1.8,13.063-1.8,13.063s-4.505,7.674-2.334.385Z"/><path class="h" d="M142.5,112.4a9.3,9.3,0,0,0-5.251,9.782c.488,4.8,4.286,8.407,8.44,8s.091-19.278-3.189-17.777Z"/><path class="i" d="M143.394,117.716c-.513-3.214-1.418-8.88-1.418-8.88a23.375,23.375,0,0,1,10.5-4.108c6.271-.8,9.011-.337,9.011-.337a82.107,82.107,0,0,1,1.385,11.842c.329,6.851.632,13.2.632,13.2a42.167,42.167,0,0,1-8.092,2.513,29.865,29.865,0,0,1-7.921.271s-3.58-11.288-4.094-14.5Z"/><path class="j" d="M166.623,140.905l-6.024,9.322s-2.627-5.165-4.662-8.977l-4.882-9.143s2.6-1.9,2.062-4.688-2.283-3.486-2.283-3.486a3.213,3.213,0,0,0,1.179-3.332c-.621-1.985-3.466-1.985-3.466-1.985s1.623-2.3,1.032-4.192-2.617-.527-4.617,1.443-2.84,3.409-2.61,6.637.768,7.995,2.444,9.942c-.727,4.768,1.47,20.093,3.751,27.861s6.9,12.9,12.13,11.714,21.458-18.175,21.458-18.175-13.586-15.919-15.512-12.941Z"/><path class="j" d="M182.627,71.78c-3.342,8.209-3.149,14.517-3.108,22.615s1.784,12.875,6.212,15.211a12.62,12.62,0,0,0,7.936,1.2l-.083,3.788s.5,3.487,4.912,3.987,8.095-3.817,8.095-3.817,1.054-8.432,1.671-13.56.938-7.8.938-7.8,3.969.31,4.517-3.537-4.668-4.788-4.668-4.788A58.884,58.884,0,0,1,195.1,80.49c-7.47-3.46-9.306-5.541-12.473-8.71Z"/><path class="k" d="M193.667,110.8c2.062-.465,5.9-2,6.852-2.954a24.912,24.912,0,0,1-6.935,6.742s.05-2.277.083-3.788Z"/><polygon class="b" points="174.796 253.857 231.228 253.361 232.168 258.228 172.67 258.228 174.796 253.857 174.796 253.857"/><path class="b" d="M228.7,206.464c1.119,8.784,8.77,66.2,9.667,75.882s-.123,18.357-2.5,7.9-14.283-85.171-14.283-85.171,6-7.391,7.119,1.392Z"/><path class="b" d="M181.025,235.19c-3.474,12.116-12.6,44.828-13.722,50.386s-4.932,7.99-3.475-.7,11.92-58.632,11.92-58.632,8.751-3.167,5.277,8.949Z"/><path class="c" d="M215.2,195.88c7.9-.234,16.124-.591,18.935-.561s3.305,2.651,3.305,5.172-.592,6.126-4.109,6.046-35.728.55-44.439.636-1.3-10.354-1.3-10.354,19.7-.7,27.607-.939Z"/><path class="l" d="M180.994,243.541c-.642,2.48-5.244,10.338-6.129,11.711s.333,4.161,3.653,2.351,11.545-6.848,11.991-9.079-2.915-5.78-2.915-5.78-5.957-1.683-6.6.8Z"/><path class="l" d="M119.419,273.723a101.909,101.909,0,0,1-13.22,7.759c-2.541,1.026-5.133,4-.84,4.452a74.853,74.853,0,0,0,14.538-.394c2.419-.438,3.061-2.618,3.178-4.188s2.043-4.192,2.043-4.192-3.677-5.049-5.7-3.437Z"/><path class="m" d="M169.416,181.346c-4.413,2.23-9.959,5.22-14.307,9.851s-14.665,21.863-20.009,34.77-17.726,47.672-17.726,47.672l9.734,6.144s7.6-12.136,14.868-24.116,17.36-27.744,22.979-33.606,24.914-23.947,24.914-23.947,19.807-.42,27.628-2.081-5.186-11.16-5.186-11.16l-24.717-7.834s-13.765,2.077-18.178,4.307Z"/><path class="n" d="M229.812,170.224c-.11,6.545,1.071,20.366-8.862,24.731-7.192,3.159-14.354.249-18.931-2.493s-9.55-8.15-9.55-8.15.248,16.489-.644,27.241l-2.569,31-9.754,1.137s-4.906-19.9-7.215-32.736-5.261-30.343-3.993-40.222,8.222-16.9,16.9-17.317,13.068.8,14.948,1.6,29.784,8.67,29.673,15.215Z"/><path class="j" d="M236.8,146.889a114.6,114.6,0,0,1,.53,16.029c-.332,4.742-3.819,9.409-10.7,7.284s-6.911-4.454-12.868-8.282a95.563,95.563,0,0,0-13.619-6.911s3.806-3.718,8.712-3.74a28.461,28.461,0,0,1,10.17,2.382l.178-3.79s17.2-7.2,17.6-2.972Z"/><path class="o" d="M188.71,102c2.361.263,4.529-1.6,5.388-3.659m-6.769-8.034c-.35,1.36-.933,3.82-1.144,4.438s1.537.454,2.525.454"/><path class="p" d="M185.251,82.878c-.784-.105-1.452.856-1.58,1.98s.252,2.42.981,2.439,1.351-1.072,1.515-2.236-.106-2.075-.916-2.183Z"/><path class="p" d="M193.188,84.083c-.791-.071-1.3,1.081-1.4,2.147s.373,2.517,1.146,2.606,1.432-1.3,1.483-2.528-.318-2.145-1.228-2.225Z"/><path class="q" d="M95.01,24.185c13.333-.066,45.838-.175,66.2-.326s44.425.1,52.244-.176m-118.8-4.7c13.333-.065,45.838-.174,66.2-.326s44.425.1,52.244-.175"/></svg>