<svg xmlns="http://www.w3.org/2000/svg" viewBox="0 0 300 300"><defs><style>.a{fill:#00092f;}.a,.b,.c,.d,.e,.f,.g,.h,.i,.j,.k,.l,.m,.n{fill-rule:evenodd;}.b{fill:#464646;}.c{fill:#2c2c2c;}.d{fill:#ffd853;}.e{fill:#78e8fd;}.f{fill:#37a4b9;}.g{fill:#e88d95;}.h{fill:#da6771;}.i{fill:#abf9ff;}.j{fill:#616161;}.k{fill:#8b8b8b;}.l{fill:#e6e6e6;}.m{fill:#fff;}.n{fill:#1a1a1a;}.o{fill:none;stroke:#1a1a1a;stroke-linecap:round;stroke-linejoin:round;stroke-width:1.587px;}</style></defs><title>Procrastinating</title><path class="a" d="M142.282,47.433c3.535-2.378,6.185-7.223,2-12.378,6.62-4.88,8.558-16.473,3.148-23.427a17.684,17.684,0,0,0-20.874-5.161,26.519,26.519,0,0,0-9.8,8.068s-.051-7.223-5.722-8.575-10.784,4.673-13.538,9.558-3.728,12.538-2.829,16.5c-1.16-2.316-2.571-3.7-3.857-3.033s-1.214,3.23.054,5.407c-2.073-.157-4.537-.747-5.183,1.471s1.141,4.49,3.682,5.025c-1.167,5.571-.023,13.692,2.209,18.09s6.724,8.108,9.194,8.886,37.984-18.05,41.518-20.427Z"/><polygon class="b" points="114.099 254.884 162.249 253.239 160.351 247.958 116.256 249.566 114.099 254.884 114.099 254.884"/><path class="c" d="M131.373,210.72c.623,6.9,4.912,56.471,5.575,61.651s3.758,8.018,4.057,2.309,3.283-63.063,3.283-63.063L138.072,204s-7.323-.171-6.7,6.724Z"/><path class="b" d="M124.569,209.571c-3.084,7.322-19.176,58.277-20.517,63.289s-.047,9.218,3.076,2.665,27.395-65.146,27.395-65.146-6.871-8.129-9.954-.808Z"/><path class="b" d="M141.3,209.1c1.927,3.941,20.123,49.041,20.123,49.041l5.7-2.469s-13.322-37.97-16.563-46.808-11.189-3.7-9.263.236Z"/><path class="d" d="M104.841,91.741c-6.075-.43-13.149-.076-19.367,6.086A44.409,44.409,0,0,0,71.785,127.8c-.779,14.334,3.168,37.242,10.953,54.679s14.944,24.392,27.342,27.477,50.055.981,61.425,1.316S161.424,177.4,161.424,177.4l-34.786-27.433s-15.72-57.8-21.8-58.227Z"/><path class="e" d="M118.368,88.057A63.449,63.449,0,0,0,96.8,95.579c-6.348,3.65-16.469,17.794-16.469,17.794l15.457,12.984-1.465,29.025,60.549-2.828,2.606-25.178a84.914,84.914,0,0,0,12.8-4.479c6.628-2.963,9.516-5.7,9.516-5.7s-7.209-13.9-10.581-19.107-11.138-9.215-20.908-10.195a128.831,128.831,0,0,0-15.349-.8,145.264,145.264,0,0,0-14.595.965Z"/><path class="f" d="M101.394,111.6c2.131,10.5,1.835,26.5,4.268,28.172s18.71-3.685,27.244-5.886c9.63-2.484,19.837-7.139,21.159-8.21s1.788-9.137,1.322-13.706a94.506,94.506,0,0,1,2.095,15.4,139.759,139.759,0,0,1-.462,14.812L92.881,147.9s6.382-46.8,8.513-36.3Z"/><path class="f" d="M118.4,86.027c-2.969.572-6.364,1.484-6.426,3.833s3.05,6.484,5.344,9.832,4.677,7.18,6.167,7.042S127.935,95.8,127.935,95.8s5.7,9.741,7.47,9.449,4.482-7.629,5.354-11.276.6-6.628-.153-7.942-3.331-2.092-8.018-1.285-11.217.709-14.187,1.28Z"/><path class="g" d="M138.534,34.512c2.964,8.348,6.918,23.713,3.155,33.061S131.9,80.462,131.9,80.462l1.059,6.63L127.935,95.8l-9.645-7.707.248-8.5a18.008,18.008,0,0,1-11.58-6.618c-5.5-6.734-9.341-13.611-9.464-19.163,5.354-2.014,9.634-3.847,17.251-10.706A96.171,96.171,0,0,0,128.39,27.14a33.084,33.084,0,0,1,10.144,7.372Z"/><path class="h" d="M99.526,57.271c5.6,1.484,6.291,9.962,6.291,9.962s8.282,6.552,8.282,11.134a23.916,23.916,0,0,1-9.79-8.831c-3.515-5.488-10.8-13.86-4.783-12.265Z"/><path class="g" d="M157.482,127.376l.082,4.236s-9.657,2.33-18.577,4.633a117.279,117.279,0,0,0-17.18,6.092s-8.724-.558-14.412-.217-12.778,5.234-14.216,7.04,2.514.8,7.626.8,70.978.713,79-.545,6.055-10.305,4.022-14.9l-6.752-15.269a106.034,106.034,0,0,1-9.944,4.934c-2.884,1.075-9.645,3.2-9.645,3.2Z"/><path class="h" d="M158.942,131.712c1.487.128,7.578.328,10.3,1.308a34.6,34.6,0,0,0-11.757-5.644l.082,4.236s.11-.008,1.378.1Z"/><path class="h" d="M106.657,142.188a13.261,13.261,0,0,0-6.122,5.463,2.459,2.459,0,0,0-.173,2.308H91.106c-1.545,0,2.594-2.754,6.3-4.831a21.325,21.325,0,0,1,9.247-2.94Z"/><path class="g" d="M78.33,135.945c1.294-8.729,7.785-19.99,13.332-31.444s11.59-23.935,11.59-23.935-4.267-6.243-5.758-10.07-1.61-12.7,0-13.658,4.314,2.593,5.347,4.632,1.489,6.414,1.489,6.414a49.779,49.779,0,0,1,6.031,5.437c2.7,2.951,3.339,4.7,2.184,6.149l-2.63,3.312s-3.141,18.372-5.421,30.069-4.922,25.246-5.69,29.19-5.357,7.595-9.069,8.2-13.084-2.966-11.4-14.293Z"/><path class="g" d="M208.485,270.184c.747,2.351,3.466,8.115,3.466,8.115s-1.456,2.993-.351,5.594,10.221,3.343,14.09,2.992,3.4-8.92,3.4-8.92l-9.215-2.112-3.462-8.193s-8.673.174-7.925,2.524Z"/><path class="i" d="M226.2,286.218a20.96,20.96,0,0,1,1.508-7.624c1.582-3.739,3.485-5.077,3.485-5.077s7.789-.562,10.879,5.483,1.421,12.162.277,13.18-6.679,1.074-13.867.045-17.2-.377-17.7-4.566c-.392-3.328,3.277-3.329,5.56-2.974l9.857,1.533Z"/><path class="g" d="M155.568,262l-3.024,7.05s-4.391-.617-5.18,2.881,9.91,11.306,9.91,11.306l6.178-3.2-4.824-8.527,3.548-5.769L155.568,262Z"/><path class="i" d="M157.031,281.987a19.8,19.8,0,0,1,4.834-2.965,9.9,9.9,0,0,1,5.83-.688,8.145,8.145,0,0,1,3.8,6.65c.181,4.656-3.638,7.9-5.268,9.338s-2.794.406-4.807-1.352-16.269-15.45-18.2-17.458.562-5.606,2.719-4.25,11.084,10.725,11.084,10.725Z"/><path class="j" d="M179.287,158.7c9.286,3.652,30.92,8.218,34.79,17.475s-2.918,20.3-9.865,32.212-40.32,60.585-40.32,60.585l-11.521-6.416s18.766-55.661,20.59-61.1-46.323-42.589-46.323-42.589,43.361-3.824,52.649-.17Z"/><path class="k" d="M105.2,160.576c-1.762,4.885-3.244,13.913-1.31,20.139s5.474,13.028,19.829,15.063,37.124,7.085,39.986,7.788,8.008,11.719,16.1,25.182l26.29,43.753,13.781-4.293s-8.037-30.142-12.576-48.2-9.48-34.532-16.869-41.111-47.2-18.326-47.2-18.326-36.27-4.885-38.031,0Z"/><path class="b" d="M38.878,163.768c-2.387,10.6-10.863,68.992-13.155,81.188s-2.455,21.414-3.544,27.6,4.812,10.275,6.832,1.376L54.057,163.655s-12.793-10.486-15.179.113Z"/><path class="b" d="M263.86,162.011c2.441,10.943,11.117,71.233,13.465,83.825s2.512,22.11,3.626,28.5-4.926,10.608-6.994,1.42-16.738-74.344-19.461-86.442-6.174-27.419-6.174-27.419,13.095-10.827,15.538.116Z"/><path class="l" d="M18.918,160.576c-.053,1.886.184,5.6,8.843,5.317s94.624-.428,127.626-1.52,112.218.111,117.481.166,7.961-.5,8.032-3.963.14-6.7.186-8.935-2.193-2.231-5.956-2.231-39.252-.561-64.381,0-128.135.558-148.989.558H26.467c-3.637,0-7.414-.295-7.433,4.071s-.066,4.653-.116,6.537Z"/><path class="k" d="M149.64,139.781a5.261,5.261,0,0,0-5.39,4.764c-.136,2.576,1.684,5.4,5.75,5.41s37.694-.274,37.694-.274l-.334-9.792s-33.805.1-37.72-.108Z"/><path class="l" d="M194.247,107.4c1.277-2.553,4.1-6.1,11.4-5.755s39.147.316,45.71.316,9.3,3.4,5.707,9.286-15.32,27.332-17.239,30.476-7.129,7.365-12.533,7.438-43.955.615-47.491.573-5.637-4.521-2.157-9.825,15.17-29.639,16.6-32.509Z"/><path class="m" d="M218.718,124.914c-.381-1.99-3.991-3.982-6.118-1.99s-2.947,9.083-1.511,11.245,5.318-.31,5.318-.31a3.8,3.8,0,0,0,3.219,2.082c2.346.112,5.464-3.74,6.513-7.86s-.8-5.157-2.779-5.157a5.952,5.952,0,0,0-4.642,1.99Z"/><path class="m" d="M219.92,119.609c.96-3.5,4.37-4.482,7.254-4.13-.711,4.027-5.028,4.971-7.254,4.13Z"/><path class="n" d="M119.215,48.723c1.1-.57,2.138.939,2.429,2.108s.523,3.034-.624,3.37-2.311-1.4-2.473-2.4-.477-2.48.668-3.074Z"/><path class="n" d="M132.763,44.82c.873-.316,2.039.578,2.439,1.944s.284,2.829-.679,3.427-2.03-.94-2.414-2.062-.432-2.917.654-3.309Z"/><path class="o" d="M129.054,52.826c1.014,1.066,3.783,2.5,3.847,3.253.09,1.078-1.566,2.393-1.566,2.393m-6.009,9.45c.433-.8,2.944-1.6,4.937-1.324M115.1,47.372c1.453-1.969,3.587-3.537,5.751-2.58m7.749-9.155c1.016-4.013,3.843-3.839,5.471-1"/><path class="h" d="M131.9,80.462c-2.85,1.785-7.678.934-7.678.934l8.735,5.682s-.771-4.136-1.057-6.616Z"/></svg>