<svg xmlns="http://www.w3.org/2000/svg" viewBox="0 0 300 300"><defs><style>.a{fill:#dff3fc;}.a,.b,.c,.d,.e,.f,.g,.h,.i,.j,.k,.l,.m,.q{fill-rule:evenodd;}.b{fill:#c0deed;}.c{fill:#332727;}.d{fill:#888;}.e{fill:#78e8fd;}.f{fill:#e88d95;}.g{fill:#d2416e;}.h{fill:#e78c94;}.i{fill:#df8905;}.j{fill:#2c2c2c;}.k{fill:#464646;}.l{fill:#fcbe30;}.m{fill:#5d5d5d;}.n,.o,.p{fill:none;stroke-linecap:round;stroke-linejoin:round;}.n,.o{stroke:#1a1a1a;}.n{stroke-width:0.548px;}.o,.p{stroke-width:0.669px;}.p{stroke:#3387b7;}.q{fill:#da6771;}</style></defs><title>Reading 2</title><path class="a" d="M107.833,40.54C115.17,20.119,129,8.982,169.019,9.157c26.664.116,49.834.457,55.454,29.811,53.02,8.025,81.962,29.625,66.27,50.383-21.033,27.826-43.949,17.34-43.949,17.34s10.111,17.815-7.886,28.136c-19.649,11.268-65.813-2.518-65.813-2.518s-51.3,10.044-72.578-1.534-6.6-23.908-6.6-23.908-47.667-3.13-39.149-34.211C60.033,53.45,80.846,44.832,107.833,40.54Z"/><path class="b" d="M119.256,262.581c-5.023,1.9-9.265,4.628-3.161,4.761s30.588.666,39.564.86,19.73-.367,15.625-2.462l-6.726-3.434s30.536,3.051,40.406,3.09,26.237-.357,13.142-5.072-33.708-2.55-35.325-16.62-2.031-66.734-1.6-86.8.477-22.042.658-30.377.238-15.556,5.862-19.73L201.27,96.733c3.984-2.956,3.21-3.719-6.166-1.869a131.233,131.233,0,0,0-20.178,6.244A128.452,128.452,0,0,1,174.96,79.6c1.032-11.362,4.338-11.655,6.224-17.258s.252-6.216-4.848-1.381-10.3,12.657-10.3,12.657-5.18-2.194-8.135-5.008-4.478-.213,0,5.3,6.459,8.563,6.579,13.654-3.521,13.589-3.521,13.589-5.243-5.021-11.848-12.732c-5.951-6.949-13.307-19.594-11.7-13.657S140.9,84.378,145,91.724s6.754,13.031,6.754,13.031-9.957-6.026-13.425-7.4c-4.445-1.762-8.3-1.6,6.671,10.176,4.233,3.33,4.105,7.722,4.105,16.046s.281,33.328.281,33.328l-8.032,79.017s-17.08,24.763-22.1,26.659Z"/><path class="c" d="M131.076,173.877c-2.5-.445-7.75-3.674-8.311-8.834s2.519-9.111,5.279-9.1c-.339-3.988,2.722-6.713,6.133-7.351s12.175-.9,16.239.224a16.392,16.392,0,0,1,9.938,8.977,22.391,22.391,0,0,1,1.392,12.1,48.344,48.344,0,0,1-2.14,6.811S162.8,178.4,163,180.93s-1.219,2.934-2.372,2.855a9.613,9.613,0,0,1-3.249-1.584s.15,3.092-.63,4.654-2.907,3.538-4.25.866-18.919-13.4-21.419-13.844Z"/><path class="d" d="M135.867,148.355A10.783,10.783,0,0,1,145,144.307c5.245.1,9.786,4.852,10.4,8.706a30.547,30.547,0,0,1-.512,9.123l-2.972,1.169s.759-6.983-3.544-11.315a13.44,13.44,0,0,0-12.5-3.635Z"/><path class="e" d="M90.149,186.086A110.079,110.079,0,0,1,98.383,203.2a119.089,119.089,0,0,1,11.8,1.877l6.06,2.279a6.455,6.455,0,0,1,5.1-2.632,9.145,9.145,0,0,1,5.1,1.791,76.941,76.941,0,0,0-1.116-12.149,70.826,70.826,0,0,0-3.5-11.216s-2.966-2.282-8.9-1.6-10.71,4.968-10.71,4.968a9.781,9.781,0,0,0-6.322-3.238,6,6,0,0,0-5.748,2.805Z"/><path class="f" d="M115.337,213.076c-.629-1.01-1.583-3.481-.779-3.615s2.146.934,3.523-.584a4.582,4.582,0,0,0,.907-3.706s-.919,1.457-2.842-.077-6.414-6.42-7.536-7.49-2.7-.414-2.478.975c-1.6-.388-3.643-.251-3.943,1.933a10.276,10.276,0,0,0,1.287,5.744,25.06,25.06,0,0,0,4.824,5.589c1.078.764,1.4.227,2.246.72s2.628,3.558,2.628,3.558,2.791-2.038,2.163-3.047Z"/><path class="g" d="M18.146,281.678a56.362,56.362,0,0,0-11.9-.9c-2.323.209-1.343,2.142,2.416,4.13S20.556,289.544,23.2,290.6s3.671-1.4,3.687-3.99-6.026-4.261-8.743-4.927Z"/><path class="h" d="M27.662,279.346c-2.289,1.463-3.084,2.785-4.522,2.891a24.367,24.367,0,0,1-5.247-.566c-1.741-.313-.31,1.982,2.371,3.176s4.355,2.929,5.585,2.488,3.093-3.3,4.315-3.958-.212-5.5-2.5-4.031Z"/><path class="i" d="M136.211,198.418s-7.788,23.228-9.76,26.239-10.719,17.562-13.017,19.84,7.3,3.656,7.3,3.656l13.949-16.6,1.532-33.139Z"/><path class="j" d="M44.55,269.018c4.118-7.635,19.682-24.25,27.18-30.278s12.941-5.634,24.083-2.041l26.886,8.67S40.434,276.653,44.55,269.018Z"/><path class="k" d="M128.122,234.092l-9.349,10.953s-18.017-2.3-28.624-.356-23.678,8.887-39.538,17.621a226.908,226.908,0,0,0-24.762,15.446l4.162,9.137s31.928-13.2,41.781-16.707,14.316-1.558,26.974,1.437,32.167,4.635,41.573-1.5,11.24-21.6,9.406-32.081-20.329-5.461-21.623-3.945Z"/><path class="i" d="M159.8,216.123c-1.084,4.4-8.968,20.629-9.417,21.422s-1.027.334-3.511-.691l-6.753-2.785c-.363-.151-11.065-8.676-11.065-8.676s8.483,2.665,8.769.514a46.591,46.591,0,0,0,5.413-7.161s17.646-7.021,16.564-2.623Z"/><path class="l" d="M152.255,194.458c4.054.25,9.716,2.985,10.386,9.244s-2.521,14.75-9.761,21.045-15.6,15.378-19.469,15.539-7.792-3-10.712-6.035-11.274-17.046-11.274-17.046l4.064-5.3s4.146,4.188,7.21,7.724a18.323,18.323,0,0,0,6.7,4.932l.141-.5s.6-2.233,1.626-6.847c.72-3.239,3.943-15.728,5.045-18.8s3.078-4.8,8.09-4.449,3.9.24,7.954.489Z"/><path class="f" d="M131.326,175.734c1.343,4.209,3.094,9.241,6.755,12.414s6.937,2.347,6.937,2.347l-.432,3.492s-.905,2.787,1.867,3.085,5.941-2.6,5.941-2.6l.1-6.747a14.143,14.143,0,0,1-.378-6.483,19.811,19.811,0,0,1,2.362-5.826l-2.333-6.354a8.085,8.085,0,0,1-5.734-4.405c-2.046-3.961-1.34-6.857-1.34-6.857a26.756,26.756,0,0,1-7.009,6.6,35.589,35.589,0,0,1-8.523,3.472,67.338,67.338,0,0,0,1.786,7.865Z"/><path class="m" d="M152.936,160.888c-1.438.058-3.173,2.674-3.189,5.33s.177,5,1.394,7.132,2.921,2.8,4.12,2.71.843-14.5-.182-14.975a4.771,4.771,0,0,0-2.143-.2Z"/><path class="d" d="M154.943,160.834c-1.159.034-2.005,1.915-2.351,4.168a18.806,18.806,0,0,0,.288,6.979c.532,2.056,1.511,4.087,2.7,4.087s2.919-3.178,3.228-4.989a14.008,14.008,0,0,0-.421-6.02c-.567-1.754-2.191-4.261-3.443-4.225Z"/><path class="c" d="M134.282,173.351a1.311,1.311,0,0,1,1.651,1.014c.276.866.544,1.9-.232,2.122s-1.246-.644-1.571-1.257-.329-1.669.152-1.879Z"/><path class="c" d="M139.68,171.625a1.255,1.255,0,0,1,1.587.884c.28.765.4,1.928-.133,2.2s-1.365-.272-1.72-1.146-.208-1.7.266-1.94Z"/><path class="n" d="M138,176.466a30.426,30.426,0,0,1-.173,3.7c-.024.687,1.093.818,2.3.469"/><path class="o" d="M141.175,185.869a3.672,3.672,0,0,0,4.121-2.062m-13.12-12.721a2.1,2.1,0,0,1,2.5-.7m3.369-.858c.507-1.086,2.165-1.538,3.666-.849"/><path class="i" d="M129.455,224.715c1.608.908,3.324,1.894,4.111,1.909s10.468-14.344,11.73-18.238c-3.79,5.287-10.133,13.613-12.578,15.173s-1.776.986-3.263,1.156Z"/><path class="p" d="M102.129,187.212c1.461,1.824,2.913,7.018,3.249,9.86"/><path class="q" d="M145.018,190.5a11.174,11.174,0,0,0,4.307-1.832c.736-.691-4.739,5.324-4.739,5.324s.318-2.507.432-3.492Z"/></svg>