<svg xmlns="http://www.w3.org/2000/svg" viewBox="0 0 300 300"><defs><style>.a,.b,.c,.d,.e,.f,.g,.h,.j,.l,.m,.n,.o,.p,.q,.r,.s,.t,.u,.v{fill-rule:evenodd;}.b{fill:#8b8b8b;}.c{fill:#fcbe30;}.d{fill:#37a4b9;}.e{fill:#78e8fd;}.f{fill:#e88d95;}.g{fill:#c89457;}.h{fill:#fff;}.i,.k{fill:none;stroke-linecap:round;stroke-linejoin:round;}.i{stroke:#d1d1d1;stroke-width:1.621px;}.j{fill:#d2416e;}.k{stroke:#1a1a1a;stroke-width:1.587px;}.l{fill:#00092f;}.m{fill:#df8905;}.n{fill:#1254ff;}.o{fill:#223ec4;}.p{fill:#616161;}.q{fill:#34c79c;}.r{fill:#31ffc0;}.s{fill:#33c79c;}.t{fill:#da6771;}.u{fill:#494949;}.v{fill:#8e5e25;}</style></defs><title>Team_1</title><path class="a" d="M119.989,283.439c-2.127,2.213-4.914,7.093-8.18,8.513s-1.714,2.848,1.057,2.754,11.319-.993,13.558-2.206,1.468,1.143,3.416,1.143,2.117-3.261,1.953-6.152a5.489,5.489,0,0,0-1.608-4.014s-8.069-2.25-10.2-.038Z"/><path class="a" d="M263.575,243.9c1.814,1.888,4.192,6.05,6.979,7.261s1.462,2.432-.9,2.351S261.168,252.6,259,252.6h-3.824c-1.663,0-1.807-2.783-1.667-5.249a4.689,4.689,0,0,1,1.372-3.424s6.884-1.921,8.7-.032Z"/><path class="a" d="M204.522,244.3c-1.556,1.889-3.594,6.052-5.984,7.263s-1.254,2.43.773,2.349,7.275-.907,9.138-.907h3.28c1.425,0,1.549-2.781,1.429-5.248a5.037,5.037,0,0,0-1.177-3.425s-5.9-1.919-7.459-.032Z"/><path class="b" d="M77.02,244.64c-1.674,1.744-3.868,5.585-6.439,6.7s-1.35,2.244.832,2.169,8.912-.782,10.676-1.736,1.155.9,2.689.9,1.667-2.569,1.538-4.845a4.326,4.326,0,0,0-1.267-3.161S78.7,242.9,77.02,244.64Z"/><path class="a" d="M179.214,282.065c1.329,3.267,3.424,6.96,5.783,8.654,1.68,1.206,2.387,4,.238,4.11-10.191.514-10.373-.257-12.456-.652s-1.54.493-3.089.533-2.36-1.509-1.286-6.047,6.334-6.6,6.334-6.6,1.976-6.153,4.476,0Z"/><path class="c" d="M214.562,62.421a14.055,14.055,0,0,1-1.146-7.44,12.286,12.286,0,0,1,2.278-4.784,8.39,8.39,0,0,1-.447-4.779,9.72,9.72,0,0,1,5.895-6.778A25.121,25.121,0,0,1,233.258,36.8a20.959,20.959,0,0,1,10.272,4.375c2.238,1.763,4.2,3.126,7.312,2.445s3.116-1.729,3.116-1.729a11.79,11.79,0,0,1-.832,6.1,20.129,20.129,0,0,1-4.509,5.7,9.491,9.491,0,0,1,1.608,3.874,22.147,22.147,0,0,1,.011,4.664s-3.937,6.752-16.978,6.119-17.763-3.95-18.7-5.931Z"/><path class="d" d="M211.193,133.494c-.117,2.115-.136,3.749-.3,5.407s-.349,3.547-.349,3.547a75.146,75.146,0,0,0,8.51.519c4.483,0,9.987-.755,14.2-.934s13.992.143,13.992.143V131.357s-35.941.023-36.057,2.137Z"/><path class="e" d="M204.231,103.978c1.691-3.018,4.156-6.184,8-7.681a41.143,41.143,0,0,1,13.64-2.836,31.262,31.262,0,0,1,9.436,1.252,37.023,37.023,0,0,1,10.905,4.751c3.273,2.242,5.149,4.328,7.844,9.395l6.192,11.643s-4.093,3.36-6.192,4.845l-5.822,4.118-29.717.775-7.32-1.9.167-5.7s-3.372-2.872-5.932-4.875-2.892-10.773-1.2-13.792Z"/><path class="f" d="M215.6,74.4a19.494,19.494,0,0,0,3.5,9.49c2.258,2.881,4.4,4.74,6.771,5.7v3.876s.8,3.99,3.96,4.253,5.476-3,5.476-3l.215-4.24a14.241,14.241,0,0,0,5.393-2.144,19.027,19.027,0,0,0,5.219-6.682,25.152,25.152,0,0,0,2.585-6.569,9.915,9.915,0,0,0,.273-2.815A5.953,5.953,0,0,0,253.27,69.4a4.936,4.936,0,0,0-1-6.255c-1.579-1.419-4.976-1.051-4.976-1.051a35.241,35.241,0,0,0-.924-3.752,14.069,14.069,0,0,0-1.539-2.983,31.1,31.1,0,0,1-7.577,1.916,44.464,44.464,0,0,1-11.28-.6,23.631,23.631,0,0,1-7.287-2.976,26.933,26.933,0,0,0-.968,4.619c-.192,2.113-.327,3.614-.327,3.614a4.064,4.064,0,0,0-3.706.972,4.334,4.334,0,0,0-.421,5.287,6.066,6.066,0,0,0,2.209,1.452s-.043,2.557.125,4.756Z"/><path class="f" d="M258.775,121.506c1.445,2.039,2.071,4.108,3.083,4.35s1.836-.6,3.732-2.806,5.765-6.318,8.452-9.127l4.639-4.846s-3.925-3.074-3.717-6.71.943-5.071,2.16-5.637,1.741.252,1.741.252a6.348,6.348,0,0,1,3.321-2c2.081-.45,4.425.989,5.81,3.257s2.632,4.071,2.015,6.721-2.674,4.106-4.041,5.5a3.958,3.958,0,0,1-2.529,1.391,68.791,68.791,0,0,1-2.943,8.079,84.107,84.107,0,0,1-7.55,13.284c-3.106,4.2-6.644,8.937-9.309,10.44s-5.949.46-8.144-1.954a85.214,85.214,0,0,1-6.95-9.034,13.342,13.342,0,0,1-1.295-5.193s10.079-8,11.525-5.964Z"/><path class="g" d="M210.894,142.529c-1.706,3.466-3.511,6.176-4.168,8.474a94.43,94.43,0,0,0-2.284,18.24c-.1,7.1-.237,16.581-.318,22.269s-.938,53.546-.938,53.546H213.3s10.458-56.765,11.539-62.251,2.358-11.971,2.911-14.778.489-3.09.6-3.041c3.063,1.345,7.078,11.564,12.847,27.484,4.137,11.413,12.2,52.586,12.2,52.586h11.867s-3.68-48.923-5.013-58.077-11.295-38.674-11.6-39.529c-.7-1.963-1.888-5.291-1.888-5.291s-34.161-3.1-35.865.368Z"/><path class="h" d="M217.455,109.294c-1.657.648-6.327,2.554-6.327,2.554l2.17,5.077c1.153,2.7,2.858,5.6,3.578,8.376a46.655,46.655,0,0,0,4.1,9.251c1.3,2.434,2.493,5.856,3.45,7.485s2.374,4.795,2.374,4.795,1.606-.856,3.21-1.891a26.584,26.584,0,0,1,3.251-1.762s-15.391-34.046-15.8-33.885Z"/><path class="i" d="M215,111.691c1.335,4.918,11.426,26.535,13.348,31.276"/><path class="j" d="M217.455,109.294s.9,2.607,2.147,5.778,2.959,6.01,3.936,9.272,3.478,7.679,5.36,11.173,4.36,7.662,4.36,7.662l5.759-2.7c2.832-1.327,4.334-2.224,7.54-3.871l6.837-3.51s-.575-1.528-2.078-5.035c-1.552-3.625-2.209-4.585-2.863-6.686s-4.361-8.263-5.492-10.919-4.642-10.072-4.642-10.072-1.772.789-5.061,2.249c-3.621,1.609-5.212,2.065-8.787,3.617l-7.016,3.043Z"/><path class="f" d="M197.47,126.7a7,7,0,0,0-1.18,5.14,7.532,7.532,0,0,0,4.938,5.572c3.251,1.338,6.2.816,9.136,0s8.734-3.552,12.416-5.049l14.5-5.894a7.712,7.712,0,0,0,3.621.888,13.767,13.767,0,0,0,4.8-.865,11.984,11.984,0,0,0,4.29-3.175c1.111-1.2.963-2.631.78-4.676s-2.475-3.834-2.475-3.834.159-2.3-1.048-3.324a6.182,6.182,0,0,0-3.41-1.026,9.357,9.357,0,0,1-1.758,2.359l-1.711,1.378s.313-3.737-1.754-3.737-2.27,1.124-2.563,2.359-1.372,2.924-1.875,4.413a12.443,12.443,0,0,0-.5,3.38,46.275,46.275,0,0,1-9.5,1.931,82.4,82.4,0,0,1-9.63.223c-1.987-.015-3.181-.118-3.181-.118l-6.659-5.709s-6.23,8-7.235,9.764Z"/><path class="a" d="M227.234,63.061a1.047,1.047,0,0,0-1,.231,1.677,1.677,0,0,0-.451.781,4.479,4.479,0,0,0-.086,2.662c.11.335.264.656.593.75a1.894,1.894,0,0,0,1.031.04,1.363,1.363,0,0,0,.475-.406,3.08,3.08,0,0,0,.211-3.158c-.049-.066-.315-.718-.775-.9Z"/><path class="a" d="M238.889,63.2c-.372.03-.8.613-1,.982a3.077,3.077,0,0,0-.235,1.228,2.724,2.724,0,0,0,.133.923,2.642,2.642,0,0,0,.25.666,2.1,2.1,0,0,0,.324.46c.645.69,1.2.114,1.648-.546A2.927,2.927,0,0,0,240.124,64a1.816,1.816,0,0,0-1.235-.794Z"/><path class="k" d="M232.645,69.58c.022.042-.049-.131-.049-.072,0,.189.387.657.469.806.481.872,1.856,2.5,1.371,3.632-.264.616-1.361,1.278-1.892,1.618m-5.568,3.949c.078.01.063.147.111.209.119.158.239.315.363.469a11.347,11.347,0,0,0,1.621,1.592,5.836,5.836,0,0,0,5.137.877"/><path class="l" d="M92.643,45.784c-.494-2.428-.677-5.1.42-7.224A9.133,9.133,0,0,1,98.5,33.984a9.037,9.037,0,0,1,6.753.729c2.023,1.054,2.932,2.645,3.685,4.88s.284,6.049.284,6.049-16.083,2.572-16.577.142Z"/><path class="c" d="M97.27,44.3c-.53,1.725-.963-4,.217-5.275a5.011,5.011,0,0,1,4.089-1.671,4.7,4.7,0,0,1,3.626,1.928c.785.949,1.366,3.619.74,4.758s-8.594,0-8.672.26Z"/><path class="l" d="M87.787,81.411c-2.742-2.251-4.044-6.905-4.682-10.2a38.169,38.169,0,0,1-.294-12.673c.74-4.549,3.149-9.356,6.613-11.669s7.183-4.265,11.056-4.265,6.838.138,10.192,1.954,7.267,4.245,9.316,7.506a18.383,18.383,0,0,1,3.2,8.62,39.945,39.945,0,0,1-.41,10.163A21.99,21.99,0,0,1,117.5,81.481c-2.752,2.953-26.969,2.182-29.713-.07Z"/><path class="c" d="M89.97,98.737c-2.251,1.1-5.6,2.265-8.493,5.27s-4.118,5.322-6.018,8.844-7.488,13.875-7.488,13.875,2.809,2.582,5.264,4.918l4.746,4.513c1.175,1.117,2.152,2.048,2.152,2.048a10.32,10.32,0,0,0,2.678-2.048l4.561-4.089s.673,2.972,1.008,4.089a3.669,3.669,0,0,0,3.873,2.085c2.008-.157,8.1.362,11.766.2s7.446-.323,11.134-.485,4.634-.685,5.759-.685,3.138-2.64,3.243-4.484.245-4.279.245-4.279l3.381.722,5.13-23.852s-3.015-2.164-6.3-4.564-4.25-2.334-6.722-3.166a28.053,28.053,0,0,0-3.968-.884s-23.67.857-25.953,1.97Z"/><path class="m" d="M124.4,128.511c-.244-3.915-1.406-15.182-1.406-15.182l3.648,15.66-2.242-.478Z"/><path class="m" d="M87.372,132.068c-.562-3.321-2.818-16.856-2.818-16.856l.685,18.768,2.133-1.912Z"/><path class="f" d="M118.322,78.794c-.76,3.075-2.49,7.307-4.68,9.25a13.4,13.4,0,0,1-5.021,3.155l-2.174.774.218,3.949a23.678,23.678,0,0,1,4.36.253c3.186.384,4.9.592,4.9.592a13.029,13.029,0,0,1-3.889,4.05c-2.258,1.307-5.035,2.829-8.6,2.829a22.51,22.51,0,0,1-7.163-.805,12.988,12.988,0,0,1-4.4-2.024,5.138,5.138,0,0,1-1.9-2.08s2.124-.9,3.7-1.361,2.5-.847,3.312-.977l1.083-.171.379-3.935a16.7,16.7,0,0,1-3.5-1.094,10.041,10.041,0,0,1-4.475-4.082,26.807,26.807,0,0,1-2.776-5.488,42.372,42.372,0,0,1-1.552-6.215c-.173-1.1-.4-2.561-.4-2.561a3.093,3.093,0,0,1-2.926-3.3c-.092-3.24,2.435-3.348,2.435-3.348l.952-2.545a20,20,0,0,0,5.717.619,26.664,26.664,0,0,0,9.308-2.029A39.453,39.453,0,0,0,110.15,57.2,27.211,27.211,0,0,0,114.9,53.03a36.465,36.465,0,0,1,2.542,5.427c.713,2.228,1.933,6.049,1.933,6.049s3.29-.035,3.407,4.268c.1,3.685-3.618,4.105-3.618,4.105a35,35,0,0,1-.838,5.915Z"/><path class="f" d="M68.1,126.78c-.974,1.729-1.99,4.247-2.733,4.855s-1.132,1.113-2.7-.131a46.639,46.639,0,0,0-7.253-4.288l-4.446-2.023a7.774,7.774,0,0,0,.335-2.306c-.07-.983.086-2.5-3.362-2.167s-6.06.124-8.957.182-5.321-.02-4.14,1.062a11.094,11.094,0,0,0,4.859,2.142l3.383.623a10.478,10.478,0,0,1,2.822,2.159l8.487,8.584c2.587,2.616,7.524,9.091,10.549,10.669a6.992,6.992,0,0,0,8.435-.831,63.344,63.344,0,0,0,6.752-7.1S69.076,125.05,68.1,126.78Z"/><path class="b" d="M90.831,137.716a2.726,2.726,0,0,0-.852,2.643c.261,1.1,1.42,2.057,4.5,2l10.421-.2c4.467-.088,7.574.287,10.965-.215s6.366-.379,6.917-1.919a3.918,3.918,0,0,0-.744-3.86c-.69-.64-30.666,1.283-31.2,1.559Z"/><path class="n" d="M122.629,140.569a94.514,94.514,0,0,1,4.8,8.179c2.063,4.124,3.075,11.2,3.626,17.952.671,8.227,2.643,34.872,3.038,41.9.32,5.728-9.27,30.8-9.27,30.8s-4.037-23.006-5.332-27.641-2.975-16.633-5.253-24.046c-2.18-7.095-2.766-10.1-4.4-14.319s-1.844-4.761-2.327-6c-.522-1.347-3.517,7.123-7.828,23.706-5.909,22.727-13.714,53.963-13.714,53.963l-9.6-.333s1.452-30.2,4.476-54.775c2.383-19.382,4.62-37.133,4.992-38.634a30.337,30.337,0,0,1,2.71-7.168,8.638,8.638,0,0,1,2.1-2.714s30.851-2.808,31.988-.865Z"/><path class="o" d="M107.437,167.279c-.865-2.46-.431-1.828-.981-2.793-.456-.794-3.5-1.589-3.5-1.589s1.188,3.051-.486,10.973c-1.6,7.569-5.421,27.415-5.421,27.415s8.922-31.435,10.391-34.006Z"/><path class="b" d="M10.528,95.709c1.153,2.177,3.785,8.093,5.072,11.382s3.568,6.833,4.676,9.257,1.3,2.846,1.74,3.814,2.091.968,4.235.968H57.337c1.736,0,1.664-2.378.258-5.116a133.314,133.314,0,0,1-5.335-12.8l-3.4-9.619c-.848-2.4-1.643-2.4-4.2-2.4s-11.27.79-15.587.964l-17.757.715c-1.651.068-1.949.633-.786,2.831Z"/><path class="p" d="M57.2,121.177c1.74-.009,4.675-.058,6.4-.033l5.432.076c1.43.021,1.942-.09,3.253-.09a2.363,2.363,0,0,0,2.265-2.359c0-1.163-.538-1.163-2.33-1.163H58.278c-.941,0-2.818,3.578-1.078,3.569Z"/><path class="h" d="M31.893,106.109c-.836-.556-1.551-1.26-2.629-.16s-1.058,2.325-.054,3.847,1.659,2.353,2.477,2.323a3.321,3.321,0,0,0,1.671-.764,6.966,6.966,0,0,1,1.622.083c.443.145,1.513-.833,1.823-1.731s-.131-1.754-.587-2.942-.273-2.473-1.98-2.288-1.508,2.189-2.343,1.632Z"/><path class="h" d="M31.521,102.125a2.34,2.34,0,0,1,.108-2.664c.633-1,2.607-.968,2.607-.7v1.451c0,.513-.666,1.913-1.1,1.913s-1.139,1.1-1.614,0Z"/><path class="a" d="M96.114,66.987s-.245,1.647-.274,1.91a2.527,2.527,0,0,0,.378,1.74,1.325,1.325,0,0,0,1.867.147,3.235,3.235,0,0,0,.609-2.874,2.91,2.91,0,0,0-.42-1.362,1.509,1.509,0,0,0-1.887-.169,1.231,1.231,0,0,0-.273.608Z"/><path class="a" d="M107.162,66.254a2.806,2.806,0,0,0-.629,1.793c0,.316-.034.629-.02.946.045,1.008.4,2.291,1.663,2.09a1.183,1.183,0,0,0,.413-.119,1.641,1.641,0,0,0,.642-.966,4.127,4.127,0,0,0-.095-3,1.532,1.532,0,0,0-1.974-.742Z"/><path class="k" d="M103.041,73.727c.123.017.049.244.1.356.177.4.33.81.505,1.213.279.649,1.047,2.229.148,2.781a3.569,3.569,0,0,1-1.325.224M98.323,82.08c-.251-.113.3.394.355.44a7,7,0,0,0,.84.634,5.709,5.709,0,0,0,3.435.821"/><path class="a" d="M136.374,26.143c-2.4,5.769-3.027,11.843-1.29,19.816s3.921,12.609,4.155,19.053a30.441,30.441,0,0,1-1.315,10.651s5.568,5.323,11.846,4.5,13.306-4.483,13.306-4.483l10.16.57a21.172,21.172,0,0,0,10.458,2.525,31.842,31.842,0,0,0,11.3-2.769s-4.353-5.86-3.679-10.061,5.47-12.167,7.115-18.851.592-17.833-3.841-24.656a17.15,17.15,0,0,0-12.153-7.391A16.3,16.3,0,0,0,170.26,5.685c-9.354-1.789-12.917.3-16.571,1.974s-7.895,8.5-7.895,8.5a19.907,19.907,0,0,0-9.42,9.981Z"/><path class="q" d="M144.623,136.22c.189,2.308.491,5.986.491,5.986s6.658-.043,14.9-.043,11.264-1.01,18.69-1.343l11.35-.509,2.762-6.49s-25.1-9.029-26.185-9.718-22.2,9.81-22,12.117Z"/><path class="r" d="M161.519,79.44c-3.433.124-10.278.6-13.431,1.757a27.626,27.626,0,0,0-10.79,6.808c-3.706,3.834-5.577,7.7-7.272,12.368a134.774,134.774,0,0,0-5.616,19.659c-1.067,6.232-1.367,10.918.4,14.164s5.918,6.035,13.213,4.888,8.527-1.635,11.812-2.783,13.443-6.308,13.443-6.308,8.673,3.3,12.977,3.922,12.217.412,18.313-.274,9.432-1.854,12.016-4.194,2.853-6.336,3.087-8.913-.626-11-1.507-16.464a47.237,47.237,0,0,0-4.428-12.716c-1.279-2.768-5.3-5.933-9.228-7.764a44.252,44.252,0,0,0-13.181-3.6,28.252,28.252,0,0,0-6.472-.007s-9.9-.671-13.335-.545Z"/><path class="f" d="M144.636,28.84a64.284,64.284,0,0,0-1.259,8.578s-2.861,1.15-2.707,5.206A6.015,6.015,0,0,0,144.109,48a54.486,54.486,0,0,0,1.287,7.434c.891,3.349,3.232,9.082,6.105,11.7a23.515,23.515,0,0,0,6.722,4.6c2.095.963,2.912,1.341,2.912,1.341s-.027.522-.151,2.895c-.111,2.126-.183,3.49-.183,3.49a28.933,28.933,0,0,0,2.441,5.431c1.455,2.361,4.2,6.559,4.2,6.559l4.2-5.466a30.2,30.2,0,0,0,2.93-6.027V72.7a17.857,17.857,0,0,0,3.579-2.225,28.7,28.7,0,0,0,6.555-7.362c1.637-2.712,2.538-7.393,2.6-10.249s.108-4.847.108-4.847,4.176-1.44,4.745-5.389-2.832-6.473-2.832-6.473a30.808,30.808,0,0,1-6.914,1.458,20.659,20.659,0,0,1-9.011-2.633,18.237,18.237,0,0,1-4.172-3.741,14.144,14.144,0,0,1-5.058,1.441,22.415,22.415,0,0,1-7.951-1.769,16.258,16.258,0,0,1-6.276-5.151L147.5,21.974a26.729,26.729,0,0,0-2.859,6.866Z"/><path class="s" d="M196.713,115.01c-.6-5.023-5.945-18.435-5.945-18.435l1.458,17.514s5.085,5.945,4.487.921Z"/><path class="s" d="M163.357,129.9c4.345-2.388,20.93-14.837,20.93-14.837s3-2.134,4.72-2.118c1.93.02,6.858,2.232,6.858,2.232l.313,1.832s-3.952-.526-9.958,1.8c-9.541,3.7-20.7,12-20.7,12s-6.5,1.479-2.159-.91Z"/><path class="f" d="M181.013,108.3c2.041-.987,3.432-3.639,6.215-4s4.845,1.756,6.67,3.925,2.948,7.028,2.948,7.028-9.171-.738-12.559-.186l-3.274-6.766Z"/><path class="s" d="M143.742,114.089c1.332-5.925,3.463-15.459,3.734-16.612s1.131,17.774,1.131,17.774-6.2,4.763-4.865-1.162Z"/><path class="f" d="M151.939,115.659c-2.7-2.372-6.411-4.908-8.918-4.584s-2.079,1.857-3.131,2.084a23.177,23.177,0,0,1-2.7,0c-.951.118-.615.264-2.509,2.088s-3.51,3.076-3.249,4.673.524,4.882,2.632,4.146,5.547-1.467,6.366-3.17l1.3-2.7s1.611-.437,4.472-1.018a29.005,29.005,0,0,0,5.737-1.52Z"/><path class="b" d="M145.928,142.295a55.117,55.117,0,0,0-5,9.8c-.889,2.179-5.459,25.61-10.189,50.573-5.7,30.1-11.639,81.272-11.639,81.272l12.31.32s22.052-61.734,28.059-79.172c2.9-8.409,7.98-25.463,7.98-25.463s-.231,2.456-.231,20.022,1.5,35.254,1.5,42.883.885,43.313.885,43.313l11.411-.585s7.493-39.4,9.755-51.3c2.443-12.84,4.985-23.688,6.982-36.71a186.872,186.872,0,0,0,2-30.486A46.482,46.482,0,0,0,195.61,148a25.405,25.405,0,0,0-5.559-7.689s-43.3,2-44.123,1.984Z"/><path class="a" d="M155.375,41.038s-.185,1.035-.185,1.1v.55c0,.5-.056,1-.03,1.5.077,1.444,1.451,3.67,3.155,2.6a2.217,2.217,0,0,0,.888-1.624c.293-1.337.492-3.378-.275-4.626-.86-1.395-3.027-.824-3.553.491Z"/><path class="k" d="M167.187,48.159c-.009.61.7,1.3,1.077,1.837.19.271.5.757.691,1.05.137.213.323.49.442.719.734,1.4-.66,2.055-1.658,2.818m-4.5,6.623c.084-.044.634.413.784.533a5.891,5.891,0,0,0,2.873,1.412c2.144.317,3.41-.88,4.746-2.094"/><path class="a" d="M171.377,41.587a10.11,10.11,0,0,0,.232,4.014,3.092,3.092,0,0,0,.308.981,1.588,1.588,0,0,0,.458.4c1.484.944,2.51-.961,2.727-2.328.26-1.655.246-3.059-.818-4.318a1.705,1.705,0,0,0-2.631.379l-.276.874Z"/><path class="t" d="M161.209,73.111a39.688,39.688,0,0,0,7.244.949,9.206,9.206,0,0,0,3.192-.532L160.8,79.469s.294-4.577.408-6.358Z"/><path class="t" d="M98.447,92.293a16.4,16.4,0,0,0,5.694.094c-1.345,1.345-5.989,2.971-5.989,2.971s.171-1.78.3-3.065Z"/><path class="t" d="M225.914,89.6a24.558,24.558,0,0,0,6.673.79,45.287,45.287,0,0,1-6.716,3.076s0-2.662.043-3.866Z"/><path class="u" d="M167.444,179.629c.168-4.709.826-11.1.718-12.942s-4.92-2.992-4.92-2.992.164.513.7,2.165-12.72,62.716-12.72,62.716,5.4-14.88,9.879-28.4c3.511-10.59,6.348-20.544,6.348-20.544Z"/><path class="v" d="M228.347,164.988c.68-3.45,1.078-5.668,2.719-6.464l3.472-1.684s-.868.362-1.994,2.5,2.153,13.146,3.927,20.472c-4.486-10.217-6.1-12.893-8.124-14.824Z"/></svg>