<svg xmlns="http://www.w3.org/2000/svg" viewBox="0 0 300 300"><defs><style>.a{fill:#00092f;}.a,.b,.c,.d,.e,.f,.g,.h,.i{fill-rule:evenodd;}.b{fill:#e88d95;}.c{fill:#8b8b8b;}.d{fill:#37a4b9;}.e{fill:#da6771;}.f{fill:#332727;}.g{fill:#df8905;}.h{fill:#fcbe30;}.i{fill:#78e8fd;}.j,.k{fill:none;stroke-linecap:round;stroke-linejoin:round;}.j{stroke:#1a1a1a;stroke-width:1.587px;}.k{stroke:#5368bd;stroke-width:1.625px;}</style></defs><title>Traveling_1</title><path class="a" d="M72.835,89.922C61.279,87.863,54.186,84.246,47.02,77.3S33.028,53.321,37.863,36.051,52.539,8.532,66.335,5.608,91.706,10.962,95.96,16.257a63.907,63.907,0,0,1,10.124,19.114c2.609,7.427,11.467,6.817,18.359,6.922s19.16.554,30.755,7.89,18.078,14.962,19.524,24.51-3.748,19.3-8.432,24.9-13.825,15.488-20.027,18.172-17.936,7.478-27.529,9.32S84.2,91.948,72.835,89.922Z"/><path class="b" d="M47,45.159C48.554,51.445,53,57.523,53,57.523a17.5,17.5,0,0,1,2.483,5.731,38.129,38.129,0,0,1,1.075,6.274l4.035-1.971s3.008,2.325,8.874,2.675a25.816,25.816,0,0,0,10.153-1.363l3.53,5.824,9.188-8.417-3.058-5.765a47.619,47.619,0,0,0,.324-9.984A28.29,28.29,0,0,0,86.217,40.34S80.636,45.172,75.858,47A40.654,40.654,0,0,1,58.8,49.249,24.977,24.977,0,0,1,47,45.159Z"/><path class="c" d="M29.943,94.607c-1.974-2.036-5.732-5.742-6.97-7.185s-2.513-2.394-.552-4.273,1.836-1.762,2.62-2.514,1.932-.624,3.821,1.62,7.876,9.606,9.383,11.146L44.6,99.9l-3.211,3.691s-9.473-6.946-11.447-8.981Z"/><path class="b" d="M43.532,107.4c-1.43-1.046-2.629-2.341-3.56-2.605s-1.407.459-2.57,1.474-2.076,1.1-3.358-.067a22.608,22.608,0,0,1-4.273-5.45,7.289,7.289,0,0,1-.828-4.7c.215-1.9.783-3.65,3.018-3.862S34.989,93.679,36.239,95A4.865,4.865,0,0,1,37.3,98.4s2.765,2.632,3.3,3.122,1.783-.369,2.513-1.277-.649-2.539-2.071-3.99l-2.8-2.857A4.309,4.309,0,0,1,43.2,94.51a6.2,6.2,0,0,1,1.435,6.773c-.6,1.662-.156,2.339,1.1,3.26s-.775,3.906-2.205,2.859Z"/><path class="d" d="M76.576,82.459c-2.927,3.543-4.746,8.37-6.3,13.23a131.887,131.887,0,0,0-3.177,13.561c-.607,2.911-1.87,2.822-4.175,1.955s-5.132-1.477-8.391-3.158A64.991,64.991,0,0,1,47,103.414c-.865-.66-1.442-.139-2.257.887s-2.389,3.013-2.969,3.746a1.753,1.753,0,0,0,.419,2.552c.953.737,11.609,8.267,14.769,10.55s9.616,5.8,11.164,7.092,4.5.455,7.066-1.77l4.3-3.727s.017-43.828-2.909-40.285Z"/><path class="e" d="M79.621,68.869c2.126-1.289,4.768-3.114,5.861-5.122A27.475,27.475,0,0,1,83.071,74.56l-3.45-5.691Z"/><path class="b" d="M148.848,131.873c.684,1.044,1.972,3.017,1.972,3.017s.77-.461,1.418-.913,1.217-.332,2.192.715l4.549,4.893c.421.453.933.924-.159,2.523a7.889,7.889,0,0,1-2.372,2.313s-2.5-3.641-3.8-3.036a13.946,13.946,0,0,0-3.2,2.969s-1.219,2.252-2.59.593-3.273-5.4-1.235-6.157,1.888-1.417,1.888-1.417l-2.652-3.046s3.3-3.5,3.987-2.454Z"/><path class="f" d="M54.439,278.843c-2.316,2.017-5.253,4.987-7.17,6.246s-2.553,2.466-1.139,2.944,6.911-.13,9.07-.924,2.061,1.148,3.65,1.369,2.2-1.673,2.52-3.939-1.48-5.687-1.48-5.687-3.135-2.026-5.451-.009Z"/><path class="f" d="M127.62,258.6c.124,2.366.61,8.431.57,10.921s1.635,2.065,2.461.581,4.948-7.825,4.984-7.888a3.536,3.536,0,0,0,2.611-.224c.821-.489.209-2.191-1.072-3.536a25.4,25.4,0,0,0-5.011-3.212s-4.666.994-4.543,3.358Z"/><path class="g" d="M115.612,162.964c-.911,5.547-2.424,15.057-3.637,22.12s-2.33,13.551-2.33,13.551,2.371,5.424,5.779,13.841,4.5,14.245,7.66,22.225,10.322,19.537,10.322,19.537l-7.109,5.753s-2.315-2.506-5.381-6.163L98.935,227.609c-8.8-10.5-14.2-18.3-18.688-22.289s36.277-47.9,35.365-42.356Z"/><path class="h" d="M80.487,131.7c-1.253,4.487-6.049,16.75-9.521,25.189S59.3,180.856,57.008,185.755s-2.609,6.037-2.729,10.484-1.417,13.769-1.86,20.082-.747,21.612-.885,29.137-.493,27-.536,29.365-.756,4.087,1.968,4.325l10.368.9s1.581-6.034,2.684-11.407,5.038-17.134,7.391-27.074,9.14-34.335,10.069-37.84,1.745-4.8,4.592-7.771,25.176-27.934,29.4-33.479,8.013-13.486,8.186-19.295a41.574,41.574,0,0,0-4.406-18.663,27.083,27.083,0,0,0-6.266-7.786S81.74,127.211,80.487,131.7Z"/><path class="i" d="M78.007,129.36c.093-3.311-.046-15.143-.431-18.424s-.9-7.647-1.547-13.205.109-10.5.065-12.557a6.885,6.885,0,0,1,2.247-5.691A211.189,211.189,0,0,1,95.525,62.97c7.555-6.319,13.914-9.036,17.572-8.959s4.594,1.647,4.82,3.506-2.431,4.348-2.431,4.348,2.86.6,2.68,4.21-3.935,8.618-3.935,8.618S125.04,86.852,130.542,96.2l18.215,30.948c1,1.7,1.553,3.361-.668,5.245l-3.764,3.19c-.953.809-1.506-.23-3.018-1.522s-12.065-13.81-14.582-16.268l-4.995-4.877s-1.053.682-4.436,2.554-13.466,7.414-21.622,10.4-11.73,4.852-13.958,5.809-3.78.3-3.707-2.318Z"/><path class="c" d="M232.391,281.816c1.126,1.724,4.681,8.1,4.681,8.1s7.6-2.926,8.128-3.772-.357-9.92-.357-9.92-13.579,3.869-12.452,5.593Z"/><path class="c" d="M172.806,184.113c-2-3.33-7.651-13.1-12.5-20.849s-8.515-14.9-10.675-17.708-1.561-4.013,0-4.84,1.94-1.636,4.378,1.034,3.192,4.389,5.464,8.333L172.6,172.866l4.815,8.36"/><path class="a" d="M232.431,282.01c-3.175-4.739-10.582-19.053-17.974-30.434s-25.438-39.157-29.993-46.169S172.7,184.2,172.6,184.192s12.437-7.471,18.748-11.932,18.607-10.714,21.307-12.6a13.115,13.115,0,0,1,12.7-.87c4.595,2.354,7.2,6.488,11.561,13.234l19.875,30.743c7.178,11.106,13.089,22.655,16.934,29.446s5.331,9.6,4.746,14.974-3.178,9.334-5.766,11.07-9.475,5.334-19.152,11.821-19.212,14.777-21.12,11.933Z"/><path class="f" d="M242.667,281.99s-3.179.381-3.731.935a7.33,7.33,0,0,0-2.43,4.859c-.458,3.948,3.017,7,6.69,7.207a6.159,6.159,0,0,0,6.273-4.481,7.325,7.325,0,0,0-2.052-6.668,6.684,6.684,0,0,0-4.75-1.852Z"/><path class="f" d="M58.6,53.987s-.639.32-.683.434a2.211,2.211,0,0,0-.159,1.292,5.216,5.216,0,0,0,1.772,2.86,1.534,1.534,0,0,0,1.595.421,1.733,1.733,0,0,0,.883-1.66,6.975,6.975,0,0,0-1.054-2.128c-.583-.928-1.239-1.777-2.354-1.219Z"/><path class="j" d="M70.644,64.9A4.618,4.618,0,0,0,71.9,61.54a4.925,4.925,0,0,0-.895-2.963"/><path class="k" d="M213.9,161.418c1.957,3.587,9.288,14.317,9.288,14.317s.285.526,2.406,4.452A196.141,196.141,0,0,0,238.846,202.1c6.52,9.134,12.4,20.018,17.933,29.266s12.528,20.941,14.284,23.875"/><path class="k" d="M227.577,183.56c2.951-1.655,7.223-3.939,9.1-5.1m-5.947,10.166c1.727-1.209,5.435-4.107,8.117-5.68"/><path class="d" d="M121.839,112.891c-5.8-5.845-20.147-21.623-20.147-21.623l13.292,25.469s3.1-1.706,6.855-3.846Z"/></svg>