<svg xmlns="http://www.w3.org/2000/svg" viewBox="0 0 300 300"><defs><style>.a,.c{fill:#212121;}.a,.b{fill-rule:evenodd;}.b{fill:#fff;}</style></defs><title>Dancing</title><path class="a" d="M232.813,223.293l-.033-.065a52.672,52.672,0,0,0,6.482,5.112,2.787,2.787,0,0,0,1.052.35c.293.021-4.668-13.839-5.028-15.335-.054-.685.44-.542,2.908-1.9-.076-.376-.286-1.226-.358-1.7a20.577,20.577,0,0,0-2.659-.154,30.8,30.8,0,0,0-4.379.088l-.012,0,.015,0-.009,0,.014,0a.171.171,0,0,0,.037-.021l.035-.03.043-.067c.021-.159.065-.18-.182.141l-.257-.2h0a.231.231,0,0,1,.043-.167h0a.3.3,0,0,1,.211-.111c.739-.157,6.595-.692,7.635-.286.391.17.362.444.409.669h0c.562,2.623,1.15,2.153-1.254,3.416-.427.223-.952.492-1,.517,4.576,13.748,5.341,15.008,4.661,15.845-.528.592-1.6.252-2.284-.136A23.856,23.856,0,0,1,236,227c-1.955-1.75-3.024-2.945-3.128-3.048-.37-.368-.45-.394-.5-.52h0a.227.227,0,0,1,.035-.207h0l.324-.05C232.8,223.607,232.767,223.567,232.813,223.293Zm7.625,5.392Zm0,0h0l.008,0Zm0,0,.012,0-.013.006.016-.006-.014,0,.013,0Zm-2.2-16.974v.011l0-.018h0ZM238,209.8l-.006,0,.013,0-.01,0,.01,0-.022-.01Zm-.007,0-.008,0h0Zm-.008,0,0,0h0Z"/><path class="a" d="M193.424,111.441c-1.15.756-1.3,1.027-2.07,1.435a25.476,25.476,0,0,1-4.332,1.533,18.6,18.6,0,0,1-13.008-1.171c-3.72-1.848-5.546-5.356-4.314-9.342.484-1.566,1.83-2.838,2-4.518.28-2.731-1.144-5.3-.544-8.075a11.551,11.551,0,0,1,5.212-7.43c1.587-.954,3.573-1.183,5.209-2.047,1.821-.961,3.211-2.726,4.654-4.136a11.1,11.1,0,0,1,5.353-2.911c4.219-.779,7.261.068,8.149.632a56.556,56.556,0,0,0,5.27,3.492c3.523,1.591,6.746-.6,12.815,4.117,2.62,2.038,2.946,6.692,2.03,9.657-.409,1.323-1.135,2.859-1.045,4.287.163,2.595,3.405,3.63,4.046,6.073a9.93,9.93,0,0,1-.174,5.97c-1.445,3.476-5.838,6.551-9.35,7.609-4.3,1.3-10.4,1.815-14.374-.707-1.456-.925-2.561-2.14-3.907-3.148C194.576,112.409,193.984,111.5,193.424,111.441Z"/><path class="a" d="M195.01,73.892a12.088,12.088,0,0,1,4.731.866c1.189.584,4.069,3.138,5.99,3.815,2.624.908,5.063-.041,9.191,1.935a14.616,14.616,0,0,1,4.141,2.938,9.6,9.6,0,0,1,1.811,6.093,15.43,15.43,0,0,1-1.225,5.468c-.957,3.225.525,3.542,2.569,5.887a5.539,5.539,0,0,1,1.412,3.434,9.715,9.715,0,0,1-.426,4.684c-1.369,3.513-5.61,6.567-9.157,7.8-3.929,1.345-9.425,1.809-13.413.273-2.408-.941-3.548-2.341-5.312-3.79-.437-.357-.441-.332-.651-.535-.393-.384-.816-.948-1.195-1.074a18.156,18.156,0,0,1-2.2,1.516,30.628,30.628,0,0,1-6.282,1.99c-6.511,1.048-15.454-1.423-16.1-8.2-.29-3.5,1.459-5.119,2.075-6.7a5.974,5.974,0,0,0,.161-2.989c-.457-3.2-1.208-4.468,0-7.79a11.6,11.6,0,0,1,5.956-6.61c1.7-.722,3.29-.932,4.736-1.859C185.5,78.65,186.64,73.892,195.01,73.892Zm-6.1,2.506c-2.35,1.332-3.141,2.783-5.14,4.555-1.966,1.723-3.058,1.836-5.389,2.633a10.394,10.394,0,0,0-6.368,6.621,7.606,7.606,0,0,0-.383,3.891c.239,1.787.787,3.55.558,5.421-.346,2.522-2.463,3.4-2.413,6.947.088,6.171,8,8.7,14.011,8.242a27.428,27.428,0,0,0,6.564-1.653,12.355,12.355,0,0,0,2.947-1.808l0,0a.265.265,0,0,1,.222-.027c.652.135.953.78,1.993,1.581,1.863,1.46,2.919,2.775,5.237,3.67,3.832,1.473,9.214.871,12.86-.379a16.386,16.386,0,0,0,8.034-6.139,7.041,7.041,0,0,0,1.072-4.016,8.248,8.248,0,0,0-.726-3.588c-1.108-1.826-3.741-2.9-3.741-5.66.015-1.966,1.094-3.48,1.4-5.746.332-2.591-.141-5.863-2.183-7.476-5.007-3.873-7.976-2.9-11.093-3.531-2.313-.485-3.692-1.808-6.405-3.679a5.257,5.257,0,0,0-2.6-1.016A13.525,13.525,0,0,0,188.909,76.4Z"/><path class="b" d="M179.061,141.96c-4.994-1.059-29.664-26.813-30.94-32.417-1.34-5.887,2.149-19.2,3.468-25.418a65.443,65.443,0,0,1,1.859-6.46l8.132,1.241s-3.861,15.609-2.362,24.694c.35,2.118,2.735,2.768,4.8,3.718,4.041,1.859,27.383,3.943,43.152,7.762,6.94,1.681,13.317,5.333,19.2,9.5,3.936,2.79,9.242,7.577,11.3,12.063,3.106,6.754,2.4,14.845,3.033,22.03.43,4.868.688,7.436,2.959,11.812.371.716,3.562,5.2,2.376,6.273-1.655,1.5-3.244-2.341-3.244-2.341s.971,2.911-.018,3.46c-1.9,1.054-2.931-2.854-2.931-2.854s1.6,6.109,1.584,6.827c-.026.894-1.6,1.922-2.509-.238-.9-2.134-3-7.13-3-7.13s-2.405,1.32-2.681,1.463c-.64.332-2.979-.773-1.608-2.219.413-.435,2.9-1.391,2.861-1.561-1.115-5.167-2.89-10.246-4.445-15.352-.531-1.744-1.483-6.378-1.483-6.378s-7.794-4.478-10.1-5.994c-9.327-6.119-7.674-6.887-15.251-5.524C200.261,139.445,181.955,142.574,179.061,141.96Z"/><path class="a" d="M161.739,78.423a.509.509,0,0,1,.349.521c-.016.1-3.076,12.614-2.631,21.682a23.138,23.138,0,0,0,.348,3.121c.432,1.561,2.427,2.2,4.526,3.11,4.686,1.975,35.431,4.82,46.873,8.827,8.161,2.893,19.155,9.827,24.76,17.117,6.286,8.285,4.17,18.127,5.7,29.629.831,6.112,3.122,8.492,4.405,11.057.516,1.046,1.153,2.525.545,3.457a1.736,1.736,0,0,1-1.521.711,2.249,2.249,0,0,1-1.324-.7,1.58,1.58,0,0,1-.809,1.449,1.719,1.719,0,0,1-1.706-.048,23.135,23.135,0,0,1,.708,3.614,1.682,1.682,0,0,1-3.187.5c-.385-.6-2.7-6.348-3.108-7.258-2.3,1.256-2.285,1.3-2.738,1.3-1.417-.025-2.95-1.469-1.834-2.924.486-.624,1.253-.827,2.8-1.607.07-.036.057,0,.014-.194-1.958-8.849-3.6-10.782-5.716-21.064h0l0-.018c-10.364-6.008-10.661-6.365-15.651-9.935-3.3-2.357-3.944-2.457-8.924-1.6-4.793.838-18.322,3.038-23.222,3.1a5.613,5.613,0,0,1-1.379-.086c-4.972-1.059-30.076-26.757-31.326-32.774-1.008-5,1.066-14.566,2.168-19.62a104.545,104.545,0,0,1,2.5-10.339c.663-2.128.65-2.069.842-2.21.255-.126-.363-.17,6.891.922v0C161.87,78.435,161.626,78.4,161.739,78.423Zm67.145,71.734c.172.238.291,1.428,1.225,5.191.721,2.854,4.293,13.093,4.873,16.769.022.552-.452.628-2.216,1.5-.437.222-1.035.489-1.056.977s.923.985,1.3.893c2.486-1.293,2.627-1.613,3.079-1.5.347.153.146-.094,2.469,5.4.875,2.07.875,2.087.984,2.294a1.261,1.261,0,0,0,.663.66.608.608,0,0,0,.648-.366c.187-.409-1.281-5.718-1.537-6.816h0a.549.549,0,0,1,.915-.53c.207.246.118.378.524,1.308.261.582.824,1.642,1.456,1.557a.844.844,0,0,0,.309-.115.944.944,0,0,0,.143-.516,4.289,4.289,0,0,0-.056-.847c-.222-1.438-.636-1.706-.093-2.086a.554.554,0,0,1,.689.107,8.266,8.266,0,0,0,1.446,2.214c.368.314.654.41,1.011.087.1-.093.212-.516-.323-1.758-1.1-2.53-2.162-3.182-3.565-6.911-3.391-9.066-.117-23.346-5.384-32.217-4.479-7.416-15.927-14.861-23.864-18.054-11.829-4.691-43.575-7.279-49.023-9.715-1.91-.841-4.046-1.54-4.7-3.5a30.838,30.838,0,0,1-.438-7.151,99.978,99.978,0,0,1,2.588-17.717c-7.943-1.227-7.162-1.149-7.2-1.031a59.888,59.888,0,0,0-2.05,7.515c-1.087,5.1-4.54,18.371-3.173,23.733,1.492,5.591,25.541,31.037,30.581,32.192v0c3.1.613,22.492-2.882,25.36-3.375,6.834-1.159,5.407.409,15.455,6.539C223.948,147.344,228.725,150,228.884,150.157Z"/><path class="a" d="M90.671,185.1c.236.105.244.13.694.89,1.722,2.938,20.745,36.517,20.758,36.874-.211,6.172-.9,26.312-1.007,32.6,3.76-.777,39.636-9.545,39.965-9.873.15-.18.111-.67-.034-1.256-1.933-7.552-22.152-36.215-22.174-36.338.118-.011.449-.043,0,0-1.06-10.892-4.61-37.424-8.991-46.974-.92-1.885-6.446-1.58-8.548-1.425-4.282.338-4.105.673-7.005.566a26.054,26.054,0,0,0-4.767,0,82.161,82.161,0,0,1-12.765.86c-1.218.026-6.971.129-8.09.511a44.478,44.478,0,0,0-5.334,2.55c-10.7,5.854-22.734,15.073-29.848,25.379-2.222,3.243-5.119,8.412-5.5,12.342-.63,6.718,1.808,19.014,3.37,25.607.159.66.17-.06-.276,4.182h0l-1.6,15.159c8.018-.927,38.154-4.5,46.069-6.434,1.214-.306.941-.295,1.041-.295-2.02-2.78-10.992-14.242-13.093-16.926-.939-1.2.408,1.665-7.676-17.329a.575.575,0,0,1-.029-.358c.123-.376,20.77-17.372,20.87-17.454C90.29,185.014,90.2,184.985,90.671,185.1Zm29.482-24.951c.822.887,2.385,6.437,2.7,7.6,3.092,11.481,5.592,30.08,6.471,40.146,3.233,4.534,22.209,31.557,22.553,37.156.042.876-.308,1.157-.831,1.318-3.366,1.015-34.243,8.806-39.634,9.965a2.183,2.183,0,0,1-.909.1c-.415-.182-.349-.054-.216-5.916.166-7.216.553-20.3.782-27.551-.1,0-16.622-29.554-20.739-36.526-.693.556-23.366,19.27-23.253,19.27l6.8,15.957,0,0,.564.721h0c1.788,2.282,11.607,14.822,13.282,17.187.475.676.582,1.083-.722,1.537-5.794,1.971-47.984,6.978-48.408,6.77a.564.564,0,0,1-.274-.546h0c1.942-18.34,1.543-14.569,2.053-19.381-1.57-6.539-4.653-21.676-3.127-28.2a32.609,32.609,0,0,1,2.358-5.836,53.482,53.482,0,0,1,8.53-11.85c10.3-11.052,25.989-20.217,30.652-21.537,1.413-.376,10.181-.409,13.184-.515a58.475,58.475,0,0,0,7.843-.729c1.975-.21,3.96.118,5.933.08C107.646,159.329,117.549,157.47,120.153,160.149Z"/><path class="a" d="M59.616,245.138c-.041.173-8.87,6.871-7.936,8.6,1.459,2.7,17.434-5.829,20.313-7.55a14.7,14.7,0,0,1,.722,2.515l2.782-.272s.025-3.736-.063-5.444"/><path class="a" d="M59.434,245l-.009.01,0,0-.009.011,0,0a.307.307,0,0,0-.024.046l.3-.135.135.3c-.1.257-7.938,6.738-7.7,8.252l0-.009c.063.394,1.244.25,1.637.19,5.486-.874,17.97-7.924,18.085-7.966a.558.558,0,0,1,.668.35,16.948,16.948,0,0,1,.559,2.155c.024.117-.278.111,2.034-.116,0-.264.038-.817.081-3.065.039-2.376-.081-1.912.225-2.254.346.316.208.184.248.3.114,1.539.229,5.214.212,5.438h0a.4.4,0,0,1-.282.321c-.1.02-2.835.348-2.985.329a.458.458,0,0,1-.351-.34h0c-.108-.432-.358-1.384-.509-1.87-3.091,1.827-16.568,9.095-19.849,7.669-2.406-1.084,1.023-4.218,3.007-5.957,1.394-1.215,4.613-3.746,4.506-3.639ZM71.6,246.49l0,0,.006.011-.009-.017Z"/><path class="a" d="M127,252.055c-.015,0,4.113,7.779,5.492,8.644.619.388,4.089-.87,4.126-1.253.26-2.685.552-7.291-.039-9.87"/><path class="a" d="M127.214,251.97c.582.975,4.591,7.51,5.546,8.227a9.038,9.038,0,0,0,3.306-1c.162-1.657.218-2.53.3-3.727.485-6.676-.373-5.27.156-6.118l.274.176a28.3,28.3,0,0,1,.521,8.25c-.131,1.81-.062,1.95-.484,2.279a10.091,10.091,0,0,1-3.6,1.265,1.6,1.6,0,0,1-1.071-.157c-1.535-1.03-4.684-7.355-5.354-8.961-.048-.11-.094-.324.16-.377h0l.228.175Zm5.577,8.248,0,0Z"/><path class="a" d="M39.948,85.278C50.4,97.1,77.007,113.183,84.155,112.259c4.869-.63,9.34,1.464,13.8.257,11.605-3.141,36.887.239,39.409,16.28a31.026,31.026,0,0,1-.175,9.854c-.881,5.292-4.345,9.39-6.628,13.954-1.212,2.425-2.969,4.8-4.1,7.064-.412.826.764,5.858.611,5.93-18.843,8.9-27.849,6.133-27.849,6.133-.947,0-6.276-50.887-5.642-53.037.145-.49-4.734.093-5.067-.24-.07-.069-1.252,41.792-2.405,51.768a18.913,18.913,0,0,1-.353,2.446c-1.278,1.361-30.4-3.34-29.758-4.888.066-.16,10-38.83,8.451-39.738C33.272,109.811,29.832,91.121,29.832,91.121S38.763,85.278,39.948,85.278Z"/><path class="a" d="M86.416,111.741c4.574.081,7.355,1.405,11.775.268,7.491-1.919,19.357-1.2,28.1,2.93,10.111,4.822,13.1,12.178,11.548,23.036-.607,4.074-2.03,6.665-4.188,10.3-2.674,4.479-2.186,3.865-3.084,5.5-1.249,2.264-3.6,5.7-3.633,6.367a53.684,53.684,0,0,0,.71,5.326c.024.594-.2.611-2.718,1.724a74.743,74.743,0,0,1-11.606,4.094c-9.571,2.406-14.115,1-14.216,1-.551-.143-.637-.867-.77-1.508-1.524-7.641-5.544-47.062-5.369-51.7-.593-.044-2.068.034-2.975.056-.58.012-1.034,0-.931,0-.271,6.434-1.293,43.1-2.582,52.678-.136.979-.09,1.365-.986,1.559-3.746.719-25.786-2.939-29.265-4.66-.437-.222-.817-.507-.744-1,.023-.1,9.093-34.9,8.7-39.209-.028-.295.3.173-4.32-2.789C48.2,118.2,34.818,106.512,30.2,93.365a12.346,12.346,0,0,1-.625-2.327c.088-.207,7.952-5.2,9.935-5.895.359-.122.5-.117.607-.017-.114.1-.281.248,0,0C46.265,91.986,56.711,99.288,64.7,104.01c4.375,2.573,12.553,7.019,17.558,7.789C84.112,112.086,83.923,111.716,86.416,111.741Zm2.313,6.18c0,.2,4.031-.177,4.913.1a.751.751,0,0,1,.434.334.686.686,0,0,1,.052.531c-.433,3.4,4.272,48.1,5.478,52.354,7.484,1.71,19.674-2.6,26.892-5.989-.325-2.061-.877-4.654-.6-5.651.232-.735,2.551-4.361,3.327-5.69.895-1.547.858-1.674,1.824-3.375,1.713-3.014,3.583-5.708,4.769-8.869a28.236,28.236,0,0,0,.967-13.152,16.035,16.035,0,0,0-6.659-10.144c-8.063-5.966-22.606-7.857-31.857-5.5-5.1,1.329-8.945-.841-14.007-.235-3.526.45-10.3-2.848-13.472-4.478-9.1-4.7-20.459-12.372-27.98-19.58-3.3-3.191-2.785-3.12-3.075-3.029-1.715.564-8.091,4.7-9.6,5.688a27.115,27.115,0,0,0,1.815,4.881c6.227,13.1,19.612,23.83,32.171,31.236.729.428.982.368.907,1.895-.368,6.072-7.294,34.174-8.47,38.452,2.815,1.618,25.59,5.258,28.726,4.572.613-3.61,1.076-13.461,1.269-17.468,1.73-37.144,1-36.3,1.624-36.821h0A.579.579,0,0,1,88.729,117.921Zm.174.111L88.868,118Z"/><path class="a" d="M32.012,91.364l-.013,0h.007l-.013,0,.007,0-.013,0,.007,0-.013.006.007,0-.013.006.007,0-.013.006.007,0-.012.007.006,0-.011.008.006,0-.01.008.006,0-.01.009.006,0-.009.009.006-.006-.008.009.006-.006-.008.009.006-.007.326-.038.038.326a.415.415,0,0,1-.554.074,15.4,15.4,0,0,1-1.889-1.969A5.2,5.2,0,0,1,28.573,87a3.118,3.118,0,0,1,.574-2.717c.281-.4.513-.719.791-1.06.188-.229.387-.438.4-.569v.011l0-.015,0,.015c-.125-1.371-3.4-6.143-3.029-8.462a1.375,1.375,0,0,1,2.04-1.076,9.244,9.244,0,0,1,2.677,2.73c1.2,1.66,2.9,4.531,3.139,4.74a13.482,13.482,0,0,1,3.189,3.016,21.05,21.05,0,0,1,1.557,3.6,3.9,3.9,0,0,0,.308.881l0-.006.015.02-.007-.007.014.015-.008-.008.01.01-.01-.008.011.009-.008-.006.005,0-.006,0,.005,0-.006-.005,0,0-.007,0,.005,0,.091.312h0l-.311.09c-.349-.18-.546-1.009-.679-1.313A19.477,19.477,0,0,0,37.57,83.89c-.868-1.128-2.623-2.078-3.2-2.627-.744-.715-4.4-7.157-5.749-7.157l0,0h0c-.694.344.584,3.21.677,3.425,1.362,3.105,2.3,4.564,2.04,5.452-.147.446-.373.59-.979,1.331-.081.1-.7.875-.772,1.019a4.222,4.222,0,0,0,0,2.516,8.624,8.624,0,0,0,1.727,2.7,4.488,4.488,0,0,0,.706.8l-.009,0,.019.01-.005,0,.011,0-.006,0,.01,0-.006,0,.008,0-.007,0,.008,0-.008,0,.008,0h-.022l-.012,0Z"/><path class="b" d="M80.14,111.715a11.067,11.067,0,0,0,3.91.556c.174,1.028,5.237,20.767,6.931,26.686,0,0-7.3-15.678-8.01-16.391-.117-.116-6.732,1.419-6.886,1.265C76.033,123.779,78.547,116.393,80.14,111.715Z"/><path class="a" d="M84.469,112.7c.026.1,5.719,21.4,6.939,25.675.129.45.269.7-.064,1.026a.572.572,0,0,1-.7.018c-.368-.324-4.606-9.93-7.5-15.488-.117-.223-.3-.563-.436-.794-.375.058-.9.16-1.243.225-5.035.978-5.432,1.136-5.752.738-.18-.3-.16-.237.962-3.418,3.464-9.793,3.253-9.241,3.534-9.185v0C84.59,112.647,84.1,111.244,84.469,112.7Zm-7.754,10.591c6.688-1.283,6.3-1.786,7.011-.569.543.934,1.45,2.757,1.925,3.716,3.8,7.692,3.215,7.3,2.23,3.325-.323-1.33-.155-.826-.422-1.852h0c-.939-3.688-3.146-12.772-3.666-15.313A12.158,12.158,0,0,1,80.289,112C79.9,113.224,77.09,122.042,76.715,123.288Zm-.175.615v0Zm0,0,0-.011Zm6.395-.8h0Z"/><path class="b" d="M102.528,111.691c.707,3.873,1.951,14.3,1.83,14.491-.019.03-5.9-.786-5.9-.786s-6.685,12.415-7.354,13.514c-.649-7.134,2.275-19.545,2.473-20.216.04-.135-.3-.188-.822-.2.313-1.2.636-3.321,1.009-5.627C97.568,113.089,97.685,112.21,102.528,111.691Z"/><path class="a" d="M94.049,112.489c2.984.189,3.472-.349,6.464-.8.188-.027,1.881-.253,2.067-.226a.228.228,0,0,1,.174.182c-.187.034-.144.027,0,0,.71,3.536,1.919,12.121,2.076,14.194.021.319.041.505-.166.705-.263.193-.165.191-5.908-.574-.373.7-6.775,12.7-7.216,13.31a.575.575,0,0,1-.7.136c-.326-.2-.315-.331-.37-1.341-.264-5.5,1.2-13.884,2.517-19.091-.305-.024-.571.009-.7-.383-.051-.323,0,.2.676-3.478.519-2.882.382-2.284.453-2.448C93.592,112.407,93.805,112.474,94.049,112.489Zm4.393,12.374c.178.009,4.251.61,5.424.775-.15-2.307-1.016-10.36-1.532-13.69-4.422.589-4.747,1.412-8.233,1.323l-.039.24h.01c-.109.756-.5,3.489-.715,4.533a.811.811,0,0,1,.65.355c.141.28.093.139-.374,2.353a85.961,85.961,0,0,0-2.044,16.12C98.543,124.246,97.913,124.927,98.442,124.863Zm5.444,1.258v0Zm-10.578-7.082-.008,0,.011,0-.012,0Zm0,0-.014,0Zm-.012,0,0,0h0Z"/><path class="a" d="M128.823,139.46l.3.137-.14.294c-4.746,2.2-13.4,1.286-16.873-1.2l-.079-.318.319-.08C115.479,139.83,124.637,140.579,128.823,139.46Z"/><path class="b" d="M119.032,159.306c-.756.745-.546,2.475-1.275,3.227-.24.247-.666-.159-1.005-.159-1.189,0-2.566-.448-3.092.638-.929,1.916,3.231,1.484,3.015,2.153-.732,2.265-1.562,4.672-2.32,7.017-.315.975-.5,2.2.155,2.87.593.612,1.5-1.661,1.624-1.914.77-1.59,1.364-3.2,2.01-4.864a15.124,15.124,0,0,1,1-2.232s-.473,1.295-.773,1.914c-.418.863-2.022,3.973-1.314,4.7.592.61,1.286-.519,1.546-.877a13.487,13.487,0,0,0,2.551-5.342c.039-.124-.135.737-.154.8-.091.282-.642,2.048-.387,2.312.585.6.937.366,1.7-.159,1.111-.764,2.9-6.415,2.784-6.539C124.138,161.859,119.032,159.306,119.032,159.306Z"/><path class="a" d="M116.756,162a2.692,2.692,0,0,1,.783.252l-.008,0,.01,0c.591-.614.476-2.343,1.3-3.136.118.117.107.107,0,0a.261.261,0,0,1,.229-.075,49,49,0,0,1,5.992,3.216c.288.219.433.332.469.547.071.605-1.624,6.067-2.849,7.019-.594.449-1.186.847-1.872.578-.464-.183-.328-.325-.447-.114-.25.438-.462.773-.734,1.179-.732,1.08-1.579,2.5-2.733,1.894-.233-.133.021-.19-.689,1.114a2.78,2.78,0,0,1-1.08,1.233.924.924,0,0,1-.913-.075h0a1.9,1.9,0,0,1-.639-.933c-.449-1.387.043-2.339,2.481-9.378-.953-.272-2.829-.365-2.987-1.659a1.719,1.719,0,0,1,.712-1.471C114.606,161.628,115.729,161.969,116.756,162Zm-1.8,12.6h0Zm6.463-8.746a.643.643,0,0,1,.376.546c-.035.733-.6,2.09-.646,2.841a.736.736,0,0,0,.093.068l.024.011-.011,0,.013,0-.011,0,.012,0-.011,0,.012,0-.011,0,.012,0-.011,0,.011,0h-.011a.444.444,0,0,0,.175-.054,2.518,2.518,0,0,0,1.288-1.39,28.889,28.889,0,0,0,1.917-4.867,45.656,45.656,0,0,0-5.54-3.364c-.521.776-.321,2.271-1.1,3.131h0c-.411.424-.976.009-1.24-.029.125.017-1.063-.05-1.5-.055-.56,0-1,.056-1.217.549a.653.653,0,0,0-.063.309c.021.117.137.355,1.27.573.854.156,1.525.206,1.826.6.269.389.193.394-1.429,5.44-.425,1.326-1.225,3.259-.861,4.162a26.2,26.2,0,0,0,1.478-3.087c.34-.817.268-.94.971-2.465a21.281,21.281,0,0,1,1.405-3.182.667.667,0,1,1,1.1.751,27.955,27.955,0,0,1-1.348,3.106,9.522,9.522,0,0,0-.854,2.616,2.334,2.334,0,0,0,.247-.281c2.872-3.728,2.383-5.375,3.019-5.88A.624.624,0,0,1,121.423,165.852Zm-5.138-.45.017.01-.019-.011.007,0,0,0,.015.01Zm0,0-.005,0h0Zm-.005,0h0Zm1.229-3.117-.007.007.006-.006-.007.007.011-.01-.007,0,.006,0-.008.006Zm0,0,.006,0Zm0,0,0,0h0Z"/><path class="b" d="M119.169,154.011s-1.625,5.724-1.511,6.071c.056.168,7.89,3.172,8.2,3a61.537,61.537,0,0,0,5.518-4.515C131.328,158.422,120.731,154.8,119.169,154.011Z"/><path class="a" d="M131.9,158.358c.148.477-.056.6-1.417,1.775-1.016.872-2.838,2.4-3.93,3.17a1.357,1.357,0,0,1-.764.352h0c-.954-.033-6.608-2.323-7.88-2.92-.445-.213-.687-.3-.713-.659a55.051,55.051,0,0,1,1.746-6.128c.1.029.252.071,0,0,.12-.321.356-.111,1.053.142,2.87,1.028,11.5,3.628,11.866,4.193h0Zm-6.073,4.16h0Zm-7.7-2.71c.713.305,6.884,2.587,7.588,2.689,1.037-.7,3.671-2.922,4.624-3.748-2.182-.827-8.714-3.266-11.011-4.4C119.1,155.274,118.255,158.869,118.126,159.808Zm-.021.228v0Z"/><path class="a" d="M35.356,81.9h0l.009,0-.005,0,.012,0-.011,0,.013,0-.015.009.009,0-.021.014.006,0a6,6,0,0,0-.635.613c-.617.669-2.054,2.326-1.579,3.1.1.128.541-.007.7-.064.822-.3.893-.585,1.359-.748.791-.243,1.222.886,1.991,2.153a2.562,2.562,0,0,1,.379.883l-.182.271-.269-.184-.008-.022,0,.007a4.723,4.723,0,0,0-.777-.894c-.315-.342-.646-.792-.936-1.069a2.793,2.793,0,0,1-.595.415,2.476,2.476,0,0,1-2.134.317c-.747-.378-1.144-1.539-.239-2.928a7.6,7.6,0,0,1,2.651-2.269c.159-.071.3-.1.414,0l.037.327-.326.037h0l.025.017,0,0,.026.014h0l.024.009h0l.022.006h0l.02,0h0l.019,0h.016Zm-.184,3.875h0l.03.017h0l-.049-.03Zm-.7-.5.016-.011Z"/><path class="b" d="M28.561,101.448l-.175-9.3s10.377-6.869,11.562-6.869c1.292,1.461,4.548,4.538,4.548,4.538A76.128,76.128,0,0,1,28.561,101.448Z"/><path class="a" d="M40.034,84.712c.419.1-.1-.111,3.385,3.273,1.611,1.569,1.738,1.541,1.619,2.015-.256.589-6.863,6.608-15.157,11.023-1.319.7-1.291.691-1.428.626a.232.232,0,0,1-.117-.158l0-.039h0c-.033-.712-.452-9.281-.354-9.522a107.353,107.353,0,0,1,10.561-6.712A3.452,3.452,0,0,1,40.034,84.712ZM28.9,92.373c-.1.063-.051-.247.021,3.6-.123,0-.08-.561-.128,5.07A86.976,86.976,0,0,0,43.663,89.813c-1.118-1.065-2.867-2.756-3.91-3.9C37.98,86.592,30.979,91.059,28.9,92.373Z"/><path class="a" d="M96.453,155.059c.423.093.332.058.477.4h0l-.3.126h-.006l.011,0H96.63l.009,0h-.007l.007,0h-.007l.008,0c-.168-.007-.871.07-.972.078a40.193,40.193,0,0,1-8.445-.162l.012,0h-.01l.017,0h0l.018-.006h0l.03-.014h0l.017-.012-.319-.055h0a.231.231,0,0,1-.042-.129v-.035a.238.238,0,0,1,.064-.133h0l.026-.023C87.483,154.8,92.82,154.276,96.453,155.059Zm-9.148.4.032-.023.063-.132C87.348,155.1,87.375,155.053,87.305,155.463Z"/><path class="b" d="M118.766,140.33a31.523,31.523,0,0,0,5.544.181c-.769,2.424-2.842,8.853-2.842,8.853C120.391,148.055,119.167,142.723,118.766,140.33Z"/><path class="a" d="M124.806,140.422c.033.331-1.789,6-1.922,6.422-.941,2.924-.852,2.8-1.094,2.992a.572.572,0,0,1-.7-.043c-1.253-1.3-2.116-6.285-2.379-8.092-.143-1-.316-1.613.081-1.6v0C123.9,140.429,124.571,139.549,124.806,140.422Zm-5.732.219a61.437,61.437,0,0,0,2.22,7.213c.056.131-.131.525,1.242-3.649.27-.825.781-2.364,1.066-3.185-.576,0-1.593-.04-2.6-.142C118.89,140.649,119.05,140.541,119.074,140.641Z"/><path class="a" d="M121.69,149.221a9.5,9.5,0,0,1-1.261,3.691,7.015,7.015,0,0,1-.709,1c-.216.267-.109.189-.48.325-.136-.371-.126-.24-.062-.576a7.785,7.785,0,0,1,.284-1.179,10.273,10.273,0,0,1,1.8-3.43l.3-.128Z"/><path class="b" d="M189.981,93.976s-6.351,4.09-6.175,3.766c0,0-.493,3.428-.7,4.467-1.92,9.6,3.167,15.314,12.144,12.012,3.369-1.239,5.046-6.78,5.2-6.932.069-.069.813-.037.963-.088a2.784,2.784,0,0,0,1.708-1.532c.529-1.587.1-3.091-1.533-3.635-.775-.259-1.5.273-2.146-.35-1.232-1.19-1.466-4.068-1.466-4.068S190.705,96.078,189.981,93.976Z"/><path class="a" d="M198.348,97.455A9.156,9.156,0,0,0,199.484,101c.459.624.6.517,1.36.459,1.777-.118,3.444,1.452,2.934,3.883a2.743,2.743,0,0,1-.869,1.594,3.8,3.8,0,0,1-1.133.727,1.834,1.834,0,0,1-.858.136c-.135,0,0-.132-.544,1.141a13.294,13.294,0,0,1-3.23,4.8,7.239,7.239,0,0,1-3.257,1.51,11.665,11.665,0,0,1-5.357.277,7.968,7.968,0,0,1-6-6.049c-.788-3.22-.044-6.322.342-8.48.459-2.6.534-3.276.583-3.407a.378.378,0,0,1,.345-.233c.946-.449,5.168-3.04,6.054-3.583l.017.025-.015-.023a.213.213,0,0,1,.248,0c.086.066.074.086.126.2.988,1.979,7.747,3.145,8,3.321l.046.045h0A.428.428,0,0,1,198.348,97.455Zm-14.2.572c-.649,5.048-1.015,5.965-.94,8.507.136,4.648,2.649,8.11,7.372,8.055a13.792,13.792,0,0,0,4.736-1.019c1.674-.786,2.89-2.725,3.694-4.392,1.043-2.166.742-2.442,1.661-2.495.618-.03.538.015.835-.127a2.6,2.6,0,0,0,.793-.585,2.647,2.647,0,0,0,.406-2.176,1.812,1.812,0,0,0-1.07-1.189c-.843-.376-1.455.188-2.3-.382a4.549,4.549,0,0,1-1.383-2.391c-.626-2.241.005-1.79-.86-2.016-1.879-.5-6.254-1.8-7.213-3.495C188.852,95.011,185.26,97.419,184.152,98.027Zm-.416-.635-.016.005.016-.005Z"/><path class="b" d="M183,103.569h0v0l-.119.245h0l-.246-.119.027.05h0l.025.028h0l.019.016h0l.02.012-.005,0,.017.008-.007,0,.011,0-.008,0,.008,0-.015,0h0c-.076-.006-.149-.006-.181-.005a4.725,4.725,0,0,0-1.285,1.118,4.26,4.26,0,0,0-.713,1.681,1.587,1.587,0,0,0,.761,1.786,5.245,5.245,0,0,0,.893.508H182.2a.124.124,0,0,0,.023,0h.011l-.009,0h.011l-.009,0h.014l-.009,0c.245-.019.693-.344.921-.321l.18.2h0l-.2.179h.018l-.007,0,.012,0-.008,0,.01,0-.008,0,.009,0-.008,0,.007,0-.008,0,.006,0-.012.007,0,0c-.543.349-.621.744-1.524.455a2.578,2.578,0,0,1-1.941-1.647,3.233,3.233,0,0,1,.2-2.246,3.576,3.576,0,0,1,2.466-2.174C182.49,103.3,182.926,103.4,183,103.569Zm-.518.239h0l.022,0-.006,0,.024-.006C182.492,103.806,182.514,103.805,182.483,103.808Zm.045,0Z"/><path class="b" d="M206.858,107.931a4.726,4.726,0,0,1-.736,2.446,3.434,3.434,0,0,1-5.067.056c-1.075-1.226-.682-2.618-.317-4.127.1-.423.2-.773.249-.933l.274-.182c.283.429.158-.094.042,1.872a4.231,4.231,0,0,0,.147,2.057,2.368,2.368,0,0,0,3.74.587,4.013,4.013,0,0,0,.573-1.818,2.868,2.868,0,0,0-2.229-3.247l-.206-.253.256-.2A3.48,3.48,0,0,1,206.858,107.931Z"/><path class="c" d="M185.678,104.287a.581.581,0,0,1-.578-.577,10.029,10.029,0,0,1,.045-1.048.588.588,0,1,1,1.143.167,8.53,8.53,0,0,0-.033.881A.577.577,0,0,1,185.678,104.287Z"/><path class="c" d="M191.286,104.416a.578.578,0,0,1-.578-.578c-.014-.461-.139-1.308.5-1.441a.579.579,0,0,1,.648.793c-.008.154,0,.46.009.648A.577.577,0,0,1,191.286,104.416Zm.156-.888h0Zm0,0h0Zm0,0h0Zm.071-.02a.575.575,0,0,1-.071.02A.529.529,0,0,0,191.517,103.507Z"/><path class="a" d="M188.172,101.961h0l.033-.012.035-.007.035,0,.228.236h0c-.287.277-.279.237-.135.207l.059-.04v0l.026-.028v0l.011-.015,0,0,.008-.013,0,.021,0,0c0,.016-.153.976-.156.992-.192.882-.508,1.764-.591,2.412a6.437,6.437,0,0,0,.854.4l.227.234c-.26.246-.141.232-.661.273-.769.054-1.424-.032-1.518-.78a5.761,5.761,0,0,1,.534-2.316A5.5,5.5,0,0,1,188.172,101.961Zm-.591,3.647-.015-.009.007.008,0,0a.308.308,0,0,0,.068.056l.019.012-.008-.012,0,.006-.013-.019,0,.006-.014-.017,0,0-.013-.015,0,.006-.013-.014,0,.006-.012-.013,0,.006-.011-.011,0,0-.017-.014v0l0,0-.019-.013Z"/><path class="a" d="M191.867,108.662a2.2,2.2,0,0,1-.253.817,2.75,2.75,0,0,1-2.407,1.264,2.614,2.614,0,0,1-.924-.281l-.194-.265c.368-.27.147-.146.567-.267a7.469,7.469,0,0,0,2.552-1.245c.388-.276.014-.108.538-.326Z"/><path class="a" d="M192.652,85.343a11.445,11.445,0,0,1,8.977,3.636,12.3,12.3,0,0,1,2.408,3.363c.255.538.941,2.2.76,2.759a.578.578,0,0,1-.654.34c-.445-.139-.158-.209-1.76-1.76-3.624-3.474-8.273-5.588-13.3-5.018-3.506.414-4,1.388-4.332,1.028l0,0-.006,0c-.359-.448,1.176-1.967,1.625-2.342A9.632,9.632,0,0,1,192.652,85.343Zm-1.013,2.4a16.947,16.947,0,0,1,11.223,4.813,11.772,11.772,0,0,0-6.366-5.588c-3.883-1.2-8.321-1.079-10.972,2.022A15.076,15.076,0,0,1,191.639,87.746Z"/><path class="a" d="M231.889,162.924c.032-.034-3.139,1.354-2.5,3.894a3.556,3.556,0,0,0,2.7,2.544,12.435,12.435,0,0,0,5.655-.2,10.042,10.042,0,0,0,5.541-2.861c.893-1,2.049-3.388.965-5-.767-1.14-3.217-1.107-3.327-1-.078.078.3,2.771.3,2.771a9.922,9.922,0,0,1-8.335,3.043Z"/><path class="a" d="M241.5,159.686c2.127.042,3.674.863,3.77,3a5.534,5.534,0,0,1-.664,2.671c-1.434,2.808-4.476,3.948-7.557,4.491-2.027.359-4.66.528-6.385-.61-2.1-1.387-2.641-4.373.522-6.222a2.955,2.955,0,0,1,.71-.321.229.229,0,0,1,.222.169c0,.1.1.293,1,2.934a9.6,9.6,0,0,0,7.533-2.908c-.064-.435-.245-1.746-.286-2.305C240.3,159.783,240.7,159.678,241.5,159.686Zm-.057,3.928a10.178,10.178,0,0,1-8.578,2.83c-.321-.064-.23-.063-1.115-3.187-1.716.98-2.69,2.554-1.651,4.23,1.187,1.853,3.959,1.766,6.151,1.4,2.351-.4,4.67-1.013,6.368-2.711,1.3-1.313,2.194-4.009.812-4.887a4.134,4.134,0,0,0-1.921-.478C241.749,163.369,241.941,163.126,241.438,163.614Zm-9.772-.627,0,0,0-.011Zm.033-.2v.008l0-.006C231.88,162.918,231.912,162.94,231.7,162.79Z"/><path class="b" d="M155.114,78.682c-.316.607-2.756.535-2.629-.439a16.277,16.277,0,0,1,1.175-4.511,1.355,1.355,0,0,1,1.665-.5c.663.32.712.669.716,1.262A16.166,16.166,0,0,1,155.114,78.682Z"/><path class="a" d="M156.577,74.144a12.626,12.626,0,0,1-1.248,4.624h0c-.409.873-3,.975-3.3-.259-.124-.548.459-4.32,1.306-5.3A1.836,1.836,0,0,1,156.577,74.144Zm-1.083.241c-.014-.34-.046-.505-.466-.658a.784.784,0,0,0-.754.17c-.735.64-1.351,5-1.318,4.411v.018l0-.009v.01l0-.009v.01l0-.014,0,.021-.007-.018.006.021-.008-.017.008.021-.009-.015.01.022-.009-.014c.1.185.428.279.629.33a1.756,1.756,0,0,0,1.277-.043l.023-.016-.006.005.021-.016-.007.007.018-.017-.006.009.016-.017-.007.009.014-.017,0,0A18.755,18.755,0,0,0,155.494,74.385Z"/><path class="b" d="M157.875,79.152c-.346.594-2.78.429-2.6-.538a16.466,16.466,0,0,1,1.4-4.462,1.366,1.366,0,0,1,1.689-.433c.646.344.678.7.652,1.288A16.3,16.3,0,0,1,157.875,79.152Z"/><path class="a" d="M159.565,74.651a12.62,12.62,0,0,1-1.479,4.6h0c-.438.84-2.987.871-3.278-.372-.11-.573.676-4.287,1.538-5.235A1.831,1.831,0,0,1,159.565,74.651Zm-1.139-.16a.786.786,0,0,0-1.309.027c-.757,1.186-1.429,4.65-1.379,4.184l0,.012v0a.041.041,0,0,0,0,.011l0-.01v.011l0-.01v.011l0-.015,0,.021-.006-.019,0,.021-.008-.017.007.021-.008-.015.009.022-.009-.015c.2.4,1.5.579,1.9.35l-.006.005.024-.015-.006,0,.022-.015-.007.006A13.886,13.886,0,0,0,158.426,74.491Z"/><path class="b" d="M160.534,79.68c-.352.516-2.784.325-2.6-.523a13.152,13.152,0,0,1,1.448-3.9,1.476,1.476,0,0,1,1.693-.35.959.959,0,0,1,.637,1.147A12.969,12.969,0,0,1,160.534,79.68Z"/><path class="a" d="M161.741,74.654a1.425,1.425,0,0,1,.506,1.43,11.472,11.472,0,0,1-1.511,3.708h0c-.483.779-3.284.78-3.294-.574a13.975,13.975,0,0,1,.625-2.551,3.949,3.949,0,0,1,1.351-2.18A2.021,2.021,0,0,1,161.741,74.654Zm-.567,1.1c-.045-.419-.994-.643-1.433-.013a16.333,16.333,0,0,0-1.327,3.521,2.321,2.321,0,0,0,1.149.378,1.366,1.366,0,0,0,.718-.056l.024-.012-.007,0,.022-.013-.008.006.019-.013-.007.007.015-.012-.007.008.014-.012h0A13.5,13.5,0,0,0,161.174,75.75Zm-2.761,3.508v0Zm0,0h0v0Zm0,0h0v0Zm0,0h0v0Zm-.02-.036-.011-.015.011.019-.011-.013c.018.028,0,.014.03.045v-.009l0,.008v-.014l0-.012v.007l0-.017,0,.018-.006-.022,0,.014-.008-.021,0,.015-.009-.019.006.016-.01-.017Z"/><path class="b" d="M161.556,77.548c.654.222.95,2.66-.042,2.683a5.38,5.38,0,0,1-2.735-.24,1.357,1.357,0,0,1-.747-1.58c.219-.708.561-.811,1.153-.906A5.116,5.116,0,0,1,161.556,77.548Z"/><path class="a" d="M161.666,77.339c.869.3,1.485,2.91.137,3.369a7.905,7.905,0,0,1-1.922.139c-2.507-.219-2.945-2.136-2.031-3.281a2.191,2.191,0,0,1,1.8-.562A4.534,4.534,0,0,1,161.666,77.339Zm-.15.467.007.006-.018-.019.008,0-.019-.016.009.005-.019-.014.01.005-.018-.012h0a5.884,5.884,0,0,0-2.691.39.89.89,0,0,0-.231.713.873.873,0,0,0,.591.652,5.8,5.8,0,0,0,2.363.185h0l-.011,0,.011,0-.011,0,.011,0-.011,0,.01,0-.01,0,.009,0-.01,0,.009,0-.01,0,.01,0-.01,0,.009,0-.014.008.018-.008-.018.011.018-.01-.016.012.019-.012-.015.012.009-.007h0l.008,0a.6.6,0,0,0,.144-.264,2.27,2.27,0,0,0,.081-.76,1.387,1.387,0,0,0-.211-.865Z"/><path class="b" d="M217.565,208.446c3.411-3.083,12.674-5.444,12.674-5.444s4.14,23.16,2.951,34.711a49.928,49.928,0,0,1-10.716-9.452c-.741.552-1.484,1.107-2.275,1.586a35.441,35.441,0,0,1-17.368,4.745c-5.641.062-8.879-.646-14.631-2.226l-2.308,10.265c4.57,7.851,5.757,9.181,12.751,17.761,0,0-33.965,8.465-34.541,8.479-1.2.032,1.385-17.79,1.785-21.242a24.6,24.6,0,0,1-1.643-2.46c-1.269-2.274-2.5-4.573-3.6-6.935a56.861,56.861,0,0,1-5.092-24.645c.477-20.733,5.554-42.769,17.617-59.636-2.92-4.1-5.79-10.235-6.336-15.168-.812-7.348,3.6-13.921,5.491-20.769.4-1.458,1.4-7.2,1.564-8.59l6.084.879,1.119,12.848c3.65.432,7.287,1.865,9.278,4.349a17.482,17.482,0,0,1,13.41-2.319c-.23-2.052.84-8.555,1.257-10.6a43.33,43.33,0,0,1,6.907,2.1c.231,10.9.673,19.17-1.636,26.391a61.873,61.873,0,0,1-2.614,6.024c.1.1,8.414,7.814,10.253,10.655C232.342,182,217.565,208.446,217.565,208.446Z"/><path class="a" d="M205.145,114.1a45.847,45.847,0,0,1,6.163,1.816c1.047.4,1.107.347,1.12,1.014.325,17.428.541,22.276-4.243,32.087.162.16,5.182,4.723,8.786,8.895,2.922,3.4,5.182,8.815,6.294,13.177,2.966,11.743.483,25.141-4.735,35.973-.829,1.706-.242-1,11.017-4.154,1.077-.3.879-.46,1.23,1.611,1.475,8.772,3.4,22.825,2.9,31.663-.105,1.791-.127,1.7-.273,1.826-.266.157-.327.076-1.284-.571a50.2,50.2,0,0,1-9.7-8.636,34.4,34.4,0,0,1-19.341,6.231c-5.756.1-8.795-.563-14.5-2.073-2.324,10.336-2.185,9.539-2.1,9.685,4.587,7.758,5.156,8.325,12.575,17.415a.525.525,0,0,1,.009.652c-.3.327-34.462,8.676-34.94,8.71-.8,0-.863-1.025-.882-1.822-.117-4.97,2.205-19.628,1.977-19.942a30.827,30.827,0,0,1-2.759-4.579c-7.533-14.037-8.371-24.74-6.815-40.362,2.132-21.068,8.847-37.573,16.714-48.611h0l.111-.155a40.872,40.872,0,0,1-5-9.961c-2.742-8.081-.773-12.679,2.441-20.764,1.8-4.548,2.142-5.77,3.219-12.442.261-1.641.18-1.522.358-1.742a.562.562,0,0,1,.308-.166c.207-.02,6.248.877,6.35.9a.551.551,0,0,1,.382.479h-.008c1.171,13.44,1.038,12.405,1.167,12.423,3.136.464,6.738,1.76,8.8,4.131a17.907,17.907,0,0,1,12.747-2.266,56.615,56.615,0,0,1,.731-6.738c.574-3.613.612-3.489.807-3.638A.494.494,0,0,1,205.145,114.1Zm-16.819,117.8c5.9,1.636,11.045,2.765,17.866,2.048a35.406,35.406,0,0,0,12.868-3.915c3.089-1.727,3.032-2.3,3.554-2.152.288,0,3.452,4.6,10.272,9.187.773-8.91-1.358-24.947-2.863-33.737-3.46.92-9.627,2.918-12.3,5.282l0,0a.232.232,0,0,1-.372-.1c-.083-.349,2.41-4.031,4.607-12.157,2.656-9.947,2.951-20.384-.962-30a37.135,37.135,0,0,0-3.562-6.7,91.655,91.655,0,0,0-7.586-8.008,33.038,33.038,0,0,1-2.534-2.424c-.081-.325-.014-.077,1.445-3.374a26.815,26.815,0,0,0,1.355-3.573c2.043-7.055,1.6-14.594,1.36-25.269a41.808,41.808,0,0,0-6.045-1.836c-.373,1.984-1.334,7.9-1.141,9.895a.52.52,0,0,1-.27.566c-.611.248-5.56-1.8-12.088,1.588-1.377.723-1.354.905-1.768.763h0a11.508,11.508,0,0,0-4.245-3.037,18.708,18.708,0,0,0-4.977-1.278h0c-.518-.2-.311.389-1.477-12.886h0l-5.091-.735c-1.114,7.662-1.94,9.736-2.853,12.15-2.692,7.035-5.338,11.986-3.676,18.995a37.522,37.522,0,0,0,3.573,8.855c.1.177,1.211,2.094,1.666,2.77.638.93.6.812.659,1.04h0c.044.6-.928,1.163-3.693,5.857-7.26,12.406-11.372,26.854-13.033,41.011-1.951,16.632-.427,25.2,2.518,33.318a73.235,73.235,0,0,0,6.016,12.13c.776,1.125.828,1.087.895,1.347.165,0-2.534,17.565-2.051,20.725,3.719-.827,29.59-7.245,33.326-8.172-7.289-9-7.591-9.364-11.372-15.709-.084-.142-.838-1.411-.91-1.559h0c-.077-.244-.154.288,2.3-10.551A.476.476,0,0,1,188.326,231.906Z"/><path class="a" d="M182.731,197.382a63.592,63.592,0,0,0-1.653,9.9c-.771,8.217.022,18.992,6.389,24.2.935.77.749.411.856.91-.391.081-.291.083-.4.015-9.334-5.889-9.261-21.6-6.9-32.448,1.267-5.778,3.415-13.206,5.118-18.873C187.046,180.568,186.712,180.113,182.731,197.382Z"/><path class="a" d="M202.548,150.7l-.1.309c-5.613,3.242-17.531,5.155-26,3.318l-.193-.265.265-.194c7.423.756,18.94-.784,24.742-2.877C202.492,150.544,202.093,150.557,202.548,150.7Z"/><path class="a" d="M190.644,262.284l0-.013,0,.006,0-.011,0,.007,0-.008v.007l0-.01,0,.017,0-.01a45.033,45.033,0,0,1,.122,6.324c-.036.656-.236.849-.359.949h0a3.31,3.31,0,0,1-.86.345,9.01,9.01,0,0,1-1.618.289,1.4,1.4,0,0,1-.944-.075h0c-.545-.327-.581-1.263-.693-2.08-5.461,2.219-4.917,1.9-7.246,2.985-1.743.819-5.291,2.532-7.707,2.739-.595.065-1.679.49-2.277-.006h0a.769.769,0,0,1-.175-.221h0a.973.973,0,0,1-.06-.7,2.73,2.73,0,0,1,.42-.847c.705-.94,4.981-5.7,4.912-5.6.086-.117.122-.26.288-.317a.248.248,0,0,1,.145.013l.03.015c.224.151.081.243-.066.425l.018,0a.217.217,0,0,0,.087-.056l0,.005.011-.013,0,.006.006-.009,0,.008,0-.007,0,.008,0-.007c-.434.685-3.222,4.136-4.349,5.657a3.229,3.229,0,0,0-.511.827c-.015.044-.027.038.1.029a3.293,3.293,0,0,0,.491-.087,18.3,18.3,0,0,0,3.14-.754,42.607,42.607,0,0,0,5.421-2.339c2.048-.951,7.441-3,7.565-3.018.488,0,.68.4.812.881h0c.075.3.1,1.073.216,1.514.008.03,0,.025.037.022a9.1,9.1,0,0,0,2.131-.324c.121-.039.12-.008.154-.225.015-.1.194-1.89.283-3.924.063-1.533-.117-2.425.108-2.689l.044-.032.044-.019a.267.267,0,0,1,.084-.012l.042,0c.282.086.159.248.095.4l.024-.022.019-.027a.185.185,0,0,0,.016-.031ZM169.783,273.1l0-.011v.008l0,.011,0-.012,0,.009,0-.012Zm0-.011,0,0,0,0Zm17.7-3.911h0l-.006,0Zm0,0-.012,0,.016,0-.012,0,.009,0-.013,0Zm2.347-.329-.011.016.01-.015-.008.014.011-.019-.006.013.008-.016h0l-.009.01.008-.008-.013.016Zm0,0,0,0h0Zm-3.64-1.16h0l-.005-.006Zm-11.9-1.338a.214.214,0,0,0,.044.092l.036.035.052.031.061.016h.036l-.231-.186Zm15.968-4.037,0-.007.006.01,0-.006a.179.179,0,0,0,.03.042l.028.025.034.02a.259.259,0,0,0,.068.02.291.291,0,0,0,.081,0l-.239-.1,0-.008Z"/><path class="a" d="M217.94,208.041h0l-.067.321.057-.054h0l.016-.023,0,0,.006-.01,0,.006a58.232,58.232,0,0,1-7.661,15.195l-.317.079-.075-.318c.427-.872,7.251-14.9,7.725-15.269h0Z"/><path class="a" d="M168.463,241.424h-6.246a57.673,57.673,0,0,1-3.515-8l2.657-4.778Z"/><path class="a" d="M161.851,241.693a52.5,52.5,0,0,1-2.43-4.866,33.686,33.686,0,0,1-1.288-3.4c.019-.239-.2.2,2.479-4.618h0c.281-.5.252-.469.361-.585a.572.572,0,0,1,.7-.055c.388.3,7,12.989,7.024,13.262a.252.252,0,0,1-.032.113l-.023.032-.028.028a.228.228,0,0,1-.147.053v0C161.591,241.918,162.07,241.934,161.851,241.693Zm-2.5-8.15a69.08,69.08,0,0,0,3.157,7.427c2.273,0,2.047-.033,2.047.072l3.495.134c-4.18-6.9-4.832-8.068-6.681-11.354C159.148,233.805,159.308,233.434,159.346,233.543Z"/><path class="a" d="M224.2,183.932a55.027,55.027,0,0,1-1.146,8.978l-7.1-4.934Z"/><path class="a" d="M224.257,183.709a.229.229,0,0,1,.176.233c-.12-.006-.451-.02,0,0a42.914,42.914,0,0,1-.757,8.666c-.08.4-.07.526-.262.722a.553.553,0,0,1-.677.037c-.264-.18-7.041-4.825-7.242-5.064a.561.561,0,0,1,0-.641C215.783,187.317,224.067,183.681,224.257,183.709Zm-7.2,4.335c2.008,1.388,2.9,2,5.638,3.929a76.89,76.89,0,0,0,1.236-7.629C222.7,185.021,218.791,187.178,217.057,188.044Z"/><path class="a" d="M182.621,264.371l-2.264-6.608,9.94,2.279-2.489,3.043C186.147,263.5,184.393,263.932,182.621,264.371Z"/><path class="a" d="M179.866,257.6a.518.518,0,0,1,.437-.365c.345-.012,9.354,2.076,9.688,2.154.456.107.751.11.861.565.025.347.1.2-1.943,2.607-.868,1-.746.888-.913.968-.142.042-5.332,1.128-5.5,1.035a.225.225,0,0,1-.091-.117c.112-.038.427-.146,0,0C179.7,257.673,179.814,257.834,179.866,257.6Zm2.912,6.486c3.242-.984,1.9-.579,4.617-1.387h0l.144-.038,0,0,.749-.919-.021-.028c.906-1.156.673-.861,1.031-1.309-3.559-.805-6.815-1.571-8.175-1.9C181.73,260.465,182.392,262.759,182.778,264.084Z"/><path class="a" d="M172.655,195.179l-8.727,1.041,3.488-8.1Z"/><path class="a" d="M167.486,187.568c.325.072.234-.024,2.23,2.85,3.4,5,3.206,4.684,3.15,4.852a.227.227,0,0,1-.183.136c-.015-.118-.054-.448,0,0-3.195.546-5.783.965-8.691,1.35a.544.544,0,0,1-.531-.246c-.2-.379-.12-.339.873-2.677C167.041,187.5,166.9,187.534,167.486,187.568Zm-2.67,8.011c2.107-.227,5.952-.5,7.379-.6-1.626-1.984-2.965-3.608-4.633-5.755C166.866,190.873,165.528,193.95,164.816,195.579Z"/><path class="a" d="M229.333,221.147l-8.727,1.041,3.488-8.1Z"/><path class="a" d="M224.164,213.536c.325.072.233-.024,2.229,2.85,3.405,5,3.207,4.684,3.151,4.852a.227.227,0,0,1-.184.136c-.014-.118-.053-.448,0,0-3.195.546-5.783.965-8.691,1.35a.543.543,0,0,1-.531-.246c-.2-.379-.12-.339.872-2.677C223.719,213.471,223.577,213.5,224.164,213.536Zm-2.67,8.011c2.107-.227,5.952-.5,7.379-.6-1.627-1.984-2.965-3.608-4.633-5.755C223.544,216.841,222.206,219.918,221.494,221.547Z"/><path class="a" d="M188.806,165.659l-8.688-1.329,5.524-6.871Z"/><path class="a" d="M185.684,156.9a.556.556,0,0,1,.474.361c1.185,3.178,2.842,8.247,2.873,8.355a.227.227,0,0,1-.26.27c.018-.117.069-.446,0,0-4.022-.409-5.982-.652-7.733-.882-1.119-.156-1.219-.111-1.415-.437-.177-.44.1-.635.413-1.034C185.558,156.6,185.3,156.9,185.684,156.9Zm-4.539,7.052c2.091.343,5.869,1.11,7.271,1.392-1.038-2.346-1.893-4.269-2.927-6.783C184.378,159.963,182.267,162.571,181.145,163.951Z"/><path class="a" d="M210.817,141.3a25.415,25.415,0,0,1-1.6,4.521l-4.177.5,3.488-8.1Z"/><path class="a" d="M208.83,137.916c.185.243,2.1,3.149,2.171,3.25a.229.229,0,0,1,.038.194c-.116-.03-.438-.113,0,0a20.69,20.69,0,0,1-.88,3.351c-.469,1.338-.515,1.532-.85,1.609-.242.055-3.543.478-3.789.509v0c-.5.059-.539.086-.765-.02a.569.569,0,0,1-.285-.538c.062-.379,2.738-6.368,3.2-7.38.439-.925.426-1.045.765-1.12A.439.439,0,0,1,208.83,137.916Zm-2.874,7.739c1.786-.2,2.048-.217,2.875-.3h0l.067-.008a27.549,27.549,0,0,0,1.659-4c-1.869-2.253-1.531-1.844-1.852-2.238C208.117,140.629,206.736,143.86,205.956,145.655Z"/><path class="a" d="M198.316,124.793a17.284,17.284,0,0,1,3.009.009l3.333,4.488-8.728,1.041Z"/><path class="a" d="M201.608,124.506c.295.309,2.085,2.605,3.141,3.989l0,0c.4.542.41.519.457.734a.555.555,0,0,1-.3.566c-.322.132-7.711.95-8.88,1.076a.541.541,0,0,1-.547-.257c-.175-.36-.021-.482.372-1.314,2.389-4.937,2.255-4.7,2.441-4.733v0C198.761,124.493,201.245,124.232,201.608,124.506Zm-3.132.515c-.038.1-1.588,4.3-1.744,4.656,1.956-.258,5.06-.629,6.915-.84-2.784-3.86-2.425-3.647-2.726-3.683A17.011,17.011,0,0,0,198.476,125.021Z"/><path class="a" d="M181.381,142.893l-8.727,1.041,3.488-8.1Z"/><path class="a" d="M176.212,135.282c.325.073.233-.024,2.229,2.851,3.405,4.994,3.207,4.683,3.151,4.851a.228.228,0,0,1-.184.137c-.014-.119-.053-.449,0,0-3.195.545-5.783.964-8.691,1.349a.542.542,0,0,1-.531-.246c-.2-.379-.12-.338.873-2.677C175.767,135.218,175.625,135.248,176.212,135.282Zm-2.67,8.012c2.107-.228,5.952-.5,7.379-.6-1.626-1.983-2.965-3.608-4.633-5.755C175.592,138.588,174.254,141.664,173.542,143.294Z"/><path class="a" d="M179.972,110.305l.417,4.784-4.246.506,2.369-5.5Z"/><path class="a" d="M178.506,109.76c.095.018,1.474.313,1.536.327a.227.227,0,0,1,.158.2h0c.009.052.319,1.987.328,2.039.443,3.012.469,2.931.176,3.2a.578.578,0,0,1-.279.111c-2.979.391-3.816.471-3.713.471-.5.06-.78.169-1.059-.2-.186-.372-.046-.516.175-1.025.247-.558,2.121-4.731,2.408-5.028A.342.342,0,0,1,178.506,109.76Zm.223.721-.1.231.01.018-.641,1.5.074.09c-.322.867-.438,1.2-1.022,2.593,1.6-.181,1.677-.175,2.745-.3l.012.01-.021-.247.006,0-.05-.568.025.017c-.037-1.344-.031-2.016-.03-3.3l-1.026-.066Z"/><path class="a" d="M209.9,174.554,201.17,175.6l3.488-8.1Z"/><path class="a" d="M204.728,166.943c.326.073.234-.023,2.23,2.851,3.405,4.995,3.206,4.683,3.15,4.851a.226.226,0,0,1-.183.137c-.014-.118-.054-.449,0,0-3.194.546-5.783.965-8.691,1.349a.54.54,0,0,1-.53-.246c-.2-.379-.121-.338.872-2.677C204.283,166.879,204.141,166.909,204.728,166.943Zm-2.669,8.012c2.107-.227,5.952-.5,7.378-.6-1.626-1.984-2.964-3.608-4.632-5.756C204.109,170.249,202.771,173.325,202.059,174.955Z"/><path class="a" d="M199.806,208.56l10.091-4.573-.49,10.1Z"/><path class="a" d="M210.037,203.454a.554.554,0,0,1,.417.56c-.012.287-.431,10-.525,10.289a.561.561,0,0,1-.552.344c-.48-.051-9.281-5.633-9.633-5.855-.17-.108-.215-.217-.122-.369l.026-.028a.235.235,0,0,1,.064-.044c.049.109.186.412,0,0,5.857-2.96,8.166-4.025,9.879-4.824A.592.592,0,0,1,210.037,203.454Zm-9.683,5.134c2.582,1.353,5.846,3.055,8.527,4.565.055-1.3.219-4.674.411-8.3C206.024,206.293,203.47,207.321,200.354,208.588Z"/><path class="a" d="M180.893,219.735a26.639,26.639,0,0,0,1.353,4.785l-3.374,4.126-3.484-10.173Z"/><path class="a" d="M175.417,218c.217.043,5.5,1.487,5.6,1.539a.222.222,0,0,1,.094.115l.01.037h0c1.051,4.227,1.837,4.616,1.493,5.13-1.209,1.561-1.193,1.536-2.445,3.1l.008.007c-.992,1.214-.915,1.174-1.176,1.261a.564.564,0,0,1-.627-.278c-.224-.506-2.679-7.792-3.4-10.053-.093-.3-.168-.491.08-.745A.468.468,0,0,1,175.417,218Zm3.671,9.513c2.806-3.375,2.656-3.03,2.611-3.165a25.051,25.051,0,0,1-1.013-4.419c-3.519-.639-2.5-.45-4.523-.834C177.026,221.455,178.288,225.156,179.088,227.514Z"/><path class="a" d="M136.625,39.722c6.747,2.016,11.843,5.7,15.11,11.7a22.214,22.214,0,0,1,2.379,14.507,24.093,24.093,0,0,1-16.252,17.741c-15.054,4.676-29.474-3.6-33.058-17.073a21.075,21.075,0,0,1-.712-4.371,27.17,27.17,0,0,1,1.587-7.85c1.7-4.816,3.52-7.1,7.459-10.179A25.331,25.331,0,0,1,136.625,39.722Zm-7.372-.346c-6.951.049-12.888,2.887-17.965,7.8a13.654,13.654,0,0,0-2.878,3.677,28.826,28.826,0,0,0-3.152,10.388,8.974,8.974,0,0,0,.112,2.548c2.014,12.808,13.971,22.117,28.85,19.6a22.87,22.87,0,0,0,13.6-7.343,24.372,24.372,0,0,0,5.776-12,23.646,23.646,0,0,0-.1-4.908,22.485,22.485,0,0,0-7.232-13.85l0,0C143.072,42.462,136.235,39.376,129.253,39.376Zm17.468,5.7h0C146.6,44.971,146.613,44.981,146.721,45.079Z"/><path class="a" d="M105.064,59.686a4.918,4.918,0,0,0,1.719,1.357c8.54,4.539,32.384,4.936,42.844,1.327,3.959-1.39,4.2-2.708,4.125-2.5l.006-.017v.006l0-.015.276-.171.17.276a1.842,1.842,0,0,1-.442.724,10.131,10.131,0,0,1-3.133,2.058c-9.135,4.143-27.763,3.945-37.627,1.331-2.27-.606-7.032-2.089-8.291-4.063-.062-.1-.051-.031.03-.39Z"/><path class="a" d="M150.113,53.972c2.066-.76,1.392-.779,1.962-.61-.114.368-.015.27-.383.473-10,5.4-36.61,4.871-45.048-.366l-.085-.318.317-.084C115.061,57.469,140.663,57.387,150.113,53.972Z"/><path class="a" d="M115.46,48.294a107.378,107.378,0,0,0,30.476.1c3.649-.6,2.844-.784,3.4-.479l-.159.284c-9.92,3.273-28.917,3.326-38.754-.6-.1-.04-.047.017-.208-.323C110.939,46.942,109.937,47.337,115.46,48.294Z"/><path class="a" d="M147.864,76.922l-.15.29c-9.894,3.675-26.393,3.638-35.462.825l-.164-.284.284-.164c7.858,1.754,23.274,1.8,32.863-.236C148.083,76.739,147.36,76.668,147.864,76.922Z"/><path class="a" d="M138.868,42.515c4.3-.179,3.5-.337,3.922-.019l-.2.258a67.644,67.644,0,0,1-25.64-.215l-.191-.267.266-.192A152.945,152.945,0,0,0,138.868,42.515Z"/><path class="a" d="M153.582,67.146c-.231.66-1.32,1.433-1.917,1.812-9.064,5.672-35.051,5.694-45.173.838-.109-.052-.062.013-.2-.346.537-.2-.091-.154,2.123.531,6.077,1.849,15.181,2.3,21.558,2.165,5.563-.123,18.651-.908,22.765-4.659a1.858,1.858,0,0,0,.406-.489l0,0,.007-.017,0,.006,0-.015,0,.007,0-.011.276-.17h0C153.612,67.1,153.614,67.046,153.582,67.146Z"/><path class="a" d="M129.155,38.6a18.743,18.743,0,0,1,13.384,6.5h0a27.393,27.393,0,0,1,5.9,18.839,26.608,26.608,0,0,1-1.1,5.56c-2.555,8.335-7.969,14.622-16.627,15.391-10.648.909-18.258-8.311-20.176-18.969a20.024,20.024,0,0,1,.13-8.567,32.959,32.959,0,0,1,2.381-7.779,16.7,16.7,0,0,1,2.883-4.177C120.354,40.367,124.889,38.576,129.155,38.6ZM126.2,39.719a14.557,14.557,0,0,0-3.65,1.4,22.989,22.989,0,0,0-8.305,8.393A33.343,33.343,0,0,0,111.255,62.6a28.667,28.667,0,0,0,2.151,9.073c2.952,6.951,8.852,12.436,16.456,12.127,7.573-.334,12.641-5.061,15.6-11.976a24.7,24.7,0,0,0,1.8-14.586,25,25,0,0,0-5.187-11.977l0,0C138.65,41.272,132.082,38.37,126.2,39.719ZM142.539,45.1h0l-.06-.071Z"/><path class="a" d="M131.246,38.942c2.853.9,5.46,3.619,6.826,6.189h0c3.708,6.731,4.753,16.28,3.308,24.014-1.405,7.394-5,16.037-12.449,15.813-8.552-.355-12.786-15.568-12.287-24.329a54.518,54.518,0,0,1,1.407-9.333,20.223,20.223,0,0,1,2.683-6.355C123.205,40.886,126.709,37.538,131.246,38.942ZM121.327,45.8a19.024,19.024,0,0,0-2.207,5.487,54.525,54.525,0,0,0-1.3,8.261,36.289,36.289,0,0,0,2.924,16.685c1.572,3.41,4.345,7.333,8.1,7.574a7.523,7.523,0,0,0,3.6-.744c7.848-3.828,12.173-24.41,5.147-37.84l0,0a14.429,14.429,0,0,0-2.772-3.4C129.484,37.038,124.847,39.552,121.327,45.8Zm16.745-.67h0l-.006-.011Z"/><path class="a" d="M132.637,45.238a99.819,99.819,0,0,1,1.5,21.167c-.142,3.671-.814,16.074-3.809,18.207-5.774,4.015-7.291-26.131-4.315-39.518.4-1.783,1.385-6.03,3.046-6.418C131.1,38.227,132.216,43.205,132.637,45.238Zm-4.706-4.027c-3.124,8.275-2.967,29.429-.5,38.847,4,15.075,7.713-17.944,4.72-34.9h0c-.278-1.306-1.4-5.435-2.669-5.825C128.8,39.123,128.186,40.548,127.931,41.211Z"/><path class="a" d="M129.664,26.026a.228.228,0,0,1,.136.074l.024.032.018.035a.232.232,0,0,1,.017.077h0l-.014.016h.015a57.011,57.011,0,0,1-.109,12.54l-.229.232-.229-.232a53.955,53.955,0,0,1,.053-12.139c.053-.446.025-.612.278-.638Z"/><path class="a" d="M22.085,178.7c-1.346,4.727-2.032,4.253-1.345,4.356a22.031,22.031,0,0,1,4.128,1.159.485.485,0,0,1,.262.36v0c-.148.438-.053.315-.392.554h0c-.4-.114-.268-.028-.553-.393l0,0a.523.523,0,0,0,.1.226h0l.055.055h0l.044.035h0l.035.021h0l.039.019h-.007l.035.015-.009,0,.024.009h-.011l.017,0h-.013l.013,0-.022,0,.009,0a15.813,15.813,0,0,1-5.63.063,1.8,1.8,0,0,1-1.153-.644c-.469-.772-.133-1.233.321-2.041a18.334,18.334,0,0,1,3.218-4.284l.667-.184Z"/><path class="a" d="M27.723,176.482c-1.424,4.16-1.866,3.789-1.455,3.848a17.513,17.513,0,0,1,3.593.866c.772.256.835.283.913.574h0l-.366.535-.535-.366h0a.462.462,0,0,0,.163.273h0l.042.029h0l.033.018h0l.035.017-.008,0,.032.013h-.009l.021.006h-.011l.015,0a28.68,28.68,0,0,1-3.206.329,16.135,16.135,0,0,1-2.223-.195,1.8,1.8,0,0,1-1.4-.748h0a1.743,1.743,0,0,1-.108-.261h0a1.6,1.6,0,0,1,.382-1.355,17.846,17.846,0,0,1,3.311-4.075l.64-.147ZM25.4,181.577l.008-.016-.006.012.01-.021h0Z"/><path class="a" d="M254.752,90.291h0a1.629,1.629,0,0,1,.26.111h0c.517.347.548.609.8,1.811a17.014,17.014,0,0,1,.358,4.654l-.356.552-.552-.355A18.2,18.2,0,0,1,253.74,93.2a17.582,17.582,0,0,1-3.8,2.223.513.513,0,0,1-.558-.006h0l-.112-.639.639-.112h0a.462.462,0,0,0-.308-.081h0l-.051.008h0l-.036.009,0,0-.037.013.006,0-.031.014.007-.006-.02.01.009-.008-.014.008.009-.009-.01.006.011-.011-.008.005a15.989,15.989,0,0,1,3.439-3.63,3.161,3.161,0,0,1,1.436-.734A1.327,1.327,0,0,1,254.752,90.291Zm-1.387,1.521,0-.013.008.022h0l-.009-.026Z"/><path class="a" d="M33.942,173.79c-1.425,4.16-1.866,3.789-1.455,3.848a17.523,17.523,0,0,1,3.592.866c.773.256.835.283.914.574h0l-.366.535-.535-.366h0a.464.464,0,0,0,.164.273h0l.043.029h0l.032.018h0l.036.017-.008,0,.032.013h-.01l.022.006h-.012l.016,0a28.71,28.71,0,0,1-3.207.329,16.161,16.161,0,0,1-2.223-.2,1.8,1.8,0,0,1-1.4-.748h0a1.579,1.579,0,0,1-.108-.261h0a1.6,1.6,0,0,1,.381-1.355,17.85,17.85,0,0,1,3.312-4.075l.64-.147Zm-2.325,5.095.007-.016,0,.012.01-.021h0Z"/><path class="a" d="M251.96,96.306h0a1.573,1.573,0,0,1,.259.111h0c.518.347.548.609.8,1.811a17.023,17.023,0,0,1,.357,4.654l-.355.552-.552-.355a18.217,18.217,0,0,1-1.518-3.865,17.632,17.632,0,0,1-3.8,2.222.511.511,0,0,1-.558-.006h0l-.112-.639.638-.112h0a.462.462,0,0,0-.308-.081h0l-.051.008h0l-.036.009h0l-.037.013.006,0-.031.014.007-.006-.02.01.009-.008-.014.008.009-.009-.01.006.011-.01-.008,0A15.971,15.971,0,0,1,250.089,97a3.173,3.173,0,0,1,1.435-.734A1.359,1.359,0,0,1,251.96,96.306Zm-1.387,1.521,0-.013.008.022h0l-.009-.027Z"/><path class="a" d="M40.492,170.626c-1.425,4.16-1.866,3.789-1.455,3.848a17.523,17.523,0,0,1,3.592.866c.773.256.835.283.914.574h0l-.366.535-.535-.366h0a.464.464,0,0,0,.164.273h0l.043.03h0l.032.018h0l.036.017H42.9l.032.012h-.01l.022.006h-.012l.016,0a28.71,28.71,0,0,1-3.207.329,16.135,16.135,0,0,1-2.222-.195,1.8,1.8,0,0,1-1.4-.748h0a1.579,1.579,0,0,1-.108-.261h0a1.6,1.6,0,0,1,.381-1.355,17.85,17.85,0,0,1,3.312-4.075l.64-.147Zm-2.325,5.095.007-.016-.005.013.01-.022h0Z"/><path class="a" d="M249.872,102.816h0a1.628,1.628,0,0,1,.26.111h0c.518.347.548.609.8,1.811a17.014,17.014,0,0,1,.358,4.654l-.356.552-.552-.355a18.14,18.14,0,0,1-1.517-3.865,17.672,17.672,0,0,1-3.8,2.222.511.511,0,0,1-.558-.006h0l-.112-.639.639-.112h0a.466.466,0,0,0-.308-.081h0l-.051.008h0l-.036.009h0l-.037.013.007-.005-.032.014.008-.006-.021.01.009-.008-.014.008.01-.009-.01.006.01-.01-.007,0A15.964,15.964,0,0,1,248,103.509a3.176,3.176,0,0,1,1.436-.734A1.356,1.356,0,0,1,249.872,102.816Zm-1.386,1.521,0-.013.008.022h0l-.009-.027Z"/><path class="a" d="M15.925,114.252c1.073.31,1.057,1.2,1.708,4.841a24.238,24.238,0,0,1,3.638-2.39.937.937,0,0,1,.717.089,1.075,1.075,0,0,1,.484.8c.271,1.162.769,5.4.74,5.3v.007l-.006-.019v0l-.016-.04v0l-.043-.074c-.162-.155-.172-.2.069.186l-.055.331,0,0-.281.183c-.655-.1-.293.4-1.763-4.51-3.57,2.971-3.461,3.116-4.133,3.237h0a1.153,1.153,0,0,1-1.241-.977c-.189-.756-.582-3-.813-4.156h0c-4.694,2.68-4.377,2.606-4.929,2.593h0c-1.172-.177-1.154-1.061-1.016-4.493-.4.247-2.82,1.764-3.182,2.023l.008-.007-.009.006.008-.007-.007.006.012-.013,0,0,.021-.023,0,0c.073-.1.032-.039.093-.179,0-.306.018-.33-.052.119l-.279.212h0l-.337-.054-.225-.279c-.1-.349.182-.522.815-1.084.733-.648,3.456-3.061,3.861-3.225a.876.876,0,0,1,1.019.409c.1.217.115-.01.276,3.2.029.555.025.445.025.465C15.016,114.3,15.353,114.125,15.925,114.252ZM16.2,120.2l.018-.013Zm-5.069-1.883,0-.022,0,.015-.006-.028,0,.014,0-.018A.185.185,0,0,0,11.129,118.312Zm9.644-.337-.006-.009.014.027-.008-.013.018.034L20.784,118l.024.04a.5.5,0,0,0-.042-.087Z"/><path class="a" d="M270.741,195.022c.742.205.82.646,1.192,3.615.253,2.044.346,2.709.312,2.59v.007l-.006-.019,0,0-.017-.04v0l-.043-.074c-.162-.155-.172-.2.069.185l-.055.331,0,0-.282.184c-.683-.1-.291.41-1.763-4.51-3.785,3.15-3.472,3.118-4.133,3.236h0c-1.193.019-1.258-.989-1.431-1.857-.207-1.049-.451-2.415-.623-3.275-.312.1-4.13,2.493-4.654,2.582a1.2,1.2,0,0,1-.276.011h0c-.888-.134-1.022-.745-1.056-1.628-.03-1.039,0-2.007.039-2.865-3.068,1.916-3.274,2.1-3.174,2.016l-.009.006.008-.007-.007,0,.013-.012-.006,0,.021-.022,0,0c.073-.1.032-.038.093-.178,0-.306.018-.331-.052.119l-.279.212h0l-.337-.055-.225-.278a.5.5,0,0,1,.19-.52c.2-.2,2.8-2.5,4.223-3.656a.874.874,0,0,1,1.1.046c.327.341.278.412.347,1.452.011.167.14,2.347.14,2.444,3.418-2.092,4.134-2.5,4.652-2.53a1.2,1.2,0,0,1,1.134.821,37.754,37.754,0,0,1,.833,4.049c.759-.577,2.243-1.635,3.094-2.135A1.356,1.356,0,0,1,270.741,195.022Zm-5.51,3.509.018-.014Zm-5.077-1.922a.333.333,0,0,0,.008.039l0-.023,0,.016-.006-.028,0,.014Zm9.653-.3-.007-.008.014.027-.008-.013.018.033-.007-.011.024.041a.379.379,0,0,0-.042-.087Z"/><path class="a" d="M267.9,146.9l.309.144c.169.392.152.4.12.181v0l-.023-.058,0,0-.01-.02.007.006a13.218,13.218,0,0,1,1.782,1.669c2.912,3.752,2.75,4.872,3.1,5.578l-.009-.008,0,0,.006.015-.006.652c.1,0-.552-.011-.652-.013-.033-.021-.075-.051-.107-.074a9.227,9.227,0,0,1-2.776-2.818,12.606,12.606,0,0,1-2.194-4.627.467.467,0,0,1-.031-.183h0l.475-.454Z"/><path class="a" d="M273.85,147.846l.485.442h0v0l-.122.319c-.379.2-.393.18-.172.132l0,0,.057-.027,0,0,.019-.012,0,.007.009-.006c-.012.021-.571.779-.585.8a10.558,10.558,0,0,1-2.288,2.227,10.886,10.886,0,0,1-3.215,2.018c-.015.007-.794.333-.808.341l.007-.009,0,0-.015.007c-.1.006-.751.04-.651.04-.039-.787-.061-.606.074-.827a9.562,9.562,0,0,1,2.891-3.149,11.342,11.342,0,0,1,3.978-2.2A1.173,1.173,0,0,1,273.85,147.846Z"/><path class="a" d="M289.954,104.074a7.714,7.714,0,0,1,1.066.094,3.626,3.626,0,0,1,3.632,2.363c1.208,2.9-.758,6.647-5.1,6.075a4,4,0,0,1-2.356-1.195,4.793,4.793,0,0,1-1.25-4.448,4.082,4.082,0,0,1,.479-1.106A3.974,3.974,0,0,1,289.954,104.074Zm1.014,1.018a4.374,4.374,0,0,0-1.831.5,2.492,2.492,0,0,0-1.057,1.171l0,0a2.4,2.4,0,0,0-.161.992,2.565,2.565,0,0,0,1.981,2.573,3.347,3.347,0,0,0,1.9-.27h0a1.729,1.729,0,0,0,.583-.518,3.086,3.086,0,0,0,.557-1.264,2.962,2.962,0,0,0-.358-2.131,2.283,2.283,0,0,0-1.611-1.06Z"/><path class="a" d="M28.858,140.391a7.566,7.566,0,0,1,1.066.093,3.626,3.626,0,0,1,3.632,2.364c1.208,2.9-.758,6.647-5.1,6.075a4,4,0,0,1-2.356-1.2,4.794,4.794,0,0,1-1.251-4.447,4.112,4.112,0,0,1,.48-1.107A3.972,3.972,0,0,1,28.858,140.391Zm1.014,1.018a4.369,4.369,0,0,0-1.831.5,2.493,2.493,0,0,0-1.057,1.172h0a2.4,2.4,0,0,0-.161.992,2.565,2.565,0,0,0,1.98,2.573,3.336,3.336,0,0,0,1.9-.27h0a1.718,1.718,0,0,0,.584-.518,3.088,3.088,0,0,0,.557-1.263,2.965,2.965,0,0,0-.358-2.132,2.286,2.286,0,0,0-1.611-1.06Z"/><path class="a" d="M93.3,49.327c.34.032.333.22.433.32a8.9,8.9,0,0,0,4.248,3.9c.465.212.638.219.9.683a1.045,1.045,0,0,1,.051.7c-.286.753-.659.517-1.869,1.529a7.151,7.151,0,0,0-1.335,1.52h0c-1.339,2.009-.981,3.119-2.389,3.043-.757-.17-.785-.5-1.188-1.27A8.987,8.987,0,0,0,90.239,57.3,12.524,12.524,0,0,0,87.718,55.6a1.033,1.033,0,0,1-.382-1.2c.32-.7.581-.495,1.811-1.142a9.083,9.083,0,0,0,3.721-3.656l.006,0A.459.459,0,0,1,93.3,49.327Zm-2.891,5.348a10.788,10.788,0,0,1,2.972,2.747,9.181,9.181,0,0,1,2.3-2.681c.5-.382.289.13-1.12-1.581a9.411,9.411,0,0,1-1.282-2.114A9.387,9.387,0,0,1,90.413,54.675Z"/><path class="a" d="M178.822,69.691c-.02,1.378-1.485.762-3.24,3.4h0a10.43,10.43,0,0,0-.874,1.622c-.359.818-.362,1.187-1.132,1.41a1.15,1.15,0,0,1-1.274-.653,9.328,9.328,0,0,0-3.98-4.346c-.825-.473-.748-.377-.993-.657a1.033,1.033,0,0,1,.027-1.264c.3-.31.3-.247,1-.539a9.056,9.056,0,0,0,4.371-3.964l.006,0a.458.458,0,0,1,.638-.211c.436.288,1.021,2.476,4.229,4.05C178.3,68.888,178.7,68.914,178.822,69.691Zm-8.555.1a10.788,10.788,0,0,1,2.972,2.747,9.162,9.162,0,0,1,2.3-2.681c.5-.382.289.129-1.12-1.581a9.374,9.374,0,0,1-1.282-2.114A9.387,9.387,0,0,1,170.267,69.787Z"/><path class="a" d="M79.887,97.8c-.512-.112-1.019-.349-1.5-.5a5.04,5.04,0,0,1-2.052-1.308,6.71,6.71,0,0,1-.744-8.9c1.537-2.022,4.259-3.47,6.723-2.61a8.09,8.09,0,0,1,.551-1.325,5.122,5.122,0,0,1,4.482-2.535A5.409,5.409,0,0,1,91.7,82.659s-.282-5.627,6.525-7.318a7.933,7.933,0,0,1,7.839,2.48,6.5,6.5,0,0,1,.534,6.536,13.213,13.213,0,0,1-4.346,5.364,24.247,24.247,0,0,1-5.423,2.48,18.1,18.1,0,0,1-7.637,1.123,19.687,19.687,0,0,1-4.028-.856c.348.8-.262,3.744-1.781,5.144C82.234,95.824,80.239,96.342,79.887,97.8Z"/><path class="a" d="M91.25,81.421c1.207-6.708,10.63-9.407,15.278-3.94a6.963,6.963,0,0,1,.8,6.579,13.385,13.385,0,0,1-6.064,6.9,38.154,38.154,0,0,1-5.107,2.015,19.12,19.12,0,0,1-8.221.634,13.653,13.653,0,0,1-2.308-.624A7.627,7.627,0,0,1,84.6,96.531c-.177.3-.856,1.326-1.206,1.376-.407-.014-.411-.758-1.378-1.09a1.479,1.479,0,0,0-1.283.155c-.763.508-.463,1.105-.9,1.047l.009-.039-.01.042a21.651,21.651,0,0,1-2.062-.678,7.237,7.237,0,0,1-3.852-5.518c-.579-4.843,4.038-8.8,8.066-7.947A5.862,5.862,0,0,1,91.25,81.421ZM85.232,92.072c.184.02.623.193,1.227.368a16.911,16.911,0,0,0,8.192-.066,39.009,39.009,0,0,0,4.775-1.752c4.382-1.736,8.36-6.826,6.9-11.15-1.128-3.163-6.191-5.3-10.877-2.379a6.84,6.84,0,0,0-3.224,5.742.558.558,0,0,1-.974.159,4.865,4.865,0,0,0-8.114.739c-.407.915-.318,1.21-.828,1.246h0a.947.947,0,0,1-.3-.071A5.22,5.22,0,0,0,77.3,85.991a6.443,6.443,0,0,0,.1,10.53,5.164,5.164,0,0,0,1.438.667c.359.137.595.235.894.325a2.075,2.075,0,0,1,3.679-.358,6.705,6.705,0,0,0,1.353-2.928,4.086,4.086,0,0,0,.079-1.538.449.449,0,0,1-.017-.406A.393.393,0,0,1,85.232,92.072Z"/><path class="b" d="M87.9,109.958a8.28,8.28,0,0,1-3.21-2.658,16.77,16.77,0,0,1-2.557-5.742c-4.941-3.494-.665-6.929,1.249-3.946,1.519-1.4,2.129-4.342,1.781-5.144a19.651,19.651,0,0,0,4.028.855A18.071,18.071,0,0,0,96.827,92.2a11.555,11.555,0,0,0,2.807-1.088,5.507,5.507,0,0,1,.285.713,12.729,12.729,0,0,1,.463,2.246c.4,2,1.265,11.886-1.969,14.689a9.281,9.281,0,0,1-3.166,1.715c-.041.992-.112,1.827-.112,1.827s2.463-.268,2.979.248c.149.149-6.9,26.374-7.117,26.482-.121.061-7.051-26.714-6.951-26.813.6-.6,3.558-.414,3.558-.414S87.752,110.928,87.9,109.958Z"/><path class="a" d="M99.424,90.61c.658-.221.8.442,1.062,1.167a11.6,11.6,0,0,1,.4,1.989c.615,3.382.741,9.189-.329,12.408-.665,2.116-1.714,3.6-4.754,4.718-.028.552-.038.659-.045.786.852-.047,2.18-.093,2.8.5.176.26.158.392.066.816-.61,2.773-6.684,25.467-7.169,26.311a.535.535,0,0,1-.658.219c-.316-.158-.3-.13-1.205-3.611-1.713-6.6-5.958-23.494-5.8-23.834.321-.647,2.885-.573,3.6-.535.08-.451.162-.933.238-1.4.015-.086.052-.03-.262-.2a8.3,8.3,0,0,1-2.874-2.44,17.67,17.67,0,0,1-2.336-4.6c-.567-1.747.07-.666-1.228-1.866-3.579-3.347.149-6.537,2.423-4.151.069.074.045.072.09.017a6.217,6.217,0,0,0,1.28-4.243.473.473,0,0,1-.017-.366c.377-.877,1.346.329,4.244.51a19.039,19.039,0,0,0,8.388-1.343C99.527,90.8,99.037,90.8,99.424,90.61Zm-2.9,2.271a18.958,18.958,0,0,1-8.659.8,13.658,13.658,0,0,1-2.141-.561c0,1.909-1.359,4.445-2.18,4.884-.4.13-.508-.158-.687-.391-1.571-1.991-4.482.41-1,3.3.853.7.409.069.927,1.791a15.577,15.577,0,0,0,.675,1.8C84.8,107.525,86.1,108.768,88,109.75l0,0,.031.019c.138.114.094.22.068.4-.254,1.81-.231,1.835-.47,1.88a10.569,10.569,0,0,0-3.269.292c.513,2.254,5.388,20.3,6.645,24.85,1.189-4.225,5.485-20.152,6.463-24.31a8.88,8.88,0,0,0-2.174-.021.6.6,0,0,1-.594-.185c-.217-.294-.131-.274-.054-1.7.028-.531-.023-.709.246-.959l.083-.054h0a11.035,11.035,0,0,0,2.063-.925,4.638,4.638,0,0,0,2.236-2.655c1.539-4.054.949-12.114.093-14.475C98.685,92.222,98.033,92.346,96.528,92.881Z"/><path class="a" d="M97.449,104.251a4.769,4.769,0,0,1-.685,1.386h0a3.563,3.563,0,0,1-3.31,1.541c-.206-.032-.148,0-.281-.153l.124-.108a3.56,3.56,0,0,0,.951-.2h0a4.653,4.653,0,0,0,2.095-1.431h0c1.14-1.236.675-1.056,1.053-1.194Z"/><path class="a" d="M93.53,98.777v.014l0,0V98.8l0,.023v0l.009.037v0l.031.06.017.016,0-.309c.01-.013,0-.01.044-.043l.024-.013a.244.244,0,0,1,.114-.026l.034,0c.231.055.191.239.22.38v-.01l0,.017v0a7.078,7.078,0,0,1,.545,1.162,15.66,15.66,0,0,0,.745,1.775c.317.589.373,1.058-.165,1.462a2.453,2.453,0,0,1-1.288.429c-.321.046-.285.006-.522-.218l.227-.234.023-.009h-.009l.024-.01H93.6c.026-.013.088-.058.111-.074.444-.315.309-.154.645-.511.057-.065.069-.085.072-.088a6.647,6.647,0,0,1-.88-2.365,6.443,6.443,0,0,1-.05-1.159c0-.115-.043-.126.029-.309v.01Zm.968,3.7,0-.008-.014.034,0-.008-.011.032,0-.008-.005.016a.273.273,0,0,0,.03-.056l0-.013v0l0-.008-.007.012,0-.014Zm-.577-3.541-.31.006.023.021.06.029.065.01L93.813,99l.057-.021h0l.041-.027,0,0,.022-.019Z"/><path class="c" d="M96.878,99.7c-.184-.186-.183-.256-.172-1.117,0-.176,0-.334,0-.39l.574-.047.208-.538c.561.216.307.805.369,1.61l-.57.077Z"/><path class="c" d="M88.7,99.591a2.421,2.421,0,0,1,.069-.976.577.577,0,0,1,1.071.43c-.012.069.018.4.018.528,0,.034-.008.122-.011.155C90.133,100.593,88.585,100.923,88.7,99.591ZM89.71,99.5h0Zm0,0h0Z"/><path class="a" d="M117.721,56.644c-.061.024-.028.7-.065.774-.322.643-.009,1.57-.238,2.256a11.622,11.622,0,0,0-.118,3.383c0,.294-.044.965.118,1.128.239.238.9-.026,1.188.118,1.564.782,4.691.12,5.757.653a2.451,2.451,0,0,0,.653.119c.247-.247-.119-1.417-.119-1.721,0-1.528-.118-3.163-.118-4.749,0-.23.406-1.255.237-1.424-.2-.2-1.366-.119-1.662-.119-1.011,0-2.121-.356-3.264-.356-.541,0-1.1-.119-1.6-.119-.227,0-.861.06-.653.06"/><path class="a" d="M141.719,64.927c-.231.273-.314,2.264-.559,3-.237.712-.283,2.658-.771,3.146a5.377,5.377,0,0,0-.119.89c.188.188,1.2-.119,1.425-.119a8.11,8.11,0,0,0,3.383-.771c.35-.175,1.146-.077,1.424-.356.719-.719.553-3.023.891-4.036a7.865,7.865,0,0,0,.593-2.434c0-.129.179-.652.06-.772a11.284,11.284,0,0,0-1.662.416c-.584.292-1.463.092-2.078.3a10.379,10.379,0,0,1-2.73.534"/><path class="a" d="M136.753,43.18c.028-.16.158.285.248.421a9.631,9.631,0,0,1,.678,1.048,14.346,14.346,0,0,1,1.253,2.916,10.6,10.6,0,0,0,1.213,2.138c.2.2.878-.19,1.048-.247.915-.3,1.754-.255,2.65-.554.223-.074.8.059.987-.124.049-.049-.219-.513-.247-.554-.434-.652-1.009-.991-1.417-1.6a26.719,26.719,0,0,0-3.329-3.883c-.24-.24-1.85.184-2.281.184-.277,0-1.335-.02-1.171.062"/></svg>