<svg xmlns="http://www.w3.org/2000/svg" viewBox="0 0 300 300"><defs><style>.a,.c{fill:#212121;}.a,.b{fill-rule:evenodd;}.b,.d{fill:#fff;}</style></defs><title>In Love</title><path class="a" d="M40.069,251.115c9.492-7.94,24.894-20.546,28.908-24.412,1.838-1.771,6.781-6.366,7.59-8.844.367-1.122-1.786-10.293-2-11.841-1.4-10.016-3.343-28.158,3.853-36.607,0,0,34.277-2.834,35.179-.368,12.409,33.923,14.67,84.518,14.808,106.407-3.377.7-6.811,1.234-10.23,1.805-5.932-14.669-18.689-49.018-18.689-49.018-1.983,4.547-33.8,22.5-54.083,32.251C43.844,257.321,41.8,254.263,40.069,251.115Z"/><path class="a" d="M113.429,168.245c.7.336.667.657,1.083,1.826,6.761,19.1,10.351,42.676,12.266,63.016,1.846,19.617,2.393,42.13,2.034,42.69-.157.164-.026.16-2.534.62-1.544.3-3.881.683-5.452.944-2.768.453-2.669.519-2.975.316-.732-.713-16.94-44.291-18.473-48.449-6.156,7.439-52.806,31.527-53.993,31.527-.336-.063.254.317-3.47-5.991a28.633,28.633,0,0,1-2.053-3.666c.063-.231,14.86-12.406,23.626-19.935,1.975-1.7,12.749-11.056,12.749-13.686a21.028,21.028,0,0,0-.339-2.685c-1.066-6.059-1.7-6.831-2.592-15.672-.895-9.108-1.282-22.222,4.321-29.477.472-.609.505-.671.85-.7C82.757,168.575,109.533,166.448,113.429,168.245Zm-34.772,1.63c-5.023,6.091-5.284,17.038-4.837,24.891.275,4.77,1,10.448,1.224,11.675.427,2.307,1.766,8.263,1.923,10.626a2.207,2.207,0,0,1-.118,1.1c-1.36,3.606-10.864,11.685-13.8,14.172-4.557,3.86-18.1,15.035-22.7,18.826,1.662,2.959,3.845,6.316,5.175,8.993.9-.508,11.073-5.168,30.276-16.13,3.217-1.873,21.748-12.539,23.285-15.951a.442.442,0,0,1,.636-.221c.316.238,11.844,31.642,18.787,48.82.324-.056.483-.082,3.44-.572,6.4-1.117,5.942-1.034,5.942-1.17.147,0-.069-65.3-14.753-105.687C110.585,167.437,81.845,169.623,78.657,169.875Z"/><path class="b" d="M105.743,271.108c.646,1.165,5.445,3.882,7.834,4.823-1.726,3.874-.424,2.443,1.592,6a20.889,20.889,0,0,1,2.391,7.025,12.986,12.986,0,0,1,.065,2.883c-.023.316-.087.805-.415.962-.211.1-.885-.367-1.07-.454-1.213-.588-15.99-10.91-16.554-13.064-.162-.62.59-1.42.929-1.888C101.572,275.944,103.925,272.491,105.743,271.108Z"/><path class="a" d="M113.437,275.455c.357.146.33.111.439.221.276.374-.11.5-.526,1.981-.4,1.472.093.929,1.573,3.007a19.264,19.264,0,0,1,3.268,10.384,3.345,3.345,0,0,1-.41,1.965.876.876,0,0,1-1.145.207c-1.959-.834-15.75-10.661-17.3-13.47-.475-.913.127-1.634.777-2.441.556-.69,1.607-2.245,2.746-3.593.262-.318,2.539-2.873,2.93-2.816a.277.277,0,0,1,.067.027l.029.021a.275.275,0,0,1,.046.056c-.137.078-.126.072,0,0C106.558,272.166,111.723,274.767,113.437,275.455Zm-7.753-4.023a31.115,31.115,0,0,0-4.251,5.3c-.979,1.429-1.431,1.912-1.459,2.334-.05,1.448,14.607,11.926,17.051,13.173h0a5.906,5.906,0,0,0,.119-1.221,18.1,18.1,0,0,0-3.88-10.96c-.911-.919-1.388-1.273-.214-3.925a36.269,36.269,0,0,1-5.893-3.411C105.38,271.379,105.784,271.357,105.684,271.432Z"/><path class="b" d="M127.947,189.041c-5.424-2.646-4.485-57.739,18.5-68.478,1.4-.655,17.1-7.614,31.331-3.774,15.295,4.127,23.322,16.516,26.619,25.006.314.813,5.1-4.247,6.111-4.464,1.14-.245,6.448,1.343,6.65,1.756.354.725-2.816,26.518-8.815,32.5-4.4,4.385-11.263,4.194-11.263,4.194s-.622,5.959-1.936,8.017c-4.722,7.392-52.156,8.11-55.937,2.691-.338-.487-1.151,1-1.409,1.393-.508.76-2.758,4.831-3.359,5.108-.43.2-1.265-.577-1.6-.763C131.316,191.367,127.947,189.041,127.947,189.041Z"/><path class="a" d="M168.731,115.131c14.5.069,27.552,8.4,34.79,23.308,1.313,2.84.9,2.057,1.229,2.794l.122-.077c1.361-.916,3.929-3.482,5.071-4.147a1.829,1.829,0,0,1,1.377-.2,25.607,25.607,0,0,1,5.587,1.51c.557.256.811.406.811.989,0,4-3.043,23.9-7.682,30.97-2.26,3.406-6.268,5.23-10.293,5.8a19.817,19.817,0,0,1-2.212.2c-.27,2.113-.933,6.67-2.348,8.264-3.763,4.227-19.806,5.436-25.612,5.693-5.441.239-26.97.639-30.552-3.531-.137-.277-3.368,5.444-4.07,6.147-.228.278-.431.452-.766.4a3.489,3.489,0,0,1-1.327-.744c-.31-.2-1.551-.877-5-3.279h0c-2.572-1.287-2.922-11.459-2.922-14.326-.3-17,4.8-45.342,19.769-53.968a46.614,46.614,0,0,1,8.985-3.518A54.014,54.014,0,0,1,168.731,115.131Zm28.433,60.147a18.608,18.608,0,0,0,6.719-1.367,12.9,12.9,0,0,0,3.547-2.174c2.735-2.446,4.127-6.913,5.241-10.5,2.422-8.266,3.988-19.476,3.988-21.86a18.315,18.315,0,0,0-3.3-1.085,11.069,11.069,0,0,0-2.728-.438h0c-.971.29-4.844,4.545-6.086,4.564-.561-.009-.653-.48-.83-.922-4.691-11.789-14.564-21.676-27.459-24.547-9.185-2.015-20.241.1-28.757,3.687a21.781,21.781,0,0,0-7.741,5.521c-7.2,7.674-11.1,20.9-12.8,31.379l0,.006a111.614,111.614,0,0,0-1.269,11.191c-.316,4.931-.386,13.788,1.091,18.055a4.288,4.288,0,0,0,1.143,1.989c.1.08,3.924,2.641,5.049,3.244.22.125,1,.75,1.25.75.393.1,3.875-6.185,4.494-6.538a.513.513,0,0,1,.784.164c4.739,4.74,43.848,4.341,53.685-1.473a3.95,3.95,0,0,0,1.9-2.055,30.784,30.784,0,0,0,1.5-7.076l0-.005A.51.51,0,0,1,197.164,175.278Z"/><path class="a" d="M134.752,285.27a9.331,9.331,0,0,1,5.533,1.51c.267.2.666.462.394.952-.647,1.034-11.615,4.437-15.351,4.624-1.121,0-1.455.1-2.4-2.4-2.094-5.584-2.17-4.718-6.748-16.271-8.856-22.379-16.687-44.464-16.923-44.192-6.758,7.67-46.889,28.583-60.445,34.6a80.162,80.162,0,0,1-.211,9.176c-.174.824-.508,1.958-1.337,1.779-.428-.141-.557-.392-.79-.813a61.829,61.829,0,0,1-4.418-14.13c-.379-2.348-.14-2.494.317-2.968,2.957-2.9,22.01-18.3,31.714-26.6,2.893-2.473,10.028-8.743,11.842-12.093a4.017,4.017,0,0,0,.31-.7,24.679,24.679,0,0,0-.548-4.361c-1.28-6.9-1.2-4.932-1.96-11.428-1.141-9.974-1.946-25.08,4.524-32.68l0,0c.183-.187,31.195-2.679,35.113-.832.5.252.419.043,1.828,4.216,9.907,29.567,13.453,71.625,13.717,102.826.029,3.346-.042,9.462-.122,9.7-.011.221-.011.188-.011.253h0C129.166,285.821,132,285.27,134.752,285.27ZM78.527,169.615c-6.472,7.825-5.326,23.543-4.024,33.614a61.087,61.087,0,0,0,1.307,7.334c.258,1.245,1.313,6.184,1.117,7.285-.675,3.568-13.767,14.5-15.856,16.281-14.066,11.856-26.919,22.364-28.235,23.878a19.423,19.423,0,0,0,.7,4.587,60.527,60.527,0,0,0,3.7,11c.018.034.142.271.163.3a11.264,11.264,0,0,0,.431-3.741c.038-2.987-.038-6.371,0-6.541.24-.566.48-.057,13.26-6.488,5.186-2.6,12.006-6.2,17.087-9.009,4.784-2.6,27.393-15.289,30.582-19.693.247-.326.323-.839.91-.675.49.245,10.651,28.51,18.628,48.418,2.919,7.26,4.614,10.558,5.219,12.327a13.22,13.22,0,0,0,1.193,2.778,4.341,4.341,0,0,0,1.638-.063,69.589,69.589,0,0,0,12.986-3.808c-.081-.041-.145-.094-.3-.176-4.343-2.284-10.695.73-11.25-1.5-.108-.375.038-.257.095-5.257.255-22.9-1.818-53.856-6.3-79.068-2.71-15.025-6.2-26.877-8.278-32.249C112.284,167.1,80.834,169.436,78.527,169.615Z"/><path class="b" d="M205.305,141.6c-1.962,1.558-1.941,1.4-5.5,5.3"/><path class="a" d="M205.473,141.462l-.035.3c-.1.1-1.766,1.881-1.994,2.04a24.574,24.574,0,0,1-3.483,3.235l-.3.016-.013-.3a15.86,15.86,0,0,1,3.087-3.7,7.988,7.988,0,0,1,1.683-1.206c.1-.059.654-.369.756-.419Z"/><path class="b" d="M161.592,116.18c.125-.791.295-1.75.452-2.691a7.876,7.876,0,0,1-4.922-2.455,12.891,12.891,0,0,1-2.351-5.331,13.881,13.881,0,0,0-.345-2.605c-.162-.38-1.21-.222-1.564-.343-2.57-.88-1.73-5.54,1.261-5.667.643-.028,1.773.384,2.35.2.226-.074-.021-.474-.016-.711.008-.382-.077-1.166-.077-1.166-.433-7.758,10.195-12.694,16.079-7.812,3.476,2.881,3.229,3.645,3.637,8.634.426,5.272.274,11.784-3.967,15.607a7.716,7.716,0,0,1-1.64,1.134c.263,1.042.462,1.968.577,2.744.744.046,1.494.114,2.244.207a1.435,1.435,0,0,0-.075.2c-1.289,5.527-12.736,4.872-15.379.748C159.047,116.608,160.3,116.373,161.592,116.18Z"/><path class="a" d="M173.666,116.225v0a4.783,4.783,0,0,1-.194.612h0c-1.843,4.457-9.919,4.434-13.891,1.977a5.972,5.972,0,0,1-1.8-1.606,1.035,1.035,0,0,1-.17-.279c-.046-.346.21-.323,1.1-.493.919-.175,1.911-.337,2.691-.445.023-.128.3-1.92.362-2.3-3.629-.665-5.153-2.146-6.478-5.14a10.585,10.585,0,0,1-1.023-4.317,3.541,3.541,0,0,0-.184-.936,8.017,8.017,0,0,0-1.138-.1,2.73,2.73,0,0,1-2.039-2.543,3.819,3.819,0,0,1,2.034-3.751c1.213-.566,2.11-.1,3.068-.048a1.954,1.954,0,0,1-.04-.464,14.083,14.083,0,0,1-.085-1.808,8.67,8.67,0,0,1,1.585-4.64c3.635-4.982,10.409-6.017,14.34-3.462a15.645,15.645,0,0,1,2.9,2.494c1.406,1.6,1.629,2.39,1.994,8.228.282,4.53-.018,9.627-2.675,13.276a9.323,9.323,0,0,1-2.973,2.744c.126.55.333,1.462.42,2.062.526.041,1.012.091,1.471.145.5.061.526.047.691.184C173.813,115.833,173.761,115.978,173.666,116.225Zm-6.94-30.051c-5.121.069-10.335,4.116-9.825,9.542a6.432,6.432,0,0,0,.085,1.034c.177.648-.03,1-.715,1.058-.892.058-1.686-.362-2.5-.207a2.85,2.85,0,0,0-1.9,3.541,1.86,1.86,0,0,0,1.1,1.218c.409.136,1.284-.089,1.741.454h0a5.16,5.16,0,0,1,.349,2.139,12.76,12.76,0,0,0,1.465,4.632,6.3,6.3,0,0,0,3.879,3.237c1.509.5,1.751.317,1.861.583.035.132.052-.132-.47,2.809-.1-.016-.417-.067,0,0-.074.3-.095.051-3.507.818a5.516,5.516,0,0,0,1.579,1.294c3.625,2.106,11.158,2.171,12.782-1.8h0c.008-.02.047-.132.056-.162.027-.071.033-.05-.149-.068-1.625-.153-1.689-.026-1.9-.359h0a.719.719,0,0,1-.072-.292c-.07-.386-.131-.777-.353-1.711h0c-.056-.21-.033-.143-.091-.366-.1-.463-.254-.692.059-.978h0a7.97,7.97,0,0,0,2.552-2.112,10.352,10.352,0,0,0,.827-1.148,17.762,17.762,0,0,0,2.152-9.368,56.725,56.725,0,0,0-.7-8.363,5.045,5.045,0,0,0-1.284-2.1A8.857,8.857,0,0,0,166.726,86.174Zm-12.662,17.083h0l0,0Zm2.88-6.682Z"/><path class="a" d="M176.572,116.385a9.125,9.125,0,0,1-2.371,4.709,11.633,11.633,0,0,1-9.972,3.094,16.43,16.43,0,0,1-4.65-1.283,9.608,9.608,0,0,1-1.5-1.1h0a17.341,17.341,0,0,1-3.51-4.035v0a.49.49,0,0,1-.021-.073l.157-.259.257.155,0,0v0l0,.012,0-.006a18.938,18.938,0,0,0,3.656,3.529h0a6.83,6.83,0,0,0,2.919,1.452h0c7.063,1.961,12.233-.763,14.221-5.136.566-1.393.221-1.04.654-1.318Z"/><path class="a" d="M159.076,118.11l-.064.293a2.68,2.68,0,0,1-1.188,1.175l0,0a1.818,1.818,0,0,1-.619.267,1.06,1.06,0,0,1-.646.042c.043-.347.025-.277.077-.381a2.521,2.521,0,0,1,.393-.594,3.4,3.4,0,0,1,1.191-.771C158.825,118.011,158.759,118.042,159.076,118.11Z"/><path class="a" d="M160.991,119.516l0,.006a2.978,2.978,0,0,1-.606,1.468,2.87,2.87,0,0,1-.747.833c-.1.089-.016.041-.349.175-.117-.288-.147-.233-.082-.818a1.612,1.612,0,0,1,.2-.577v0a3.39,3.39,0,0,1,.686-.962,4.762,4.762,0,0,1,.558-.365l.295-.052Z"/><path class="a" d="M163.578,120.25a3.263,3.263,0,0,1-.468,1.765h0a6.485,6.485,0,0,1-.688,1.126c-.009.009-.243.173-.253.18l-.173-.248,0-.006a2.242,2.242,0,0,1,.156-1.476v0a3.232,3.232,0,0,1,.859-1.319c.237-.227.092-.142.455-.3Z"/><path class="a" d="M166.6,120.235a2.993,2.993,0,0,1,.151.4,5.725,5.725,0,0,1,.04,1.963c-.039.215-.157.665-.178.844a.232.232,0,0,0,0,.024l-.141.265-.264-.144,0-.006a2.187,2.187,0,0,1-.415-.981,5.079,5.079,0,0,1,.184-1.781c.277-.719.1-.451.4-.789C166.382,120.039,166.6,120.226,166.6,120.235Z"/><path class="a" d="M169.545,119.764a3.137,3.137,0,0,1,.664,2.084,4.511,4.511,0,0,1-.095.773c-.021.128.012.05-.168.357-.274-.164-.244-.13-.319-.238a2.9,2.9,0,0,1-.4-.717,4.372,4.372,0,0,1-.136-1.913c.051-.31.007-.19.2-.5Z"/><path class="a" d="M171.478,118.727a2.887,2.887,0,0,1,.949.644h0a2.237,2.237,0,0,1,.723.958,1,1,0,0,1,.112.647,1.137,1.137,0,0,1-.63-.143,2.188,2.188,0,0,1-.96-.731h0a1.825,1.825,0,0,1-.476-.816.9.9,0,0,1-.016-.614Z"/><path class="a" d="M173.605,117.192a2.509,2.509,0,0,1,.835.231c.9.416.842.674,1.1.881l.114.277-.279.113a2.637,2.637,0,0,1-.9-.1,8.714,8.714,0,0,1-1.052-.51h0c-.637-.451-.474-.331-.7-.573.241-.224.184-.194.284-.228A1.759,1.759,0,0,1,173.605,117.192Z"/><path class="b" d="M152.937,134.783c3.055,6.746-14.835,62-18.494,58.2a7.359,7.359,0,0,0-1.6-.763c-1.529-.857-4.9-3.183-4.9-3.183-4.609-2.247-4.624-42.362,9.581-60.959"/><path class="a" d="M137.7,128.21c-6.4,8.533-9.748,21.7-11.05,32.337-.894,7.276-1.551,17.911.082,24.987.171.742.691,2.5,1.314,2.94.1.086,2.849,1.956,5.129,3.322l.018,0a5.255,5.255,0,0,1,1.654.84l.006,0h0l0,0h.008l0,0h.01l0,0h0l0,0h.006l0,0h0c3.743-1.871,12.043-28.595,13.133-32.281,1.486-4.956,5.652-19.559,4.919-24.706-.2-1.057-.291-.572-.106-1.062.306.117.282.022.441.537,1.964,7.77-9.892,46.591-16.116,56.547-.718,1.076-1.746,2.5-2.872,1.877-.447-.28.021-.137-.85-.511a9.664,9.664,0,0,1-2.5-1.353c-.1-.1-3.374-2.186-3.273-2.186-5.3-2.65-4.611-43.315,9.6-61.435.107-.137.026-.1.38-.15Z"/><path class="b" d="M193.452,142.316c.968,1.623,4.961,29.784,3.353,34.961"/><path class="a" d="M193.635,142.209c.64.917,1.98,8.829,2.22,10.449.731,4.958,2.661,19.787,1.173,24.617h0c-.033.1.008.048-.284.2l-.141-.266c.862-3.16-1.01-18.692-1.423-21.969-.319-2.519-1.335-11.1-1.9-12.8l0-.008,0-.007,0-.008.077-.293Z"/><path class="a" d="M196.494,160.463c-1.234,1.687-3.263,5.1-4.768,6.552-1.29,1.246-9.921-7.98-10.487-8.033-.747-.07-9.211,9.028-9.894,9.026-.907,0-11.881-9.216-12.5-9.231-.8-.019-9.458,6.7-12.332,9.142,1.882-6.307,3.653-13.216,4.892-19.125,1.745-1.149,7.424-7.1,8.788-6.988.833.067,7.573,7.864,8.044,7.628.659-.33,8.147-8.83,9.118-8.852.779-.018,10.4,10.886,11.149,10.761.428-.071,4.323-5.08,5.663-6.352C194.965,149.852,195.738,155.052,196.494,160.463Z"/><path class="a" d="M191.758,167.328c-1.772.884-8.833-6.685-10.514-7.91-.335-.256-7.145,7.011-9.133,8.639-.495.4-.72.52-1.2.28-1.792-.848-11.045-8.5-12.1-9.029-2.693,1.4-11.926,8.982-12.035,9.061a.518.518,0,0,1-.784-.423c.009-.316,1.429-4.678,3.079-11.388,2.286-9.283,1.543-7.8,2.332-8.415,1.815-1.4,5.348-5.009,7.466-6.356,1.265-.807,1.613-.542,2.335.063,1.805,1.582,5.77,6.013,6.972,6.975.654-.632.929-.914,1.9-1.936,6.574-6.881,6.956-7.28,7.955-6.461,1.659,1.282,8.849,9.331,10.37,10.433.066.046.041.055.115-.014,1.241-1.253,3.737-4.363,5-5.682.457-.468.467-.5.67-.507a.326.326,0,0,1,.269.174c.11.265,2.209,14.615,2.209,15.757C195.738,161.924,192.6,166.9,191.758,167.328Zm-5.988-4.7c.75.7,4.7,4.415,5.7,4.215h0l.019,0,.005,0h0l.008,0h0l.016-.008,0,0,.011-.007h0c1.405-1.287,3.984-5.45,4.738-6.411-.654-4.368-1.564-10.342-2.327-14.7-1.558,1.707-4.35,5.314-5.113,5.9-.286.214-.5.147-.787-.031-1.607-1.029-9.186-9.4-10.713-10.47-1.133.6-6.983,7.072-8.347,8.368-.585.533-.781.731-1.576.064-1.9-1.666-5.314-5.613-7.3-7.2-.673.065-3.327,2.428-4.329,3.34-4.212,3.845-3.89,3.334-3.922,3.5.109,0-2.193,9.782-4.323,17.1-.087.291-.5.45,3.361-2.543,1.095-.851,6.854-5.337,7.876-5.455.7-.045,2.6,1.745,9.431,7.029a34.3,34.3,0,0,0,3.111,2.218c.847-.453,7.746-7.569,9.272-8.623C181.526,158.228,181.3,158.453,185.77,162.63Zm2.579-11.644.005,0h0Zm.005,0h0Z"/><path class="b" d="M193.7,185.153c2.946,8.483,6.174,16.853,7.57,25.824,2.5,16.042.353,31.6-1.056,47.53-.5,5.7-1.441,22.075-2.167,23.274-.643,1.061-9.189,2.305-9.407.952-1.1-6.836-11.875-54.858-16.4-56.634,1.611-9.295-.375-23.7-1.115-32.086-.063-.7-.114-2.358-.228-4.257C176.512,189.466,188.978,188.262,193.7,185.153Z"/><path class="a" d="M194.045,185.48c2.379,6.688,5.269,14.356,6.775,21.262,3.585,16.444,1.637,33.006.1,49.574-.8,9.365-1.3,18.588-1.922,23.428-.281,2.087-.391,2.42-1.043,2.782a18.841,18.841,0,0,1-7.163,1.326c-2.808,0-2.628-.814-2.8-1.784-1.764-9.256-10.109-46.474-15.029-54.528a2.753,2.753,0,0,0-.867-.968l0,0a.5.5,0,0,1-.274-.226c-.1-.225-.068-.231.032-.856,1.582-10.091-.784-26.806-1.1-31.669-.05-.8-.115-2.71-.165-3.512-.027-.6-.082-.676.141-.843.335-.149,16.27-.6,22.636-4.342.261-.169.328-.242.481-.12a.385.385,0,0,1,.043.053l.013.032c-.112.042-.137.051,0,0l.141.4Zm-.458,0c-4.941,3.022-16.53,4.233-22.325,4.595.008.037.041.665.043.7.54,9.562,3.119,23.969,1.478,35.067,5.167,3.615,15.078,50.281,16.369,56.735.1,0,.254.381,3.252.138a23.8,23.8,0,0,0,3.877-.678,6.7,6.7,0,0,0,1.159-.431c.686,0,1.436-12.8,2.17-21.955.8-9.51,2.025-18.847,2.34-29.871.286-19.751-2.438-27.208-8.315-44.158v0l-.048-.141Z"/><path class="a" d="M103.981,272.855c6.79,4.44,7.229,4.254,8.858,5.108-.3,1.524.691,1.077,2.33,3.972a20.889,20.889,0,0,1,2.391,7.025,12.986,12.986,0,0,1,.065,2.883c-.023.316-.087.805-.415.962-.211.1-.885-.367-1.07-.454-1.213-.588-15.99-10.91-16.554-13.064-.162-.62.59-1.42.929-1.888A48.114,48.114,0,0,1,103.981,272.855Z"/><path class="a" d="M104.068,272.663a71.187,71.187,0,0,0,7.512,4.265c.9.408,1.083.469,1.454.663.359.219.166.5.185.88.021.305.176.464.483.747,2.368,2.225,4.075,6.909,4.428,10.085a12.058,12.058,0,0,1-.083,3.2,1.358,1.358,0,0,1-.33.582.82.82,0,0,1-.953.189c-1.966-.793-14.61-9.847-17.108-13.1A1.563,1.563,0,0,1,99.7,277.9c.184-.25,3.6-4.826,4.183-5.225A.2.2,0,0,1,104.068,272.663Zm-.1.532a52.756,52.756,0,0,0-3.175,4.4,7.086,7.086,0,0,0-.777,1.183.545.545,0,0,0,.052.625A12.57,12.57,0,0,0,102,281.358h0a150.286,150.286,0,0,0,15.025,10.881c.009-.1.074.015.118-1.221a18.315,18.315,0,0,0-3.678-10.729c-.629-.76-1.21-1.007-1.09-2.1-.478-.233-1.377-.662-2.02-1.015C106.032,274.794,104.117,273.018,103.964,273.2Z"/><path class="b" d="M196.385,282.555a3.585,3.585,0,0,0,.2,1.853c.161.3,2.058.528,3,.848,6.336,2.139,5.017,2.072,8.1,3.433a10.21,10.21,0,0,1,2.17,1.229c.989.67,3.007,2.082,2.648,3.576-.231.941-4.029.673-5.759.673-1.609,0-3.188.18-4.792.247-2.832.117-5.725-.021-8.564-.035-1.133-.008-2.221-.2-3.345-.284-.476-.035-1.136.053-1.532-.282-.318-.266-.157-.652-.157-2.856,0-2.667.319-5.31.465-7.963C189.748,283.661,193.973,283.222,196.385,282.555Z"/><path class="a" d="M196.826,284.3l0,0c.535.357,1.527,0,6.424,1.851,2.138.806,2.986,1.428,4.512,2.081a11.038,11.038,0,0,1,2.008,1.051,8.537,8.537,0,0,1,3.02,2.8,1.716,1.716,0,0,1-.167,2.1c-.964.643-3.537.547-4.771.524-4.711-.045-3.8.4-10.718.263a43.306,43.306,0,0,1-6.3-.279,11.405,11.405,0,0,0-1.226-.093,1.9,1.9,0,0,1-1.571-.566,2.251,2.251,0,0,1-.2-1.444c.095-4.539.195-4.454.612-9.362.017-.265-.011-.39.194-.537a.355.355,0,0,1,.391.015l.008.008,0,0,0,0,.008,0a4.769,4.769,0,0,0,1.864.287,23.962,23.962,0,0,0,5.3-.627c.2-.041.116-.041.218-.027a.389.389,0,0,1,.066.029l.029.024a.208.208,0,0,1,.062.131v.037c-.1-.008-.42-.032,0,0a3.624,3.624,0,0,0,.208,1.71l.008.008-.006-.006.006.006.005,0-.005,0,.008,0Zm-7.267-.7c-.462-.049-.393-.158-.407.048-.082,1.917-.261,3.818-.311,6.208,0,.061-.03,3.485-.011,3.542v.011l0,0v.006l0,0v0l0,.005c0,.33,9.524.648,13.346.452a52.856,52.856,0,0,1,5.4-.218c.735.014,3.807.119,4.409-.282l0,0,0,0,.013-.013.006-.024v-.011l.008-.037v-.01l0-.011v-.013l0-.011v-.013l0-.008a2.432,2.432,0,0,0-.894-1.667,16.894,16.894,0,0,0-2.632-1.936l0,0c-.327-.181-.76-.39-.861-.439-2.5-1.16-3.213-1.97-8.392-3.7-1.466-.452-2.452-.475-2.819-.843a1.609,1.609,0,0,1-.247-.617,4.8,4.8,0,0,1-.048-1.17A20.95,20.95,0,0,1,189.559,283.592Zm-.718,9.841Zm7.966-9.144,0,0,0-.008Zm0-.008v0l0,0,0,0Z"/><path class="a" d="M196.661,284.488c.3.233,2.123.5,2.928.768,6.336,2.139,5.017,2.072,8.1,3.433a10.21,10.21,0,0,1,2.17,1.229c.989.67,3.007,2.082,2.648,3.576-.231.941-4.029.673-5.759.673-1.609,0-3.188.18-4.792.247-2.832.117-5.725-.021-8.564-.035-1.133-.008-2.221-.2-3.345-.284-.476-.035-1.136.053-1.532-.282-.245-.2-.191-.561-.191-.848,0-3.327.145-5.162.3-7.1a17.423,17.423,0,0,0,4.366.021A12.548,12.548,0,0,0,196.661,284.488Z"/><path class="c" d="M199.448,294.992c-8.045,0-7.513-.226-9.442-.367a2.9,2.9,0,0,1-1.836-.406,1.469,1.469,0,0,1-.379-1.254c0-3.358.144-5.166.3-7.144a.533.533,0,0,1,.6-.486,16.775,16.775,0,0,0,4.234.021,12.271,12.271,0,0,0,3.517-1.35.534.534,0,0,1,.544.057,36.01,36.01,0,0,1,9.125,3.252,29,29,0,0,1,4.047,2.161c1,.675,3.323,2.252,2.869,4.142-.346,1.41-3.547,1.08-6.276,1.08C204.263,294.7,203.429,294.992,199.448,294.992Zm-10.34-8.539c-.248,3.2-.289,6.867-.24,6.967.226.185.472.043,2.5.271a35.517,35.517,0,0,0,4.843.2,71.917,71.917,0,0,0,7.577-.115,35.585,35.585,0,0,1,4.165-.122c.484.01,3.723.081,4.055-.314.276-1.181-1.783-2.515-2.713-3.163a9.069,9.069,0,0,0-1.819-1c-3.013-1.33-1.831-1.324-8.053-3.415-.572-.193-2.31-.509-2.765-.681a11.7,11.7,0,0,1-3.6,1.333A17.6,17.6,0,0,1,189.108,286.453Z"/><path class="d" d="M198.626,289.75a.532.532,0,0,1-.466-.788,12.293,12.293,0,0,1,2.525-3.289.532.532,0,1,1,.695.805,10.954,10.954,0,0,0-2.288,3A.531.531,0,0,1,198.626,289.75Z"/><path class="d" d="M203.564,291.152a.532.532,0,0,1-.511-.679,8.478,8.478,0,0,1,2.012-3.112.532.532,0,1,1,.773.731,7.3,7.3,0,0,0-1.763,2.674A.532.532,0,0,1,203.564,291.152Z"/><path class="d" d="M110.65,282.674a.533.533,0,0,1-.417-.862c.749-.943,2.313-1.346,3.348-1.613a.549.549,0,0,1,.667.377.517.517,0,0,1-.364.643,5.833,5.833,0,0,0-2.817,1.254A.533.533,0,0,1,110.65,282.674Z"/><path class="d" d="M112.825,285.66a.532.532,0,0,1-.372-.911,6.506,6.506,0,0,1,3.159-1.51.532.532,0,1,1,.245,1.035C113.163,284.911,113.413,285.66,112.825,285.66Z"/><path class="a" d="M100.45,101.555c.544,1.233.569,2.495,1.286,3.709,1.9,3.218,4.231,4.382,4.578,8.291,1.477,16.663-14.14,28.309-25.243,35.834-6.38,4.323-7.114,7.572-14.674,9.082a36.549,36.549,0,0,1-5.944,1.009,18.8,18.8,0,0,1-13.15-5.2,18.108,18.108,0,0,1-4.471-5.722c-1.812-4.011-1.555-9.64,1.547-12.972,1.5-1.612,3.443-2.852,4.59-4.825,1.506-2.592,1.487-6.027,3.184-8.567a19.037,19.037,0,0,1,3.721-3.534c2.724-2.179,7.389-2.271,10.191-5.387.951-1.059,1.273-3.14,1.852-4.434,2.153-4.808,2.951-10.4,6.4-14.58,2.034-2.468,8.126-5.214,11.213-4.679a11.415,11.415,0,0,1,3.006,1.046,8.948,8.948,0,0,1,1.1.793s1.3-.328,1.894-.462a4.6,4.6,0,0,1,4.377,1.026C98.7,94.687,100.45,101.555,100.45,101.555Z"/><path class="a" d="M87.232,89.7a6.975,6.975,0,0,1,2.481,1.374c2.323-.573,4.613-1.251,6.685,1.024,1.97,2.211,3.489,6.469,4.236,9.321.028.111.128.263.321.881a14.464,14.464,0,0,0,.849,2.595c1.014,1.914,2.839,3.517,3.857,5.4a9.219,9.219,0,0,1,1.02,4.215,25.711,25.711,0,0,1-3.039,13.478c-6.133,11.8-19.575,19.635-24.175,23.172-4.405,3.422-5.895,6.035-11.6,7.5-.736.188-4.127.911-4.888,1.049a17.21,17.21,0,0,1-9.5-.94A22.05,22.05,0,0,1,42.5,149.108a13.984,13.984,0,0,1-1.2-7.9c.964-6.816,5.577-7.224,7.518-11.288,1.021-2.175,1.182-4.526,2.238-6.818a11.118,11.118,0,0,1,3.519-4.052,11.822,11.822,0,0,1,2.629-1.806c2.6-1.266,5.612-1.725,7.878-3.69a4.85,4.85,0,0,0,1.636-2.706,22.641,22.641,0,0,1,.76-2.2c2.034-4.519,3.554-12.3,7.517-15.624a18.823,18.823,0,0,1,5.216-2.9C83.807,88.781,85.513,89.061,87.232,89.7Zm12.993,11.828c-.784-2.856-2.886-8.877-5.632-10.095-1.5-.632-2.754-.247-4.161.109-1.039.266-.757.3-1.376-.174a6.561,6.561,0,0,0-.6-.415,10.836,10.836,0,0,0-3.262-1.07c-2.76-.246-7.08,1.7-9.338,3.47-3.99,3.142-5.117,10.06-7.553,15.8-.986,2.4-.689,3.853-3.311,5.734a23.593,23.593,0,0,1-5.684,2.57,11.56,11.56,0,0,0-4.4,2.651c-2.938,2.468-3.078,3.376-4.18,7.475a10.966,10.966,0,0,1-2.4,4.931c-1.206,1.355-2.5,2.268-3.608,3.474a10.71,10.71,0,0,0-2.492,7.622c.161,4.6,2.469,7.753,6,10.8a18.778,18.778,0,0,0,9.33,4.38,15.5,15.5,0,0,0,5.595-.16c.576-.112,4-.8,5.339-1.2,4.533-1.381,5.974-3.563,9.869-6.666,6.4-5.055,29.419-17.554,27.643-37.264-.346-3.824-2.945-5.259-4.564-8.258a7.537,7.537,0,0,1-.638-1.761A13.756,13.756,0,0,0,100.225,101.532Z"/><path class="b" d="M82.169,178.748c-.075,2.334-.144,7.387-2.245,9.072-1.1.886-9.427.67-14.122-1.023-5.937-2.138-12.02-6.113-14.77-11.812C43.559,159.5,53.153,135.4,68.331,128.9c31.194-13.351,49.941,5.97,51.825,9.8,4.547,9.23,4.375,19.154,5.3,22.791.66,2.6.681,6.509,1.38,9.1,1.008,3.741,1.8,6.491,3.077,10.145.423,1.2,1.967,4.438,1.489,5.663-.622,1.583-3.861,2.633-5.361,3.088-1.561.473-3.169-.96-4.446-1.7-1.109-.641-2.3-1.3-2.593-2.412-1.984-7.52-3.108-8.451-5.491-13.756l-.036-3.093s-27.79.744-35.45,1.082c-1.26.055-2.79-5.472-3.364-6.592a12.1,12.1,0,0,1-.565-1.587l-1.411,10.1Z"/><path class="a" d="M101.1,125.36c9.343,2.678,16.65,8.586,19.209,12.533a28.591,28.591,0,0,1,1.761,3.878c3.062,8.146,2.8,14.056,4,20.042.327,1.369.57,4.213.734,5.529a23.249,23.249,0,0,0,.9,4.464c.5,1.817.927,3.339,1.576,5.394,2.148,6.8,3.848,8.557,1.795,10.471a13.677,13.677,0,0,1-4.587,2.2,3.068,3.068,0,0,1-2.145.032,11.866,11.866,0,0,1-2.594-1.433,13.4,13.4,0,0,1-2.473-1.686h0c-1.254-1.3-.672-2.46-2.813-7.743-.932-2.288-3.626-7.416-3.416-7.423l-.03-2.625h0c-37.946.9-35.142,1.165-35.725.623-1.193-1.124-2.238-4.978-2.978-6.6-.213-.477.044-1.607-1.354,8.4-.1.039,9.406,7.052,9.419,7.343h0c-.069,2.566-.153,6.123-1.5,8.333a2.3,2.3,0,0,1-1.813,1.3,31.693,31.693,0,0,1-8.456-.176c-7.489-1-14.648-5.485-18.143-10.157-7.775-10.4-4.992-29.564,5.328-41.708,4.616-5.4,8.614-7.455,14.49-9.531C81.814,123.5,91.515,122.634,101.1,125.36Zm-28.57,46.374a.252.252,0,0,1-.091-.125h0c-.03-.114,1.322-10.049,1.372-10.275a.3.3,0,0,1,.592.054,8.933,8.933,0,0,0,.616,1.648c.448,1,2,5.918,2.947,6.219.1.029,35.31-1.379,35.774-1.11.286,0,.206.922.239,3.365,1.776,3.906,2.379,4.571,3.643,7.8,3.112,8.112.249,5.467,5.727,8.987,1.781,1.068,2.151,1.017,5.239-.284a5.927,5.927,0,0,0,2.138-1.463c.831-1.038-.688-3.788-1.534-6.328-1.236-3.483-2.854-9.265-3.117-10.635a51.357,51.357,0,0,1-.667-5.293,23.131,23.131,0,0,0-.463-2.678h0c-.667-2.785-.794-8.225-2.293-14.36-.655-2.655-2.133-7.295-3.564-9.265a23.43,23.43,0,0,0-3-3.231c-7.671-6.962-18.847-11.007-31.339-9.743A53.822,53.822,0,0,0,66.059,130.6c-11.219,6.523-18.494,22.519-16.993,35.928.976,8.5,4.93,14.559,14.09,18.836a26.119,26.119,0,0,0,9.327,2.492c1.571.153,5.376.4,6.879-.064a1.4,1.4,0,0,0,.388-.16,3.763,3.763,0,0,0,.936-1.191c1.051-1.959,1.189-5.4,1.261-7.474C81.954,178.784,82.715,179.423,72.525,171.734Z"/><path class="b" d="M74.758,143.1c.683,6.306-.33,21.747-1.152,21.819"/><path class="a" d="M74.971,143.074c.855,5.21.462,13.249-.075,17.357a19.734,19.734,0,0,1-1,4.508.369.369,0,0,1-.268.187l-.236-.184h0l.183-.235h0l-.015,0h.005l-.014,0h0l-.014,0,0,0-.012,0,0,0-.011.006,0,0-.01,0,.005,0-.01.006,0,0-.009,0,.005,0-.008,0,0,0-.007.006.005,0-.006,0,0,0-.006,0,.005,0-.005,0,0,0,0,0,0-.006,0,0,0-.006,0,0,0-.009,0,.006.009-.014-.005.007c.614-1.13,1.152-18.846,1.026-21.6l.189-.236Z"/><path class="b" d="M113.286,146.078c1.286,2.661,2.02,15.795.318,22.213"/><path class="a" d="M113.479,145.986c1.433,2.605,2.57,13.934.631,21.333-.325,1.213-.265,1-.56,1.179-.216-.375-.161-.032.03-1.289a89.515,89.515,0,0,0,.221-16.221c-.359-5.18-.847-4.427-.606-5.1Z"/><path class="b" d="M102.412,204.521a76.341,76.341,0,0,1-.812,15.792c-.795,5.419-1.492,6.957-2.4,10.955l-.248.176-.173-.248c.608-5.024,2.289-10.073,3.212-26.675l.212-.212Z"/><path class="b" d="M112.75,168.542a1.865,1.865,0,0,1,.726.334l.027,2.361c-4.453,1.15-24.529,2.557-37,1.016a16.053,16.053,0,0,1,1.76-2.66C85.481,169.284,108.384,168.66,112.75,168.542Z"/><path class="a" d="M101.834,169.226c-9.763.41-23.254.884-23.306.886a15.567,15.567,0,0,0-1.172,1.708c11.3,1.277,31.309.244,35.881-.792l-.023-2.066C112.689,168.642,113.067,168.755,101.834,169.226Zm11.868-.391c.008.065.07,2.391.048,2.484-.065.159-.077.172-1.112.4-4.476.975-15.036,1.572-19.791,1.691a112.363,112.363,0,0,1-16.49-.652.53.53,0,0,1-.381-.512c.017-.2.032-.2.314-.705a16.6,16.6,0,0,1,1.375-2.051c.221-.278.261-.35.49-.419,1.653-.213,34.024-.864,34.652-.736-.046.165-.1.361,0,0C113.44,168.5,113.662,168.7,113.7,168.835Z"/><path class="a" d="M81.944,124.869a18.854,18.854,0,0,0,7.945,5.771c2.357.846,5.5,1.251,7.684.08a2.3,2.3,0,0,0,1.158-2.993,10.617,10.617,0,0,0-1.51-2.311c-.115-.164-.1-.074-.052-.429.358.05.27.011.4.158.961,1.1,1.922,1.84,2.115,3.359.206,1.709-.839,2.855-2.45,3.482-3.632,1.349-8.3-.083-11.473-2.426a16.136,16.136,0,0,1-4.185-4.477l.079-.293Z"/><path class="b" d="M128.788,191.74s-1.484,2.754-1.2,4.2c.107.537.7.705,1.17.734,1.346.08,1.939-1.2,2.513-2.183C133.8,190.147,129.65,189.764,128.788,191.74Z"/><path class="a" d="M132.433,191.349c0,.1.5.84-.34,2.712h0a8.469,8.469,0,0,1-1.744,2.6,2.344,2.344,0,0,1-2.508.293c-.231-.126-.821-.392-.752-1.551l0,0a9.669,9.669,0,0,1,1.508-3.76h0l.005-.016,0,0C129.162,190.1,131.784,189.567,132.433,191.349Zm-3.47.518c0,.1-1.183,2.7-.9,3.978l0,0v0l0,.011v0l0,0,0,.011,0,0,0,0,.008.021,0,0,.011.019.016.016,0,.008.011.011.008.005,0,0,.008,0,.008.008a.817.817,0,0,0,.271.12l.019,0,.016,0a1.566,1.566,0,0,0,.556.032l0,0a1.2,1.2,0,0,0,.6-.258l.011-.01a8.091,8.091,0,0,0,1.93-3.7h0a1.373,1.373,0,0,0-.043-.507h0a1.055,1.055,0,0,0-.109-.256l-.013-.016c-.4-.7-1.852-.5-2.42.405h0Z"/><path class="b" d="M131.633,193.649s-1.05,2.947-.547,4.331c.186.515.8.59,1.267.548,1.342-.124,1.735-1.481,2.154-2.538C136.344,191.317,132.187,191.566,131.633,193.649Z"/><path class="a" d="M133.706,191.828a1.766,1.766,0,0,1,.746.184c1.194.556,1.165,2.115.8,3.431h0c-.155.517-.464,1.308-.677,1.8a2.913,2.913,0,0,1-1.516,1.645,2.356,2.356,0,0,1-1.819-.042,1.42,1.42,0,0,1-.731-1.314v0a5.154,5.154,0,0,1,.011-.758c.018-.1.017-.2.056-.4a12.931,12.931,0,0,1,.855-2.783h0a2.008,2.008,0,0,1,.43-.862,2.573,2.573,0,0,1,1.126-.778A2.168,2.168,0,0,1,133.706,191.828Zm-1.88,1.92c.015.1-.762,2.844-.286,4.068l0,0v.005l.007.009v0l0,0,0,.01,0,0,0,0,.011.019.007,0,.013.017.018.013.007.007.012.009.008,0,.006,0,.009,0,.009.007a.82.82,0,0,0,.286.077h.019l.017,0a1.594,1.594,0,0,0,.554-.052l0,0a1.058,1.058,0,0,0,.233-.092l.015-.01.018-.008a1.281,1.281,0,0,0,.3-.248,8.054,8.054,0,0,0,1.348-3.951h0a1.371,1.371,0,0,0-.119-.5h0a1.2,1.2,0,0,0-.146-.236l-.016-.014c-.5-.636-1.91-.209-2.331.766h0C131.842,193.69,131.829,193.739,131.826,193.748Z"/><path class="b" d="M196.374,63.877s-9.163-4.633-12.75-7.765c-5.8-5.066-14.6-16.35-5.371-22.2,4.4-2.794,13.861,2.124,13.861,2.124s7.036-11.177,14.782-5.194c8.527,6.588,4.693,17.64-.452,23.848A44.335,44.335,0,0,1,196.374,63.877Z"/><path class="a" d="M182.606,55.7c-4.929-4.508-10.918-12.33-8.161-18.391a8.767,8.767,0,0,1,5.228-4.546,12.848,12.848,0,0,1,5.812.25,33.421,33.421,0,0,1,6.448,2.337,21.9,21.9,0,0,1,3.106-3.551c5.021-4.542,9.924-4.243,14.093.4,4.988,5.52,3.719,13.127-.075,19.461a43.514,43.514,0,0,1-9.572,10.3,34.951,34.951,0,0,1-3.063,2.124l-.037,0a.263.263,0,0,1-.072-.009l-.035-.014c.078-.152.17-.335,0,0C192.131,62.005,185.894,58.7,182.606,55.7Zm11.947-21.92c-3.5,3.781-.523,3.253-6.574,1.07-2.672-.939-6.518-1.931-9.072-.721a9.151,9.151,0,0,0-2.7,2.233,6.58,6.58,0,0,0-1.167,2.189,7.277,7.277,0,0,0-.28,2.8c.211,3.628,2.935,7.667,5.236,10.473,2.909,3.395,5.143,5.889,16.366,11.8a38.579,38.579,0,0,0,6.1-5.044c4.662-4.713,6.4-7.712,7.746-11.2,2.236-6.226,1.62-12.014-3.59-16.094C202.424,28.02,198.148,29.89,194.553,33.783Z"/><path class="b" d="M229.063,58.685s-9.481-12.444-12.315-19.124c-4.577-10.8-9.14-32.121,7.4-34.008,7.894-.9,17.59,12.129,17.59,12.129s17.077-10.644,23.717,2.709c7.309,14.7-5.3,27.3-16.478,32.392A67.576,67.576,0,0,1,229.063,58.685Z"/><path class="a" d="M217.346,41.653c-3.161-6.037-6.172-17.191-5.1-24.573.664-4.606,2.406-8.108,6.407-10.413A13.571,13.571,0,0,1,226.1,5.072c5.59.667,12.317,7.46,15.776,11.916,4.8-2.744,11.464-4.894,16.749-3.312,4.291,1.282,6.626,4.493,8.215,8.584a18.82,18.82,0,0,1,.078,13.521,25.715,25.715,0,0,1-4.958,8.04c-6.6,7.733-18.743,12.487-28.66,14.433a25.153,25.153,0,0,1-4.377.586l-.023-.027c.135-.1.3-.227,0,0C228.223,57.877,220.834,48.323,217.346,41.653ZM224.9,6.023a14.077,14.077,0,0,0-5.23,1.266A10.6,10.6,0,0,0,217,9.077c-2.821,2.66-3.672,6.152-3.992,10a20.72,20.72,0,0,0-.029,2.854,52.216,52.216,0,0,0,5.468,20.29A152.191,152.191,0,0,0,229.163,58.46a62.129,62.129,0,0,0,13.194-3.315c8.086-2.931,12.264-5.65,16.111-9.06a29.345,29.345,0,0,0,6.4-8.074,20.335,20.335,0,0,0,1.722-4.514A18.079,18.079,0,0,0,265.5,21.712c-1.855-4.276-4.632-6.9-9.281-7.442-7.105-.728-14.053,3.886-14.448,3.941h0a.538.538,0,0,1-.483-.248C238.051,13.636,230.5,5.856,224.9,6.023Z"/><path class="b" d="M230.674,97.946s-2.7-9.906-2.777-14.668c-.123-7.7,2.357-21.791,12.884-18.862,5.024,1.4,7.709,11.713,7.709,11.713s13.012-2.265,13.759,7.493c.823,10.745-9.951,15.3-18.007,15.642A44.323,44.323,0,0,1,230.674,97.946Z"/><path class="a" d="M240.983,63.939c2.517.749,4.341,3.382,5.553,5.708a33.862,33.862,0,0,1,2.338,5.892,18.267,18.267,0,0,1,8.586.808c3.782,1.517,5.412,4.451,5.351,8.509-.16,9.005-8.17,13.752-17.09,14.675A45.739,45.739,0,0,1,231.557,98.4c-.711-.184-.969-.231-1.055-.334l-.019-.032L230.47,98c.1-.027.1-.028,0,0-.818-2.927-1.524-5.834-2.143-8.85a29.841,29.841,0,0,1-.78-8.207c.234-4.415,1.019-9.55,3.45-13.258A8.361,8.361,0,0,1,240.983,63.939Zm-7.244,2.111c-2.742,2.19-4.129,6.513-4.8,9.926a32.257,32.257,0,0,0,0,13.062c.611,3.526,1.782,8.258,1.89,8.649.029.115-.024.073.212.135a42.8,42.8,0,0,0,17.143.557c6.707-1.422,12.876-5.481,13.534-12.343a9.566,9.566,0,0,0-1.023-5.813l0,0c-2.206-3.6-7.166-4.01-11.369-3.669-1.943.234-.711.418-2.831-4.53-1.13-2.621-3.024-6.175-5.721-7.073A7.369,7.369,0,0,0,233.739,66.05Z"/><path class="b" d="M196.409,63.981a17.944,17.944,0,0,0-2.449,3.305c-.078.131-.569.908-.463,1.091.324.558,3.2,1.386,3.672.69C197.887,68.008,196.409,63.981,196.409,63.981Z"/><path class="a" d="M196.26,63.832l.026-.023.032-.018a.207.207,0,0,1,.2.011c.141.1,2.227,4.582.9,5.759-.862.746-3.733-.071-4.3-.828a.762.762,0,0,1-.072-.8,14.056,14.056,0,0,1,3.212-4.108l.019.018Zm-2.215,4.35a5.466,5.466,0,0,0,2.4.621.82.82,0,0,0,.306-.053h0l.008-.018,0-.007c.039-.1.035-.113.046-.137v-.006c.246-.64-.335-3.434-.5-4.136A32.351,32.351,0,0,0,194.045,68.182Zm2.691.595.008-.009h0Zm.005-.006v0l0,0h0Zm0-.006h0Zm-2.75-.437,0,0v.011l0-.017v.006l0,.006,0-.013Z"/><path class="b" d="M228.535,58.4a27.388,27.388,0,0,0-5.037,3.73c-.17.156-1.232,1.07-1.159,1.385.226.957,4.052,3.44,5.047,2.635C228.9,64.926,228.535,58.4,228.535,58.4Z"/><path class="a" d="M228.777,58.675c.025.475.559,5.365-.6,7.313a1.5,1.5,0,0,1-1.791.805A8.321,8.321,0,0,1,222,64.007a.858.858,0,0,1-.126-.782c.39-1.279,5.165-4.419,6.566-5.012h0C228.758,58.085,228.751,58.44,228.777,58.675Zm-5.865,4.767c-.174.233,2.5,2.293,3.925,2.342h0a.749.749,0,0,0,.143-.011l.005,0,.055-.014v0h0v0h.009v0h0l.007-.008.021-.016.008-.009.022-.019.008-.011.023-.022.009-.013.024-.025.009-.014.012-.014.009-.015.013-.015.009-.016.014-.016.019-.035.014-.017a14.127,14.127,0,0,0,.945-4.8c.031-.1.094-1.761.093-1.893A35.766,35.766,0,0,0,222.912,63.442Zm-.076.127,0-.012Zm0,0,0-.008Zm0-.008v0Z"/><path class="b" d="M230.793,98a17.953,17.953,0,0,0-3.637,1.921c-.126.084-.906.572-.889.784.051.643,2.288,2.633,3.013,2.21C230.385,102.266,230.793,98,230.793,98Z"/><path class="a" d="M231,97.947c.025.2-.058,1.392-.073,1.591-.084.176-.047,2.763-1.339,3.8a1.294,1.294,0,0,1-1.29-.017,6.139,6.139,0,0,1-2.312-1.972c-.393-.665-.257-.947.169-1.331a14.483,14.483,0,0,1,4.568-2.22v0A.213.213,0,0,1,231,97.947Zm-1.985,4.515.011-.005h0Zm.008,0v0h0Zm0,0h0Zm-2.181-1.693c.339.513,1.653,1.684,2.2,1.684.048-.1.67-.406,1.462-4.075A33.975,33.975,0,0,0,226.845,100.762Zm-.108.109,0,0,0,.01.01-.014,0,0-.005,0,.008-.01Z"/><path class="a" d="M197.275,63.863c12.739,16.468,5.211,28.235,17.406,61.506a26.5,26.5,0,0,0,1.5,3.27c1.788,3.5,1.933,5.456,2.744,11.092.65,3.456.905,26.52,1.079,29.55.007.135.045.056-.191.327-.475-.421-.062,1.667-1.322-23.1a77.654,77.654,0,0,0-1.316-11.559,17.34,17.34,0,0,0-1.529-5.043,38.526,38.526,0,0,1-3.276-7.956v-.007c-10.548-30.761-3.585-41.242-15.081-57.336-.432-.606-.369-.4-.314-.786Z"/><path class="a" d="M204.154,34.379a7.21,7.21,0,0,1,3.529,5.759,7.531,7.531,0,0,1,.013,1.077l-.13.306-.272.139h-.005l-.282-.114-.154-.294,0,0a6.769,6.769,0,0,0-4.554-5.42c-.239-.059-.064.044-.814-.536l-.109-.8c.04-.075-.173.223.5-.647l.806-.108A6.9,6.9,0,0,1,204.154,34.379Z"/><path class="a" d="M257.379,21.975a10.185,10.185,0,0,1,1.473,1.66,10.958,10.958,0,0,1,.633,1.018h0a11.18,11.18,0,0,1,.016,10.309c-.081.139.009.041-.292.315l-.312,0,0,0h0l-.21-.227c-.009-.408-.018-.277.026-.425a10.588,10.588,0,0,0,.5-2.238h0a10.941,10.941,0,0,0-.7-5.305l0,0a9.091,9.091,0,0,0-.726-1.446h0a8.39,8.39,0,0,0-1.068-1.382c-.963-.977-.537-.284-1.086-1.391l.253-.771.73-.365Z"/><path class="a" d="M257.272,82.43a6.726,6.726,0,0,1,.5,1.451,7.117,7.117,0,0,1-1.161,5.649,7.786,7.786,0,0,1-1.525,1.638l-.315.109-.284-.109,0,0-.1-.285.115-.312v0c1.567-1.812,2.13-5.071.886-7.168l-.062-.808.524-.62c.083-.021-.281.021.814-.064Z"/><path class="a" d="M225.067,67.159c-3.228,11.821-8.423,27.115-8.868,40.295-.326,9.77,2.07,17.466,1.856,27.234-.147,6.671-3.542,27.284-2.433,34.112.127.959.214.622-.029,1.007-.327-.209-.232-.017-.409-.94-1.178-7.459,1.334-25.975,1.768-32.431.472-10.519-1.838-17.359-1.838-27.014,0-14.056,6.088-31.026,9.544-42.383l.263-.145Z"/><path class="a" d="M227.644,102.549c-3.356,7.12-8.949,18.874-9.785,26.853-.77,9.757,8.7,22.764,10.976,33.513l-.154.258c-.506-.31.013.261-1.12-2.961-3.23-9.182-11.65-21.872-10.75-30.906.808-8.155,6.623-19.754,10.452-26.953l.288-.092Z"/><path class="b" d="M211.009,138.638a15.78,15.78,0,0,1,.141-2.6c.064-2.179-.109-4.061,1.646-5.619a6.47,6.47,0,0,1,1.21-.765c1.332-.73,4.64-2.305,5.608-.174a1.9,1.9,0,0,1,.143,1.129,5.111,5.111,0,0,0-.239.548c.106.406.771.651.928,1.121a2.773,2.773,0,0,1-.564,2.4c-.181.222-.643.516-.731.771-.064.19.361.2.489.352,1.066,1.291-1.616,2.831-2.678,3.935-.393.407-.8,1.178-1.388,1.331-1.183.313-2.9-.89-3.778-1.574A7.672,7.672,0,0,1,211.009,138.638Z"/><path class="a" d="M210.844,136.3a11.671,11.671,0,0,1,.434-4.542,4.684,4.684,0,0,1,1.816-2.141,13.562,13.562,0,0,1,3.3-1.52,3.138,3.138,0,0,1,3.316.565,2.481,2.481,0,0,1,.551,2.112,2.366,2.366,0,0,1-.155.336h0a2.491,2.491,0,0,1-.18,4.251,1.476,1.476,0,0,1,.39.583c.633,1.538-2.106,3.236-2.818,3.9-.628.555-.8,1.048-1.455,1.452-1.32.721-3.28-.651-4.432-1.628a5.083,5.083,0,0,1-.811-1c.1-.014.417-.055,0,0A9.948,9.948,0,0,1,210.844,136.3Zm2.747-5.866a3.78,3.78,0,0,0-1.013.865c-1.283,1.481-.918,3.507-1.247,5.746a6.859,6.859,0,0,0-.115,1.5c0,.238,3.065,2.709,4.343,2.112.468-.219.641-.94,1.853-1.961a10.5,10.5,0,0,0,1.5-1.4,3.2,3.2,0,0,0,.439-.7l0-.009.005-.018v-.009l.008-.026v-.008l0-.008V136.5l0-.008v-.067l0-.007V136.4l0-.007v-.008l0-.014v-.008l-.008-.022v-.008l0-.007h0l0-.008-.008-.024,0-.008-.006-.017c-.072-.116-.032-.085-.149-.127-.29-.113-.5-.245-.555-.577-.047-.445.368-.809.84-1.211a2.4,2.4,0,0,0,.409-.753,2.173,2.173,0,0,0,.115-.936v-.014c-.012-.063-.017-.087-.027-.133l-.005-.013,0-.024-.006-.013,0-.012-.006-.011v0l-.01-.026-.006-.007,0-.007a1.433,1.433,0,0,0-.272-.278,3.215,3.215,0,0,1-.444-.432c-.4-.585-.181-.746.038-1.235v0l0-.017v-.01l0-.011v-.01l0-.011v-.023l0-.011v-.023l0-.012a1.5,1.5,0,0,0-.354-.987l0,0-.006-.008a1.124,1.124,0,0,0-.393-.276C217.216,128.537,214.775,129.722,213.591,130.432Zm5.653,5.7h0Zm.242-.993Zm0,0h0Z"/><path class="b" d="M219.151,135.454c-.059.186.361.194.489.348.982,1.189-1.3,2.677-2.295,3.567-1.189.06-1.351-.735-1-1.87A3.32,3.32,0,0,1,219,135.46l-.024.051A1.457,1.457,0,0,1,219.151,135.454Z"/><path class="a" d="M219.26,135.273l.026.02a.252.252,0,0,1,.046.052l.016.03,0,.021a.974.974,0,0,1,.5.225,1.251,1.251,0,0,1,.389,1.037c-.134,1.266-1.885,2.5-2.391,2.965h0a.73.73,0,0,1-.7.276,1.43,1.43,0,0,1-1.321-.706,2.4,2.4,0,0,1,.2-2.252,3.454,3.454,0,0,1,3.077-1.694h0a.184.184,0,0,1,.055,0l.035,0A.265.265,0,0,1,219.26,135.273Zm-1.229.864a2.832,2.832,0,0,0-1.324,2.314l0,.013v.025l0,.012v.012l0,.011v.011l0,.011v.01l.008.029v.009a.344.344,0,0,0,.072.144l0,0,.006,0,0,0,.006,0,0,0,.006,0,0,0a.716.716,0,0,0,.325.083l.018-.016h0c2.565-2.037,1.6-1.442,2.024-1.781a1.982,1.982,0,0,0,.311-.466l.01-.021.008-.032.006-.011.008-.031v-.011l0-.021v-.01l0-.011v-.011l0-.01v-.033l0-.01v-.023l0-.011v-.022l0-.012v-.011l0-.012v-.012l-.013-.06-.006-.012,0-.012-.006-.013,0-.013a.956.956,0,0,0-.088-.175l.011.01-.008-.008.01.009-.008-.008.008.008,0-.007.008.006,0,0,0,0,.008.006,0,0,0,0,0,0-.01-.01,0,0-.008,0,0,0a2.825,2.825,0,0,1-.385-.231h0C218.918,135.766,218.727,135.659,218.031,136.137Zm1.33-.661-.008.034c-.172-.048-.141-.04,0,0v.009l0-.014v.008l0-.015v-.009l0,.008v-.01l0-.018,0,.007,0-.018,0,.007,0-.009Zm0-.022v0Z"/><path class="b" d="M219.68,131.428c.237.265.646.492.766.847a2.773,2.773,0,0,1-.564,2.4,4.419,4.419,0,0,1-.42.39,13.031,13.031,0,0,1-1.465.646c-.388.146-1.848.175-1.8-.538a3.421,3.421,0,0,1,.609-1.31,6.729,6.729,0,0,1,.888-1.028A7.185,7.185,0,0,1,219.68,131.428Z"/><path class="a" d="M219.712,131.219a.3.3,0,0,1,.069.023l.029.02.024.024,0,0,.013.01c.15.243.921.336,1.05,1.459a3.133,3.133,0,0,1-.874,2.483,1.78,1.78,0,0,1-.66.452,8.2,8.2,0,0,1-1.47.595c-1.108.19-2.418-.16-2.2-1.33l0,0a5.05,5.05,0,0,1,1.112-1.875,8.156,8.156,0,0,1,1.435-1.184A7.306,7.306,0,0,1,219.712,131.219Zm-2.188,2.5h0a2.359,2.359,0,0,0-.269.384l0,0a5.03,5.03,0,0,0-.518,1.038v.013l0,.01h0l0,0,.029.013,0,0a1.663,1.663,0,0,0,.579.09,2.552,2.552,0,0,0,1.269-.365,2.055,2.055,0,0,0,.877-.521l0-.006,0,0a2.482,2.482,0,0,0,.269-.368,2.894,2.894,0,0,0,.377-.984,1.748,1.748,0,0,0-.008-.662c0-.137-.271-.4-.5-.648A7.563,7.563,0,0,0,217.524,133.714Z"/><path class="b" d="M218.1,128.42a1.761,1.761,0,0,1,1.511,1.057,1.9,1.9,0,0,1,.143,1.124,10.637,10.637,0,0,1-2.319,2.141c-.441.325-1.239,1.1-1.837.623-.423-.336-.2-1.015-.1-1.45A7.143,7.143,0,0,1,218.1,128.42Z"/><path class="a" d="M220.175,129.926c.142.785.027.915-.6,1.643a14.133,14.133,0,0,1-2.268,1.94c-1.169.925-2.179.544-2.438-.369h0a4.076,4.076,0,0,1,.545-2.338h0a5.7,5.7,0,0,1,.955-1.236,10.042,10.042,0,0,1,1.691-1.351.2.2,0,0,1,.066,0c-.013.13-.015.145,0,0A2.08,2.08,0,0,1,220.175,129.926Zm-3.907,1.3v0a4.914,4.914,0,0,0-.39,1.581l0,.013v.012l.006.021v.01l.01.031v.006l.006.013.005.007v0c.01.011-.005,0,.018.021l.006,0c.114.16.4-.007,1.983-1.222a10.5,10.5,0,0,0,1.431-1.338v-.014l0-.025v-.013l0-.013v-.013l0-.013a1.612,1.612,0,0,0-.2-.921,1.412,1.412,0,0,0-.989-.727A8.932,8.932,0,0,0,216.268,131.23Z"/><path class="b" d="M211.15,136.035c.064-2.179-.109-4.061,1.646-5.619a12.9,12.9,0,0,1,2.786-1.512q.3,0,.607.025c.558.047,1.321.354,1.454.976.428,2.02-2.441,2.1-3.172,3.277-.154.25,0,.618.013.9a15.2,15.2,0,0,1-.1,2.174l-.051.083"/><path class="a" d="M215.66,128.377c1.96.025,2.658.951,2.539,2.145a1.939,1.939,0,0,1-.556,1.133h0a10.625,10.625,0,0,1-2.427,1.395,1.619,1.619,0,0,0-.4.337l-.006.006,0,.006,0-.013,0,.013,0-.012,0,.013,0-.012,0,.007,0,.008,0-.011-.005.015,0-.01,0,.008v0l0,0v.005l0,0v.006l0,.006v.014l0,.007a8.049,8.049,0,0,1-.149,2.611c-.081.427-.049.36-.42.447l-.064-.293.019-.037,0-.028h0a11.9,11.9,0,0,0-.093-2.294c-.124-.547-.134-.9.579-1.492.621-.512,1.711-.889,2.237-1.429h0a1.348,1.348,0,0,0,.154-.2l.021-.04,0-.009.016-.03,0-.01.006-.01,0-.01.006-.011,0-.01.006-.01.01-.042.006-.011.013-.055v-.011l.005-.024v-.012l.006-.023v-.025l0-.013v-.025l0-.014a1.47,1.47,0,0,0-.024-.274l-.011-.059,0-.011v-.006l0-.006v-.005l-.008-.017v0l-.024-.049,0,0-.008-.016-.005-.006,0,0,0-.006,0,0,0,0a.922.922,0,0,0-.356-.261,1.929,1.929,0,0,0-.766-.159c-.323-.016-.173-.055-1,.318-2.051.98-3.088,1.736-3.4,4.432-.251,2.167-.023,1.716-.385,2.057l-.208-.22c-.184-2.518-.2-4.6,1.729-6.154A10.672,10.672,0,0,1,215.66,128.377Z"/><path class="b" d="M165.889,98.093a8.536,8.536,0,0,0,.1.925"/><path class="c" d="M165.992,99.549a.532.532,0,0,1-.529-.475,8.639,8.639,0,0,1-.106-.97.532.532,0,1,1,1.063-.023c.007.312.058.477.1.88A.531.531,0,0,1,165.992,99.549Z"/><path class="b" d="M173.754,97.863c0,.281.019.53.042.81"/><path class="c" d="M173.8,99.2a.531.531,0,0,1-.529-.486c-.026-.292-.039-.551-.045-.845a.532.532,0,1,1,1.063-.02c0,.269.018.506.041.774A.531.531,0,0,1,173.8,99.2Z"/><path class="b" d="M170.284,97.436c.356,1.407.779,2.814,1.2,4.2.1.334.622,1.317.457,1.673-.329.722-1.576.787-2.23.938"/><path class="a" d="M170.491,97.384c.01.026.585,1.385.681,1.645.352.886.472,1.524,1.146,3.29a1.748,1.748,0,0,1,.056,1.255l-.016.025v0c-.587.862-1.546.8-2.539.85-.1.006-.032.024-.32-.155.2-.308.033-.216.734-.448a2.732,2.732,0,0,0,1.144-.574l0,0a.62.62,0,0,0,.062-.076l0-.007.006-.008,0-.007.006-.008,0-.007,0-.007v-.009l0-.009v-.008l0-.01V103.1c-.007-.039-.01-.044-.013-.059v0a2.756,2.756,0,0,0-.117-.363v0a13.653,13.653,0,0,1-.888-2.824,19.277,19.277,0,0,1-.364-2.363l.154-.26Zm.973,5.763h0v0Zm0,0v0Zm.011-.029v0l-.006.015v0l0,.014v-.006l0,.01.008-.02h0l.008-.019v0Z"/><path class="b" d="M169.967,108.26a5.084,5.084,0,0,1-5.36-2.01"/><path class="a" d="M164.769,106.116a13.446,13.446,0,0,0,2.438,1.486h0a8.317,8.317,0,0,0,2.056.417h0c.845.08.513-.063.915.2l-.165.253a4.16,4.16,0,0,1-5.568-2.084l.026-.3Z"/><path class="b" d="M131,187.017a12.357,12.357,0,0,1,4.161,5.2c.694,1.524,1.625,3.813.441,5.294a.819.819,0,0,1-1.39-.095,12.211,12.211,0,0,1-.49-1.933c-.55-1.649-1.411-3.194-3.225-3.63-2.441-.59-2.186,1.6-3.7,2.843-1.1.9-1.781-.011-1.779-1.107a16.98,16.98,0,0,1,.362-4.017,2.2,2.2,0,0,0,.659-.093C127.331,189.086,129.915,188.254,131,187.017Z"/><path class="a" d="M131.085,186.823l.029.016v0A10.668,10.668,0,0,1,134.348,190a14.759,14.759,0,0,1,2.231,4.938,3.149,3.149,0,0,1-.944,3.212h0a1.022,1.022,0,0,1-.2.1,1.355,1.355,0,0,1-1.431-.285c-.186-.155-.427-.483-.635-1.736a6.606,6.606,0,0,0-1.327-2.85,3.164,3.164,0,0,0-2.274-1.1c-.077,0-.172.008-.173.008l-.013,0h-.013l-.04.008h-.013l-.088.019-.011,0-.034.008-.011.006-.021,0-.011,0-.011,0-.01,0-.011,0-.018.011c-.581.145-1.043,1.693-1.928,2.515-.7.652-1.46.959-2.21.375-.711-.622-.637-1.619-.6-2.561a17.612,17.612,0,0,1,.452-3.257c.141-.346.418-.246.742-.292a17.984,17.984,0,0,0,4.15-1.545,5.072,5.072,0,0,0,.907-.681c.054-.055.011-.013.069-.072l.027-.018A.211.211,0,0,1,131.085,186.823Zm-5.355,3.122a14.909,14.909,0,0,0-.229,2.5,5.247,5.247,0,0,0,.136,1.8.82.82,0,0,0,.114.194l.008.008,0,.008.032.032.008,0,.011.011.013.008.006,0,.016.008.005.005.016.008h.005l0,0,.01,0h.006l.005,0h0l.006,0h.01l.006,0h.016l.008,0h.018l.008,0H126l.008,0c.255,0,.777-.48,1.1-.982.6-.907,1.035-2.339,2.611-2.339a4.214,4.214,0,0,1,1.547.319c1.652.722,2.4,2.112,2.978,3.839a11.128,11.128,0,0,0,.434,1.8l.008.016,0,.006.005.01.008.008,0,.006.008.008,0,0,0,0,0,.006.013.013.005,0,0,0,0,0,0,0,.006,0,0,0,.006,0,0,0,.048.027.024.008.008,0h.008l.027.008h.008l.008,0h.064l.008,0h.01l.008,0H135l.048-.016.008-.006.01,0a.188.188,0,0,1,.029-.016l0,0h0l.021-.011,0,0,.011,0,0-.006.005,0,.019-.019.005,0a2.1,2.1,0,0,0,.5-1.188c.19-2.276-1.815-5.957-3.48-7.751a8.268,8.268,0,0,0-1.154-1A13.584,13.584,0,0,1,125.73,189.945Z"/><path class="b" d="M139.256,186.549c2.26,2.949,17.565,4.047,31.645,3.207.114,1.9.165,3.558.228,4.257.763,8.638,3.565,28.382-.167,36.577-2.9,6.345-8.488,10.937-13.566,15.457a268.565,268.565,0,0,1-32.246,24.622c-1.273.83-9.259,5.706-10.491,5.589-1.455-.141-8.485-3.94-8.963-5.251-.8-2.191,37.658-48.144,37.977-47.939,0,0-4.271-18.352-6.517-32.365A45.215,45.215,0,0,0,139.256,186.549Z"/><path class="a" d="M143.511,188.251c6.5,1.625,17.705,1.568,24.393,1.3,3.257-.156,3.1-.237,3.3,0a17.448,17.448,0,0,1,.231,3.287c.28,5.027,2.486,18.929,1.72,29.642-.465,6.648-2.1,11.509-9.532,18.613-11.556,11.033-31.223,26.511-44.558,33.788-1.1.6-3.456,1.9-4.4,1.9-1.56-.131-7.6-3.408-9.064-4.994-.549-.6-.608-.921-.086-1.93,3.011-5.957,28.289-36.011,32.639-41.146,6.174-7.151,4.606-5.242,5.081-5.8-3.247-14.292-6.47-31.977-6.289-32.339,2.281-3.939,1.825-3.978,2.21-4.222l.035-.014a.244.244,0,0,1,.071-.01l.035.005.035.013a.237.237,0,0,1,.061.037l.024.027-.054.043.056-.046C140.086,187.341,142.4,188,143.511,188.251Zm-4.2-1.305c-.905,2.062-1.858,3.7-1.909,3.8l.04.245h0c2.485,14.792,6.564,31.7,6.621,32.054a.394.394,0,0,1-.168.34c-.891.52-35.934,42.733-37.645,47.41-.281.749,7.376,4.932,8.453,4.932l.005,0h0l0,0a20.969,20.969,0,0,0,3.635-1.659c14.2-7.9,33.278-22.928,44.456-33.594a32.244,32.244,0,0,0,8.068-10.963c3.33-9.509.243-27.953-.317-39.371-7.952.43-20.506.387-28.159-1.7-2.672-.835-2.928-1.4-3.081-1.5Zm4.369,36.507h0Zm-.069,0h.011l-.019,0Zm.13,0h0Z"/><path class="a" d="M150.847,99.779s1.313-4.287,4.714-2.433c.588.32,1.066,2.324,1.992,1.662a4.57,4.57,0,0,0,1.053-1.767,23.99,23.99,0,0,0,1.919-5.006,16.738,16.738,0,0,1,.394-2.6c.335-.156.867.169,1.178.257,2.364.665,3.806,2.051,6.025.583.2-.135.827-.811,1.088-.75.428.1.739.523,1.1.751a7.134,7.134,0,0,0,2.287.786c.853.163,1.739-.363,2.446-.258.308.045.976,1.513,1.236,1.776,1.585,1.6,4.409,1.76,4.845-.856.255-1.542-.952-2.781-1-4.325-.056-1.74.045-3.518-.917-5.074-1.237-2-4.255-2.948-5.738-2.457-2.962.982-3.353-.2-4.382-.642-.694-.3-4.281-1.551-6.547-1.288a7.175,7.175,0,0,0-4.525,2.155c-.692.855-1.032,2.067-1.835,2.814-1.122,1.047-3.029.9-4.071,2.044a9.417,9.417,0,0,0-1.864,4.54A16.931,16.931,0,0,0,150.847,99.779Z"/><path class="a" d="M167.452,78.323c3.111.925,2.128,1.018,3.308,1.475.979.38,2.408-.227,2.906-.324a6.254,6.254,0,0,1,3.826.8,5.465,5.465,0,0,1,2.747,3.255c.54,1.713.295,3.55.468,4.529.264,1.489,1.856,3.184.309,5.432-1.36,1.651-3.984.961-5.18-.434-.245-.318-.7-1.22-.973-1.559h0a7.16,7.16,0,0,0-1.25.229,4.089,4.089,0,0,1-2.393-.3,6.092,6.092,0,0,1-2.037-1.194h0a5.975,5.975,0,0,1-1.789,1.159c-1.8.659-3.469-.429-5.154-.993-.866-.282-.675-.263-.946-.34-.115-.036-.067-.141-.314,1.879a21.488,21.488,0,0,1-2.021,5.386c-.385.752-.857,2.241-1.866,2.132-.875-.124-1.213-1.507-1.641-1.835l-.024-.017.008.005c-1.674-.959-2.91-.384-3.917,1.225a6.408,6.408,0,0,0-.468,1.007h0l-.014.033a.214.214,0,0,1-.106.1l-.034.012c-.2.026-.228-.095-.309-.27-.029-.085,0,.012-.093-.225-1.475-3.491-1.2-8.377-.088-11.948,1.274-4.093,3.314-3.42,5.039-4.437,1.743-1.045,1.044-3.141,4.348-4.7C162.416,77.193,164.615,77.519,167.452,78.323ZM154.03,96.611a3.378,3.378,0,0,1,1.925.68c.419.475.821,1.413,1.18,1.521l.016,0h0l.011,0a.158.158,0,0,0,.053,0h0c.313-.075.577-.605.683-.832a30.015,30.015,0,0,0,2.229-5.84l0-.006c0-.1.145-1.455.157-1.555.13-1.1.161-1.829,1.707-1.2.288.112.614.18,1.162.391,2.013.741,3.041,1.373,4.7.3h0l.008,0,0,0c.241-.182.772-.785,1.253-.828a1.411,1.411,0,0,1,.829.319,4.535,4.535,0,0,0,2.771,1.22,4.13,4.13,0,0,0,1.433-.2c1.1-.242,1.328-.052,1.853.788.6,1.088.685,1.117.947,1.335a2.648,2.648,0,0,0,2.906.463,1.866,1.866,0,0,0,.75-1.346,5.766,5.766,0,0,0-.675-2.652,4.99,4.99,0,0,1-.351-2.037c-.037-2.262-.087-3.907-1.782-5.373a5.87,5.87,0,0,0-3.52-1.278c-.964.026-2.692,1.123-4.5,0a5.51,5.51,0,0,0-2.212-1.03c-3.055-.941-5.6-1.365-8.3.366a5.614,5.614,0,0,0-1.859,2.395,4,4,0,0,1-2.813,2.185,4.068,4.068,0,0,0-2.382,1.251,6.926,6.926,0,0,0-1.2,2.421,26.229,26.229,0,0,0-.795,3.79,15.683,15.683,0,0,0,.625,7.339l0,0v0C151.5,97.76,152.464,96.588,154.03,96.611Zm7.245-6.744v0h0l0-.009Zm0,0h0l0,0Z"/><path class="b" d="M78.075,108.892s.078,1.287.13,1.909c.014.166.186.48.02.5-.493.065-.9-.437-1.5-.169a2.274,2.274,0,0,0,1.365,4.253c.247-.019.822-.259,1.008-.054a17.411,17.411,0,0,1,1.461,2.469,11.829,11.829,0,0,0,2.4,2.511,6.091,6.091,0,0,0,2.007,1.188c.146.045.879.082.933.188.43.85-1.386,2.249-1.114,3.058.583,1.731,10.2,6.277,10.744,3.017.262-1.558-2.641-4.059-2.339-6.143.039-.269,1.577-1.04,2.27-1.712,3.533-3.431,4.788-6.1,3.874-13.558-.092-.759.138-2.323-.555-2.859-1.8-1.4-4.35-.277-6.106-1.569a7.894,7.894,0,0,1-2.04-2.835c-.358-.741-.582-1.6-1.5-1.767-1.937-.362-2.018,3.21-2.518,4.442C85.219,105.179,82.546,109.911,78.075,108.892Z"/><path class="a" d="M77.126,110.794a4.382,4.382,0,0,1,.889.251,11.933,11.933,0,0,1-.154-2.14h0a.2.2,0,0,1,.008-.07l.012-.033c.105-.179.249-.113.4-.084,3.317.592,5.518-2,7.056-5.014a11.973,11.973,0,0,0,1.415-4.177,4.985,4.985,0,0,1,.878-2.071,1.714,1.714,0,0,1,2.421-.17c.674.565.707,1.3,1.652,2.8a5.019,5.019,0,0,0,1.372,1.525c1.463.918,3.518.171,5.4,1.089,1.18.6,1.314,1.284,1.34,2.747.012,1.143.137,1.376.261,3.248.336,5.536-.807,7.931-3.462,10.781-1.773,1.89-1.988,1.533-2.922,2.338-.2,2.1,3.713,5.047,1.885,6.965-2.023,2.052-9.323-1.457-10.916-3.322a1.279,1.279,0,0,1-.219-1.565,13.806,13.806,0,0,0,1.05-1.862,3.625,3.625,0,0,1-1.856-.678,16.77,16.77,0,0,1-2.419-2.079c-1.449-1.529-1.558-2.726-2.362-3.67a5.4,5.4,0,0,0-.686.12,2.585,2.585,0,0,1-2.926-2.368A2.214,2.214,0,0,1,77.126,110.794ZM88.833,97.722c-.607.013-.932.769-1.127,1.346-.556,1.649-.231,2.176-1.855,5.126-1.683,3.049-4.137,5.619-7.542,4.965.013.172.118,1.535.137,1.634a2.72,2.72,0,0,1,.093.376.328.328,0,0,1-.3.38c-.44.049-.883-.274-1.231-.228a1.635,1.635,0,0,0-1.143,1.3,1.966,1.966,0,0,0,2.516,2.343c.921-.221,1.068-.017,2.165,2.045a6.32,6.32,0,0,0,.935,1.365,17.833,17.833,0,0,0,2.341,2.064,3.855,3.855,0,0,0,2.09.758c.465.139.554.613.48,1.038a3.282,3.282,0,0,1-.5,1.1,4.248,4.248,0,0,0-.661,1.238c.048.976,6.9,4.506,9.238,3.717,2-.722-2.011-3.884-1.825-6.556.039-.511.249-.661.88-1.085a12.37,12.37,0,0,0,1.5-1.056,14.786,14.786,0,0,0,3.182-4.156c1.546-3.426.59-8.284.577-9.867,0-.434,0-1.358-.3-1.652-1.244-1.082-3.491-.447-5.3-1.155a5.313,5.313,0,0,1-2.479-2.531C89.826,98.65,89.777,97.7,88.833,97.722Zm-3.164,24.352-.009,0Zm0,0,0,0h0Zm-.573-1h0Zm-6.2-5.457-.007,0h0Zm0,0,0,0h0Zm0,0h0Zm-.83-4.408v0Z"/><path class="b" d="M91.547,107.191c.442.9,1.433,3.715,1.649,4.161.389.8.99,1.484.169,2.256a3.789,3.789,0,0,1-.794.492,3.2,3.2,0,0,1-1.012.314"/><path class="a" d="M91.739,107.1a34.407,34.407,0,0,1,2.193,4.518,2.107,2.107,0,0,1,.323,1.459,1.678,1.678,0,0,1-.85,1.057,4.794,4.794,0,0,1-1.247.441c-.641.1-.566.046-.809-.12.27-.387.019-.144.65-.429a5.638,5.638,0,0,0,.917-.617.719.719,0,0,0,.225-1.012,9.22,9.22,0,0,1-.818-1.841,28.769,28.769,0,0,1-.859-2.9c-.127-.461-.14-.283-.01-.658Z"/><path class="b" d="M88.678,117.362c1.526.521,3.187.692,4.444-.491"/><path class="a" d="M93.278,116.725l-.013.3a2.854,2.854,0,0,1-3.119,1.2,3.45,3.45,0,0,1-1.4-.579c-.167-.107-.106-.032-.267-.357.312-.155.21-.137.424-.125,2.524.115,2.233.064,3.122-.122a3.838,3.838,0,0,0,.956-.331Z"/><path class="b" d="M87.619,108.542c.006.475-.016.483,0,.935"/><path class="c" d="M87.623,110.009a.533.533,0,0,1-.531-.508c-.021-.477,0-.505,0-.953a.532.532,0,0,1,1.064-.013c.005.471-.015.5,0,.918A.535.535,0,0,1,87.623,110.009Z"/><path class="b" d="M95.368,107.347c.038.517.02.532.048,1.055"/><path class="c" d="M95.416,108.934a.532.532,0,0,1-.531-.5c-.028-.527-.01-.542-.047-1.045a.532.532,0,1,1,1.061-.077c.039.541.021.564.048,1.066A.538.538,0,0,1,95.416,108.934Z"/><path class="c" d="M38.338,264.04a.531.531,0,0,1-.484-.311c-1.147-2.518-1.916-5.355-3.623-7.5a.532.532,0,1,1,.832-.663c1.829,2.294,2.61,5.194,3.759,7.718A.532.532,0,0,1,38.338,264.04Z"/><path class="c" d="M122.7,287.578a.532.532,0,0,1-.254-1A22.451,22.451,0,0,1,128.1,284.4a.532.532,0,0,1,.231,1.038A30.322,30.322,0,0,0,122.7,287.578Z"/></svg>