<svg xmlns="http://www.w3.org/2000/svg" viewBox="0 0 300 300"><defs><style>.a,.c{fill:#212121;}.a,.b{fill-rule:evenodd;}.b{fill:#fff;}</style></defs><title>Playing Music</title><path class="a" d="M148.609,30.762c-2.7,34.219-3.863,136.085-3.788,136.148,1.065.9,102.574-1.162,102.818-1.444,2.734-3.154,6.635-134.344,5.943-135.446C252.473,28.256,148.609,30.762,148.609,30.762Z"/><path class="a" d="M145.524,166.251c0,.7,101.505-1.15,101.622-1.582,2.541-9.819,6.2-126.845,5.826-134.173-7.345-1.335-96.468.414-104.076.564C146.9,56.958,145.662,140.486,145.524,166.251ZM253.509,29.267a1.074,1.074,0,0,1,.565.312c.243.3.251.624.255,3.2,0,16.789-3.188,128.034-5.97,132.981-.337.6-.507.508-4.147.62-7.32.218-95.924,2.19-99.522,1.239a.744.744,0,0,1-.578-.776c-.046-5.785,1.4-101.988,4.191-136.1.358.028.458.036,0,0,.062-.393-1.318-.267,22.35-.849C176.14,29.758,248.374,27.928,253.509,29.267Z"/><path class="b" d="M152.55,35.1c-2.492,32.019-3.563,127.338-3.494,127.4.983.841,94.592-1.087,94.817-1.351,2.521-2.951,6.119-125.71,5.481-126.741C248.331,32.756,152.55,35.1,152.55,35.1Z"/><path class="a" d="M149.711,161.934c5.1.315,32.706-.15,38.235-.24,63.159-1.073,51.3-1.215,55.447-1.215,2.323-8.3,5.744-118.874,5.4-125.633-6.6-1.256-89.427.4-95.973.532C150.822,62.063,149.711,149.63,149.711,161.934Zm99.7-128.186c.65.24.586.7.609,1.431.239,9.225-2.769,120.5-5.441,126.155a.792.792,0,0,1-.667.525c-2.738.289-92.535,2.168-95.075,1.265-.533-.23-.446-.669-.444-1.249.171-25.244,1.737-100.694,3.868-126.8.29.023.457.035,0,0,.056-.356,0-.254,4.392-.374C161.506,34.576,245.018,32.27,249.416,33.748Z"/><path class="a" d="M165.969,191.967c9.91,7.849,19.246,18.353,18.83,31.1-.91,22.655-33.853,40.261-55.571,44.724-25.072,5.106-56.745,4.23-82.91-.752a185.515,185.515,0,0,1-22.913-5.779,26.183,26.183,0,0,1-6.78-4.078C8.633,250.617,3.41,239.492,5.446,223.131a25.192,25.192,0,0,1,2.186-8.562c10.188-21.106,59.232-31.711,82.24-31.524C92.508,183.081,146.012,176.23,165.969,191.967Zm-74.976-8.333c-21.393-.438-76.162,10.7-83.3,34.1a50.308,50.308,0,0,0-1.379,10.156c-.542,14.982,5.6,25.222,14.426,30.516,2.973,1.747,4.659,2.136,9.211,3.4,29.563,8.194,63.9,9.906,90.86,6.021a94.058,94.058,0,0,0,29.7-8.871c24.892-11.9,43-31.539,26.866-53.853-4.433-6.123-11.6-12.38-15.805-14.771-13.759-7.754-37.882-8.364-53.626-7.828C97.242,182.88,91.782,183.652,90.993,183.634Z"/><path class="a" d="M247.778,100.3l.043.022a.347.347,0,0,1,.072.066l.026.041a.3.3,0,0,1,.029.093l0,.048c-.294-.011-.45-.017,0,0-.311,9.787-1.573,49.03-3.008,58.7-.108.709-.275,1.986-.74,2.376-.911.492-93.279,2.446-95.443,1.5-.536-.29-.418-.749-.415-1.432.024-4.241.474-38.08.6-38.544.194-.409.348-.384,1.431-.789,23.009-8.551,47-14.407,71.526-19.115,12.982-2.468,17.188-2.138,24.281-2.833C247.807,100.268,247.646,100.252,247.778,100.3Zm-.488.592c-5.864.724-8.734.543-16.51,1.683-8.782,1.315-32.26,6.347-51.333,11.766-9.957,2.842-19.3,5.839-29.165,9.556-.478,27-.5,33.258-.52,38,9.761.647,93.62-1.3,93.72-1.3C245.09,155.36,247.45,100.867,247.29,100.887Z"/><path class="b" d="M58.605,189.419c-5.1-1.339-10.013-5.545-13.54-9.232-12.655-13.225-16.154-30.308-7.716-46.793,6.976-13.632,25.1-22.286,39.645-22.708,43.272-1.258,56.762,30.072,60.392,41.823.508,1.645,4.721,8.084,4.941,8.176.519.216,22.719-10.487,26.466-9.564,1.088.268,2.163,1.368,3.026,2.027.654.5,2.23,1.284,2.505,2.137.333,1.029-.614,2.555-.978,3.489-5.165,13.246-16.677,19.737-30.751,21.327-3.494.4-8.47.5-12.622-2.352-8.235-5.65-5.787-7.518-11.34-16.788a23.883,23.883,0,0,0-15.474-11.478c-22.149-4.746-28.526,9.972-32.136,11.524-3.071,1.32-6.971,1.1-10.261.751-1.354-.145-4.659-.867-5.909-.313-.593.262-.917,1.608-1.019,2.208-.168.983,2.655,2.658,5.424,6.215,2.48,3.184,3.461,6.653,4.984,10.3.326.781,1.734,2.989,1.349,3.813-.329.7-1.415,1.036-2.023,1.436C62.055,186.412,58.605,189.419,58.605,189.419Z"/><path class="a" d="M46.955,182.54c-15.768-14.759-18.422-33.342-9.913-49.714,4.823-9.163,14.25-15.76,23.886-19.433,8.488-3.2,15.738-3.875,25.042-3.147,25.943,2.118,43.92,17.607,51.663,40.731.443,1.341.289,1.672,3.247,6.332.474.746,1.193,1.854,1.707,2.573,4.114-1.539,22.566-10.4,26.408-9.44,1.416.366,2.5,1.67,3.836,2.537a5.546,5.546,0,0,1,2.087,1.889c.56,1.228-.3,2.755-.83,3.959-.185.429-.456,1.218-1.224,2.8a35.3,35.3,0,0,1-3.085,5.16c-6.246,8.6-16.571,12.807-27.106,14-7.752.868-12.091-1-16.731-5.345-3.18-2.99-3.446-5.247-5.5-9.695-5.334-11.457-12.265-15.666-23.036-16.521-6.878-.526-12.925.891-18.445,5.164a48.369,48.369,0,0,0-5.293,5.037c-1.777,1.835-2.256,2.033-3.617,2.442-5.894,1.736-13.172-.8-15.025-.037-.4.191-.69,1.4-.785,1.9,0,.742,3.063,2.835,5.606,6.29,2.777,3.814,3.72,8.11,4.969,10.568a16.294,16.294,0,0,1,.983,2.133c.682,2.1-.853,2.08-2.523,3.274-1.955,1.419-4.42,3.615-4.563,3.687l-.043.014-.046.007a.3.3,0,0,1-.09-.009c.075-.285.116-.436,0,0C54.247,188.577,50.228,185.582,46.955,182.54Zm20.766-21.147a11.3,11.3,0,0,0,3.32-.936c3.188-1.87,9.238-13.863,27.031-12.35,10.839.953,17.873,5.338,23.321,16.585,2.334,4.863,2.393,7.009,5.758,10.032,3.667,3.274,6.432,4.454,10.061,4.805,4.69.422,11.047-.846,15.552-2.387,9.471-3.279,15.053-8.649,18.64-15.744,1.03-2.048.976-2.251,1.655-3.715.3-.642.878-1.833.5-2.353a13.834,13.834,0,0,0-2.254-1.688c-2.313-1.834-2.275-2.21-4.911-1.594a100.423,100.423,0,0,0-12.619,4.6c-11.828,4.982-11.394,5.311-12.216,4.216-.816-1.111-2.219-3.339-2.94-4.531-3.026-5.037-1.382-3.563-4.628-10.868-9.473-21.256-27.8-34.006-54.247-34.16a46.837,46.837,0,0,0-8.942.669c-12.672,2.218-26.349,9.751-32.559,20.887-8.7,15.733-6.4,34.611,9.366,49.364,3.045,2.86,6.89,5.745,10.932,6.882.894-.785,2.294-1.973,3.431-2.879a10.211,10.211,0,0,1,2.35-1.568,2.607,2.607,0,0,0,.92-.7.579.579,0,0,0,.09-.475,5.676,5.676,0,0,0-.538-1.5,28.856,28.856,0,0,1-2.073-4.727,25.388,25.388,0,0,0-4.289-7.81c-2.7-3.19-4.83-4.4-5-5.569a5.2,5.2,0,0,1,.634-2.219C55.422,159.472,61.01,162.3,67.721,161.393Z"/><path class="a" d="M171.116,164.226l-.144.378-.377-.145a45.428,45.428,0,0,0-8.41-10.212c-1.112-.9-.808-.408-1.025-1.025l.38-.129C165.814,154.519,169.788,159.958,171.116,164.226Z"/><path class="a" d="M162.327,161.306a31.45,31.45,0,0,1,2.479,9.393c.047.321.079.186-.171.6-.415-.25-.324-.146-.431-.452-1.941-5.543-3.1-11.106-7.253-14.751l-.072-.394.4-.068A11.863,11.863,0,0,1,162.327,161.306Z"/><path class="a" d="M150.409,158.034c1.88,2.371,2.56,5.768,2.791,8.773a36.62,36.62,0,0,1-.8,11.243l-.322.244-.244-.321c.232-4.925.356-14.18-1.485-18.755-.461-1.118-.458-.647-.335-1.266Z"/><path class="a" d="M144.734,160.233c.709,4.91-.843,10.173-2.857,14.732-.6,1.343-1.687,2.655-2.316,4.027-.56,1.257-.084.818-.671,1.263-.28-.371-.246-.292-.238-.413.193-2.284,1.223-2.873,3.019-8.092a51.559,51.559,0,0,0,2.38-9.833c.23-2.006-.058-1.452.387-1.953Z"/><path class="a" d="M96.959,175.154c-10.314.547-19.737,2.69-29.772,5.075-9.06,2.153-18.167,4.678-25.256,11.085-12.841,11.6-17.3,31.11-.327,41.174,8.563,5.077,19.012,5.283,28.614,3.548,3.217-.581,6.233-1.91,9.354-2.815.688-.2,2.522-1.293,3.257-1.06.862.273.99,2.2,1.037,2.908.211,3.113.644,6.146,1.131,9.224.074.465.491,3.56,1.122,3.555,1.4-.011,2.113-3.568,2.427-4.543,1.232-3.818.7-10.157,5.675-10.776,7.863-.978,10.445-.012,18.339-.887,2.106-.233,9.019-.771,10.785-.228,1.178.362,1.382,1.255,3.294,5.876.135.326,1.956,6,2.959,4.427,1.3-2.033-.416-9.677,1.638-10.893,6.211-3.675,14.715-3.659,20.093-10.092,12.266-14.669,3.011-36.06-12.326-43.6-5.123-2.519-10.919-2.93-16.515-3.251C114.392,173.416,96.959,175.154,96.959,175.154Z"/><path class="a" d="M119.991,173.414c4.458.028,10.813.484,15.188,1.75,17.461,5.1,29.349,28.181,17.9,44.375-5.28,7.386-11.585,7.577-18.677,10.492a21.506,21.506,0,0,0-2.859,1.418c-1.252.985-.316,7.071-.957,9.655-.232.928-.721,1.768-1.647,1.55-1.14-.307-2.019-2.629-2.448-3.74-.336-.884-2.22-6.029-2.959-6.637-1.321-1.042-12.339.24-14.277.36-4.787.288-7.31-.082-12.25.314-2.329.191-3.765.22-4.848,1.236-2.113,2.006-1.735,5.811-3.505,11.3-.363,1.1-.921,2.543-1.974,2.964-.988.382-1.473-.264-1.794-1.243a89.076,89.076,0,0,1-1.722-12.232c-.033-.459-.167-1.857-.529-2.138-.162-.115-1.388.428-1.744.589-1.471.671-.344.153-3.993,1.392a44.685,44.685,0,0,1-15.59,2.868c-26.694.649-39.227-19.373-26.215-39.275,7.118-10.688,16.408-14.724,28.6-17.776,11.185-2.777,22.472-5.225,33.261-5.763C96.943,174.969,110.126,173.383,119.991,173.414Zm.872,57.064c2.116.032,3.43.049,4.39,1.788,1.354,2.522,2.825,7.528,3.868,8.858.94-2.412-.653-9.192,1.653-10.82,2.486-1.7,8.364-3.3,11.421-4.427a24.1,24.1,0,0,0,5.724-2.888,21.5,21.5,0,0,0,7.143-10.043c4.209-12.117-2.137-25.829-12.369-33.052-4.444-3.125-8.523-4.417-14.054-5.092-8.51-1.04-16.654-.592-27.746.3-10.728.871-14.961,1.073-31.269,4.982-8.17,1.966-16.595,3.969-23.579,8.69a36.481,36.481,0,0,0-12.338,14.506c-5.5,11.944-2.214,23.56,10.129,29.667,7.753,3.809,16.638,3.979,25.141,2.607,3.951-.657,4.526-1.136,10.442-3.011,1.725-.591,3.9-2.351,4.806.364.36,1.143.268,1.849.566,4.7.152,1.429.958,7.93,1.5,9.358.032.082.016.08.072.024.767-.8,1.252-3.075,1.542-3.983,1.175-3.848.757-9.765,5.422-11.022a36.45,36.45,0,0,1,4.033-.479c5.621-.413,8.282.165,14.943-.543A83.713,83.713,0,0,1,120.863,230.478Z"/><path class="b" d="M83.158,232.374a6.338,6.338,0,0,1,3.889-3.586c.595-.192,1.5.576,1.919.9a29.17,29.17,0,0,1,4.041,3.139c-3.683,1.438-3.34,7-4.461,10.476-.314.975-1.029,4.532-2.427,4.543-.631,0-1.048-3.09-1.122-3.555-.487-3.078-.92-6.111-1.13-9.224A5.125,5.125,0,0,0,83.158,232.374Z"/><path class="a" d="M87.3,228.273a3.367,3.367,0,0,1,1.708.775,32.143,32.143,0,0,1,4.366,3.219.708.708,0,0,1,.268.708c-.2.621-.561.314-1.459,1.128-2.012,1.876-1.857,5.515-3.022,9.608-.46,1.619-1.1,4.41-2.713,4.793a1.07,1.07,0,0,1-1.28-.632c-.631-1.2-.94-4.3-1.125-5.793-.725-6.028-.421-7.421-.755-8.759-.239-.947-.521-.7-.388-1.065l0,0a7.036,7.036,0,0,1,1.892-2.7A5.409,5.409,0,0,1,87.3,228.273Zm-1.164,1.38a6.064,6.064,0,0,0-2.639,2.681c.708.933.753,2.857,1.012,4.867.121.92,1.518,10.108,1.821,9.825a3.56,3.56,0,0,0,.646-1.082c2.157-5.178,1.33-11.06,4.935-13.3a23.671,23.671,0,0,0-2.141-1.654c-1.331-.968-2.022-1.722-2.521-1.75a.119.119,0,0,0-.026,0h0A5.1,5.1,0,0,0,86.138,229.653Z"/><path class="b" d="M123.073,231.346a28.781,28.781,0,0,1,7.957-.367c-1.729,1.6-.182,8.778-1.432,10.738-1,1.571-2.824-4.1-2.959-4.427C124.722,232.657,124.537,231.64,123.073,231.346Z"/><path class="a" d="M131.2,230.369a.634.634,0,0,1,.466.61c-.049.592-.541.288-.753,2.245h0c-.27,2.63.267,6.455-.473,8.38-.483,1.212-1.34,1.333-2.05.764-1.3-1.113-2.048-4.276-3.642-8.471h0a5.369,5.369,0,0,0-1-1.924c-.469-.4-.808-.255-.935-.532a.283.283,0,0,1,.207-.371c.027.13.094.442,0,0A26.23,26.23,0,0,1,131.2,230.369Zm-1.876,10.947-.011-.006Zm-5.12-9.829c.805.619,1.539,2.368,2.006,3.378a35.092,35.092,0,0,1,1.42,3.249,14.927,14.927,0,0,0,1.487,3c.589-1.548.128-5.309.46-8.049h0a6.633,6.633,0,0,1,.373-1.569A34.558,34.558,0,0,0,124.2,231.487Z"/><path class="b" d="M140.258,195.393a12.964,12.964,0,0,1,3.422.431l.206.342-.344.205a17.116,17.116,0,0,0-6.556.145c-6.534,1.161-8.921,1.827-15.381,5.345-5.59,3.049-8.952,5.183-23.752,17.689-12.843,10.9-9.427,9.122-10.614,9.481l-.116-.387a4.467,4.467,0,0,1,.484-.7c3.693-4.52,16.424-15.734,24.764-21.936a52.485,52.485,0,0,1,8.576-5.37,40.327,40.327,0,0,1,9.325-3.892A57.989,57.989,0,0,1,140.258,195.393Z"/><path class="a" d="M140.939,159.385A36.77,36.77,0,0,1,127.424,175.7l-.4-.05.049-.4a81.1,81.1,0,0,0,9.364-10.389c4.749-6.363,3.557-5.588,4.382-5.857Z"/><path class="b" d="M88.652,210.562a38.312,38.312,0,0,1,7.273,1.8c4.293,1.691,3.782,2.056,5.2,2.751.55.258.327.022.629.508-.394.244-.311.22-.448.2-1.163-.228-1.609-.782-3.421-1.41a47.313,47.313,0,0,0-9.485-2.466c-4.079-.794-5.954-1.593-8.213-1.673-.255-.009-.136.051-.5-.269.317-.354.217-.3.477-.326C82.77,209.377,85.784,210.061,88.652,210.562Z"/><path class="b" d="M34.271,162.157c4.121,13.947,16.65,25.246,24.334,27.262,0,0,3.45-3.007,4.963-4,.608-.4,1.694-.733,2.023-1.436.385-.824-1.023-3.032-1.349-3.813-1.523-3.647-2.5-7.116-4.984-10.3-2.731-3.508-5.591-5.237-5.424-6.215a10.722,10.722,0,0,1,1.619-2.379s3.955.339,5.309.484c3.29.353,7.19.569,10.261-.751,3.61-1.552,10.215-16.444,32.364-11.7,6.645,1.425,11.768,5.454,15.769,12.192,1.9,3.2,3.136,5.379,4.726,12.418.808,3.565,1.418,7.432.465,10.769-2.233,7.812-10.148,17.523-26.4,16.926-15.927-.585-14.524,1.777-19.605,7.049a39.988,39.988,0,0,1-10.518,7.924C34.726,232.908,4.6,186.391,30.6,164.621A20.4,20.4,0,0,1,34.271,162.157Z"/><path class="a" d="M58.377,188.87c.239.067.675-.6,3.774-3.028A10.2,10.2,0,0,1,64.4,184.4a1.772,1.772,0,0,0,.731-.635h0a2.859,2.859,0,0,0-.419-1.488,27.394,27.394,0,0,1-1.649-3.607c-1.964-4.988-2.776-7.14-6.367-10.817-3.13-3.19-4.183-3.436-2.978-5.293a19.952,19.952,0,0,1,1.269-1.673c.295-.3.341-.227,1.839-.1,4.864.412,9.051,1.108,12.752.056,1.7-.493,1.9-.761,4.161-3.146a37.529,37.529,0,0,1,6.019-5.364c6.844-4.68,14.311-5.4,22.343-3.974,8.5,1.554,13.535,5.831,18,13.381a29.978,29.978,0,0,1,3.376,7.764,62.308,62.308,0,0,1,1.884,8.775,16.756,16.756,0,0,1-.25,6.269c-1.88,7.276-8.063,14.459-17.961,16.91-4.942,1.185-8.5.853-11.869.782-15.609-.3-10.268,2.908-21.712,11.55-27.617,20.654-59.521-9.536-52.216-35.722A26.927,26.927,0,0,1,34.14,161.908a.281.281,0,0,1,.4.169h0C38.53,175.173,50.391,186.63,58.377,188.87Zm31.335-39.307c-11.484,2.25-15.3,10.832-18.822,12.194-4.42,1.668-10.035.61-15.176.15a10.364,10.364,0,0,0-1.29,1.844c0,.4,1.634,1.672,3.774,3.991,3.637,3.951,4.372,6.862,6.32,11.716.832,2.068,2.218,3.769,1.386,4.986a5.192,5.192,0,0,1-1.878,1.278,52.143,52.143,0,0,0-4.414,3.456c-.787.67-.742.677-.976.711a9.676,9.676,0,0,1-2.826-.979c-8.143-3.7-18.19-14.626-21.714-26.338a19.579,19.579,0,0,0-2.077,1.321c-15.626,11.458-13.431,33.907,1,47.057C45.371,222.128,62.31,222.517,76,209.992c5.521-5.125,5.3-7.872,11.724-8.817,8.026-1.155,13.788,1.118,22.175-2.043a22.643,22.643,0,0,0,12.054-10.455,15.624,15.624,0,0,0,1.879-11.19,57.213,57.213,0,0,0-2.713-10.612,39.2,39.2,0,0,0-5.2-8.84,22.052,22.052,0,0,0-9.42-7.087A34.257,34.257,0,0,0,89.712,149.563Z"/><path class="a" d="M182.831,134.682s2.22,6.294,3.31,9.342c.292.818.483,1.677.807,2.483.069.171.138.689.3.8.312.217,1.258-.109,1.56-.19,4.69-1.271,7.223-2.433,9.187-3.09,1.643-.549,3.383-1.172,4.457-2.629a5.2,5.2,0,0,0,.917-3.725c-.114-3.513-2.3-6.494-5.973-6.667C192.72,130.784,186.178,133.649,182.831,134.682Z"/><path class="a" d="M182.562,134.777c.275-.1.432-.153,0,0a.285.285,0,0,1,0-.178c.1-.241-.054-.038,2.95-1.212a40.649,40.649,0,0,1,10.258-2.972,7.343,7.343,0,0,1,5.255,1.116c1.849,1.317,3.111,3.559,3.055,7a5.382,5.382,0,0,1-.582,2.52c-1.206,2.273-3.322,2.969-5.6,3.741-1.626.561-3.1,1.2-4.761,1.7.1,0-4.085,1.264-4.986,1.445-.564.106-1.138.127-1.471-.343h0a2.924,2.924,0,0,1-.294-.871l0,.015C185.984,145.515,182.6,134.883,182.562,134.777Zm5.144,12.144-.006-.011.006.01-.007-.013,0,.006-.007-.01Zm-.011-.021v0Zm-4.486-12.032c2.942,7.647,3.918,10.1,4.435,11.884.583-.043,5.095-1.55,5.1-1.55,1.552-.485,3.288-1.248,5.182-1.89,1.822-.62,3.56-1.3,4.388-3.052a7.516,7.516,0,0,0,.079-4.379C200.238,128.328,190.72,132.714,183.209,134.868Z"/><path class="b" d="M102.394,176.43c-1.782-2.313-4.193-10.362-3.639-10.92,1.318-1.328,85.551-28.339,85.551-28.339l2.727,8.441Z"/><path class="a" d="M98.3,165.746a.672.672,0,0,1,.29-.59c3.056-2.007,85.224-28.757,85.866-28.676a.7.7,0,0,1,.524.474c2.935,9.087,2.713,8.383,2.754,8.558a.707.707,0,0,1-.411.743c-.367.17-84.724,30.7-85.122,30.379l-.03-.033c.234-.179.358-.274,0,0C100.46,174.392,98.207,167.364,98.3,165.746Zm.825-.014c-.468.23,1.494,7.372,3.258,10.178.32.493.174-.289,83.768-30.729,0,.1-.337-1.043-2.3-7.121h0C179.165,139.56,102.874,163.934,99.124,165.732Z"/><path class="c" d="M185.284,134.311a.71.71,0,0,1-.687-.533c-.224-.869-.537-1.753-.719-2.688a.71.71,0,0,1,1.394-.271c.166.854.469,1.709.7,2.605A.71.71,0,0,1,185.284,134.311Z"/><path class="c" d="M189.409,132.926a.71.71,0,0,1-.656-.44,13.323,13.323,0,0,1-.835-2.884.71.71,0,0,1,1.406-.2,11.848,11.848,0,0,0,.742,2.544A.711.711,0,0,1,189.409,132.926Z"/><path class="c" d="M190.607,150.088a.711.711,0,0,1-.7-.576,12.4,12.4,0,0,1-.7-2.6.71.71,0,0,1,1.42-.008,24.277,24.277,0,0,0,.677,2.343A.709.709,0,0,1,190.607,150.088Z"/><path class="c" d="M194.78,148.732a.71.71,0,0,1-.677-.5,9.294,9.294,0,0,1-.765-2.568.71.71,0,1,1,1.418-.057,9.984,9.984,0,0,0,.7,2.2A.71.71,0,0,1,194.78,148.732Z"/><path class="c" d="M193.674,131.625a.712.712,0,0,1-.677-.5c-.348-1.106-1.574-3.386-.2-3.509a.708.708,0,0,1,.77.644,14.054,14.054,0,0,0,.786,2.439A.711.711,0,0,1,193.674,131.625Z"/><path class="c" d="M198.577,147.432a.71.71,0,0,1-.646-.414,9.155,9.155,0,0,1-.949-2.726.71.71,0,0,1,1.413-.147,8.354,8.354,0,0,0,.827,2.281A.711.711,0,0,1,198.577,147.432Z"/><path class="a" d="M184.7,138.751l-.21.345c-2.018.5-136.4,46.921-139.838,48.631l-.38-.121.121-.38c9.3-4.889,124.1-44.517,139.688-48.618h0c.1-.026.169-.044.273-.067Z"/><path class="a" d="M185.536,140.787l-.21.345c-2.018.5-136.395,46.922-139.838,48.631l-.38-.121.121-.38c9.3-4.889,124.1-44.517,139.688-48.618h0c.1-.025.169-.044.273-.067Z"/><path class="a" d="M186.376,143l-.21.345c-2.017.5-136.395,46.922-139.838,48.631l-.38-.121.121-.38c9.3-4.889,124.1-44.517,139.688-48.618h0c.1-.025.169-.044.273-.067Z"/><path class="a" d="M187.105,145.142l-.211.345c-2.017.5-136.4,46.922-139.838,48.632l-.38-.122.122-.38C56.1,188.729,170.9,149.1,186.486,145h0c.1-.025.169-.043.273-.067Z"/><path class="b" d="M168.876,151.143c.491-.47,1.046-.906,1.493-1.291.266-.228.91-.533.935-.934a3.339,3.339,0,0,0-.46-1.38c-.348-.811-.627-1.649-.966-2.464-.2-.49-.518-1.21-.064-1.658a1.032,1.032,0,0,1,1.574.191c.726,1.015,1,2.371,1.761,3.344.124.158.058-3.8,1.54-4.722.443-.275.717.046.862.495a11.956,11.956,0,0,1,.419,3.516,5.945,5.945,0,0,1,1.265-3.409c.2-.273.775-.94,1.172-.609.753.629.588,2.578.583,3.427a11.831,11.831,0,0,1-.364,3.969,7.218,7.218,0,0,1-1.587,1.854c-1.024,1.09-2.046,2.165-3.089,3.233a15.988,15.988,0,0,0-2.131-1.557A10.531,10.531,0,0,0,168.876,151.143Z"/><path class="a" d="M170.608,142.551a1.818,1.818,0,0,1,1.462.978c1.073,1.673.407,1.861.987-.018a3.63,3.63,0,0,1,.969-1.648,1.207,1.207,0,0,1,1.784-.073,2.435,2.435,0,0,1,.519,1.1c.046-.09.359-.512.421-.591a1.735,1.735,0,0,1,1.694-.839h0l.06.018h0l.059.022h0c1.02.423,1.141,2,1.141,3.1,0,.1-.033,2.641-.043,2.872-.116,2.821-.884,3.139-2.138,4.364-.484.484-.273.309-3.225,3.2a.485.485,0,0,1-.575.088c-.134-.085-.085-.065-.271-.249-.562-.547-1.461-1.04-2.286-1.766a8.536,8.536,0,0,0-2.28-1.672c-.124-.047-.155-.043-.228-.125a.284.284,0,0,1,.024-.381l.059.062-.061-.065c1.456-1.491,2.033-1.68,2.224-2.009l-.006.011.012-.025-.006.012.01-.024-.006.014.008-.022-.006.015,0-.021,0,.017,0-.02,0,.018v0c0-.4-.25-.621-.822-1.976-.961-2.327-.83-1.932-.947-2.294A1.479,1.479,0,0,1,170.608,142.551Zm6.5,1.864c-.635,1.431-.187,1.979-.739,2.435a.706.706,0,0,1-.967-.156h0c-.267-.416-.056-.793-.2-2.135a8.427,8.427,0,0,0-.316-1.61,3.551,3.551,0,0,0-.7,1.6c-.179.806-.345,2.138-.353,2.316h0a.716.716,0,0,1-.3.632h0a.727.727,0,0,1-.146.077h0a.691.691,0,0,1-.256.041h0a.722.722,0,0,1-.193-.036h0c-.88-.385-1.535-3.172-2.145-3.738a.429.429,0,0,0-.6-.014l.007-.008c-.241.225.079.83.762,2.762.554,1.631,1.269,2.375.149,3.19a16.149,16.149,0,0,0-1.677,1.264,27.269,27.269,0,0,1,3.074,2.076,12.82,12.82,0,0,1,1.4.915c.828-.9,1.382-1.518,2.167-2.4,2.205-2.441,2.261-1.817,2.218-5.755a8.93,8.93,0,0,0-.221-2.938A5.538,5.538,0,0,0,177.108,144.415Zm-3.269,2.429v0Z"/><path class="a" d="M198.214,34.241c.969,2.135.472,72.8-.759,104.943-.969,25.368-.827,22.757-1.073,23.317l-.389.165h-.007l-.386-.17-.17-.4c0-10.117-.755-16.443.394-77.548.649-34.378,1.429-44.177,1.429-49.893l.168-.4.391-.173h.007Z"/><path class="b" d="M246.006,138.031c-12.31,1.722-26.72-.613-30.266-7-4.9-8.813-1.542-55.793,9.565-69.982,5.319-6.8,14-13.756,23.23-12.18.227.039.464.069.709.095C248.767,70.762,247.432,112.066,246.006,138.031Z"/><path class="a" d="M236.574,138.918c-7.264-.14-18.948-1.828-21.727-8.561-3.828-9.421-1.829-41.585,4.914-60.093,2.2-5.964,4.109-8.683,6.316-11.264,5.882-6.812,13.769-12.19,22.735-10.8.545.079.795.02,1.057.443.524,1.276-2.987,89.158-3.732,89.634a.308.308,0,0,1-.092.029c-.041-.292-.062-.446,0,0A58.829,58.829,0,0,1,236.574,138.918Zm2.907-88.3c-5.692,2.239-11.152,7.315-14.241,11.706-9.071,13.026-13.252,51.693-10.039,65.6a8.524,8.524,0,0,0,4.282,6.144c6.635,4.192,18.37,4.739,26.253,3.711,1.481-32.987,2.893-88.178,2.684-88.212A16.659,16.659,0,0,0,239.481,50.618Z"/><path class="a" d="M228.48,95.446c2.36,3.692,14.146,20.925,14.218,21.03.373.545.3.364.3,1.642,0,3.113-.014,6.859-.09,9.969-.106,4.019-.883,17.181-1.89,24.983-.373,2.849-.87,5.7-1.308,7.768l-.328.229-.226-.332c1.324-8.31,1.452-15.91,1.994-25.845.262-4.674.369-4.778.433-13.194.035-4.823.039-4.333-.033-4.438h0c-1.828-2.7-14.789-22.137-15.528-24.978-.024-.1-.037-.031.205-.405C226.931,92.329,225.859,91.339,228.48,95.446Z"/><path class="a" d="M247.609,108.077a21.389,21.389,0,0,1-4.822,8.709l-.392.1-.1-.392a29.5,29.5,0,0,1,2.726-5.513,28.735,28.735,0,0,1,2.078-3.145l.376-.138Z"/><path class="b" d="M150.793,73.151a11.731,11.731,0,0,1,7.235-.018c3.893,1.4,6.95,4.462,9.188,7.846,2.142,3.238,2.7,7.664,3.251,11.421a143.828,143.828,0,0,1,1,16.372c.133,3.754.643,7.427.331,11.188-.221,2.663-.3,6.793-1.715,9.148-1.4,2.336-4.474,2.286-6.864,2.615-4.487.619-9.366,1.781-13.774.443C149.734,114.869,150.178,92.789,150.793,73.151Z"/><path class="a" d="M165.483,77.925A17.615,17.615,0,0,1,169.85,85.9a79.291,79.291,0,0,1,1.668,10.053c.562,5.813.4,10.2.855,16.627a43.859,43.859,0,0,1,.063,8.218,27.052,27.052,0,0,1-1.2,7.546c-1.1,2.751-2.993,3.483-5.923,3.851-5.762.71-8.295,1.358-11.745,1.293a15.3,15.3,0,0,1-4.428-.687.708.708,0,0,1-.32-.314c-.393-.961,1.484-57.529,1.694-59.384a.281.281,0,0,1,.194-.217v0C156.489,71.024,161.39,73.367,165.483,77.925Zm-14.412-4.556c-.407,22.33-.279,18.772-.911,58.266,3.361.84,6.9.318,10.4-.226,5.89-.913,8.2-.452,9.42-3.7a20.825,20.825,0,0,0,.947-5.279,51.014,51.014,0,0,0,.046-10.457c-.464-7.142-.052-16.384-2.046-25.255a19.41,19.41,0,0,0-1.39-4.16,21.378,21.378,0,0,0-6.794-7.641A11.091,11.091,0,0,0,151.071,73.369Z"/><path class="a" d="M157.646,106.889c-.216,1.861-1.886,34.008-1.842,36.747l-.261.3-.3-.266c-.9-7.941.179-28.979,1.84-36.876l.328-.236Z"/><path class="a" d="M164.833,111.9a35.2,35.2,0,0,1-8.44,9.39l-.4,0,0-.4a50.787,50.787,0,0,1,3.988-4.876,43.327,43.327,0,0,1,4.425-4.473l.4-.04Z"/><path class="a" d="M151.636,118.87a23.811,23.811,0,0,1,4.093,8.6c.259.855.245.595.09,1.073-.454-.147-.3.006-.812-.723a22.711,22.711,0,0,1-2.366-4.59,31.99,31.99,0,0,1-1.5-4.1l.115-.384Z"/><path class="a" d="M274.171,183.286c-40.732-23.6-132.751,6.116-92.118,33.986,6.931,4.754,16.29,6.437,24.425,7.645,10.325,1.532,18.922,3.012,32.234,3.291,18.8.4,49.349,5.176,55.32-19.129C297.2,196.19,281.409,187.479,274.171,183.286Z"/><path class="a" d="M235.59,174.119a100.383,100.383,0,0,1,18.5,1.659c11.019,2.112,16.98,5.1,25.07,10.023,7.381,4.515,15.535,10.931,15.83,19.536a22.518,22.518,0,0,1-3.031,10.7c-8.8,15.5-31.14,13.872-48.68,13.147a226.936,226.936,0,0,1-28.493-2.162c-3.609-.527-11.611-1.709-15.342-2.427-5.884-1.157-11.723-2.788-16.844-5.962-12.209-7.719-15.876-17.952-5.2-27.632C190.812,178.961,217.266,174.119,235.59,174.119Zm-45.53,10.737c-14.169,6.688-23.5,16.734-12.444,27.735,6.319,6.253,13.779,8.749,22.546,10.427,3.456.654,13.967,2.215,15.917,2.493a211.619,211.619,0,0,0,24.915,1.943c17.632.642,41.171,3.376,50.024-12.242,8.223-14.607-2.515-23.1-17.015-31.637l0,0C251.435,170.785,213.058,174.162,190.06,184.856Z"/><path class="b" d="M274.171,182.023C233.439,161.9,141.42,187.238,182.053,211c6.931,4.053,16.29,5.488,24.425,6.517,10.346,1.31,18.933,2.569,32.234,2.807,18.8.337,49.349,4.413,55.32-16.309C297.2,193.026,281.409,185.6,274.171,182.023Z"/><path class="a" d="M272.986,181.072c10.2,4.783,24.434,11.978,21.64,22.9-4.459,16.544-24.131,17.971-41.248,17.638-28.936-.635-32.552-1.405-47.774-3.351-10.128-1.311-19.076-2.9-27.074-8.525-11.125-7.964-9.309-16.579,2.341-23.576C201.334,173.892,246.984,169,272.986,181.072Zm-36.43-5.753a141.733,141.733,0,0,0-38.468,5.4c-15.771,4.651-33.3,14.139-21.427,25.35,6.455,6.053,14.8,8.272,23.478,9.7,3.856.623,16.433,2.254,21.45,2.732,7.753.732,13.771.917,18.257,1.024.1.013,14.332.645,20.924.537,10.094-.193,22.333-1.472,28.92-9.1a18.081,18.081,0,0,0,4.174-9.02c.792-9.151-11.711-15.539-19.841-19.625C273.826,182.789,263.605,175.319,236.556,175.319Z"/><path class="a" d="M192.1,224.547c-.444,2.333-2.547,14.01-2.272,16.367a3.714,3.714,0,0,0,1.163.808,14.642,14.642,0,0,0,3.729,1.183,4.817,4.817,0,0,0,1.855.036c1.43-1.7,4.51-16.817,6.059-22.08.038-.125-.041-.054.438-.339.278.48.246.38.218.509-.707,2.914-2.413,15.718-4.507,21.213-.854,2.226-1.474,2.713-3.988,2.373-1.93-.269-6.275-1.508-6.6-3.425-.432-3.486,2.714-17.775,4.542-22.782.056-.132-.055-.052.467-.311C193.607,218.92,193.415,217.39,192.1,224.547Z"/><path class="a" d="M274.243,222.117c.728,3.975,4.571,18.508,4,22.86a2.079,2.079,0,0,1-1.461,1.841c-1.838.828-6.526,1.432-8.174.322a1.719,1.719,0,0,1-.646-.8c-1.754-3.667-4.2-17.329-4.443-22.368-.012-.266-.066-.141.306-.57.587.508.17-.256.843,3.3.5,2.627,3.55,16.731,4.852,19.048.761.521,4.9.4,6.715-.538a1.291,1.291,0,0,0,.292-.2c.434-1.384-.618-7.742-.846-9.176-2.4-15.073-2.243-13.436-1.815-14.014Z"/><path class="a" d="M45.936,179.142c-2.766.364-3.207.584-3.747,1.441-.406.643,6.7,18.254,7.349,19.46.458.853,3.371-.247,4.025-1.137C54.131,198.135,47.117,178.987,45.936,179.142Z"/><path class="a" d="M46.09,178.881c1.578.54,7.7,16.111,8.183,19.508a1.17,1.17,0,0,1-.194,1,5.685,5.685,0,0,1-4.213,1.631c-.839-.161-.973-.659-1.315-1.442-1.556-3.622-4.121-10.125-5.736-14.989-1.283-3.9-1.185-3.982-.808-4.475.782-.991,1.912-1.062,4.109-1.278Zm-2.765,1.164a1.416,1.416,0,0,0-.631.526c-.1.149-.13.083.018.586.718,2.369,6.966,17.64,7.41,18.473a4.693,4.693,0,0,0,2.759-1.021c0-1.078-5.634-18.008-6.962-19.174A13.008,13.008,0,0,0,43.325,180.045Zm-.781.764.011-.019Zm3.376-1.375,0,0,0,0Zm.17-.553.026-.043C45.788,178.876,45.955,178.84,46.09,178.881Z"/><path class="a" d="M43.551,84.793a2.182,2.182,0,0,0-2.64-.521,1.64,1.64,0,0,0-.561,2.563,2.255,2.255,0,0,0,2.913.331A1.916,1.916,0,0,0,43.551,84.793Z"/><path class="a" d="M41.667,83.462A2.825,2.825,0,0,1,44.125,85.2a2.218,2.218,0,0,1-.569,2.52c-1.733,1.391-4.935-.191-4.224-2.51h0A2.533,2.533,0,0,1,41.667,83.462Zm.384,1.074a1.564,1.564,0,0,0-1.4,1.083h0a.8.8,0,0,0-.028.272,1.617,1.617,0,0,0,2.269.786,1.529,1.529,0,0,0,.442-1.7h0A2.11,2.11,0,0,0,42.051,84.536Z"/><path class="a" d="M106.055,62.686a2.181,2.181,0,0,0-2.64-.522,1.639,1.639,0,0,0-.56,2.563,2.255,2.255,0,0,0,2.912.332A1.916,1.916,0,0,0,106.055,62.686Z"/><path class="a" d="M104.171,61.354a2.823,2.823,0,0,1,2.458,1.742,2.217,2.217,0,0,1-.569,2.519c-1.733,1.392-4.935-.19-4.224-2.509h0A2.533,2.533,0,0,1,104.171,61.354Zm.384,1.075a1.564,1.564,0,0,0-1.4,1.083h0a.8.8,0,0,0-.028.272,1.618,1.618,0,0,0,2.269.785,1.528,1.528,0,0,0,.442-1.7h0A2.112,2.112,0,0,0,104.555,62.429Z"/><path class="a" d="M120.28,101.758a2.181,2.181,0,0,0-2.639-.521,1.639,1.639,0,0,0-.561,2.563,2.255,2.255,0,0,0,2.913.331A1.916,1.916,0,0,0,120.28,101.758Z"/><path class="a" d="M118.4,100.427a2.825,2.825,0,0,1,2.458,1.742,2.217,2.217,0,0,1-.57,2.519c-1.733,1.391-4.935-.19-4.224-2.509h0A2.533,2.533,0,0,1,118.4,100.427Zm.383,1.074a1.564,1.564,0,0,0-1.4,1.083h0a.763.763,0,0,0-.028.273,1.618,1.618,0,0,0,2.269.785,1.53,1.53,0,0,0,.442-1.7h0A2.111,2.111,0,0,0,118.78,101.5Z"/><path class="a" d="M51.762,80.287a2.18,2.18,0,0,0-2.639-.522,1.639,1.639,0,0,0-.561,2.563,2.256,2.256,0,0,0,2.913.332A1.916,1.916,0,0,0,51.762,80.287Z"/><path class="a" d="M49.879,78.956A2.824,2.824,0,0,1,52.337,80.7a2.217,2.217,0,0,1-.57,2.519c-1.733,1.392-4.935-.19-4.224-2.509h0A2.532,2.532,0,0,1,49.879,78.956Zm.383,1.074a1.562,1.562,0,0,0-1.4,1.083h0a.781.781,0,0,0-.027.272,1.617,1.617,0,0,0,2.269.785,1.53,1.53,0,0,0,.442-1.7l0,0A2.111,2.111,0,0,0,50.262,80.03Z"/><path class="a" d="M114.267,58.179a2.182,2.182,0,0,0-2.64-.521,1.64,1.64,0,0,0-.561,2.563,2.255,2.255,0,0,0,2.913.331A1.916,1.916,0,0,0,114.267,58.179Z"/><path class="a" d="M112.383,56.848a2.825,2.825,0,0,1,2.458,1.742,2.217,2.217,0,0,1-.569,2.519c-1.733,1.391-4.936-.19-4.224-2.509h0A2.533,2.533,0,0,1,112.383,56.848Zm.384,1.074a1.565,1.565,0,0,0-1.4,1.083h0a.786.786,0,0,0-.028.273,1.618,1.618,0,0,0,2.269.785,1.529,1.529,0,0,0,.442-1.7h0A2.11,2.11,0,0,0,112.767,57.922Z"/><path class="a" d="M131.392,59.523a3.728,3.728,0,0,1,3.466,2.87c.747,3.613-2.994,5.187-5.638,3.024C126.591,63.19,128.724,59.523,131.392,59.523Zm-.772,1.407a2.816,2.816,0,0,0-1.166,1.611c-.478,1.535,2.033,3.329,3.837,2.036a2.9,2.9,0,0,0,.559-3.1l0,0A2.707,2.707,0,0,0,130.62,60.93Z"/><path class="a" d="M53.294,53.567a3.729,3.729,0,0,1,3.466,2.87c.746,3.613-2.994,5.187-5.638,3.024C48.492,57.234,50.626,53.567,53.294,53.567Zm-.773,1.406a2.825,2.825,0,0,0-1.165,1.612c-.479,1.535,2.033,3.329,3.837,2.036a2.9,2.9,0,0,0,.558-3.1l0,0A2.709,2.709,0,0,0,52.521,54.973Z"/><path class="a" d="M51.83,73.5c.566.034.755.472.834,1.035a46.043,46.043,0,0,1-.369,6.5l-.289.278-.274-.292c-.1-2.176-.161-5.058-.324-6.118-.916.171-5.446,1.25-6.915,1.7-.005.1-.379,8.722-.383,9.174l-.267.3-.3-.266A68.477,68.477,0,0,1,43.1,77.9c0-1.783-.017-2,.262-2.289C43.964,75.075,50.939,73.48,51.83,73.5Zm-.489,1.073h0l0,0Zm-.009-.02-.007-.014.01.022,0,0,.009.015a.319.319,0,0,0-.014-.035Z"/><path class="a" d="M114.334,51.387c.566.034.755.472.834,1.035a45.738,45.738,0,0,1-.369,6.5l-.289.278-.274-.292c-.1-2.175-.161-5.058-.324-6.118-.916.171-5.446,1.25-6.915,1.7,0,.1-.379,8.721-.383,9.173l-.267.3-.3-.267a68.477,68.477,0,0,1-.441-7.91c0-1.782-.017-2,.262-2.288C106.468,52.968,113.443,51.373,114.334,51.387Zm-.489,1.074h0l0,0Zm-.009-.02-.007-.014.01.021,0-.005.009.015c0-.015-.007-.018-.014-.035Z"/><path class="a" d="M120.7,92.827l.122.38v0l.017-.039v0l.007-.023v.006l0-.015v.008l0-.014c.007.074.237,1.475.255,1.591a31.271,31.271,0,0,1,.062,6.035c-.056.5-.226,1.52-.321,1.992l-.288.282-.283-.288a27.031,27.031,0,0,1,.034-9.778l.013-.022.379-.124Z"/><path class="a" d="M83.57,46.531a4.052,4.052,0,0,1-1.365,3.359,23.443,23.443,0,0,1-4.337,3.489.287.287,0,0,1-.164.028v0a2.166,2.166,0,0,1-.961-.362c-.451-.288-2.567-2.12-2.712-2.249-1.368-1.229-3.151-3.054-2.9-5.01A2.219,2.219,0,0,1,72.4,44.1a2.961,2.961,0,0,1,3.114-.246,6.335,6.335,0,0,1,1.389,1.086,6.091,6.091,0,0,1,.4.6C79.3,42.944,83.133,43.225,83.57,46.531ZM74.151,44.9a2.954,2.954,0,0,0-1.6.774c-.244.325-.086,1,.045,1.388a7.129,7.129,0,0,0,1.341,2.158c.541.635,2.826,3.023,3.259,3.345a1.821,1.821,0,0,0,.393.225c.1.038-.006.144,1.068-.8s3.287-3.021,3.6-4.406a2,2,0,0,0-1.088-2.335,2.729,2.729,0,0,0-2.445.773c-.178.163-.638.93-1.128,1.2-.921.448-1.236-.624-1.778-1.386A2.6,2.6,0,0,0,74.151,44.9Zm4.555,1.145Z"/><path class="a" d="M28.818,103.876c-.458.576-1.676,9.454-1.816,9.534-.29.166-11.737-11.7-11.6-11.895C16.012,100.657,28.818,103.876,28.818,103.876Z"/><path class="a" d="M29.041,104.06l0-.007a46.062,46.062,0,0,0-.77,4.856c-.633,4.87-.558,4.834-1.011,5.073-.5.232-.952-.249-1.65-.882,0-.1.414.534-3.723-3.637-.869-.876-6.53-6.656-7.069-7.558-.264-.474-.034-1.008.632-1.167,1.809-.405,9.176,1.654,10.972,2.157,2.721.766,2.581.714,2.658.887a.275.275,0,0,1-.041.264c-.234-.178-.359-.273,0,0l-.005.007.007-.009,0,.008.006-.009,0,.009,0-.008Zm-2.621,9.129.007-.02Zm.2-.927c.273-1.407,1.274-6.744,1.788-8.183-2.254-.454-9.339-1.809-11.623-1.991C18.77,104.251,24.518,110.234,26.62,112.262Z"/><path class="b" d="M5.668,97.06c1.792.445,28.853,4.181,28.848,4.45-.013.834-3.178,3.972-3.775,4.122-.451.114-12.743-3.273-12.712-3.253a114.831,114.831,0,0,0,11.451,6.375c.124.067-9.5,2.225-9.5,2.225Z"/><path class="a" d="M33.6,100.626c.935.161,1.422.168,1.576.767a1.742,1.742,0,0,1-.349,1.085,18.065,18.065,0,0,1-3.019,3.272c-.467.378-.783.623-1.3.562-.711-.1-2.921-.665-3.627-.845-4.854-1.241-4.548-1.267-4.006-.962,3.808,2.142,6.622,3.462,6.987,3.681a.689.689,0,0,1,.143,1.009c-.227.236.311.168-7.659,1.906-2.558.555-2.33.509-2.536.467-.233-.09-.086.019-1.545-1.435C14.325,106.18,5.467,97.32,5.4,97.138a.283.283,0,0,1,.336-.352v0C7.482,97.146,27.038,99.5,33.6,100.626Zm-13.434,9.687v0l.089-.02v0c1.1-.261,6.146-1.456,7.276-1.729a95.633,95.633,0,0,1-9.9-5.588.708.708,0,0,1,.462-1.291c.184.018,11.062,3.029,12.515,3.253a16.269,16.269,0,0,0,2.931-2.955c-2.091-.4-20.061-3.18-26.795-4.4C6.336,97.494,6.219,97.026,20.169,110.313Z"/><path class="a" d="M135.046,146.929a25.468,25.468,0,0,1-17.248,9.849l-.331-.231.231-.331a43.362,43.362,0,0,0,16.931-9.666l.4-.021Z"/><path class="a" d="M132.407,141.572a24.289,24.289,0,0,1-2.209,2.2c-5.67,5-14.179,9.478-21.489,7.671-.1-.027-.037.019-.288-.349.431-.294.154-.23.878-.17,6.248.514,12.838-3.048,18.01-6.355,5.819-3.755,4.09-3.319,5.069-3.4Z"/><path class="a" d="M121.832,140.159c-.362,1.694-.4,2.453-.925,4.421-.744,2.773-2.46,8.487-3.09,12.526-.21,1.38-.039,1.021-.445,1.4l-.275-.3c-.231-5.193,1.075-9.364,3.056-16.017a19.634,19.634,0,0,1,1.934-4.856l.382-.123C122.712,138.005,122.5,137.083,121.832,140.159Z"/><path class="a" d="M72.58,111.287c.222,3.485,2.475,6.452,5.193,8.684,8.98,7.281,23.019,6.986,32.535-1.818l.4,0,0,.4c-9.846,10.572-25.907,10.132-34.515,1.62-2.382-2.383-4.238-5.491-4.181-8.872l.279-.292Z"/><path class="a" d="M63.625,113.342c1.212,15.989,37.092,24.371,51.621,10.875,1.718-1.615,1.066-1.384,1.764-1.453.04.468.058.369-.036.49a20.609,20.609,0,0,1-4.345,4.073c-9.843,6.907-25.435,6.151-36.566,1.232-6.5-2.914-12.86-8.122-13.009-15.19l.272-.3Z"/><path class="a" d="M55.892,116.849a44.784,44.784,0,0,0,8.245,10.226c15.873,14.432,39.807,13.454,58.18,3.525,2.4-1.3,1.808-1.181,2.4-1.048-.111.466-.054.365-.211.467a58.787,58.787,0,0,1-6,3.416c-22.9,11.3-50.42,7.3-63.1-16.305l.107-.389Z"/><path class="a" d="M50.717,119.947c.834,5.107,4.982,9.839,8.984,13.12,15.387,12.53,40.167,16.295,65.366,4.465,4.48-2.116,3.54-2.008,4.218-1.82-.135.465-.074.363-.251.467-23.086,13.444-47.376,12.374-64.429,1.867-6.277-3.9-13.576-10.691-14.453-18.019l.242-.323Z"/><path class="a" d="M246.641,126.919v.007l-.14.4c-2.633,1.379-62.463.858-92.227-2.661-4.8-.571-4.305-.588-4.66-.8l-.119-.408v-.007c.446-.768-.382-.417,7.274-.113,5.131.2,53.828,1.576,69.471,2.267,11.043.48,15.728.8,19.8.8l.407.147Z"/><path class="a" d="M166.767,78.461c18.535.207,62.356,1.554,81.046,3.395.71.076.531.038.955.3l.107.407v.007c-.384.619.014.448-3.257.41-16.6-.166-17.484.1-42.428-.745-11.865-.4-37.6-1.284-51.9-2.865l-.386-.2C150.427,77.79,150.007,78.263,166.767,78.461Z"/><path class="b" d="M76.187,99.678s-2.778-.951-3.837.726a4.27,4.27,0,0,0-.06,3.775,4.368,4.368,0,0,0,2.454,2.079c.3.094,1.481.054,1.66.292a3.609,3.609,0,0,1,.321,1.035c.29.875.53,1.764.807,2.643,1.708,5.436,5.022,8.813,8.222,10.207,4.025,1.753,14.894,2.357,17.627-6.732,1.52-5.059,2.117-24.773-.833-26.084-8.079-3.592-11.717-2.912-17.4-2.108-3.05.432-6.639,1.381-8.443,4.139C74.7,92.718,75.437,96.386,76.187,99.678Z"/><path class="a" d="M75.8,99.27a19.033,19.033,0,0,1-.705-6.086c.417-4.4,3.332-6.656,7.577-7.742a62.934,62.934,0,0,1,6.4-1.043,21.41,21.41,0,0,1,8.175.582,38.023,38.023,0,0,1,5.761,2.105c3.556,2.177,2.376,22.454,1.012,26.931-2.121,6.7-8.752,8.967-15.339,7.9a11.651,11.651,0,0,1-5.614-2.347c-5.769-4.425-6.428-11.408-7.009-12.684h0c-.726-.2-1.052.041-2.021-.44a4.47,4.47,0,0,1-2.509-3.613,3.85,3.85,0,0,1,.862-3.016A3.663,3.663,0,0,1,75.8,99.27ZM91.267,85.492a57.864,57.864,0,0,0-7.476.79c-6.144,1.156-8.738,4.308-7.842,10.581.383,2.667.621,2.7.473,2.971a.28.28,0,0,1-.322.111c.091-.279.14-.428,0,0a5.6,5.6,0,0,0-1.553-.23,2.005,2.005,0,0,0-2.027,1.107,4.057,4.057,0,0,0,.062,3.041,3.959,3.959,0,0,0,2.047,1.878c.051.019.212.078.265.088l-.01,0c.439.088,1.351-.009,1.782.319a1.774,1.774,0,0,1,.45,1.012c.022.1.9,3.09,1.549,4.614,2.03,4.721,5.243,7.4,8.017,8.321a16.22,16.22,0,0,0,9.8-.07c3.986-1.421,5.947-4.31,6.643-8.4a85.176,85.176,0,0,0,.772-14.72c-.054-1.48-.355-7.816-1.6-8.645a35.01,35.01,0,0,0-7.025-2.385A19.872,19.872,0,0,0,91.267,85.492ZM76.11,106.907l-.006,0h0Zm-.01-.006.008,0-.008,0Zm-1.214-1.068-.012,0Z"/><path class="a" d="M81.421,89.442a16.774,16.774,0,0,0,2.968,2.3c5.312,2.627,11.5,2.368,17.256,2.087,2.14-.1,5.888-.086,7.356-1.977.81-1.045,1.053-3.792.914-5.008-1.144-10.02-12.16-14.678-22.361-11.483a11.8,11.8,0,0,0-7.462,7.86c-.113.362-4.543-1.254-6.626,2.471a10.323,10.323,0,0,0-.96,3.807,17.786,17.786,0,0,0,1.19,9.7c.21.463,1.41.253,1.782.246.614-.011,1.292.385,1.86.334.439-.039,1.465-2.163,1.706-2.645A38.886,38.886,0,0,0,81.421,89.442Z"/><path class="a" d="M108.184,80.316a13.614,13.614,0,0,1,2.435,7.279,12.045,12.045,0,0,1-.639,3.835c-.99,2.289-3.821,2.747-6.322,2.9-1.473.08-5.58.232-8.2.166a29.177,29.177,0,0,1-8.641-1.359A11.3,11.3,0,0,1,81.6,89.967a31.09,31.09,0,0,1-2.819,8.6,5.865,5.865,0,0,1-1,1.485c-.634.475-1.618-.15-2.3-.137-.654.035-1.6.23-2.1-.3h0a9.455,9.455,0,0,1-.778-1.794,17.563,17.563,0,0,1-.883-5.553,24.939,24.939,0,0,1,.63-5.571,5.9,5.9,0,0,1,1.914-2.992c1.628-1.293,3.447-1.3,5.312-1.139a13.568,13.568,0,0,1,3.332-5.26,11.948,11.948,0,0,1,6.04-3.067C95.952,72.579,104.038,74.419,108.184,80.316Zm-30.96,19.03.01-.006-.01.006.011-.006Zm.011-.007h0l-.009.006.009-.006Zm-.008,0,.008,0h0Zm.01-.005,0,0,0,0Zm0,0,0,0,0,0Zm-1.694-.373c.634.023,1.284.36,1.71.36a6.868,6.868,0,0,0,.706-1.043,18.122,18.122,0,0,0,1.513-3.175c1.245-3.416,1.565-5.624,1.737-5.852a.29.29,0,0,1,.163-.09l.047,0,.048,0a.3.3,0,0,1,.089.032l.039.026,0,0a29.439,29.439,0,0,0,2.434,1.94,19.8,19.8,0,0,0,7.1,2.085,62.146,62.146,0,0,0,10.908-.019,14.92,14.92,0,0,0,5.332-.906,2.751,2.751,0,0,0,1.669-2.276c1.564-7.944-5.527-15.764-16.63-14.912a18.55,18.55,0,0,0-6.125,1.5,11.094,11.094,0,0,0-5.092,5.608c-.548,1.264-.388,1.4-.828,1.632-.819.379-3.758-.856-5.763,1.346a6.626,6.626,0,0,0-1.4,3.754,17.909,17.909,0,0,0,.931,9.979A5.684,5.684,0,0,0,75.545,98.964Zm-1.428-.026Zm0,0Zm0,0Zm0,0Zm0,0h0l-.008,0Zm0,0h0Zm0,0h0l-.008,0Zm0,0,0,0Zm0,0Zm0,0h0l-.01-.006Zm0,0-.008-.007Zm0,0h0l-.01-.007Zm0,0-.009-.007Z"/><path class="a" d="M94.861,101.013a32.161,32.161,0,0,1,1.461,5.061h0v.007l0-.016a1.425,1.425,0,0,1,.082.85c-.327,1.066-1.727,1.429-2.718,1.231l-.289-.278c.516-.523.148-.112,1.049-.608a1.613,1.613,0,0,0,.6-.532h0a.368.368,0,0,0,.023-.04l0-.008a7.1,7.1,0,0,1-.323-1.182,11.584,11.584,0,0,1-.464-4.151c.018-.325-.032-.2.263-.582Zm.219,5.63v0Zm.01-.062,0-.013-.008.041,0-.014-.005.038v-.014l0,.021h0a.664.664,0,0,0,.016-.087Z"/><path class="a" d="M96.628,113.714a3.824,3.824,0,0,0,.724-1.934,15.074,15.074,0,0,1-6.429.209,15.284,15.284,0,0,1-2.539-.746l-.148-.375c.646-.255-.04-.111,1.574.044a15.437,15.437,0,0,0,2.572.132c4.035-.172,4.829-.74,5.146-.813,1.764-.342,1.565,3.075-.159,4.743-2.2,2.11-6.329,1.165-6.88-1.815l.194-.351.348.2C91.927,115.344,95.307,115.433,96.628,113.714Zm1.2-2.111Zm.007,0h0Z"/><path class="a" d="M87.953,99.881a2.545,2.545,0,0,1,2.279,1.43l.051.4c-.46.054-.285.1-.969-.165a3.272,3.272,0,0,0-2.178-.1h0c-.08.028-.129.046-.216.084h0a6.427,6.427,0,0,0-.86.449,2.108,2.108,0,0,0-.409.342l-.377.143c-.145-.383-.189-.328-.045-.782A2.781,2.781,0,0,1,87.953,99.881Z"/><path class="a" d="M101.149,99.894a2.067,2.067,0,0,1,.769,1.038l-.055.4-.4-.06a1.888,1.888,0,0,0-.829-.259,3.358,3.358,0,0,0-1.391.028,5.929,5.929,0,0,0-1.125.434c-.316.2-.029.092-.584.249l-.11-.388a2.378,2.378,0,0,1,.212-.606,2.01,2.01,0,0,1,.871-.863A2.654,2.654,0,0,1,101.149,99.894Z"/><path class="a" d="M82.233,173.067c4.372,4.886,4,12.786.535,18.1h0c-3.35,5.461-12.284,6.671-18.16,4.96-6.135-1.849-9.618-8.665-8.861-15.122C57.406,167.723,75.049,165.13,82.233,173.067Zm-15.6-2.472C55.452,173.867,54.643,186.326,61,192.566a9.373,9.373,0,0,0,4.5,2.561c5.424,1.51,13.576.547,16.731-4.173l0,0c3.009-5.024,3.251-12-.356-16.46C78.41,170.232,71.695,169.135,66.631,170.6Z"/><path class="b" d="M58.624,188.62a27.929,27.929,0,0,1,2.584,1.909c1.752,1.751,3.256,3.733,4.9,5.577.438.491,1.9,2.436,2.517,2.178,1.344-.558-.519-3.4-1.2-4.729a15.06,15.06,0,0,0-.85-1.536c-.034-.05-.156-.18-.1-.15a5.147,5.147,0,0,1,.855.888c.978,1,1.632,2.219,2.689,3.149.362.319,1.346.953,1.821.45.251-.266-.05-.856-.141-1.126A25.4,25.4,0,0,0,70.1,192a8.156,8.156,0,0,0-1.015-1.679c-.055-.07-.188-.293-.174-.205.057.364.556.8.8,1.063a10.585,10.585,0,0,0,2.3,2.312c.377.191,1.428.752,1.671.1a2.373,2.373,0,0,0-.392-1.859A37.088,37.088,0,0,0,71,188.234c-.172-.236-1.079-.888-1.085-1.191s.812-.406.993-.444a5.273,5.273,0,0,0,2.672-1.573.8.8,0,0,0-.1-1.269c-1.285-.713-2.448.126-7.153.886-.3.049-.811-.969-1.9-1.575C64.25,182.967,58.624,188.62,58.624,188.62Z"/><path class="a" d="M72.481,182.88c1,.03,1.941.416,2,1.422a2.19,2.19,0,0,1-.995,1.732,5.843,5.843,0,0,1-2.5,1.24,4.755,4.755,0,0,1,1.112,1.308,31.933,31.933,0,0,1,1.978,3.144c.888,1.858.158,3.537-1.99,2.589.129.3.187.463.272.706.2.574.443,1.125.081,1.686-.581.808-1.632.589-2.491.01-.557-.373-.51-.521-.405-.166a2.344,2.344,0,0,1,.03,1.519,1.132,1.132,0,0,1-1.694.623c-.785-.456-1.537-1.468-3.2-3.5a49.747,49.747,0,0,0-4.252-4.9c-.645-.522-1.31-.9-1.979-1.453l0,0c-.3-.282-.122-.336,2.228-2.765,3.009-3.1,3.382-3.46,3.773-3.475.591.083,1.824,1.415,1.926,1.512C70.4,183.381,71.048,182.854,72.481,182.88Zm-3.955,14.856h-.014l.015,0-.011,0,.015,0-.013,0,.014,0-.014,0,.013,0-.016,0Zm-.006,0-.009,0Zm-.008,0h0Zm0,0Zm-.055-.023Zm0,0h0l.007-.007Zm0,0h0l.01-.015Zm-1.833-6.486c.452.11.948.813,1.15,1.03,1.392,1.479,2.249,3.116,3.363,3.54.049.018.043.024.022-.034a24.742,24.742,0,0,0-1.945-3.952c-.306-.576-.61-.639-.89-1.224-.282-.62-.04-1.1.514-1.2a.782.782,0,0,1,.774.455,9.876,9.876,0,0,0,1.023,1.316,5.033,5.033,0,0,0,2.412,2,4.351,4.351,0,0,0-.806-1.828,30.09,30.09,0,0,0-1.909-2.8c-.417-.384-.957-.8-1.079-1.305a.931.931,0,0,1,.6-1.05,7.87,7.87,0,0,0,2.518-.959c.21-.143.866-.631.824-.89l-.008-.006c-.673-.449-2.113-.052-2.881.127h0c-1.043.234-3.71.724-4.056.7-.615-.073-.72-.7-1.818-1.532-.813.641-4.958,4.56-5.364,4.966,2.414,1.676,1.279.179,8.227,8.091a4.921,4.921,0,0,0,1.162,1.033c.366-.549-1.037-2.811-1.9-4.44a9.946,9.946,0,0,0-.525-.887.686.686,0,0,1-.094-.915A.659.659,0,0,1,66.622,191.226Zm-.589,1.162h0v0ZM73.2,184.35l0-.013Zm0,0,0-.013Zm.007,0-.006-.009h0Zm0,0-.006-.009v0Zm0,0-.008-.01Zm-.007,0,0-.011Zm0,0-.005-.01Zm0,0,0-.011Zm.006,0-.008-.009h0Zm0,0-.01-.01Zm-.012-.012.009.008-.009-.008Zm0,0h0Zm0,0h0Zm0,0h0l0,0Zm0,0h0l0,0Zm-6.739-.156-.015-.009.009,0-.011-.006.007,0-.009,0Zm-.006,0-.013-.01h0Zm-.014-.01.006,0-.006,0Zm0,0h0Zm0,0h0Zm-1.824-.67.01-.006Zm.006,0,.011-.006Z"/><path class="b" d="M64.5,139.33c-.733,7.577-8.674,21.845-8.674,21.845s-1.891,1.878-1.993,2.478c-.168.983,2.655,2.658,5.424,6.215,2.48,3.184,3.461,6.653,4.984,10.3.326.781,1.734,2.989,1.349,3.813-.329.7-1.415,1.036-2.023,1.436-1.513,1-4.963,4-4.963,4-5.1-1.339-10.013-5.545-13.54-9.232-12.655-13.225-16.154-30.308-7.716-46.793a32.2,32.2,0,0,1,4.4-6.446"/><path class="a" d="M64.777,139.448c-.516,5.551-4.586,14.357-7.087,19.34-1.788,3.532-1.142,2.306-2.571,3.981a6.547,6.547,0,0,0-.684.933c-.119.237.83,1.074.986,1.218,6.315,5.906,6.36,7.538,9.378,14.817.623,1.491,2.176,3.506,1.239,4.838a5.513,5.513,0,0,1-1.944,1.333,53.761,53.761,0,0,0-4.334,3.443c-.767.656-.764.718-1.11.769a13.807,13.807,0,0,1-2.94-.985,31.854,31.854,0,0,1-7.936-5.347C39.85,176.741,34,167.55,32.517,157.169a38.959,38.959,0,0,1,9.02-30.406l.4-.029.028.4a35.744,35.744,0,0,0-7.024,13.379c-3.731,12.641-.917,25.5,8.267,36.542,3.787,4.527,9.579,9.936,15.224,11.59,1.124-.973,3.324-2.82,4.6-3.7.722-.489,1.584-.764,1.892-1.18.2-.288-.427-1.571-.585-1.89-2.057-4.114-2.7-7.651-5.312-11.249-3.156-4.314-6.265-5.612-5.723-7.236a8.324,8.324,0,0,1,1.6-2.062c.589-.609.371-.27,1.078-1.565,2.749-5.045,6.949-13.528,8.047-19.186.3-1.551.029-1.139.508-1.53C64.828,139.41,64.788,139.328,64.777,139.448ZM54.4,163.774l0-.011h0Zm0-.007v0Zm0-.007v0Zm0-.01v0Zm0,.006Zm0-.006v0Zm0,0h0Zm0,0Z"/><path class="a" d="M42.315,127.032a26.214,26.214,0,0,0,5.784,8.987c7.679,7.955,24.181,13.959,35.018,14.067.119,0,.041-.043.378.279-.327.335-.25.285-.37.291-12.606.739-28.428-5.915-35.3-13.134a25.977,25.977,0,0,1-6.057-10.317l.186-.359Z"/><path class="a" d="M36.676,135.418c5.595,8.7,14.088,13.9,23.818,17.616,2.36.887,7.221,2.607,9.7,3.184a19.931,19.931,0,0,0,2.9.48c2.226.18,1.533-.2,2.117.279-.3.359-.23.3-.339.319-3.635.418-7.387-.623-10.944-1.69-11.569-3.6-21.992-9.156-27.745-19.9l.1-.391Z"/><path class="a" d="M33.6,149.739c2.6,2.342,7.837,4.852,11.1,5.976,3.531,1.272,8.945,2.633,12.663,2.262l.329.228-.232.327c-7.381,1.831-19.566-2.846-24.27-8.4l.007-.4Z"/><path class="a" d="M53.774,162.777l-.13.379a18.5,18.5,0,0,1-9.3,2.606,21.592,21.592,0,0,1-8.36-1.137l-.211-.344.344-.211c4.922.695,12.494.375,17.155-1.373C53.432,162.637,53.336,162.633,53.774,162.777Z"/><path class="a" d="M55.974,166.913l-.067.395c-3.63,3.3-11.768,7.333-16.075,5.346-.194-.09-.126-.022-.309-.443.543-.235.186-.155.9-.047,2.3.331,6.165-1.069,8.292-1.983,2.189-.959,5.114-2.4,5.305-2.5C55.99,166.7,55.366,166.816,55.974,166.913Z"/><path class="a" d="M58.9,170.832a17.739,17.739,0,0,1-4.413,5.766,18.5,18.5,0,0,1-7.984,4.183l-.369-.164c.317-.713-.293.074,3.288-2.144a28.686,28.686,0,0,0,4.664-3.409,52.731,52.731,0,0,0,4.259-4.441c.114-.137.013-.088.478-.184Z"/><path class="a" d="M62.631,176.252c-1.643,4.359-6.018,8.584-10.609,9.379-.21.036-.095.062-.509-.174.234-.411.152-.33.341-.409,3.657-1.563,7.974-5.823,10.28-9.062l.383-.118Z"/></svg>