<svg xmlns="http://www.w3.org/2000/svg" viewBox="0 0 300 300"><defs><style>.a,.b{fill:#212121;}.a,.c{fill-rule:evenodd;}.c{fill:#fff;}</style></defs><title>Reading</title><path class="a" d="M133.687,222.908c.8,1.685,2.632,10.551,4.2,19.237,0,1.688-.011,3.4-.049,5.133-.809,1.431-29.723,44.462-100.886,13.7A25.521,25.521,0,0,1,26.888,253.1,81.231,81.231,0,0,0,42.4,255.665c18.179.9,37.941,2.406,55.555-3,4.613-1.412,10.769-5.417,12.778-9.953a9.03,9.03,0,0,0,.713-3.792C115.134,237.182,116.862,236.279,133.687,222.908ZM45.053,152.074a7.6,7.6,0,0,0,.977,2.69,3.788,3.788,0,0,0,1.823,1.356c-.192.4-.378.866-.534,1.285-2.728,2.5-5.687,9.168-6.938,11.705-6.633,13.446-12.334,37.184,4.194,41.9,5.371,1.534,8.57.46,5.539,1.218-3.124,1.681-7.98,4.053-8.454,4.741-.023.033.141.108.141.108-.536,2.223-.609,7.39-.315,7.663a5.091,5.091,0,0,1,.547.668,24.089,24.089,0,0,0-.415,3.777c-6.875-.379-17.817,1.478-22.186,6.826-5.815-26.208,3.258-62.753,8-69.239C32.294,160.129,38.7,156.8,45.053,152.074Zm3.337,4.281c-.088.142-.176.284-.264.434.1-.055.043-.013.3-.415Z"/><path class="a" d="M93.506,98.371c-1.025,3.671-4.134,5.22-7.229,7.086-.841.507-3.148,1.532-3.148,1.532s-1.193,3.012-1.643,4.333c-1.465,4.3-2.791,9.807-2.56,14.359.375,7.359,5.258,9.648,7.548,13.393,2.89,4.723,3.09,10.4-1.043,14.345-4.45,4.244-11.615,2.29-16.954,4.038-1.327.434-2.057,1.734-3.06,2.589-2.521,2.152-6.911,4.528-10.329,3.841-3.291-.661-3.665-4.222-5.27-6.478-1.494-2.1-4.835-.169-5.019-8.018a23.231,23.231,0,0,1,2.266-11.182A55.01,55.01,0,0,1,51.3,132.4c.808-1.227-.907,1.118,0,0,7.51-9.258,4.575-14.752,5.627-21.54.307-1.981,1.854-4.037,2.656-5.867.592-1.349.568-2.878,1.234-4.229,2.828-5.743,8.009-9.527,13.76-12.029,12.567-5.469,22.767,3.539,23.807,5.362a16.25,16.25,0,0,1,2.24,6.226,4.307,4.307,0,0,1-.191,2.715c-.379.54-1.706-.242-2.106-.433a11.111,11.111,0,0,1-4.819-4.236"/><path class="a" d="M95.824,91.012A10.019,10.019,0,0,1,99.778,95.9c.741,1.684,1.939,5.768,1.008,7.267a1,1,0,0,1-1.25.355,14.284,14.284,0,0,1-2.717-1.362A11.18,11.18,0,0,1,93.6,99.08c-.939,2.624-2.925,4.107-5.263,5.568a32.821,32.821,0,0,1-4.889,2.64c-9.159,23.753-.39,25.5,3.344,31.118,2.964,4.447,3.513,10.175.184,14.336-2.407,3.01-5.574,4.014-9.483,4.319-1.866.195-7.25.281-9.041,1.177-1.181.609-1.473,1.513-3.013,2.731-2.914,2.293-7.765,4.731-11.252,3.43-3.132-1.172-3.538-4.6-4.938-6.512-.825-1.233-3.012-.909-4.151-3.265-1.629-3.088-1.1-9.445-.2-12.817,1-3.608,2.022-4.965,4.418-8.111,1.875-2.447,1.369-1.817,1.587-2.085.378-.445-.04.249,1.047-1.3,5.015-7.178,3.758-11.346,4.019-17,.177-3.815.711-4.332,2.423-7.51,1.577-2.94.654-3.173,2.084-5.891a23.431,23.431,0,0,1,6.989-7.88,33.788,33.788,0,0,1,9.115-4.676A21.452,21.452,0,0,1,95.824,91.012ZM75.174,89.14a32.416,32.416,0,0,0-8.368,5.083,20.893,20.893,0,0,0-5.58,7.356c-.306.89-.391,1.721-.651,2.694a14.112,14.112,0,0,1-1.483,3.2,9.887,9.887,0,0,0-1.665,5.6c-.187,3.857.328,7.171-.772,11.04-1.672,5.659-5.023,8.8-7.775,12.676a12.147,12.147,0,0,0-1.736,3.031c-1.8,4.36-1.968,10.1-1.153,13,1.085,3.737,3.063,1.644,4.891,4.883.9,1.532,1.409,3.442,2.667,4.617,2.208,2.025,6.612.433,9.136-1.2,3.489-2.093,3.477-3.66,5.635-4.375a16.663,16.663,0,0,1,2.955-.627c4.2-.447,7.844-.322,10.412-1.274a9.255,9.255,0,0,0,6.137-10.343c-1.6-10.9-13.435-8.484-8.084-28.982a63.045,63.045,0,0,1,3.12-8.837,43.268,43.268,0,0,0,6.724-3.7,8.69,8.69,0,0,0,3.477-4.215c.2-.58.1-.453.266-.546l.029-.113c.149.04.094.045.233-.032.077.138.034.1.173.139a11.147,11.147,0,0,0,5.162,4.3c.236.113.927.434,1.187.333.2-.1.291-.826.246-1.49a15.479,15.479,0,0,0-2.193-6.767,13.708,13.708,0,0,0-4.159-3.688A20.006,20.006,0,0,0,75.174,89.14Z"/><path class="a" d="M95.487,128.668c2.728-2.036,4.612-4.586,5.027-11.331.035-.6-.042-.422.329-.784.346.355.3.274.3.4.145,5.94-.946,10.244-5.677,13.425a9.68,9.68,0,0,1-3.4,1.456l.143,2.085h0l.027.414c2.8.966,3.627,1.151,5.912,3.033a11.807,11.807,0,0,1,3.576,4.414,2.46,2.46,0,0,1-.724,2.8,7.037,7.037,0,0,1-3.727,2.174,10.039,10.039,0,0,1-3.752.059,12.416,12.416,0,0,1-4.94-1.939l-.047-.418c.536-.058.315-.086.691.124a12.066,12.066,0,0,0,3.044,1.064c2.571.565,5.355.353,7.276-1.5a6.4,6.4,0,0,0,.856-1.024c.773-1.454-3.854-5.578-5.968-6.417-3.832-1.51-3.578-.81-3.686-2.49-.2-3.157-.217-2.924-.109-3.212a.729.729,0,0,1,.452-.387h0A10.844,10.844,0,0,0,95.487,128.668Z"/><path class="a" d="M100.8,118.111a19.7,19.7,0,0,0,1.514,3,25.519,25.519,0,0,0,2.634,3.3c3.17,3.145,4.365,3.644,5.831,7.824.442,1.26,1.359,2.8.773,4.168-.249.579-2.1-.125-2.5-.2-7.5-1.336-10.052-1.654-15.573-.748-.27.046.083.113-1.948-.584-.078-1.2.02-.931-.233-3.562.7-.226,2.754-.891,3.043-1.058C99.193,127.44,100.543,123.669,100.8,118.111Zm-8.239,12.8-1.268.393"/><path class="a" d="M110.27,129.35a39.614,39.614,0,0,1,1.981,4.8,4.11,4.11,0,0,1,.16,1.849c-.375,2.143-2.065,1.167-3.994.831-4.733-.814-7.909-1.288-10.955-1.108-5.453.36-3.063.921-5.845-.053-.439-.154-.649-.192-.793-.632-.041-.276-.022-.342-.072-1.581-.108-2.471-.491-2.562.691-2.927a.9.9,0,0,1,.523-.164c.341-.107,1.7-.537,2.028-.676a13.372,13.372,0,0,0,3.289-2.489c2.175-2.314,2.9-5.506,3.191-8.7.025-.291-.014-.781.427-.673a.283.283,0,0,1,.177.166l0,0C104.078,124.593,107.92,125.265,110.27,129.35Zm-3.633,5.687a26.646,26.646,0,0,1,2.974.561,7.275,7.275,0,0,0,1.362.307c.282-1.021-.456-2.326-.878-3.566h0c-1.768-5.219-4.145-5.468-6.964-9.361a14.831,14.831,0,0,1-1.971-3.249c-.219-.48-.014-.452-.306,1.6-.516,3.534-1.561,5.881-4.375,8.22a9.712,9.712,0,0,1-4.043,2.112.813.813,0,0,1-.377.188c.1.928.127,1.464.17,2.493,1.7.579.413.387,3.709.024C99.277,134.009,101.352,134.152,106.637,135.037Zm-12.629-5.353.017-.008Z"/><path class="a" d="M86.943,105.393a5.662,5.662,0,0,1,1.938.335,7.1,7.1,0,0,1,2.607,1.912,8.823,8.823,0,0,1,1.57,4.6c.171,2.579-.653,5.069-2.912,6.37a5.461,5.461,0,0,1-3.813.578c-6.361-.851-8.078-9.365-2.972-12.849A5.542,5.542,0,0,1,86.943,105.393Zm-.812.633a4.584,4.584,0,0,0-2.98,1.708c-2.713,3.235-1.521,8.183,2,9.632a7,7,0,0,0,3.021.4c2.15-.285,4.171-2.7,3.323-7.128a5.015,5.015,0,0,0-1.624-3.175,4.747,4.747,0,0,0-3.735-1.442Z"/><path class="a" d="M99.618,104.335a3.927,3.927,0,0,1,2.652.98,6.14,6.14,0,0,1,2.15,3.858,9.953,9.953,0,0,1,.074,3.945c-.5,2.454-1.982,3.818-3.5,4.156a5.817,5.817,0,0,1-3.143-.394c-4.343-1.938-4.793-9.374-.613-11.976A3.98,3.98,0,0,1,99.618,104.335Zm-.6.63a3.243,3.243,0,0,0-2.063,1.281c-2.439,3.03-1.4,8.72,2.182,9.506a4.241,4.241,0,0,0,1.678.029c1.744-.593,2.358-2.544,2.429-4.386a9.2,9.2,0,0,0-.858-4.464,5.361,5.361,0,0,0-1.536-1.55,3.688,3.688,0,0,0-1.832-.42Z"/><path class="b" d="M88.579,114.7a.748.748,0,0,1-.739-.644,8.652,8.652,0,0,1-.06-1.759.747.747,0,1,1,1.491.1,7.319,7.319,0,0,0,.049,1.454A.747.747,0,0,1,88.579,114.7Z"/><path class="b" d="M99.579,112.925a.726.726,0,0,1-.695-.5,4.338,4.338,0,0,1-.087-1.216.747.747,0,0,1,1.492-.087c.009.16-.011.746.013.83A.756.756,0,0,1,99.579,112.925Z"/><path class="a" d="M93.936,109.381a1.385,1.385,0,0,1,.868.375l-.13.579c-.174.11-.3.348-.482.444a4.649,4.649,0,0,1-.553.215c-.221.064-.318.131-1.315-.05a1.9,1.9,0,0,1,.454-1.088A2.149,2.149,0,0,1,93.936,109.381Z"/><path class="a" d="M98.036,116.433c.784,1.567-1.338,3.786-3.835,3.332-.1-.02-.035.012-.378-.3.4-.443.145-.227.538-.43.253-.128,1.4-.84,1.635-1.005a2.411,2.411,0,0,0,.821-.9h0a1.5,1.5,0,0,0,.1-.261.332.332,0,0,0,.027-.241c-.06-.21-.193-.414-.266-.633l.071-.416.415.076C97.479,115.879,97.784,115.948,98.036,116.433Z"/><path class="a" d="M94.367,122c.974.04.843.051,1.241.271-.236.416-.107.325-.893.892a4.2,4.2,0,0,1-1.911.569,2.465,2.465,0,0,1-1.654-.432c-.134-.083-.074-.021-.332-.426.418-.266.319-.219.468-.25.658-.145.223-.108,1.345-.333A10.143,10.143,0,0,1,94.367,122Z"/><path class="a" d="M112.858,151.121c-.3-2.664-.824-17.663-1.16-22.47.707-.585,26.056,1.674,38.06,2.96a5.722,5.722,0,0,0,5.182-1.919c.679,1.077.977,42.5.174,46.886a6.079,6.079,0,0,1-5.447,2.716c-10.976-.508-33-2.07-34.424-2.3"/><path class="a" d="M133.47,129.335c21.344,1.844,14.42,1.5,16.9,1.586a4.922,4.922,0,0,0,3.159-.927c.892-.675.811-1.025,1.437-1.042a.776.776,0,0,1,.718.615c.741,2.731.894,39.872.2,46.488-.084.71-.07,1.07-1.135,2.047a6.979,6.979,0,0,1-3.062,1.652c-1.27.319-1.956.209-6.011-.041-8.872-.549-29.2-2.176-30.477-2.421l-.25-.337.338-.25c3.952.425,28.175,1.67,31.653,1.823,2.768.125,4.1.434,6.1-.81a5.277,5.277,0,0,0,1.41-1.338c.549,0,.553-36.689-.054-45.2a6.508,6.508,0,0,1-4.525,1.173c-1.974-.182-31.318-3.241-37.6-3.241.3,5.379.618,18.939.878,21.844.015.174.054.078-.254.463-.4-.32-.325-.186-.364-.557-.1,0-1.371-22.251-1.353-22.352a.558.558,0,0,1,.3-.36C112.77,127.542,131.993,129.208,133.47,129.335Z"/><path class="a" d="M141.148,118.8c1,.157,10.83,7.213,14.054,10.841.086.1.065.016.058.5-.469-.012-.386.019-.486-.065-.705-.574-2.951-2.038-4.722-3.3-1.4-.991-6.859-5.115-8.649-6.42-.081.43-.359,2.255-.538,3.316l-.325.273-.274-.325a20.637,20.637,0,0,1,.2-4.4h0A.666.666,0,0,1,141.148,118.8Zm.388,1h0Zm0,0,.01-.014,0,.006h0l.013-.02-.006.008.011-.018-.006.009.009-.017,0,0,.01-.02-.011.021.009-.023A.329.329,0,0,0,141.536,119.792Z"/><path class="a" d="M145.346,128.526c-1.853-1.4-7.372-5.784-7.854-6.106-.286,1.242-.971,4.768-.991,4.871l-.333.265-.264-.333c.024-.894.162-5.455.617-6.211a.723.723,0,0,1,.971-.238,86.164,86.164,0,0,1,10.187,8.059c.537.508,2.108,2.01,2.575,2.589l-.007.422-.422-.013C149.18,131.27,146.319,129.261,145.346,128.526Zm-7.675-6.8h0l0-.009Zm.013-.031h0l-.012.029.012-.023h0l0,0,.008-.018Z"/><path class="a" d="M118.437,123.5c5.338.064,24.768,4.181,32.191,7.891.423.216.3.111.464.564-.632.22.06.215-2.269-.54-5.843-1.855-28.885-7.048-30.958-6.813-.509.413-2.636,3.089-3.246,3.827-.105.126-.016.086-.5.151-.065-.482-.08-.388.013-.521C117.3,123.465,117.022,123.486,118.437,123.5Zm-.55,1.084h0l.008,0Zm.015-.01.01-.008-.025.018.019-.011-.011.006.017-.011-.011.007.014-.01Z"/><path class="c" d="M151.192,135.885c1.062.509.665-.623.181,12.12-.235,6.39-.536,15.381-.9,23.268l-.3.3-.288-.314c.073-8.945.01-14.966.171-23.29.155-7.8.353-11.05.353-11.378l.246-.513.534-.193Z"/><path class="a" d="M125.9,178c-.309.434-.083.3-.887.5a28,28,0,0,0-6.411,2.566,56.477,56.477,0,0,0-8,5.4c-3.147,2.53-8.035,7.084-10.945,9.878a25.049,25.049,0,0,0-3.839,4.382c-.684,1.084-.214.753-.861,1.024-.186-.454-.174-.363-.138-.464h0c.931-2.5,3.381-5.152,5.239-7.075a99.1,99.1,0,0,1,11.311-10.215,40.285,40.285,0,0,1,5.032-3.224,27.332,27.332,0,0,1,8.932-2.977C125.608,177.742,125.51,177.731,125.9,178Z"/><path class="a" d="M153.855,205.8c2.332.176,4.775,2.776,4.911,2.776,11.715,10.617,25,37.881,29.052,43.827A33.166,33.166,0,0,0,194,250.984a8.342,8.342,0,0,0,1.969-.882c-1.929-22.236-22.75-77.977-38.958-79.285-.763-.061-.493.079-.9-.321.341-.345.262-.3.394-.3,17.126,0,38.534,55.622,40.867,78.964.106,1.081.132,1.161.024,1.468a1.59,1.59,0,0,1-.576.691c-1.327,1.061-6.8,2.422-9.075,2.574a1.015,1.015,0,0,1-.861-.276c-.987-1.025-6.373-11.257-12.764-21.852-4.3-7.175-11.49-18.842-18.125-23.649-.58-.378-1.75-1.108-2.434-.978-.5,0-23.2,19.827-35.326,28.191a36.9,36.9,0,0,1-6.05,3.538c-.567.225-.335.229-.839.023.191-.459.127-.378.27-.437a32.959,32.959,0,0,0,6.2-3.714c6.935-5.009,12.8-10.181,12.922-10.181,6.028-4.959,19.5-16.452,20.267-17.125C152.152,206.465,152.735,205.713,153.855,205.8Z"/><path class="a" d="M165.2,216.8c-.974,6.447-3.612,16.127-5.394,22.371-2.64,9.154-8.069,25.776-8.509,26.8h0a.741.741,0,0,1-.647.4c-.1,0-8.553.157-8.84.138a.728.728,0,0,1-.594-.5h0c-.408-1.657-5.963-38.647-7.582-42.247l.146-.4.4.146c2.155,4.375,7.55,36.624,8.357,41.522,1.4-.028,6.872-.131,7.565-.142,3.177-9.306,11.594-35.042,14-45.7.67-2.939.328-2.357.861-2.735Z"/><path class="a" d="M188.8,253.48c.29,1.763.72,5.114,2.257,6.325,1.076.844,21.184-6.848,20.809-7.965-.258-.766-13.176-.789-15.473-.845"/><path class="a" d="M189.108,253.513c.343,1.717.788,4.111,1.865,5.459.365.4.328.332.438.332,3.384-.446,18.412-6.565,18.865-7.132-.167,0,.227,0-1.837-.172-3.267-.263-9.14-.539-11.942-.7-.162-.017-.056.054-.409-.31.383-.365.254-.278.421-.3,1.405,0,14.162-.564,15.71.479a.882.882,0,0,1,.049,1.416c-1.98,1.9-17.667,7.834-20.676,7.834a1.308,1.308,0,0,1-.878-.187c-1.623-1.3-1.971-4.643-2.216-6.71l.249-.343C189.148,253.471,189.086,253.4,189.108,253.513Zm2.26,5.84.029.018-.015-.011.007,0Zm0,0,.006,0-.007,0Z"/><path class="b" d="M192.15,192.559a1.494,1.494,0,1,1,.487-2.948c2.5.41,5.193-.14,8.029.077a1.495,1.495,0,0,1-.231,2.981C197.825,192.467,195.052,193.039,192.15,192.559Z"/><path class="b" d="M241.35,193.268a1.494,1.494,0,0,1-1.391-1.591,1.478,1.478,0,0,1,1.59-1.391c2.8.192,6.32.509,8.927.051a1.495,1.495,0,0,1,.516,2.945C248.053,193.8,244.356,193.477,241.35,193.268Z"/><path class="a" d="M142.355,265.764a18.608,18.608,0,0,0,.18,6.885c.258,1,16.132,12.348,16.441,11.716.821-1.688-8.331-13.513-9.4-14.6-.647-.654-.365-2.743-.472-3.811"/><path class="a" d="M142.654,265.79a18.5,18.5,0,0,0,.382,6.654l0,.007A170.768,170.768,0,0,0,157.974,283.1a53.545,53.545,0,0,0-4.131-6.706c-4.72-6.963-4.573-6.044-4.871-6.789a7.527,7.527,0,0,1-.174-2.693c.048-1.181-.095-.8.276-1.252.371.313.322.2.353.553a14.427,14.427,0,0,0,.264,2.91c.182.481-.078-.2,3.169,3.819,1.56,1.949,6.612,8.453,6.9,10.95.077.9-.383,1.27-.913,1.24-1.738-.224-14.008-9.239-16.305-11.611-.538-.535-.522-.632-.677-1.484a19.808,19.808,0,0,1,.19-6.3l.324-.276Zm.4,6.725-.006-.023h0Zm-.019-.068h0Z"/><path class="a" d="M79.908,217.114c3.674-1.557,14.915-6.316,18.132-7.753-.666-.087-2.228-.387-10.513-1.285-16.109-1.74-13.9-.982-14.5-1.588.349-.343.269-.295.391-.295,2.1-.092,18.324.942,24.867,1.823,1.811.252,2.527.353,2.552,1.151-.051.443-.3.592-.75.807-2.5,1.251-19.6,8.562-19.948,8.627.463,0-37.675-.79-38.7-1.207h0a.482.482,0,0,1-.242-.329h0l-.009-.078h0c.037-.7,1.512-1.374,8.785-5.022l.407.124c-.146.484-.084.381-.269.489-.1.037-6.1,3.316-7.081,3.953C81.588,217.047,77.5,217.114,79.908,217.114Zm19.857-7.409,0,0h0Z"/><path class="a" d="M79.614,224.324a50.3,50.3,0,0,0,.141-5.862c0-.192-.056-.091.289-.463.351.335.3.241.315.445.435,6.374.579,6.83-.824,6.93-6.016.579-34.28.7-37.739.007-.775-.108-.89-.336-.954-1.12a32.322,32.322,0,0,1,.488-6.475c.187-.932.131-.747.54-1,.377.612.174-.082,0,2.133a33.354,33.354,0,0,0,.037,5.365C43.066,224.444,79.512,224.334,79.614,224.324Zm-.059.194.009-.015-.007.015.01-.022Zm0-.007.009-.015h0Zm.009-.015,0,.011,0-.011Zm-37.616-.019.007.023-.006-.019.006.015-.009-.022Z"/><path class="a" d="M42.165,232.614c2.369,0-5.107.1,11.367.1.024,0,23.42-.1,24.344-.1a41.167,41.167,0,0,0,.178-4.442c.02-3.637-.108-2.992.293-3.422.361.346.3.2.325.627.119,1.8.579,7.062.138,7.973-.222.4.019.436-6.223.661-6.442.186-22.876.338-29.325-.164-1.3-.107-1.71-.15-1.968-.448-.571-.85.069-6.666.446-8.055l.359-.228.227.358A32.693,32.693,0,0,0,42.165,232.614Zm35.652.239,0-.007,0,0-.009.022a.142.142,0,0,1,.01-.026l-.005.015.006-.019h0Zm.007-.015,0-.007h0Zm-35.613,0,0-.019.006.015-.009-.022h0Z"/><path class="a" d="M34.133,242.1a23.2,23.2,0,0,0,.121,2.5c1.843.221,44.056.542,44.161.542.22-1.395.161-5.771.156-7.237,0-.433-.052-.284.288-.65.363.347.3.2.324.628.165,2.643.508,7.106.111,7.958-.214.405-.264.369-3.471.482-7.91.256-40.112.112-42.119-.781-.342-.14-.409-.408-.452-.789a31.61,31.61,0,0,1,.6-7.445l.359-.228C34.772,237.967,34.12,236.565,34.133,242.1Zm44.226,3.273,0,0,0-.007-.008.018.009-.022Zm.008-.015,0,.015,0-.015Zm0,0,0,0h0Zm0,0h0v0h0ZM34.3,244.81l-.008-.019h0l.007.019-.005-.015,0,.011Z"/><path class="a" d="M100.48,209.242a16.627,16.627,0,0,1,.252,2.977h0c.007.846-.011,1.786-.041,2.642h0c-.053,1.12-.048,1.026-.112,1.2h0c-.117.2-.14.223-.481.4-2.183,1.137-6.344,3.094-8.82,4.221a98.7,98.7,0,0,1-10.892,4.394l-.39-.172.169-.389c1.532-.734,10.571-5.41,19.22-9.2.043-.315.062-.467.075-.568h0c.119-.851.23-1.722.313-2.574h0c.379-3.59-.14-2.451.362-3.175Z"/><path class="a" d="M97.338,218.409a31.115,31.115,0,0,1,.153,6.721h0a.663.663,0,0,1-.37.433,161.708,161.708,0,0,1-18.448,7.64l-.39-.171.169-.389c5.021-2.551,9.621-4.614,14.126-6.6.689-.3,2.618-1.146,3.376-1.457l.009.019.264-.119c1.064-7.742.14-5.405.766-6.318Z"/><path class="a" d="M100.128,228.057a39.822,39.822,0,0,1,.224,7.763h0c-.162.305-.223.283-1.012.706a170.346,170.346,0,0,1-20.154,9.187l-.39-.172.169-.388c1.334-.593,12.349-6.421,20.138-10.05a64.353,64.353,0,0,0,.457-6.789c-.018-.208-.059-.089.223-.5Z"/><path class="a" d="M35.449,236.574c3.307.33,42.972-.406,42.972-.306.919-.02-1.758.688,20.134-8.656-1.23-.346-1.987-.609-3.812-.975-.4-.075-.248-.064-.348-.064-.182-.032-.1.027-.394-.359.395-.3.251-.267.649-.212a41.508,41.508,0,0,1,5.283,1.18.422.422,0,0,1,.108.669c-.344.287-20.451,9.729-21,9.855,2.377,0-42.28.813-45.1-.358a.509.509,0,0,1-.233-.774c.513-.627,6.813-3.4,8.006-3.747l.38.187C41.638,233.936,42.737,232.526,35.449,236.574Zm-1,.609-.007,0-.008.008.012-.008,0,0Z"/><path class="a" d="M195.22,203.1c-.606,3.367-1.078,21.494.375,23.689.431.651,2.114.287,2.781-.415,1.076-1.133,4.806-20.966,4.8-22.955"/><path class="a" d="M195.516,203.149c-.373,2.781-.508,20.736.68,23.2l.009,0,.006,0h.006l.014.006h.008a2.155,2.155,0,0,0,1.543-.45c.723-.525,5.063-21.289,5.1-22.494l.3-.3.3.3c.091,1.831-2.156,16.716-3.964,22.238a2.9,2.9,0,0,1-.739,1.37c-.8.744-2.568,1.2-3.488.5a1.886,1.886,0,0,1-.594-.951c-1.3-3.925-.588-19.692.239-23.522l.347-.244Z"/><path class="a" d="M254.116,203.3c.606,3.367,1.078,21.493-.375,23.689-.431.65-2.114.286-2.78-.415-1.077-1.133-4.806-20.967-4.8-22.955"/><path class="a" d="M254.411,203.251c.777,3.6,1.669,20.572.079,23.919a1.455,1.455,0,0,1-.434.554c-.917.7-2.687.249-3.488-.495a2.73,2.73,0,0,1-.739-1.371c-1.46-4.46-3.277-15.233-3.868-20.816-.031-.306-.111-1.109-.1-1.421l.295-.3.3.3c.033,1.255,4.4,21.991,5.095,22.494a2.2,2.2,0,0,0,1.485.462l.066-.013.014-.005h.006l.006,0,.009,0h0c.784-1.623.865-8.9.9-10.721.212-14.282-.549-12,.029-12.823Z"/><path class="a" d="M108.815,234.777c7.471,5.214-.162,14.025-8.349,17.627a56.929,56.929,0,0,1-10.134,2.884c-13.161,2.753-28.982,2.094-41.951,1.423-7.527-.389-11.05-.393-19.947-2.5-3.26-.823-5.848-1.376-8.189-2.91-5.619-4.092-5.387-13.713,1.616-18.116,4.845-3.3,13.409-4.645,19.212-4.322.188.009.091-.055.439.317-.4.379-.22.284-.608.284a38.6,38.6,0,0,0-14.6,2.559,17.59,17.59,0,0,0-5.812,3.628,10.169,10.169,0,0,0-1.523,12.325,7.008,7.008,0,0,0,3.438,2.977c3.607,1.559,12.269,3.337,18.4,3.878.662.059,13.2.738,21.214.942,11.681.2,21.975-.178,33.277-3.034a35.684,35.684,0,0,0,4.212-1.3c4.676-1.864,11.537-6.744,11.417-11.757-.159-4.434-6.478-6.589-10.856-7.345l-.247-.34.341-.246A21.6,21.6,0,0,1,108.815,234.777Z"/><path class="a" d="M26.782,245.192h0c3.524,3.588,55.4,6.806,73.506-.351l0,0,.453-.007.327.3,0,.007.009.447-.308.334h0c-6.7,3.081-18.546,4.443-25.307,4.938-14.817,1.218-46.012.845-50.693-3.452-.128-.12-.034.052-.533-1.142l.426-1.057c.1-.066-.349.145,1.057-.443Z"/><path class="a" d="M280.507,5.314a2.709,2.709,0,0,1,1.508.518c.792.728.949,2.31,1.1,3.732,2.292,22.863-2.686,156.721-4.2,186.37-.311,5.982-.293,5.858-.672,6.3h0a3.277,3.277,0,0,1-1.741.628c-11.123,1.748-88.208.235-91.845.235-1.038-.016-.765.029-1.284-.191l-.173-.414v-.008l.177-.414c1-.413,79.948.48,92.973-1.5.579-9.934,6.384-178.324,3.583-192.335-2.218-1.11-63.711.583-70.846.832-5.463.2-30.074,1.075-35.506,2.281-.539,11.023-2.961,78.556-3.712,120.149-.909,51.44,1.091,47.208-.224,47.92h-.008l-.434-.135c-3.1-5.706.838-160.107,1.652-169.056a1.457,1.457,0,0,1,.791-1.151C177.17,6,272.157,4.289,280.507,5.314Z"/><path class="a" d="M196.09,176.776c22.823.081,58.833.916,81.8,2.712l.408.206.153.415v.007l-.2.4-.428.161c-20.189,0-28.659.214-70.76-.942-11.954-.307-34.282-1.291-36.229-1.218-.579,0-.187.079-.838-.108l-.233-.381v-.008l.116-.433.39-.239C170.4,177.21,180.345,176.776,196.09,176.776Z"/><path class="a" d="M247.345,94.583c37.17.959,32.932.269,34.083.713l.189.406v.008l-.161.418c-2.066.963-81.389.376-110.872-1.291-.393-.023-.131.064-1.318-.521l-.372-1.078v-.007l.5-1.022C172.052,91.292,161.552,92.323,247.345,94.583Z"/><path class="a" d="M176.439,44.3c6.445.279,15.972.039,27.308.012,12.578-.021,15.916.218,25.011.565,56.706,2.138,52.006.8,52.593,1.849v.008l-.128.428c-2.2,1.236-60.683-.281-73.269-.2-13.832.11-32.1.788-36.4-.077l-.977-.586-.282-1.1v-.008l.587-.977C172.943,43.683,170.633,44.044,176.439,44.3Z"/><path class="a" d="M228.692,5.954l1.011.526.349,1.084c0,.152-.084.568-.353,4.007-.814,10.405-1.453,32.179-2.015,33.39-1.364.555-.938.475-1.128-12.049-.1-6.655-.126-12.484.171-19.492.091-2.027.284-5.495.347-6.107L227.6,6.3l1.085-.349Z"/><path class="a" d="M213.361,44.153l1.034.478.4,1.068c0,.1-1.959,44.125-2.342,48.053l-.195.426-.413.168h-.008c-.761-.368-.565.236-.546-6.48.036-18.746-.085-20.437.517-42.276v0l.478-1.034,1.068-.4Z"/><path class="a" d="M238.664,94.2l1.032.483.394,1.069c0,.913-.13,1.656-.792,17.735-2.863,70.039-2.288,64.919-3.23,65.317h-.008l-.406-.2c-.236-.642-.181,1.47,0-16.143.644-58.635,1.449-60.871,1.449-66.837l.483-1.032,1.07-.394Z"/><path class="a" d="M211.437,140.98c27.763.958,24.778.766,25.421,1.044l.175.412v.007c-.35.772.443.584-7.838.629-38.9.209-52.523-.487-59.706-.487l-1.04-.466-.412-1.063v-.007l.465-1.04,1.063-.412C172.626,139.9,156.839,139.072,211.437,140.98Z"/><path class="a" d="M260.131,150.053c7.376.137,7.529.209,7.784,1.741.688,4.292-1.234,20.5-1.546,26.861-.063,1.283.055.945-.341,1.342-.365-.375-.294-.212-.3-.636-.062-7.266,1.431-27.511.695-27.511-1.384-.356-12.871-.51-16.776.224-.176,2.059-.736,19.555-1.27,26.947l-.314.288-.286-.314c.046-2.142.152-20.253.189-20.253.037-1.641.1-4.642.2-6.283.088-1.42.073-1.642,1.975-1.951A88.486,88.486,0,0,1,260.131,150.053Z"/><path class="a" d="M243.916,102.647c.646.062,1.029.653,1.373,1.259,3.325,5.962,11.421,36.6,11.023,45.754-.016.361.036.24-.328.572-.586-.654.018.367-.536-3.953-1.581-11.476-8.613-35.922-11.242-41.237-.2,5.069,2.738,41.941,5.8,45.762l-.04.422-.423-.041c-.968-1.149-1.811-4.564-2.153-6.023-2-8.458-3.514-21.342-4.2-30.09-.147-1.872-.76-9.737-.311-11.556A1.023,1.023,0,0,1,243.916,102.647Z"/><path class="a" d="M261.9,149.559c.622-4.07.67-32.006-1.143-35.256-1.84,1.122-2.767,11.43-2.955,13.5-1.3,14.617-.9,16.435-1.15,21.488-.01.185.054.081-.317.426-.35-.367-.292-.26-.291-.445,0-2.55-.08-3.792-.152-6.431-.148-5.953.427-19.237,1.915-25.448.419-1.712,1.179-4.425,2.918-4.622,1.16-.107,1.556,1.1,1.833,2.264,1.548,6.72,1.161,27.682-.017,34.353-.085.438-.012.305-.417.579C261.865,149.586,261.884,149.66,261.9,149.559Z"/><path class="a" d="M273.706,107.24c.818.168.795,1.035.8,2.152,0,8.006-2.724,31.9-6.657,40.545-.133.278-.032.188-.5.366-.214-.588-.21-.078.314-1.562,2.834-7.96,5.049-30.442,5.319-37.737-2.329,5.979-7.968,23.231-8.927,29.279-.458,3.049-1.754,6.664-1.154,9.587.021.1.049.016-.209.433-.412-.256-.353-.194-.379-.295-.583-2.43-.026-5.119.438-7.748.415-2.4.2-1.65.58-3.832,1.742-9.516,8.225-29.137,9.6-30.857A.846.846,0,0,1,273.706,107.24Z"/><path class="a" d="M225.548,170.578c4.277,0,9.859.441,10.218.49l.293.3-.307.288c-4.368.3-19.86.45-22.184.949a3.317,3.317,0,0,0-2.239,4.688,2.119,2.119,0,0,0,.94.89h0a.276.276,0,0,0,.048.022l.18.385-.385.179a2.689,2.689,0,0,1-1.082-.635c-1.456-1.3-1.441-4.508.535-6.064a5.475,5.475,0,0,1,3.071-1.023l.007,0C217.89,170.7,222.437,170.578,225.548,170.578Z"/><path class="a" d="M271.021,38.848c4.276,0,9.858.441,10.218.489l.292.3-.307.287c-4.367.3-19.859.451-22.184.949a3.317,3.317,0,0,0-2.238,4.689,2.11,2.11,0,0,0,.94.889h0a.216.216,0,0,0,.048.023l.179.385-.384.179a2.689,2.689,0,0,1-1.082-.635c-1.456-1.3-1.441-4.508.535-6.064a5.469,5.469,0,0,1,3.07-1.023l.008,0C263.363,38.972,267.909,38.848,271.021,38.848Z"/><path class="a" d="M202.062,86.112c1.989.087,1.774-.186,1.136,6.355a10.6,10.6,0,0,0-.065,1.715l0-.008,0,.015,0-.007,0,.007,0-.007,0,.011,0-.011,0,.011,0-.011,0,.007-.006-.011,0,.007-.007-.011,0,.008-.009-.015,0,.007-.011-.015,0,0-.013-.015,0,0-.016-.015,0,0-.02-.018,0,0-.024-.015,0,0-.024-.015a.535.535,0,0,0-.09-.026l.27.322h0l-.322.269h-.024c-.258-.069-.324-.265-.366-.509-.2-1.161.033-5.2-.069-6.739-1.141.021-17.911.075-20.232.6a3.05,3.05,0,0,0-1.175.423,3.164,3.164,0,0,0-1.353,1.879,2.682,2.682,0,0,0,1.165,3.317l0,0,.054.023.18.384c-.566.264-.309.157-.457.157a2.572,2.572,0,0,1-.712-.373c-1.765-1.194-1.957-5.042.874-6.677a4.794,4.794,0,0,1,1.5-.489C187.1,85.947,197.131,85.9,202.062,86.112Zm.332.982h0Zm-.006-.018,0-.012.005.015,0-.007.007.019,0-.008,0,.011c0-.019-.006-.019-.012-.041Z"/><path class="a" d="M192.236,134.741c7.521.051,7.186.195,7.373.5.293.5.116,2.16.011,3.359a12.112,12.112,0,0,0-.144,2.848l.007.023,0-.011,0,.008,0-.008,0,.008,0-.011,0,.008-.006-.011,0,.009-.007-.012,0,.006-.009-.012,0,.006-.01-.014,0,0-.012-.014,0,.006-.014-.015,0,0-.018-.014,0,0-.021-.015,0,0-.024-.014.005,0-.027-.012h0l-.03-.008h.005l-.031-.006h0l-.032,0h.005l.275.316h0l-.318.276a.373.373,0,0,1-.31-.213c-.338-.65-.171-4.248-.305-5.618-.112,0-13.2.128-19.016.371a5.353,5.353,0,0,0-3.174.773,1.937,1.937,0,0,0,.488,3.466l.208.37c-.393.22-.335.219-.436.193a2.941,2.941,0,0,1-.678-.262c-2.3-1.179-1.78-5.3,2.488-5.77C181.563,134.821,189.127,134.741,192.236,134.741Zm6.356,1.094h0l0,0Zm-.008-.023,0,0,0-.006.01.023,0-.006.007.014-.01-.037,0,.017-.009-.025Z"/><path class="a" d="M225.4,163.734c4.277,0,9.859.441,10.218.489l.293.3-.307.287c-4.368.3-19.86.451-22.184.949a3.317,3.317,0,0,0-2.238,4.689,2.1,2.1,0,0,0,.939.889h0a.271.271,0,0,0,.048.023l.18.384-.385.18a2.7,2.7,0,0,1-1.082-.635c-1.455-1.305-1.441-4.508.535-6.064a5.483,5.483,0,0,1,3.071-1.024l.007,0C217.742,163.858,222.289,163.734,225.4,163.734Z"/><path class="a" d="M270.873,32c4.276,0,9.858.442,10.218.49l.292.3-.307.287c-4.367.3-19.859.451-22.184.949a3.317,3.317,0,0,0-2.238,4.689,2.11,2.11,0,0,0,.94.889h0a.22.22,0,0,0,.048.022l.179.385-.384.179a2.666,2.666,0,0,1-1.082-.635c-1.456-1.3-1.441-4.507.535-6.063a5.48,5.48,0,0,1,3.07-1.024l.008,0C263.215,32.128,267.762,32,270.873,32Z"/><path class="a" d="M201.3,79.51c.565.031.769.377.829.938.131,1.411-.63,5.359-.42,6.06l0,0,0,.019,0-.008.005.015,0-.007,0,.011,0-.007,0,.007,0-.007,0,.007-.006-.007,0,.007-.006-.007.005.007-.007-.011,0,.007-.009-.011.006.008-.01-.012.006.008-.012-.011.006.007-.012-.015.006.008-.014-.012.006,0-.017-.011.007,0-.018-.012.007.008-.02-.011.007,0-.021-.011.007,0-.022-.008.007,0-.023-.007h.007l-.023,0,.007,0-.024,0h.008l.278.318h0l-.316.276a.406.406,0,0,1-.217-.075l0,0c-.649-.473-.161-4.6-.346-6.232-.629.045-9.04.067-9.141.067-9.1.1-10.24.186-11.226.994l-.02.019h0a3.249,3.249,0,0,0-.147,4.819c.43.281.233-.012.5.553-.409.19-.351.194-.452.161v0a3.452,3.452,0,0,1-1.982-3.889c.319-2.125,1.74-3.546,4.424-3.77A149.665,149.665,0,0,1,201.3,79.51Zm-.371,1h0Zm-.011-.03,0-.007,0,0,.006.011,0-.007.006.015,0,0h0l.008.015,0-.007.009.015-.005-.008.006.011-.016-.045Z"/><path class="a" d="M191.058,129.484c.49,0,6.256.035,6.789.259a.84.84,0,0,1,.211.14h0a2.932,2.932,0,0,1,.461,2.156,25.812,25.812,0,0,1-.438,3.276c-.019.1.026.029-.346.313-.457-.606-.148.133-.148-2.759a7.38,7.38,0,0,0-.22-2.063c-7.966.238-18.757.126-20.334.79h0c-.044.015-.139.059-.182.078a2.488,2.488,0,0,0-.69.463,1.907,1.907,0,0,0,.572,3.307l0,0c.03.011.017.007.052.018l.208.37-.37.207a.356.356,0,0,1-.063-.014h0a2.575,2.575,0,0,1-1.891-1.69,2.927,2.927,0,0,1,.22-2.3,3.789,3.789,0,0,1,1.64-1.555,8.675,8.675,0,0,1,3.14-.641C183.057,129.568,187.673,129.484,191.058,129.484Zm6.278,1.262h0l0,0Zm0,0h0l-.006,0Zm-.017-.017-.015-.018.013.015-.007-.006.01.011-.006,0,.012.011,0,0h0l.013.009-.008-.006.01.009c-.006-.008-.012-.019-.023-.032l.011.017-.018-.023Z"/><path class="a" d="M227.088,156.348c3.815,0,9.143.472,9.361.5l.293.3-.307.288c-4.286.32-17.893.341-19.732,1.031a2.986,2.986,0,0,0-1.622,1.356h0c-.968,1.693-.38,3.621.833,4.114l.18.384-.385.18a2.692,2.692,0,0,1-.705-.325c-1.957-1.256-2.1-5.169.767-6.8l.012,0C217.588,156.4,225.053,156.348,227.088,156.348Z"/><path class="a" d="M272.561,24.618c3.815,0,9.143.472,9.361.505l.293.3-.308.288c-4.285.32-17.892.341-19.731,1.031a2.986,2.986,0,0,0-1.622,1.356h0c-.967,1.693-.38,3.621.833,4.113l.18.385-.385.18a2.692,2.692,0,0,1-.7-.325c-1.957-1.256-2.1-5.169.767-6.8l.012,0C263.06,24.669,270.526,24.618,272.561,24.618Z"/><path class="a" d="M175.788,148.988a.814.814,0,0,1,.579.336c.936,1.588,1.1,25.21.16,27.773l-.364.213c-.274-.48-.2-.225-.17-.769.066-1.445-.139-5.921-.139-6.041-.164-4.983-.335-18.425-.5-20.425a21.351,21.351,0,0,0-5.034-.1c-.107.012-.094.027-.136.027l-.024.007-.03,0-.377-.2.2-.377A17.792,17.792,0,0,1,175.788,148.988Zm-.205,1.147-.013-.008.023.008h0l0,0,.016.007-.009,0,0,0-.027-.011Zm-.015-.008-.01-.007h0Z"/><path class="a" d="M178.02,17.779a.807.807,0,0,1,.578.336c.937,1.588,1.1,25.21.161,27.773l-.364.213c-.274-.481-.2-.225-.17-.769.066-1.445-.139-5.921-.139-6.041-.165-4.983-.335-18.426-.5-20.425a21.353,21.353,0,0,0-5.034-.105c-.107.012-.094.026-.136.026l-.024.008-.03,0-.377-.2.2-.377A17.792,17.792,0,0,1,178.02,17.779Zm-.205,1.147-.013-.008.023.008h0l0,0,.016.007-.009,0,0,0-.027-.011Zm-.015-.008-.01-.007h0Z"/><path class="a" d="M234.063,17.883a.812.812,0,0,1,.578.336c.937,1.588,1.1,25.21.161,27.774l-.364.212c-.275-.48-.2-.225-.171-.769.066-1.445-.138-5.921-.138-6.041-.165-4.983-.336-18.425-.5-20.425a21.416,21.416,0,0,0-5.035-.105c-.107.012-.094.027-.135.027l-.025.007-.03,0-.376-.194.2-.378A17.8,17.8,0,0,1,234.063,17.883Zm-.206,1.147-.012-.008.022.008h0l-.006,0,.017.008-.01,0,0,0-.027-.011Zm-.015-.008-.01-.007h0Z"/><path class="a" d="M182.719,152.044c.39.193.439.444.523.908.826,4.955.969,22.478.156,24.956l-.365.21-.208-.367a36.373,36.373,0,0,0-.043-3.9c-.379-9.02-.614-19.471-.771-20.761a17.307,17.307,0,0,0-1.877-.183c-3.619-.118-2.754.09-3.288.09l-.021.007-.03,0-.377-.194.2-.378A16.458,16.458,0,0,1,182.719,152.044Zm-.476,1.106-.013-.008.023.012-.009-.008.017.008-.009,0,0,0h-.007l-.022-.007,0,0Zm-.016-.008-.011-.007h0Z"/><path class="a" d="M184.874,19.017c.39.193.439.444.523.908.826,4.955.969,22.478.156,24.956l-.365.209-.208-.366a36.37,36.37,0,0,0-.043-3.9c-.379-9.02-.614-19.472-.771-20.761a17.307,17.307,0,0,0-1.877-.183c-3.619-.118-2.754.089-3.288.089l-.021.008-.03,0-.377-.2.2-.377A16.416,16.416,0,0,1,184.874,19.017Zm-.476,1.106-.013-.008.023.011-.009-.007.017.007-.009,0,0,0H184.4l-.022-.008,0,0Zm-.016-.008-.011-.007h0Z"/><path class="a" d="M240.916,19.121c.39.193.439.444.524.908.825,4.955.969,22.478.155,24.956l-.364.209-.208-.366a36.635,36.635,0,0,0-.043-3.9c-.38-9.02-.614-19.472-.772-20.761a17.284,17.284,0,0,0-1.877-.183c-3.618-.118-2.753.09-3.287.09l-.021.007-.031,0-.376-.194.2-.378A16.438,16.438,0,0,1,240.916,19.121Zm-.476,1.106-.012-.008.023.012-.01-.008.017.008-.009,0,0,0h-.007l-.021-.007,0,0Zm-.015-.008-.011-.007h0Z"/><path class="a" d="M195.965,155.217c.884.093.95.434,1.1,1.33a118.2,118.2,0,0,1,.455,19.916,8.357,8.357,0,0,1-.267,1.8l-.364.209c-.3-.523-.177-.154-.167-1.05.007-1.694-.205-4.182-.4-8.577-.062-1.734-.391-10.692-.59-12.434-.1,0-.3-.076-1.1-.134-.426-.046-1.976-.123-2.618-.1-1.786,0-1.139.311-1.865-.064l.2-.377A18.679,18.679,0,0,1,195.965,155.217Zm0,1.255-.012-.007.024.011-.009-.008.018.008-.009,0h0l-.006,0-.021-.007h0Zm-.016-.007-.006,0h0Z"/><path class="a" d="M198.211,19.919c.468.231.491.526.652,1.782.522,4.244,1.069,19.882.156,23.8-.044.187.019.117-.407.362L198.4,45.5c.134-.806-.1-4.941-.16-5.948-.154-2.576-.553-17.051-.741-18.59a20.96,20.96,0,0,0-5.156-.094h-.009l-.021.008-.03,0-.377-.2.2-.377A16.5,16.5,0,0,1,198.211,19.919Zm-.477,1.106-.012-.008.023.011,0,0h-.006l.017,0-.009,0h0l-.007,0-.021-.008h0Zm-.015-.008-.012,0h0Z"/><path class="a" d="M188.563,148.922c1.454,0,1.508.239,1.649,1.763.427,4.766.771,22.346-.164,26.35-.036.154,0,.1-.4.333-.312-.547-.163-.024-.146-1.528,0-1.042-.543-23.426-.745-25.536-.51-.047-5.292-.1-5.667-.1,0,1.094-.008,2.889.018,4.106l-.28.321-.32-.28c-.561-5.1-.428-4.826-.293-5,.28-.25.139-.119,3.349-.347C186.572,148.96,187.589,148.922,188.563,148.922Zm.584,1.416h-.01l-.006,0h0Zm-.016,0h0l0,0h0Z"/><path class="a" d="M190.8,17.713c1.454,0,1.508.239,1.648,1.763.428,4.766.772,22.346-.163,26.35-.036.154,0,.1-.4.332-.312-.547-.163-.023-.146-1.528,0-1.041-.544-23.425-.745-25.535-.509-.047-5.288-.1-5.667-.1,0,1.094-.008,2.889.017,4.106l-.279.321-.32-.28c-.561-5.1-.428-4.826-.293-5,.28-.25.139-.119,3.349-.348C188.8,17.75,189.821,17.713,190.8,17.713Zm.584,1.415h-.01l-.006,0h0Zm-.016,0h0l0,0h0Z"/><path class="a" d="M221.161,109.591a17.915,17.915,0,0,1,7.016,1.782c5.541,3.044,6.889,9.7,4.831,15.688h0c-1.958,6.488-9.662,8.125-16.009,6.258-7.312-2.177-11.529-8.25-7.949-15.909A13.314,13.314,0,0,1,221.161,109.591Zm-3.205,1.9c-6.933,2.033-10.338,9.9-7.947,14.853,3.7,7.564,19.2,9.568,22.4.618h0c2.135-7.3-.939-13.18-6.024-14.934a28,28,0,0,0-4-.937A11.777,11.777,0,0,0,217.956,111.489Z"/><path class="a" d="M212.824,117.281c2.07.038,2.778,1.465,3.808,2.432a2.127,2.127,0,0,0,1.905.627,2.834,2.834,0,0,1,2.8,1.8,3.335,3.335,0,0,1,.353,2.145h0c-.354,1.71-2.259,3.256-3.94,3.723a3.232,3.232,0,0,0-1.114.429c-.605.507-.4,1.587-.668,2.526-.038.124.023.063-.392.311-.3-.509-.191-.212-.176-.77.019-1.111-.353-2.4,1.063-3.223a9.647,9.647,0,0,0,2.249-1.223,4.071,4.071,0,0,0,1.53-2.06h0a2.422,2.422,0,0,0-.782-1.93c-.81-.664-2.053.395-3.808-1.339-.229-.2-1.031-1.245-1.449-1.657a2.278,2.278,0,0,0-1.4-.7,4.351,4.351,0,0,0-2.784.418c-.428.289-.081.213-.706.264l-.034-.423A4.476,4.476,0,0,1,212.824,117.281Z"/><path class="a" d="M217.9,111.045a2.469,2.469,0,0,0,1.455,2.693c2.007.9,3.64-.508,5.7.233,1.758.676,2.535,2.876,3.653,2.963a2.245,2.245,0,0,0,1.257-.382,3.82,3.82,0,0,0,.974-1.359l.388-.166.162.389a5.6,5.6,0,0,1-.7,1.639,3.274,3.274,0,0,1-2.066,1.115,2.619,2.619,0,0,1-1.931-.759,16.56,16.56,0,0,0-2.006-1.923c-1.389-.8-3.322.627-5.621-.414a3.32,3.32,0,0,1-1.856-4.16l.359-.228Z"/><path class="a" d="M233.583,123.418l-.156.392c-.493.316-.689.867-1.137,1.659-1.382,2.411-3.348,1.3-4.808,2.479-1.11.925-1.878,2.962-1.132,4.342.1.174.082.046.038.549-.5-.043-.4,0-.55-.16-1.854-1.972-.712-5.927,2.34-6.69a7.6,7.6,0,0,0,2.685-.709c.756-.578,1.3-1.715,2.327-2.014Z"/><path class="a" d="M211.739,109.867a2.678,2.678,0,0,1,1.107.85,5.466,5.466,0,0,1,.737,1.18c.054.16.119.443.155.617.055.242.047.088.014.6-.5-.039-.382-.014-.595-.107a2.607,2.607,0,0,1-1.4-1.279,2.787,2.787,0,0,1-.491-1.385c-.026-.159-.031-.051.048-.54Z"/><path class="a" d="M231.537,134.429l-.023.42a14.13,14.13,0,0,1-6.711,3.279c-7.4,1.561-14.533-1.18-18.529-7.058-4.621-6.945-3.652-15.647,6.066-22.6l.421.055c-.095.727.2.028-1.989,2.145a19.171,19.171,0,0,0-5.126,7.864c-2.185,7.2,1.907,13.951,7.869,16.932,6.139,3.042,13.925,2.027,17.6-1.06Z"/><path class="a" d="M221.69,138.364a4.448,4.448,0,0,1,.293,1.807,2.305,2.305,0,0,1-.309,1.31c-.132.258-.05.151-.411.5-.358-.377-.261-.252-.4-.5a4.43,4.43,0,0,1-.28-.6,4.237,4.237,0,0,1-.019-1.721h0a1.989,1.989,0,0,1,.316-.663c.246-.342.187-.267.595-.5Z"/><path class="a" d="M228.2,133.55a3.018,3.018,0,0,1,.826,1.259,3.979,3.979,0,0,1,.038.771l-.087.413-.412-.092a2.043,2.043,0,0,1-1.329-1.394,2.066,2.066,0,0,1,.064-1.388A2.311,2.311,0,0,1,228.2,133.55Z"/><path class="a" d="M254.142,60.725c.49.112.654.4.735.882.641,3.877.761,26.328.61,33.774l-.3.3-.3-.3c-.121-5.35-1.036-29.953-1.423-33.261-2.881-.191-18,.164-23.75.629-1.7.143-1.471.142-1.5.287-.514,2.983-2.832,24.522-3.094,29.9-.078,1.765.119,1.2-.248,1.719l-.347-.245c-.4-2.117,1.329-25.771,2.281-31.62.1-.592.153-.929.595-1.143C229.172,60.9,252.177,60.313,254.142,60.725Z"/><path class="a" d="M247.561,65.762c2.246.008,2.523.039,2.837.34a1.387,1.387,0,0,1,.274.824c.365,3.164.8,22.684.595,23.491a.669.669,0,0,1-.555.453c-.227.009-21.374-1-21.558-1.187a.3.3,0,0,1-.049-.088l-.014-.049c.336-.058.444-.077,0,0-.307-1.6.87-16.94,1.385-21.113.236-1.9.2-1.91,1.867-2.093C235.844,66,243.679,65.762,247.561,65.762Zm-15.641,2c-.413,2.284-2.27,18.791-2.253,21.438,6.5.086,11.781.148,20.276.319-.05-3.519-.407-18.892-.729-22.247C246.5,67.149,234.553,67.427,231.92,67.764Zm.063-.3v0l0-.012Z"/><path class="a" d="M255.389,76.366A93.46,93.46,0,0,1,260.6,87.923a29.714,29.714,0,0,1,2.134,6.107c.45,1.475.5.851.314,1.539-.475-.132-.382-.074-.488-.231a42.308,42.308,0,0,1-1.92-3.9c-2.236-4.215-4.392-10.6-5.8-14.833l.154-.4Z"/><path class="a" d="M250.288,80.433l.153.393-.4.148a3.27,3.27,0,0,0-1.647-.081,11.267,11.267,0,0,0-2.695,1.056,9.506,9.506,0,0,0-4.723,7.586l-.258.339c-.4-.3-.33-.214-.38-.433C239.055,83.5,246.325,78.055,250.288,80.433Z"/><path class="a" d="M236.786,76.911a9.106,9.106,0,0,1-.125-2.275A2.323,2.323,0,0,1,237,73.573c.85-1.415,3.238-2.411,4.827-2.794a1.391,1.391,0,0,1,1.832.761,6.148,6.148,0,0,1,.541-.532,4.361,4.361,0,0,1,2.011-1.087,14.19,14.19,0,0,1,3.451-.694c.2-.005.086-.055.451.281-.336.362-.223.3-.417.318a13.321,13.321,0,0,0-4.3,1.292,5.289,5.289,0,0,0-1.323,1.371c.176.455.278.576.637,1.625.39,1.17.589,1.959.987,3.047.785,2.092,1.225,2.569,1.025,3.129a.627.627,0,0,1-.649.381h0c-.519,0-.606-.618-1.258-2.215a19.253,19.253,0,0,1-1.014-2.465,15.9,15.9,0,0,0-.913-2.651,9.194,9.194,0,0,0-.544-1.192,10.376,10.376,0,0,0-3.078,1.26c-1.195.783-1.145,1.158-1.145,1.858a5.369,5.369,0,0,0,.209,1.635c.632.855,1.987,1.33,3.123,2.029.49.306.195.152.807.528.8.487,2.522,1.458,2.233,2.344a.748.748,0,0,1-1.148.395,4.767,4.767,0,0,0-.411-.325,7.458,7.458,0,0,1-1.438-.948,6.79,6.79,0,0,0-1.35-.755c-1.474-.786-4.112-2.639-5.368-1.77a4.935,4.935,0,0,0-1.617,2.363c-.375,2.247,4.535,3.371,6.779,3.817.845.16.753.124.9.208a.528.528,0,0,1,.246.46.54.54,0,0,1-.491.53h0a22.3,22.3,0,0,0-5.269-.158c-1.183.112-2.131.3-2.289,1.473a4.65,4.65,0,0,0,.131,1.534c.156.56.206.195.016.793l-.405-.129a4.447,4.447,0,0,1-.373-2.682c.362-1.436,1.753-1.728,3.229-1.892-4.3-1.471-4.822-3.958-2.519-6.651A3.109,3.109,0,0,1,236.786,76.911ZM240.6,84.7h0Zm4.94-4.637,0,.017,0-.019Zm0,.013,0-.011Zm-3.257-8.01h0l0,0Z"/><path class="a" d="M204.468,25.118a185.775,185.775,0,0,1,11.78,19.675l-.117.406-.4-.122c-1.3-2.176-11.31-17.526-12.277-18.841a13.954,13.954,0,0,0-3.407,2.3c.526,2.071,7.152,13.951,8.646,16.41.219.361.185.213.086.7-.482-.1-.361-.006-.609-.355-2.792-3.952-7.342-11.139-9.118-15.276a3.759,3.759,0,0,1-.471-1.728h0c.145-.741,1.046-1.412,1.71-1.885a18.932,18.932,0,0,1,2.859-1.659A.943.943,0,0,1,204.468,25.118Zm-4.445,3.325h0Z"/><path class="a" d="M190.728,67.594c.956,0,6.847.122,7.708.553a1.749,1.749,0,0,1,.841,1.374c.069.407.205,1.458.24,2.207a25.978,25.978,0,0,1-.717,6.152,5.834,5.834,0,0,1-.94,2.088l-.413.077c-.13-.725-.1-.105.287-1.2a22.839,22.839,0,0,0,.29-8.135,6.583,6.583,0,0,0-.25-1.248,32.492,32.492,0,0,0-3.574-.288c-2.816-.09-4.976-.255-6.738.312-.575.191-.519.377-.6,1.384a30.545,30.545,0,0,0,.044,4.157c.046,1.321,0,3.3.785,4.341l-.035.423-.423-.035c-1.181-1.234-1.312-3.957-1.592-6.209a16.312,16.312,0,0,1-.11-3.319c.125-1.759,1-2.009,2.61-2.389A11.438,11.438,0,0,1,190.728,67.594Zm7.028,1.832Zm0,0h0l-.007-.007Zm0,0-.013-.016Zm0,0-.01-.01Zm0,0-.01-.011Z"/><path class="b" d="M190.553,68.861a.747.747,0,0,1-.74-.648c-.366-2.734-.414-5.467-.652-8.176a.747.747,0,0,1,1.489-.132c.236,2.683.288,5.446.644,8.109A.748.748,0,0,1,190.553,68.861Z"/><path class="b" d="M194.094,68.851a.748.748,0,0,1-.738-.636,35.622,35.622,0,0,1,.02-5.43.747.747,0,1,1,1.494,0,37.047,37.047,0,0,0-.036,5.207A.748.748,0,0,1,194.094,68.851Z"/><path class="c" d="M35.294,255.086c-1.3,5.126-5.895,33.938-5.165,38.085a1.4,1.4,0,0,0,2.464.545c1.179-1.345,9.57-34.442,10.024-37.629"/><path class="a" d="M35.585,255.161c-.983,4.33-3.233,21.157-3.782,25.58h0c-.108.867-1.54,12.133-.809,12.591l.013.015.006,0,.013.015.014.008.007.007.007,0,.007.007.008,0,.007.008.016.007.008.008.043.018.009.008.038.015h.01l.042.015h.01l.022.007h.011l.011,0h.012l.011,0h.012l.011,0h.036l.012,0h.062l.013,0H31.5l.013,0h.025l.026-.008h.013l.025-.007h.013l.1-.03.012-.008.025-.007.012-.008.012,0,.011-.008.012,0,.011-.007.012,0,.033-.022.011,0a.848.848,0,0,0,.112-.086l.009-.011.01-.008.009-.011.009-.007c1.316-2.633,9.911-35.082,10.294-37.125.019-.1-.039-.035.35-.329.289.392.254.313.24.423-.494,3.7-6.653,29.921-9.125,36.665a2.907,2.907,0,0,1-1.049,1.7,2.274,2.274,0,0,1-2.171.221c-1.261-.56-1.264-1.844-1.242-3.228.055-2.992.687-8.046,1.086-11.018h0c.852-6.313,3.157-20.121,4.564-25.4.047-.191-.025-.107.4-.366Z"/><path class="c" d="M92.2,254.31c1.3,5.125,6.068,34.707,5.338,38.854a1.4,1.4,0,0,1-2.464.545c-1.179-1.345-9.706-34.5-10.16-37.688"/><path class="a" d="M92.488,254.239c1.678,6.016,6.151,32.027,5.849,38.364a2.338,2.338,0,0,1-.84,1.969,2.237,2.237,0,0,1-2.934-.313c-1.615-1.845-8.834-31.519-9.887-37.8-.082-.492-.1-.335.191-.735.417.314.31.148.41.623.491,2.276,9.249,35.021,10.371,36.89,3.1,2.59-2.872-34.971-3.71-38.709-.04-.185-.078-.07.186-.512Z"/><path class="c" d="M48.3,156.691c-2.964,1.536-6.516,9.576-7.919,12.419-6.633,13.446-12.334,37.184,4.194,41.9,26.783,7.647,71.526-34.241,73.337-37.962,1.113-2.286-9.855-21.6-10.833-22.083-1.223-.6-3.929.276-5.207.586-13.849,3.359-28.158,8.156-39.031,17.8-4.629,4.106-7.5,9.291-10.556,14.473"/><path class="a" d="M106.021,150.068c1.526,0,1.786.465,3.022,2.4,2.442,3.923,8.65,14.851,9.592,19.319a2.156,2.156,0,0,1-.34,2.047c-3.739,5.266-33.891,32.427-57.734,37.7-6.133,1.478-11.833,1.3-15.113.4-15.182-3.469-13.929-21.055-8.531-35.858a82.9,82.9,0,0,1,3.913-8.809c1.342-2.761,4.592-9.451,7.33-10.846l.406.127-.126.4c-2.588,1.455-5.559,7.814-6.9,10.655a75.234,75.234,0,0,0-5.573,14.761c-3.25,12.858-2.465,25.915,10.57,28.412,20.737,3.923,51.571-19.153,66.767-33.736a37.053,37.053,0,0,0,3.938-4.311h0c.608-2.034-8.672-19.016-10.534-21.169-.155,0-.357-.339-2.708.157-.149.032-4.594,1.122-7.164,1.8-10.506,2.778-19.972,6.369-28.39,12.041l-.008.008c-8.378,5.745-10.606,9.59-15.9,18.4l-.407.109-.1-.408c5.23-9.035,7.6-13.161,16.292-19.188,10.322-7.156,22.974-11.106,35.19-14.062A10.745,10.745,0,0,1,106.021,150.068Z"/><path class="c" d="M109.743,154.82c.691-.576,1.156-1.394,1.81-2.014,1.44-1.367,2.913-2.742,4.432-4.02.57-.478,1.725-1.685,2.587-1.36,1.768.671-.483,3.929-1.673,5.391-.045.056-.2.176-.13.165.236-.027.6-.423.8-.553,3.232-2.167,9.027-4.3,10.774-4.454a1.388,1.388,0,0,1,.992.18c.478.388.019,1.393-.277,1.744a19.7,19.7,0,0,1-4.332,3.258,22.99,22.99,0,0,1-2.078,1.17c-.1.052-.372.235-.3.156a3.754,3.754,0,0,1,.972-.53,12.331,12.331,0,0,1,5.111-1.233c1.035-.045,2.4.079,1.727,1.435-.772,1.543-2.777,2.394-4.214,3.153-.406.213-1.469.782-2.134,1.038-.1.038-.323.213-.286.116.165-.434,2.515-.765,2.978-.829.618-.086,2.637-.508,2.846.523.215,1.068-1.375,2.055-2.089,2.537-.214.145-.427.291-.652.418-3.286,1.883-6.28,4.562-9.927,5.75"/><path class="a" d="M128.754,147.236c1.481.119,1.851,1.255,1.225,2.559a4.956,4.956,0,0,1-1.261,1.49c-.893.781-1.039.743-.83.725a4.38,4.38,0,0,1,2.562.348,1.352,1.352,0,0,1,.624,1.068c.057,1.259-1.279,2.526-2.377,3.209-.471.314-.467.169,0,.273a1.457,1.457,0,0,1,1.157,2.074,3.669,3.669,0,0,1-1.251,1.464c-.527.388-1.393.945-1.679,1.106-4.6,2.659-6.193,4.247-10,5.548-.183.062-.094.069-.519-.146.221-.432.146-.356.326-.422,3.149-1.125,5.885-3.522,8.848-5.41.826-.524,3.325-1.966,3.179-2.835l-.01-.034.006.019-.009-.023.006.019a.094.094,0,0,0-.01-.026l.009.019a.069.069,0,0,1-.012-.019l.01.019-.013-.023.011.019c-.007-.011,0-.008-.025-.026l.014.011-.01-.008,0,0h0l-.019-.015h-.007c-.538-.284-2.713.179-3.382.291a3.294,3.294,0,0,0-.936.366c-.618.252-.468.271-.783.31-.76.033-1.172-.972-.13-1.55a3.592,3.592,0,0,1,.729-.25c.361-.094,3.277-1.692,3.382-1.753a6.948,6.948,0,0,0,1.405-1.061,2.612,2.612,0,0,0,.629-1l-.006,0h-.007v0l-.008,0h-.008c-.814-.326-3.724.121-5,.657-1.484.544-1.948,1.305-2.647.905v0a.736.736,0,0,1-.322-.691h0c.086-.508.518-.725.982-.953a13.442,13.442,0,0,0,2.3-1.3c1.017-.65,3.81-2.292,3.926-3.471-2.068,0-9.415,3.053-10.911,4.3h0c-.441.392-.932.8-1.461.542h0a.616.616,0,0,1-.278-.321h0l-.03-.094h0a.68.68,0,0,1,.209-.657c.67-.659,2.861-3.707,2.208-4.435a.446.446,0,0,0-.162-.1c-.55,0-1.91.831-6.639,5.185-.578.533-1.138,1.418-1.806,1.932l-.423-.034.036-.426c1.26-1.089-.268-.436,6.348-6.377a4.667,4.667,0,0,1,2.134-1.353,1.409,1.409,0,0,1,.818.1c.9.4,1.047,1.255.835,2.216-.6,2.358-1.867,1.776,3.252-.247a40.773,40.773,0,0,1,4.382-1.517A6.269,6.269,0,0,1,128.754,147.236Zm-4.66,11.746v0h0l0,0Zm.008,0-.005,0,.009,0Zm-.046-.1-.008.007.009-.007Zm0,0-.01.007.013-.007h0Zm0,0h0l0,0,.006,0Zm4.673-.628-.01-.011Zm0,0-.012-.015Zm0,0-.012-.012Zm-11.485-4.868-.007.007.011-.015Zm-.839-.972,0-.007Z"/><path class="a" d="M70.447,217.416l.5.262c.288.892.225-.127-.476,5.929-.081.685.01.481-.361.878-.364-.39-.286-.2-.355-.886-.147-1.533-.174-2.275-.183-3.22,0-.842.051-2.183.061-2.283l.262-.5.541-.176Z"/><path class="a" d="M48.869,224.967l.477.31c.251,1.128.067-.073-.186,2.652-.437,5.1-.142,4.326-.64,4.861l-.3-.314c-.141-1.433-.645-4.806-.224-6.912l.309-.474.554-.123Z"/><path class="a" d="M64.712,237.03l.5.269.166.546c-.3,2.969-.171,4.185-.527,6.358-.07.406,0,.267-.377.6-.388-.479-.219-.048-.319-1.468a37.456,37.456,0,0,1-.264-5.638l.271-.5.543-.165Z"/></svg>