<svg xmlns="http://www.w3.org/2000/svg" viewBox="0 0 300 300"><defs><style>.a,.e{fill:#212121;}.a,.b,.c{fill-rule:evenodd;}.b,.d{fill:#fff;}</style></defs><title>Skateboarder</title><path class="a" d="M162.2,284.834c2.623.085,3.393.633,4.494,2.049h0s.062.081.1.134a6.145,6.145,0,0,1,.757,3.106,5.874,5.874,0,0,1-1.1,3.152A4.339,4.339,0,0,1,162.532,295a6.912,6.912,0,0,1-4.816-1.934,4.84,4.84,0,0,1-.363-6.256,5.2,5.2,0,0,1,1.814-1.638,1.746,1.746,0,0,1,.494-.151A17.19,17.19,0,0,1,162.2,284.834Zm.553.814a15.409,15.409,0,0,0-3.108.4c-3.056,1.834-3.18,6.342,1.316,7.628,2.883.722,4.254-.129,5.16-1.54a5.337,5.337,0,0,0,.752-2.435,5.842,5.842,0,0,0-.481-2.468l-.008-.011-.006-.014a.3.3,0,0,0-.022-.028l-.009-.017a.08.08,0,0,1-.016-.019v0c-.044-.044-.165-.178-.224-.241A3.961,3.961,0,0,0,162.75,285.648Zm3.941,1.235h0l-.011-.014Z"/><path class="a" d="M209.746,282.521c2.623.085,3.394.633,4.5,2.049h0s.063.081.1.134a6.143,6.143,0,0,1,.758,3.106,5.873,5.873,0,0,1-1.1,3.153,4.337,4.337,0,0,1-3.918,1.724,6.912,6.912,0,0,1-4.816-1.934,4.839,4.839,0,0,1-.364-6.255,5.2,5.2,0,0,1,1.814-1.638,1.764,1.764,0,0,1,.5-.151A17.17,17.17,0,0,1,209.746,282.521Zm.554.814a15.409,15.409,0,0,0-3.109.4c-3.056,1.833-3.18,6.342,1.317,7.627,2.883.722,4.253-.129,5.16-1.54a5.345,5.345,0,0,0,.752-2.434,5.839,5.839,0,0,0-.481-2.468l-.009-.011,0-.014a.215.215,0,0,0-.023-.028l-.008-.017a.193.193,0,0,1-.017-.02v0c-.043-.043-.164-.178-.223-.24A3.958,3.958,0,0,0,210.3,283.335Zm3.941,1.235h0l-.011-.014Z"/><path class="a" d="M184.569,252.11c-.04,1.922-.173,6.625-.361,8.588h0c-.055.418-.08.714-.521.824a71.172,71.172,0,0,1-8.493-.233c-.632-.131-.644-.313-.644-3.29.021-1.219.108-7.405.245-7.609l.027-.028a.229.229,0,0,1,.137-.056h0a24.188,24.188,0,0,1,4.522-.483,14.673,14.673,0,0,1,4.45-.055C184.679,249.919,184.6,249.992,184.569,252.11Zm-8.936,8.459,0-.006,0,0v.009l0,0,0-.012,0,0Zm2.232-9.99a12.418,12.418,0,0,0-2.664.147c.029,1.062.26,8.073.389,9.5.007.108-.068.075.5.115,1.74.085,4.744.149,7.027.11.186-2.186.426-9.186.455-9.761C181.457,250.306,180.106,250.665,177.865,250.579Zm-2.993.156,0,0h0l.018-.037Z"/><path class="a" d="M227.186,281.122c-13.668,1.769-54.494,4.578-70.317,4.154-8.5-.227-14.979-.263-24.622-6.689-2.784-1.856-11.558-8.668-8.964-14.511,2.762-6.224,10.239-1.144,14.227-.107,4.461,1.161,9.887,4.574,15.189,4.748,14.171.463,56.185-.437,69.831-1.969,4.654-.523,8.173-4.315,12.049-7.227,5.5-4.127,11.547-6.222,12.844-1.037C249.463,266.645,235.37,280.06,227.186,281.122Z"/><path class="a" d="M246.045,255.672c1.809,1.218,2.154,3.745,1.82,5.939-.768,5.022-5.611,10.771-9.876,14.133-2.831,2.288-7.133,5.212-10.775,5.6v0h0c-.014-.109-.055-.437,0,0-11.267,1.554-35.171,3.187-47.263,3.829-28.194,1.378-35.874.995-45.015-4.3-4.4-2.484-10.057-6.894-11.941-11.346-1.774-3.859-.03-7.534,2.641-8.654,2.728-1.1,6.283.357,9.048,1.479,4.072,1.634,2.738.821,5.853,2.036,2.228.853,4.207,1.783,6.751,2.652,3.518,1.187,4.967,1.128,8.391,1.188,19.559.317,61.6-.954,67.513-2.072,5.543-1.078,9.5-6.817,15.474-9.706C240.886,255.343,243.971,254.3,246.045,255.672Zm-4.956.64c-7.282,2.5-11.534,10.083-18.5,10.919-16.209,1.846-64.609,2.549-70.808,1.983-5.056-.5-9.65-3.357-14.608-4.762-3.851-1.113-9.841-4.977-12.681-1.351a5.935,5.935,0,0,0-.923,1.787c-.954,3.541,1.806,6.938,4.428,9.554a35.1,35.1,0,0,0,6.412,4.885c5.806,3.425,10.18,4.94,18.255,5.306,15.888.949,59.721-1.951,74.5-3.735v0a13.723,13.723,0,0,0,4.375-1.467,38.987,38.987,0,0,0,9.732-7.493c3.225-3.53,7.37-9.66,5.554-14.1C245.838,255.474,243.526,255.488,241.089,256.312Z"/><path class="b" d="M227.39,277.05c-13.668,1.769-54.494,4.578-70.317,4.153-8.5-.226-14.979-.263-24.622-6.688-2.784-1.856-11.469-6.266-8.875-12.109,2.765-6.223,10.149-3.546,14.138-2.509,4.461,1.161,9.886,4.574,15.189,4.747,14.171.463,56.185-.436,69.83-1.969,4.654-.522,8.173-4.315,12.05-7.226,5.5-4.128,11.108-3.484,12.405,1.7,1.384,5.545-4.338,10.291-8.109,13.433C236.5,272.731,231.806,276.477,227.39,277.05Z"/><path class="a" d="M163.1,281.723c-14.066.162-20.782-.152-30.6-6.538a51.243,51.243,0,0,1-6.6-4.587c-2.909-2.694-4.405-5.607-2.49-9.08,2.468-4.407,7.16-4.063,12.016-2.814a40.9,40.9,0,0,1,6.706,2.164,47.221,47.221,0,0,0,8.4,2.932c5.462,1.056,68.5-.174,74.119-2.027,4.15-1.391,7.452-5.072,10.616-7.181,7.108-4.678,12.75-1.448,12.485,4.747-.414,4.838-4.983,8.664-8.989,11.885-2.993,2.45-7.474,5.637-11.334,6.044v0h0C214.065,279.112,175.688,281.723,163.1,281.723Zm75.829-28.07c-5.083,1.792-8.31,7.018-13.782,8.949-6.267,2.175-55.895,2.732-63.777,2.719-12.594-.035-10.949-.008-20.466-3.745a41.9,41.9,0,0,0-6.225-1.918c-2.5-.613-5.447-1.13-7.784-.052a5.639,5.639,0,0,0-3.153,5.878c.7,3.432,5.286,6.237,8.07,7.985a55.848,55.848,0,0,0,6.694,3.885,31.956,31.956,0,0,0,9.83,2.837c10.258,1.282,33.049.026,43.378-.55,35-2.1,35.649-3.063,35.649-2.812a10.963,10.963,0,0,0,1.781-.4c4.043-1.063,9.922-6.034,12.975-8.895,2.856-2.773,5.507-6.02,4.8-9.923C246.287,254.18,243.4,252.17,238.928,253.653Z"/><path class="c" d="M174.877,258.687a83.583,83.583,0,0,0-1.774,9.036,4.334,4.334,0,0,0,.369,2.153c1.229,1.575,29.088,3,31.252,2.93.579-.02,1.63-.082,1.888-.708,1.076-2.624-1.256-3.542-3.358-4.629-4.673-2.417-19.274-8.923-19.4-8.863a10.308,10.308,0,0,1-5.448.909C176.525,259.3,175.249,258.562,174.877,258.687Z"/><path class="a" d="M179.152,259.277a10.05,10.05,0,0,0,4.635-1.035h0c.459-.059,19.2,8.079,21.961,9.959a3.09,3.09,0,0,1,1.658,3.121c-.259,1.816-1.264,2.073-3.27,2.038-3.7-.064-27.336-1.287-30.6-2.949a1.045,1.045,0,0,1-.569-.642,6.3,6.3,0,0,1-.142-2.9c.359-2.4,1.235-5.894,1.834-8.237h0C174.874,258.007,176.431,259.2,179.152,259.277Zm-5.678,8.412h0a4.57,4.57,0,0,0,.289,1.912c.532.552,7.325,1.349,18.806,2.077,8.721.515,12.929.79,13.407.328l.016-.007.01-.01.008,0,.01-.009.006,0,.04-.039,0-.006.008-.008v0l.01-.009v0l0,0v0l.006-.006a3.7,3.7,0,0,0,.213-.753,1.8,1.8,0,0,0,0-.54v-.016a1.863,1.863,0,0,0-.654-1.063,7.368,7.368,0,0,0-1.379-.909c-4.617-2.416-18.637-8.885-20.4-9.609-4.778,1.994-8.034-.019-8.816-.1A77.271,77.271,0,0,0,173.474,267.689Zm.309,1.937,0,.009-.006-.01h0Zm0,0-.006-.006Zm0,0-.007-.006Z"/><path class="d" d="M187.867,266.221a.56.56,0,0,1-.48-.844c1.176-1.984,1.471-2.743,2.243-4.075a.559.559,0,0,1,.967.561c-.727,1.257-1.144,2.22-2.248,4.084A.561.561,0,0,1,187.867,266.221Z"/><path class="d" d="M192.82,268.027a.56.56,0,0,1-.515-.777c.393-.928,1.4-3.105,1.653-3.865a.559.559,0,0,1,1.063.348c-.274.834-1.224,2.862-1.686,3.953A.559.559,0,0,1,192.82,268.027Z"/><path class="a" d="M180.454,84.92c.011.071-16.267-31.985-53.582-37.282-9.853-1.4-17.316,1.807-25.3,8.521-5.811,4.887-23.583,29.284-24.309,30.47-3.125,5.092-3.735,8.534-2.315,12.949.324,1.015,4.73,4.53,4.458,4.73-3.516,2.577-18.629,26.872-17.26,27.552,29.313,14.549,68.23,13.491,68.23,13.491a131.044,131.044,0,0,0,3.178-24.041,34.194,34.194,0,0,0,14.613-1.462l15.845,19.775,4.143-.871s-3.668-28.316-3.517-28.427a33.338,33.338,0,0,0,17.679,3.5c4.556-.3,8.992-3.981,10.9-7.715,5.482-10.73,8.333-19.346,11.706-30.2,1.613-5.192,3.928-17.236,3.928-17.236l-11.639-4.155C196.115,54.109,180.292,83.82,180.454,84.92Z"/><path class="a" d="M197.289,54.208c.131.041,11.724,4.1,11.854,4.268a.338.338,0,0,1,.056.264h0a160.933,160.933,0,0,1-6.593,25.793,151.03,151.03,0,0,1-9.065,21.974,16.173,16.173,0,0,1-7.1,6.709,11.482,11.482,0,0,1-4.73,1.141,33.647,33.647,0,0,1-16.483-3.2c.254,2.6,2.557,20.495,2.893,23.1.632,4.875.634,4.5.5,4.77h0c-.195.282-.092.2-3.271.869-1.422.3-1.321.307-1.559.223h0c-.213-.116.866,1.176-15.815-19.629a34.518,34.518,0,0,1-13.9,1.431c-.223,3.5-.374,5.751-.736,9.23-.7,6.749-2.208,14.13-2.549,14.572-.213.206-.348.184-.657.19-3.71.059-9.28-.085-15.817-.6C97.358,143.925,79.448,140.49,64,133.352c-2.016-.953-2.306-1.015-2.429-1.4-.784-2.39,14.4-25.549,17.14-27.746-1.048-1.091-3.854-3.4-4.246-4.446-.04-.1-.28-.885-.433-1.586-1.448-6.627,2.463-11.442,6.474-16.9,4.242-5.717,11.7-15.566,15.94-20.384a38.39,38.39,0,0,1,6.812-6.668c10.728-8.356,19.335-8.558,31.476-5.406a72.237,72.237,0,0,1,30.995,17.226,78.644,78.644,0,0,1,14.663,18.29c.018-.036.086-.211.126-.311,0-.661,14.049-27.891,16.374-29.711A.482.482,0,0,1,197.289,54.208Zm-33.038,55.779h0c.44-.438.7-.046,2.658.814a33.1,33.1,0,0,0,14.627,2.578,10.566,10.566,0,0,0,4.056-.847,15.163,15.163,0,0,0,7.08-6.379c.33-.582,2.3-4.546,3.39-7.007a156.2,156.2,0,0,0,5.68-14.641c3.473-10.322,4-12.308,6.711-25.6l-11.236-4.045c-2.208,2.132-15.21,26.256-16.539,30.022v.007l0,.007v.01h0a.246.246,0,0,1-.005.064l-.009.035a.239.239,0,0,1-.089.108l-.034.016c-.044-.109-.167-.4,0,0h0l-.036.011a.211.211,0,0,1-.076,0l-.036-.007c-.573-.224-7.811-16.458-28.164-28.339-11.588-6.721-24.467-9.415-31.277-9.028a28.2,28.2,0,0,0-14.488,5.237,52.241,52.241,0,0,0-5.081,3.935c-6.215,5.88-22.495,28-23.96,30.424-2.5,4.283-3.433,7.377-1.973,12.05,0,.394,3.411,3.426,4.173,4.227.238.275.414.515.282.862a24.612,24.612,0,0,0-2.851,3.252c-4.249,5.6-13.448,20.122-14.426,23.733,10.055,4.843,22.574,8.966,40.186,11.444a191.38,191.38,0,0,0,27.124,1.869c2.58-10.14,2.951-23.225,3.105-23.7.217-.446.566-.344,1.035-.3a33.766,33.766,0,0,0,11.692-.837c2.341-.591,2.415-.9,2.834-.466-.1.067,15.627,19.353,15.627,19.52l1.06-.222h0l2.267-.476h0C163.828,109.14,164.04,110.273,164.251,109.987Z"/><path class="b" d="M179.524,85.035a10.973,10.973,0,0,1,.8-1.452.235.235,0,0,1,.115-.065h0l.271.164h0l-.164.273.047-.019h0l.031-.02,0,0,.02-.016v0l.011-.013,0,0,.008-.01v0l.009-.012-.006.009.009-.011-.006.018,0-.006c-.023.058-.067.281-.154.686a40.572,40.572,0,0,1-2.367,7.482l-.258.181-.179-.26A21.273,21.273,0,0,1,179.524,85.035Z"/><path class="b" d="M163.348,80.41c.382,8.413,1.31,24.26,2.633,32.541.195,1.172.276,1.382.24,1.281l0,.009c-.065-.143-.161-.121-.271-.131l.28.15-.151.28h0l-.034.007a.224.224,0,0,1-.134-.022h0a15.72,15.72,0,0,1-.855-3.141c-2.01-9.465-2.415-21.146-2.158-30.908,0-.1-.03-.027.224-.287Z"/><path class="a" d="M113.3,124.292c3.822,1.049,3.726,1.025,3.874,1.277h0a1.042,1.042,0,0,1,.07.611c-.3,2.795-7.5,19.054-8.642,21.63-.506,1.13-4.351,9.73-5.2,10.612-1.991,1.823-21.82-2.677-24.443-3.285-4.452-1.052-26.407-6.294-26.929-10.83-.43-3.7,17.609-29.848,18.577-30.93a.239.239,0,0,1,.142-.074h0v0a.234.234,0,0,1,.065,0C72.623,113.566,106.861,122.535,113.3,124.292ZM52.957,144.169l0,.009v.02c1.595,5.9,41.966,13.435,48.048,13.552a4.588,4.588,0,0,0,1.627-.143c2.2-3.522,12.557-27.037,13.54-31.355.04-.223-41.891-11.649-45.312-12.482C69.019,116.165,52.957,140.529,52.957,144.169Z"/><path class="b" d="M110.7,124.1c3.639,1,6,1.66,6.021,1.713.606,1.455-12.7,31.529-13.747,32.238-.626.422-3.284.3-7.08-.222a162.045,162.045,0,0,1,6.334-15.952C103.088,139.926,107.219,130.942,110.7,124.1Z"/><path class="a" d="M110.719,123.883l.039.007c-.028.1-.032.117,0,0,.568.144,3.074.793,4.184,1.089,2.641.7,1.8.56,2.041.657a.967.967,0,0,1,.055.622c-.656,4.156-10.667,27.06-12.9,31-.658,1.3-.893,1.467-1.981,1.575a26.156,26.156,0,0,1-4.47-.211c-2.07-.236-2-.233-2.18-.39a.615.615,0,0,1-.075-.741c1.547-4.349,2.474-7.056,4.488-11.65l0,0c3.448-7.864,10.346-21.673,10.658-21.914A.223.223,0,0,1,110.719,123.883Zm-11.69,26.91c-.791,2.117-.683,1.762-2.384,6.579,1.075.143,4.922.6,5.943.253.758-.243,13.822-29.514,13.822-31.583l0,0c-.955-.32-4.61-1.38-5.6-1.667C107.131,132.036,101.852,143.565,99.029,150.793Z"/><path class="b" d="M126.712,47.657s8.221,6.118,4.861,18.889c-11.035,41.94-22.112,62.421-22.112,62.421l5.621,1.187s5.325-11.858,6.921-16c1.4-3.644,10.283-27.446,14.881-48.482a19.882,19.882,0,0,0-4.671-17.493S128.348,46.847,126.712,47.657Z"/><path class="a" d="M134.614,50.894A19.756,19.756,0,0,1,137.409,65c-.981,6.228-7.646,30.726-15.138,49.985-3.621,8.861-6.831,15.478-6.728,15.478-.338.423-.093.337-6.2-.955a.552.552,0,0,1-.441-.535c.074-.822,8.028-13.851,19.155-51.319,1.878-6.489,3.4-11.632,3.809-14.434A18.122,18.122,0,0,0,130.2,52.509a15,15,0,0,0-3.628-4.674l0,0-.028-.025a.222.222,0,0,1-.053-.208l0,0,.011-.035a.245.245,0,0,1,.1-.105,2.669,2.669,0,0,1,.768-.236,12.9,12.9,0,0,1,4.987.742h0A18.268,18.268,0,0,1,134.614,50.894Zm-7.454-3.163c5.408,4.861,6.466,11.855,4.771,18.909-.03.1-9.536,38.515-21.64,61.934,4.312.91,3.571.776,3.676.776l.791.167c4.5-10.17,5.639-12.6,8.228-19.581A390.227,390.227,0,0,0,136.5,65.585,19.509,19.509,0,0,0,132.068,48.4C130.722,47.965,128.526,47.4,127.16,47.731Z"/><path class="a" d="M75.067,101.453c.346-.454.816-1.151,1.165-.753a.286.286,0,0,1,.056.2l-.2.247c-.294-.236.256.35-4.366,7.263-1.044,1.553-2.088,2.818-2.3,3.173l-.305.086-.084-.3C69.527,110.425,70.2,108.172,75.067,101.453Zm.771-.513,0-.011,0,.015,0-.01,0,.014,0,0,.006.01,0-.005.006.011,0,0,.006.011,0,0,.008.012,0,0,.009.012,0,0,.011.012,0,0,.012.012,0,0,.014.012-.006,0,.017.011,0,0,.017.011h0l.017.009h0l.017.008h0l.02.006h0l.019,0h0l-.128-.106,0-.01,0-.006v.008l0-.012Z"/><path class="b" d="M101.654,143.023c-21.223.057-42.293-10.706-43.319-12.226-.95-1.409,9.794-19.014,10.837-19.45,2.183-.913,43.087,9.7,43.551,10.236C113.313,122.258,104.852,143.014,101.654,143.023Z"/><path class="a" d="M69.667,110.735c5.314.044,41.906,9.617,43.277,10.459.468.316.19,1.041-.076,1.944a92.254,92.254,0,0,1-7.706,16.583c-.691,1.048-2.253,3.524-3.505,3.524h0v0c-11.7.13-24.265-2.968-35.112-7.5a51.152,51.152,0,0,1-8.059-4.1c-.374-.281-.631-.474-.724-.9a5.973,5.973,0,0,1,.64-2.441,117.955,117.955,0,0,1,9.445-16.284C68.548,111.09,68.731,110.728,69.667,110.735Zm-.258,1.125c-1.312,1.209-10.285,15.785-10.6,18.612,0,1.5,22.972,12.194,42.844,12.326v0c2.768-.072,10.131-17.914,10.641-20.921C108.611,120.6,69.409,110.741,69.409,111.86Zm42.9,9.854h0v0Zm0,0h0l0,0Z"/><path class="b" d="M80.514,135.478a25.188,25.188,0,0,0-3.541,5.664c-.022.345,4.313,1.685,4.813,1.445a59.3,59.3,0,0,0,3.463-5.672C85.087,136.574,81.56,135.189,80.514,135.478Z"/><path class="a" d="M85.73,136.95a42.7,42.7,0,0,1-3.346,5.8.818.818,0,0,1-.665.416,14.959,14.959,0,0,1-4.74-1.354c-.859-.477-.521-.979.025-1.969a31.889,31.889,0,0,1,3.094-4.308.783.783,0,0,1,.478-.312v.007c1.005-.236,3.744.59,4.657,1.082C85.523,136.471,85.71,136.619,85.73,136.95Zm-8.156,3.991a18.123,18.123,0,0,0,3.938,1.115c.665-.931,2.421-3.85,3.125-5.014-.87-.466-3.122-1.478-4.033-1.356h0A38.73,38.73,0,0,0,77.574,140.941Zm-.087.254v0Zm7.391-3.993-.014-.011.008.01-.008-.009.016.017,0-.006.014.011Zm-.017-.013Zm-4.265-1.5-.012,0v0h-.005l.014-.005,0,0Zm0,0Zm-.02-.456v-.007C80.442,135.268,80.474,135.252,80.576,135.232Z"/><path class="b" d="M123.361,72.189a84.772,84.772,0,0,1-5.638,11.693c-4.8,8.227-7.424,9.863-7.91,10.411l0-.005-.017.019.008-.01-.008.011.006-.01h0l0,0,0-.008,0,0,0-.01,0,0,0-.012v0l.006-.016,0,0,.006-.019v0l0-.024v0a.241.241,0,0,0-.025-.125l-.019-.03-.034.316-.316-.032c-.266-.335.246-.323,2.583-3.539,1.752-2.474,3.967-6.055,5.395-8.644.1-.1,5.5-10.083,5.554-10.184l.3-.109Z"/><path class="a" d="M151.852,124.456l-.053.311a12.974,12.974,0,0,1-1.264.919c-3.893,2.454-10.377,4.094-17.514,3.106l-.21-.239.241-.209c5.469-.042,12.242-.918,17.165-3.23C151.85,124.365,151.256,124.361,151.852,124.456Z"/><path class="b" d="M136.1,53.639c.906.747,5.129,4.355,5.867,4.684,1,.446,4.352.969,4.651-1.046,3.4,4.3,4.934,9.674,6.186,15.2,2.6,11.487.433,23.169-1.764,34.6-.835,4.357-1.408,8.843-2.563,13.1l-.008.04-.3-.367a34.178,34.178,0,0,1-14.471,1.478c-.453-9.571,4.335-20.339,6.39-40.958.578-5.809,1.775-12.054.931-17.8C140.722,60.529,139.43,59.048,136.1,53.639Z"/><path class="a" d="M136.21,53.447c.729.5,4.521,3.841,5.753,4.551.773.455,3.128.669,3.871.019a1.1,1.1,0,0,0,.327-.375c.188-.313.035-.561.372-.682.293-.053.386.165.581.42,3.554,4.522,5.31,10.991,6.468,16.63,2.108,10.25.128,22.069-1.8,32.1-1.159,6.18-1.718,10.406-2.739,14.114-.08.286-.121.41-.414.528a.557.557,0,0,1-.595-.185h0c-.239-.3-5.131,2.264-14.39,1.316a.559.559,0,0,1-.486-.44,29.953,29.953,0,0,1,.056-3.876c.524-7.657,3.965-17.337,6.289-35.835.821-7.355,1.874-12.913,1.314-18.31a6.676,6.676,0,0,0-.7-2.706c-1.165-2.289-4.231-6.792-4.231-7.1a.215.215,0,0,1,.19-.2h0A.234.234,0,0,1,136.21,53.447Zm.973,1.488a62.5,62.5,0,0,1,3.7,6.075c1.142,2.514.742,8.917.45,11.884a245.055,245.055,0,0,1-5.213,34c-.971,4.427-2.006,9.377-1.884,13.93a33.13,33.13,0,0,0,13.9-1.525c.864-3.554,1.09-5.148,1.918-9.852,1.613-9.153,3.981-19.043,3.337-29.372-.462-7.382-2.721-15.146-4.866-19.212a24.571,24.571,0,0,0-1.8-2.9c-.556,1.005-1.943,1.144-3.092,1.042-1.792-.19-2.124-.524-4.464-2.475C136.76,54.526,136.989,54.636,137.183,54.935Z"/><path class="b" d="M135.2,52.532c1.319,1.421,5.53,8.019,5.825,10.039.844,5.743-.353,11.988-.931,17.8-.6,6.044-1.6,12.031-2.762,17.973-1.006-5.75-2.985-14.8-3.849-19.084q.466-1.677.914-3.367c1.722-1.255,4.213-3.106,4.151-3.3-.039-.128-1.518-1.1-2.789-2.045q.6-2.454,1.129-4.878A19.5,19.5,0,0,0,135.2,52.532Z"/><path class="a" d="M135.45,52.474c1.511,1.727,5.468,7.714,5.931,9.962.8,5.733.111,10.048-.69,17.168a181.509,181.509,0,0,1-2.885,19.023.556.556,0,0,1-.671.236c-.456-.216-.22,0-1.322-5.543-3.211-16.245-3.108-13.243-2.5-15.463a15.753,15.753,0,0,1,.651-2.263c.116-.142-.019-.021,1.33-1,.235-.174,2.282-1.683,2.552-1.955-.262-.2-.107-.062-2.241-1.634-.212-.162-.333-.261-.288-.562,1.494-6.047,2.815-9.83.26-16.513-.6-1.447-.686-1.353-.548-1.539C135.187,52.239,135.3,52.314,135.45,52.474Zm1.889,42.85c1.5-8.106,1.859-11.693,2.382-16.383.433-3.893,1.473-10.086,1.09-14.71-.124-1.995-.262-2.43-1.593-4.994-1-1.855-2.209-3.8-2.927-4.848,0-.1.484,1.352.515,1.453a19.4,19.4,0,0,1,.788,7.844c-.206,1.859-1.292,6.566-1.328,6.667.838.6,2.3,1.588,2.493,1.765a.566.566,0,0,1,.135.854,49.145,49.145,0,0,1-4.039,3.232l-.068.244h0c-.192.748-.577,2.161-.76,2.828C134.133,79.276,136.928,93.189,137.339,95.324Zm.828-22.434,0,0h0Z"/><path class="a" d="M93.062,236.736l.031.022h0a21.311,21.311,0,0,1,3.507,2.73,15.533,15.533,0,0,1,3.29,3.071c.215.309.359.5.154.824-.7.89-6.4,6.315-7.516,7.272v0c-.294.233-.52.451-.911.252a67.42,67.42,0,0,1-5.962-6.059c-.429-.557-.18-.788,1.722-2.763,1.193-1.236,4.225-4.2,5.355-5.269C92.835,236.72,92.91,236.659,93.062,236.736ZM86.6,244.4c.648.79,4.066,4.169,5.3,5.326,1.594-1.392,6.916-6.525,7.108-6.706a15.243,15.243,0,0,0-2.817-2.889,27.4,27.4,0,0,0-3.223-2.9C92.448,237.8,87.1,243.723,86.6,244.4Zm-.153.211,0-.006v0l0,.007v0l0-.011v0Zm6.283-7.6h0Z"/><path class="a" d="M152.33,101.694a10.8,10.8,0,0,0,.961,6.188c1.94,4.527,6.663,9.876,7.782,11.38,3.059,3.963,5.254,10.372,6.476,15.329a29.731,29.731,0,0,1,.724,3.876c-.014.1,0,.213-.14.3l-.307-.089.089-.305-.025.016a.2.2,0,0,0-.072.108v0l0,.011,0-.01,0,.008v-.056a65.473,65.473,0,0,0-3.318-10.368c-2.607-6.044-3.248-6.826-5.551-9.7-3.384-4.286-8.239-10.462-7.161-16.251.12-.645.074-.5.374-.7Z"/><path class="c" d="M87.212,242.728A83.693,83.693,0,0,0,79.659,248a4.333,4.333,0,0,0-1.23,1.8c-.209,1.987,18.839,22.366,20.447,23.816.43.389,1.23,1.074,1.85.8,2.6-1.14,1.557-3.42.8-5.662-1.682-4.984-7.667-19.807-7.8-19.851a10.292,10.292,0,0,1-4.55-3.13C87.972,244.314,87.567,242.9,87.212,242.728Z"/><path class="a" d="M97.828,257.617c.808,1.988,4.712,11.619,5.053,13.775a2.948,2.948,0,0,1-1.669,3.413c-1.147.626-2.134-.186-3.066-1.118-3.04-3.04-18.137-19.3-19.9-23.126-.316-.668-.3-.941.2-1.724a10.468,10.468,0,0,1,3.035-2.683c1.913-1.315,3.655-2.407,5.615-3.616l0,0c.539-.278.849,1.348,2.351,3.116a10.013,10.013,0,0,0,4.276,2.859C94.019,248.619,93.824,247.842,97.828,257.617ZM79.95,248.231a4.7,4.7,0,0,0-1.121,1.576v.013l0,.006v.008c.816,2.692,18.1,21.054,19.767,22.724a5.508,5.508,0,0,0,1.694,1.347l.045.009.017,0h.014l.008,0h.014l.006,0h.056l0,0h.011l0,0h.014l0,0h0l0,0h.009a2.979,2.979,0,0,0,.931-.635c.041-.041.079-.1.109-.134l.008-.017.011-.011a3.474,3.474,0,0,0-.092-2.83c-1.677-5.045-7.255-19.382-8-21.083-4.822-1.884-5.769-5.6-6.275-6.193A67.848,67.848,0,0,0,79.95,248.231Zm-1.124,1.607,0,.009,0-.012h0Zm0,.006v0Zm0,0v0Z"/><path class="b" d="M151.978,124.6c8.654,10.8,3.981,4.993,6.638,8.431,21.512,27.794,30.273,38.139,39.132,56.7,4.6,9.647.508,25.89-2.407,38.13-2.409,10.133-6.786,22.764-6.862,22.82-.319.234-15.4-.154-16.673-1.885-2.1-2.864-.606-40.74-.606-40.74l-20.192-21.545s1.884,20.014-4.009,28.182c-18.213,25.256-46.765,32.613-46.765,32.613s-9.886-9.3-10.982-10.553c-.654-.746,23.334-33.356,29.209-39.619-4-9.054-11.2-19.652-16.315-38.864a1.922,1.922,0,0,0,.827-.215c.478-.323,3.494-6.723,6.58-13.741a176.157,176.157,0,0,0,20.827,1.037,110.865,110.865,0,0,0,2.649-16.718C141.244,128.987,147.835,127.123,151.978,124.6Z"/><path class="a" d="M186.62,169.5A147.959,147.959,0,0,1,197.5,188.243a22.49,22.49,0,0,1,2.633,9.328,52.735,52.735,0,0,1-.386,10.949,233.806,233.806,0,0,1-10.249,40.865c-.578,1.644-.49,1.789-1.2,1.849-1.992.139-15.789-.186-16.969-2.21-2.063-3.066-.827-36.853-.685-40.563.008-.283,1.153,1.026-10.571-11.475-9.107-9.712-8.4-9-8.389-8.9.409,6.983.229,17.817-2.683,24.187-.9,2.2-3.325,5.193-4.981,7.167a93.633,93.633,0,0,1-42.782,28.15c-.936.277-1.076.355-1.372.112-2.3-2.162-5.343-5.049-7.953-7.558-3.286-3.178-3.176-3.094-3.211-3.4,0-2.142,23.546-33.465,29.181-39.709-2.917-6.535-6.5-12.117-10.968-23.066a134.81,134.81,0,0,1-5.168-15.664c0-.58.534-.366.989-.579h0c.535-.215,6.471-13.561,6.544-13.661.318-.308.237.05,8.933.609,4.913.31,9.1.4,11.921.361a102.106,102.106,0,0,0,2.186-12.25c.526-4.463.346-4.245.592-4.4.389-.161,7.884.776,15.8-2.408,3.038-1.258,3.12-1.778,3.419-1.548l.025.026c-.208.166-.2.163,0,0C157.05,130.515,179.982,159.62,186.62,169.5Zm-46.527-40.864a43.569,43.569,0,0,1-6.815.283h0a110.689,110.689,0,0,1-2.53,16.246c-.062.265-.059.392-.262.485a81.8,81.8,0,0,1-9.21-.116c-9.248-.4-11.53-.985-11.53-.742-1.953,4.5-3.539,7.9-5.031,10.991-1.232,2.47-1.359,2.666-2.058,2.82a127.31,127.31,0,0,0,4.8,14.347c4.8,11.824,11.5,23.04,11.5,24.224-.091.53-.087-.351-9.288,11.688-3.852,5.032-16.542,22-19.82,27.733.549.676,10.438,10,10.54,10.1,7.84-2.091,20.353-8.115,29.687-15.43,7-5.381,13.426-12.323,16.542-16.992,3.842-5.283,4.257-16.554,4.089-23.076-.125-4.788-.38-4.594-.162-4.987a.552.552,0,0,1,.64-.226c.228.1-.518-.65,9.774,10.328l0,0c11.5,12.274,10.719,11.359,10.792,11.674,0,.1-1.45,38.177.492,40.5l0,0v0l.006,0,0,.007.006,0a2.946,2.946,0,0,0,.975.433c3.2.959,12.449,1.387,14.873,1.266.444-1.2,1.634-4.795,2.052-6.1A236.868,236.868,0,0,0,196.5,220.83c1.922-8.586,4.755-22.152,1.143-30.3-.869-1.962-2.586-5.314-3.563-7.179a166.688,166.688,0,0,0-13.068-20.555c-5.636-7.744-23.585-30.986-29.091-37.905A30.208,30.208,0,0,1,140.093,128.637Z"/><path class="a" d="M149.646,158.158c1.9,11.689,1.708,29.664,1.708,28.919l-.058,0,.055.084h0l-.011.037a.351.351,0,0,1-.042.066l-.028.027-.033.021a.274.274,0,0,1-.073.025l-.039,0c-.219-.025-.216-.181-.235-.392-1.161-13.424-1.679-28.634-1.685-28.747l.2-.244Z"/><path class="b" d="M138.653,100.324c.028.025-.1.256-.112.292-.1.375-3.357,17.807-3.1,18.746.71,2.668,8.589,3.9,9.741,1.932.569-.967,6.651-18.586,6.443-18.77s-12.824-2.516-12.71-2.484"/><path class="a" d="M138.435,100.306v0l0,.008,0-.008v0l0,.009v.017a.238.238,0,0,0,.017.085c.061.112.038.094.048-.255l.232.006-.006-.008-.017-.033a.252.252,0,0,1-.017-.072v-.038a.644.644,0,0,1,.02-.072l.02-.032a.3.3,0,0,1,.053-.053c.177-.111,8.366,1.326,8.768,1.4,4.524.8,4.357.773,4.531,1.125a.65.65,0,0,1-.087.6l0,.007c0,1.184-5.393,16.172-5.965,17.748-.387.971-.558,1.4-1.686,1.792-2.49.836-8.254-.2-9.346-2.823-.122-.351-.145-.533.044-1.927.564-4.262,3.167-16.862,3.287-17.24.016-.03.1-.2.109-.227v0Zm.5-.046.006-.061-.078.04c.052.138-.013.259-.1.438,0,.1-2.82,16.656-2.82,18.564l0,0v.005c.5,1.837,5.845,2.973,8.039,2.226a1.335,1.335,0,0,0,.71-.461c.243-.146,6.368-17.8,6.334-18.1,0-.048,0-.036.006-.07C147.537,102.008,138.761,100.259,138.935,100.26Zm13.015,2.791,0,.009,0-.012h0Zm0,0v0l0-.007Zm-.534-.107h0l0,0h0l.012,0ZM138.757,100.7l0-.008h0Z"/><path class="d" d="M91.711,257.329a.559.559,0,0,1-.148-1.1c2.236-.614,2.946-.946,4.446-1.374a.559.559,0,0,1,.306,1.075C95.216,256.246,92.068,257.329,91.711,257.329Z"/><path class="b" d="M140.061,96.969a9.467,9.467,0,0,0-2.307,3.95c-.057.236,12.081,3,14.454,3.185.476.037.286-3.488-.053-4.045C151.826,99.523,140.061,96.969,140.061,96.969Z"/><path class="a" d="M152.436,99.58a1.222,1.222,0,0,1,.386.75,12.223,12.223,0,0,1,.225,2.587c-.012.713-.045,1.441-.582,1.7-.851.326-13.194-2.578-14.8-3.288a.467.467,0,0,1-.257-.224.432.432,0,0,1-.008-.36,9.819,9.819,0,0,1,2.453-3.891C140.4,96.61,151.463,98.86,152.436,99.58Zm-14.226,1.1c0,.1,10.473,2.344,13.683,2.827a10.043,10.043,0,0,0,0-1.955h0a6.88,6.88,0,0,0-.173-1.136c-.943-.431-11.076-3.086-11.582-3.2A9.62,9.62,0,0,0,138.21,100.684Zm13.584-.223Zm0,0Z"/><path class="d" d="M93.8,260.994c.919-.391,3.172-1.261,3.874-1.632a.559.559,0,0,1,.522.989c-.786.415-2.878,1.212-3.958,1.672A.559.559,0,0,1,93.8,260.994Z"/><path class="b" d="M131.928,108.5a17.9,17.9,0,0,0,2.365.5c.1-.055,1.445-4.115,2.275-3.62,0,0,.735-.008.676,1.255,0,.154-.724,3.177-.475,3.233,5.071,1.138,5.563.023,5.99,1.345.693,2.14-5.856,1.858-5.8,1.875,1,.3,5.135-.287,6.141.377.593.39.2,1.188-.274,1.811-.746.976-6.272.64-6.272.64s4.746.214,5.71,1.009c.417.344-.511,1.335-1.154,1.4a26.336,26.336,0,0,1-11.189-2.022"/><path class="a" d="M136.582,115.371c1,.055,4.958.156,5.783-.42l0,0c.011-.007,0-.005.017-.013v0h0v0a1.966,1.966,0,0,0,.456-.925v-.015l0,0v-.012h0v-.008h0v-.005h0v0h0v0h0v0h0v0c-.729-.509-4.121-.11-5.6-.258-.439-.053-.608-.1-.766-.379a.553.553,0,0,1,.229-.706,13.621,13.621,0,0,1,2.3-.106c.771-.049,2.787-.221,3.245-.838l0-.007h0l0-.008.006-.007,0-.013.006-.007.011-.025v-.006l.006-.012v-.007l0-.006v-.006l0-.007v-.014l0-.007v-.042l0-.009a.947.947,0,0,0-.145-.4l-.006-.006,0,0v0h0v0h0c-.408-.2-1.637.08-4.76-.593-.97-.211-1.208-.171-1.057-1.287.074-.557.51-2.486.54-2.591a1.6,1.6,0,0,0-.056-.587l-.006-.02,0-.01-.006-.018,0-.009,0-.008-.006-.009,0-.015-.006-.007-.006-.014,0-.006,0-.006,0-.006,0-.006c-.013-.019-.036-.043-.053-.063l-.009-.006,0,0c-.078-.047-.064-.037-.09-.046l.006,0h0l-.017,0h.006a.356.356,0,0,1-.12-.024c.116,0-.223-.433-1.527,2.575-.594,1.351-.13,1.128-2.923.431h0l-.051-.011h.006l-.017,0h.006a.168.168,0,0,0,.031,0l.028-.006.044-.018-.3-.089h0l.089-.3a21.2,21.2,0,0,1,2.292.431c.369-.929,1.105-3.189,1.965-3.677h0a.717.717,0,0,1,.386-.091h0a1.163,1.163,0,0,1,.883.456,1.536,1.536,0,0,1,.268.67c.119.558-.04.824-.357,2.774-.009.068-.073.529-.073.615a22.7,22.7,0,0,0,3.723.458c1.017.032,1.838-.079,2.236.811a1.41,1.41,0,0,1-.011,1.481,1.743,1.743,0,0,1-.478.484,1.668,1.668,0,0,1,1.087.6,1.256,1.256,0,0,1,.193.972,3.455,3.455,0,0,1-.741,1.416,1.621,1.621,0,0,1-.55.358c-.614.259-.708.112-.417.258a1.464,1.464,0,0,1,.442.315h0c.666.741-.55,2.047-1.509,2.143a26.307,26.307,0,0,1-11.2-2.225c-.146-.063-.087.014-.243-.336.344-.148.263-.137.405-.083a29.373,29.373,0,0,0,9.09,1.8,14.123,14.123,0,0,0,1.914-.085.892.892,0,0,0,.2-.093,1.57,1.57,0,0,0,.515-.5l0-.007.006-.008a18.112,18.112,0,0,0-4.738-.751c-.5-.029-1.079.041-1.1-.6a.545.545,0,0,1,.472-.509l.1,0Zm5.3,1.781h0v0l0,0Zm0,0v0l0-.008,0,.013v0Zm-4.705-7.444,0,.009,0-.012v0Zm0,0,0,.006,0-.009Zm-2.971-.973h0Zm0,0h0l.008,0Zm2.216-3.027h0Zm0,0Zm0,0Zm0,0Zm0,0h0Zm0,0Zm0,0Zm0,0h0l.006,0Zm0,0h0l.009,0Zm0,0,.012,0h-.009l.011,0-.011,0,.009,0Z"/><path class="a" d="M207.352,45.526h0l.058-.041c.012-.011.021-.02.034-.03l0,0c.006-.005.017-.019.025-.027v0l0,0a1.673,1.673,0,0,0-.028-.7l0-.014c-.012-.031-.018-.044-.028-.067v0c0-.007-.046-.089-.047-.092a5.388,5.388,0,0,0-2.287-1.156,5.1,5.1,0,0,0-1.369-.142,4,4,0,0,0-3.318,1.78h0c-.522.85-.282,3.8-.456,3.785-.041.13.015-.04-.187.54-1.973,5.621-1.781,5.392-1.781,5.291v.012l0,.01v-.015l0-.014v0l0-.017v0c-.058-.216-.053.04-.067.233l-.316-.023a.367.367,0,0,1-.047-.339c.073-.721,1.315-5.2,1.489-5.813h0c.157-.549-.22-2.846.427-4.13h0a4.713,4.713,0,0,1,2.714-2.146,5.809,5.809,0,0,1,2.781-.183,8.248,8.248,0,0,1,2.8,1.133,2.091,2.091,0,0,1,.839,2.053,1.2,1.2,0,0,1-.405.848,1.527,1.527,0,0,1-.249.186h0a8.324,8.324,0,0,1-3.866.576,7.212,7.212,0,0,1,.685,1.791,4.7,4.7,0,0,1-.461,3.485l-.3.093-.093-.3c.863-1.665.153-3.782-1.009-5.257a.456.456,0,0,1,.355-.766A11.11,11.11,0,0,0,207.352,45.526Zm.123-.111h0Z"/><path class="a" d="M210.9,53.453a8.613,8.613,0,0,1-.537,2.055,6.191,6.191,0,0,1-2.172,2.832l-.313.038c-.048-.418-.07-.207.148-.72.468-1.077.657-1.238,1.348-2.6l0,0a10.153,10.153,0,0,1,1.11-1.777l.294-.119Z"/><path class="a" d="M203.288,46.116c.893.051,3.738.107,4.343-.559l0-.006.011-.012,0-.006.006-.006,0-.011.006-.006,0-.011,0-.009,0,.008,0-.01.006-.009,0,.009.006-.02,0,.009,0-.02,0,.009.005-.02v.009a1.7,1.7,0,0,0-.095-1,1.234,1.234,0,0,0-.268-.335,6.182,6.182,0,0,0-3.955-1.175c-.692.063-.7.451,3.678-13.655.124-.395.118-.649.774-.734,2.237-.244,10.089,1.083,12.9,3.2.6.5.695.643.657,1.016-.4,1.857-6.111,17.965-7.136,20.474-.306.756-.245,1.125-2.208.8a52.313,52.313,0,0,1-7.136-1.915c-.579-.2-1.062-.249-.962-.823.523-1.279-.167-3.446-1.037-4.527A.413.413,0,0,1,203.288,46.116Zm2.848-3.254a7.343,7.343,0,0,1,1.534.763,1.871,1.871,0,0,1,.425.457,1.972,1.972,0,0,1,.1,1.836c-.534.92-3.174,1.006-4.193,1.023a6.248,6.248,0,0,1,.962,4.189c1.638.524,6.475,1.926,8.167,1.95.665-1.668,2.1-5.7,2.641-7.239h0c1.6-4.517,4.56-12.984,4.45-13.09-2.076-1.8-9.911-3.474-12.293-3.3l-.036.112-.006,0c-1.038,3.045-3.359,9.856-4.357,12.91A5.921,5.921,0,0,1,206.136,42.862Z"/><path class="a" d="M216.212,31.68a7.5,7.5,0,0,1,2.77,1.63c.358.367.227.567-.1,1.6-1.453,4.456-4.828,13.871-5.828,16.382-.183.429-.226.676-.719.745-1.373.168-6.085-1.281-7.924-2.034a.472.472,0,0,1-.344-.426,5.541,5.541,0,0,0-.226-.973c-.561-1.514-.717-1.2-.556-1.719.251-.843.252-.749.989-.741a9.162,9.162,0,0,0,3.027-.361.841.841,0,0,0,.364-.256l0,.006c.008-.011.008-.012.017-.026v0l0-.005,0-.007V45.5l.006-.015,0,.006.006-.015,0,.007,0-.016,0,.007,0-.016,0,.007.006-.016,0,.006a2.144,2.144,0,0,0,.039-.461,1.239,1.239,0,0,0-.7-1.108,8.746,8.746,0,0,0-1.836-.8c-.4-.113-.269-.059-.353-.111a.228.228,0,0,1-.075-.2l.008-.036h0c.032-.1,3.394-11.073,3.7-11.789a.667.667,0,0,1,.481-.3,10.466,10.466,0,0,1,2.63.034.553.553,0,0,1,.352.572c-.052.6-.2.572-.03.6,1.332.245,2.913.742,3.413.884C215.431,32.214,215.549,31.544,216.212,31.68Zm-6.979-.155-.025.074H209.2c-.486,1.357-3.057,8.544-3.913,11.037a6.166,6.166,0,0,1,1.006.32c1.309.531,2.159.956,2.049,2.433a.965.965,0,0,1-.316.709,4.787,4.787,0,0,1-2.51.765c-1.6.145-1.364-.029-1.436.225a7.138,7.138,0,0,1,.849,2.133,35.806,35.806,0,0,0,7.089,1.76c.033-.1,4.9-13.344,6.029-17.058,0-.006-.11-.1-.115-.1a6.9,6.9,0,0,0-1.56-.922,1.356,1.356,0,0,1-.419.928c-.445.261-.422-.039-3.516-.819-1.434-.349-1.917-.117-1.565-1.434l0,0A9.367,9.367,0,0,0,209.233,31.525ZM212.2,50.974h0Zm-.447-18.794v0Zm0-.005v0Z"/><path class="b" d="M218.464,43.049c.022-.091.139-1.341-.532-1.658a7.912,7.912,0,0,0-3.1-.484c-1.273-.042-1.826.163-2.206,1.555-.355,1.3,2.161,1.744,3.448,2.067C217.53,44.9,218.091,44.633,218.464,43.049Z"/><path class="a" d="M218.676,43.129c-.195,1.577-.919,2-1.977,1.963a17.429,17.429,0,0,1-2.239-.415c-1.206-.325-2.564-.9-2.409-2.155a3.5,3.5,0,0,1,.7-1.539,1.969,1.969,0,0,1,1.388-.611,11.679,11.679,0,0,1,3.057.315c1.24.367,1.541.725,1.549,1.935A2.386,2.386,0,0,1,218.676,43.129Zm-4.659-1.65a.956.956,0,0,0-.321.127,2.2,2.2,0,0,0-.544,1.084l0,.005,0,.013,0,0v0a.5.5,0,0,0,.008.056l.006.016,0,.007a.307.307,0,0,0,.031.06h0a2.666,2.666,0,0,0,1.209.68c.256.1,2.249.674,2.422.706a1.876,1.876,0,0,0,.542.007.587.587,0,0,0,.154-.056l0,0a2.128,2.128,0,0,0,.713-1.18h0v0c.031-.252-.092-1.049-.374-1.228A10.925,10.925,0,0,0,214.017,41.479Z"/><path class="b" d="M216.483,49.9c.02-.083.128-1.215-.456-1.5a6.631,6.631,0,0,0-2.7-.425c-1.111-.032-1.592.158-1.929,1.419-.313,1.176,1.831,1.559,3,1.858C215.654,51.579,216.15,51.348,216.483,49.9Z"/><path class="a" d="M216.7,49.981c-.239,1.446-.581,1.35-.6,1.482a1.965,1.965,0,0,1-1.674.282c-1.692-.311-3.929-.759-3.571-2.448.245-.923.633-1.6,1.528-1.8a8.034,8.034,0,0,1,3.291.326c.613.242.98.446,1.078,1.191A2.937,2.937,0,0,1,216.7,49.981Zm-3.577-1.475c-.667,0-.76.162-.851.267v0a2.453,2.453,0,0,0-.338.84v.02l.009.046,0,.006,0,.006.016.033h0a2.178,2.178,0,0,0,.99.58c.34.125,1.872.584,1.973.611a1.108,1.108,0,0,0,.726-.014h0c.306-.159.546-.869.616-1.041h0l0-.011c-.013.1.008-.157-.029-.373a1.4,1.4,0,0,0-.237-.648c-.074-.073-.094-.076-.242-.125A9.206,9.206,0,0,0,213.12,48.506Z"/><path class="b" d="M217.555,46.532c.023-.091.136-1.341-.627-1.67a10.113,10.113,0,0,0-3.5-.534c-1.427-.062-2.056.127-2.465,1.523-.384,1.315,2.53,1.8,3.924,2.126C216.479,48.354,217.149,48.155,217.555,46.532Z"/><path class="a" d="M216.831,48.327h0a2.668,2.668,0,0,1-1.42.2A14.169,14.169,0,0,1,211.4,47.5a1.607,1.607,0,0,1-1.011-1.614,3.236,3.236,0,0,1,.771-1.531c.636-.707,1.846-.584,2.729-.528.937.06,2.737.26,3.455.875a2.048,2.048,0,0,1,.446,1.829A2.242,2.242,0,0,1,216.831,48.327ZM212.95,44.85a1.226,1.226,0,0,0-1.138.442,2.755,2.755,0,0,0-.32.738l0,0,0,.039,0,0v.013l0,0,0,.009,0,0v.006l0,0v0l0,0v0l0,0v0l0,0v0a1.308,1.308,0,0,0,.638.495,30.747,30.747,0,0,0,3.658,1.082,1.772,1.772,0,0,0,.722-.028h0c.419-.142.685-.783.828-1.2h0v0l0,.007a1.711,1.711,0,0,0-.352-1.175C216.441,44.853,213.661,44.843,212.95,44.85Z"/><path class="b" d="M137.462,34.056s-3.39-5.962-7.493-1.823a3.638,3.638,0,0,0-.668,1.543,3.9,3.9,0,0,0-.154,1.7,5.1,5.1,0,0,0,3.6,3.7c.481.081.973.193,1.44.309.109.027.536-.08.614,0s-2.454,8.677-2.929,9.153c-.067.068,6.5,8.089,10.093,9.686,1.158.514,3.914.837,4.433-.43.828-2.033-1.951-5.858-2.082-6.119a20.774,20.774,0,0,1,1.236-4.474c.123-.126.659-.06.872-.1.874-.174,1.671-.18,2.571-.308,1.219-.174,2.387-.856,3.6-.977,1.837-.184,3.765-.255,5.244-1.44,1.99-1.591,1.646-3.9,1.646-6.171a8.045,8.045,0,0,0-.05-1.8c-.059-.232-.428-.5-.257-.669.195-.2.623-.234.872-.36.679-.339,1.934-1.688,1.492-2.571A10.622,10.622,0,0,0,160,30.176c-.6-.6-1.521-1.4-1.337-2.314.481-2.406.445-5,.926-7.4.1-.507.629-2.023.1-2.416-1.439-1.079-4.131-.718-5.761-.515-4.181.523-8.147,1.2-11.876,3.189a8.915,8.915,0,0,0-2.882,2.057C137.557,24.848,137.177,34.342,137.462,34.056Z"/><path class="a" d="M131.514,48.321h0l0,0h0a88.233,88.233,0,0,0,2.776-8.427.756.756,0,0,1-.176-.01c-1.616-.37-2.539-.364-3.919-1.79a5.163,5.163,0,0,1-1.375-2.48,3.788,3.788,0,0,1-.034-.972,5.7,5.7,0,0,1,.322-1.361,2.639,2.639,0,0,1,.74-1.365c2.579-2.434,5.232-1.554,7.3,1.252,0-2.283.339-7.041,1.1-9.182a4.241,4.241,0,0,1,1.828-2.51,23.3,23.3,0,0,1,6.625-3.033c2.408-.7,8.388-1.815,10.917-1.59a4.458,4.458,0,0,1,2.5.9c.595.641.183,1.892.011,2.667-.422,1.694-.522,5.83-.945,7.6v.012l0,.012v.023c-.125.522,1.273,1.765,1.565,2.149a12.609,12.609,0,0,1,1.137,2.135,1.763,1.763,0,0,1,.109,1.794,3.923,3.923,0,0,1-1.959,1.93c-.288.094-.114-.03-.047.362a14.846,14.846,0,0,1,.061,2.5,9.461,9.461,0,0,1-.565,4.38,4.963,4.963,0,0,1-2.526,2.337c-2.058.906-3.744.524-5.537,1.11a10.319,10.319,0,0,1-3.19.777c-.608.055-1.007.085-1.545.177a3.212,3.212,0,0,1-.766.061h0A30.744,30.744,0,0,0,144.9,51.5c-.055.345.092.063,1.278,2.37a7.586,7.586,0,0,1,.914,3.193c0,2.157-1.976,2.5-4.076,2.12a8.288,8.288,0,0,1-3.754-2.016,55.7,55.7,0,0,1-6.722-6.9c-1.03-1.253-1.285-1.5-1.082-1.87h0A.443.443,0,0,1,131.514,48.321Zm5.691-14.257h0a8.736,8.736,0,0,0-1.772-2.015,3.392,3.392,0,0,0-4.746-.056c-.9.759-.765.932-1.073,1.886-.522,1.626.263,2.995,1.582,4.122a4.2,4.2,0,0,0,2.362.927c.89.189.569.166.961.127.543-.049.531.163.632.213.123.245.046.384-.112,1.038-.484,1.786-1.848,6.59-2.588,8.282-.077.165,5.445,6.538,8.768,8.718a4.943,4.943,0,0,0,2.259.874c.717.1,1.856.15,2.353-.372l0-.006.011-.012,0-.007,0-.006,0-.006.006-.007.008-.019.006-.007.008-.02.006-.007a2.859,2.859,0,0,0-.065-1.807,10.133,10.133,0,0,0-.992-2.244c-1.165-1.988-1.175-1.536-.97-2.565a22.084,22.084,0,0,1,1.194-4.06c.383-.5.9-.325,1.263-.38,0-.108,2.281-.181,3.315-.475.81-.234,1.51-.558,2.4-.743,1.448-.3,4.173-.037,5.833-1.737,1.216-1.256,1.1-3,1.073-4.75a14.673,14.673,0,0,0-.033-2.292,1.4,1.4,0,0,1-.322-.671c-.048-.7.761-.822,1.219-1a3.083,3.083,0,0,0,1.1-1.118,1.2,1.2,0,0,0,.187-.549v-.022l0-.01v-.021l0-.009v-.01l0-.009v-.008l0-.009v-.008c-.035-.1-.65-1.4-.707-1.514a4.426,4.426,0,0,0-.808-1.188c-.629-.614-1.459-1.433-1.459-2.323-.032-.335.176-.721.452-3.6.087-.909.2-2.322.381-3.407a18.9,18.9,0,0,0,.475-2.579l0-.013v-.013l0-.012v-.011l0-.011v-.01l0-.01v-.01l-.009-.025v-.007l0-.012v-.006l0,0v0l0,0v0l0,0h0c-1.209-.808-2.986-.7-4.559-.54-5.01.55-10.512,1.4-14.6,4.341a3.182,3.182,0,0,0-1.208,1.538,34.13,34.13,0,0,0-1.386,10.052c.029.1-.026.012.039.116l-.022.012.019-.011C137.819,34.284,137.272,34.431,137.205,34.064Zm-5.7,14.263,0,0h0Zm.014-.015-.006.006h0l.006-.007Zm3.158-8.449h0Z"/><path class="a" d="M129.248,25.59c-.165.164-.624,1.189-.791,1.441a4.954,4.954,0,0,0-.928,1.765c-.182.895.469.889.88,1.3.179.178-.182,1.152-.232,1.348a3.737,3.737,0,0,0,.791,2.044c.07.071.886-1.118,1.023-1.254a4.853,4.853,0,0,1,2.555-1.348c2.5-.624,3.318,1.586,4.592,2.862a12.614,12.614,0,0,1,.7,1.738,15.617,15.617,0,0,0,.928,1.719c.243.482-.319,1.179-.14,1.719.243.727.841,1.357,1.07,2.045.132.394-.251.665-.139,1.115.215.862,1.073,1.5,1.439,2.23.31.62.185,1.46.6,2.091a9.251,9.251,0,0,0,7.946,3.485c2.119-.354,4.269-.809,6.412-1.116,1.652-.235,3.707-.312,4.833-1.812.4-.531.568-1.233.928-1.812a5.247,5.247,0,0,0,.883-1.672,6.473,6.473,0,0,0-.232-2.045c-.148-1.041.1-1.2-2.322-3.624-.263-.262-.084-.918-.372-1.208-.777-.775-2.9-.3-3.905-.186a7.144,7.144,0,0,0-3.019.6,3.037,3.037,0,0,0-1.626,2.231c-.129.643.075,2.247-.42,2.741-.157.161-2.256-.3-2.879.325a3.678,3.678,0,0,1-2.23-.232c-.52-.39-.791-1.117-1.347-1.533-.336-.252-.635-.341-.836-.744-.173-.346-.176-.883-.419-1.208-.255-.34-.671-.345-.884-.7-.293-.49-.064-1.143-.139-1.672-.065-.452-.481-.8-.557-1.255-.218-1.3-.411-2.674-.559-4-.067-.619-.344-4.4.095-4.832.048-.048,1.012.164,1.16.14a9.4,9.4,0,0,0,2.787-.93c.816-.489,1.467-1.476,2.231-1.858s1.7.069,2.51-.093a14.28,14.28,0,0,0,3.393-1.673c.643-.322,1.892.414,2.462.6.467.155,1.786-.722,2-.511a2.76,2.76,0,0,0,1.347.836c1.306.326,3.578-.746,3.022-2.416-.131-.392-.855-.6-1.208-.836-.489-.326-1.218-.033-1.719.093-.953.238-1.934.16-2.834.418-.548.156-1.121.168-1.674.279-1.308.261-2.667.27-3.994.418-2.13.236-4.227.749-6.368.883-2.11.132-4.315.063-6.412.325a17.779,17.779,0,0,0-2.926.883,9.922,9.922,0,0,0-1.487.511A14.287,14.287,0,0,0,129.248,25.59Z"/><path class="a" d="M160.2,36.378a1.857,1.857,0,0,1,.229.867c.031.415.017.013,1.63,1.935.912,1.168.607,1.02,1.006,2.966.419,2.066-.523,2.465-1.1,3.686a4.44,4.44,0,0,1-1.66,2.322c-1.623,1.017-2.724.847-6.465,1.491-2.442.434-4.074.758-4.7.8a9.893,9.893,0,0,1-7.851-3.671,5.5,5.5,0,0,1-.629-2.08c-.246-.713-1.307-1.561-1.493-2.382a1.449,1.449,0,0,1,.1-1.075l.005-.01.012-.038v-.008l0-.007v-.007l0-.006v-.011l0,0a2.272,2.272,0,0,0-.3-.657,9.886,9.886,0,0,1-.688-1.24c-.338-.773.118-1.377.118-1.773l0-.012v-.032l0-.005v-.008l0,0v-.007l0,0V37.4l-.006-.012,0,0a16.85,16.85,0,0,1-.936-1.774A16.6,16.6,0,0,0,136.85,34h0c-1.3-1.491-1.882-2.7-3.236-2.863a4.9,4.9,0,0,0-2.784.8,5.073,5.073,0,0,0-.621.52h0c-.037.037-.746.989-.9,1.14-.46.5-.735-.075-1.043-.694-.58-1.371-.4-1.323-.17-2.155.181-.67.105-.44-.453-.866-1.111-.861.352-2.494.827-3.37.09-.176.383-.76.495-.922h-.033c.188-.2.18-.18,0,0h.033c.6-.906,2.859-1.963,3.609-2.328a7.414,7.414,0,0,1,1.509-.643c2.632-.789,2.222-1.044,5.14-1.247,2.5-.174,4.167-.062,6.686-.436,1.46-.221,2.556-.452,3.972-.648,1.857-.253,3.164-.187,5.822-.719a8.285,8.285,0,0,1,1.118-.239c.633-.085,1.136-.095,1.758-.215.806-.173,1.614-.583,2.368-.072.359.208,1.243.5,1.381,1.1.607,1.786-1.556,3.3-3.368,3.05a3.2,3.2,0,0,1-1.675-.862c-.75.25-1.333.708-2.057.457-.459-.179-1.524-.721-1.948-.593a11.828,11.828,0,0,0-1.314.762c-2.531,1.532-3.062.87-4.165.92-.6.032-.91.44-1.73,1.233h0a4.418,4.418,0,0,1-1.177.867,10.526,10.526,0,0,1-2.521.816c-.3.057-.258.067-1.062-.063a17.522,17.522,0,0,0,.006,3.051c.106,1.942.654,5.034.654,5.135l.005.02.006.01.006.021,0,.011c.111.455.6.538.545,1.748a2.754,2.754,0,0,0,.011.794l.006.012,0,.011,0,.011,0,.011.006.01,0,.01a.321.321,0,0,0,.019.031v0l.014.015v0l.006,0c.181.2.6.163.986.886a7.776,7.776,0,0,1,.283.955l0,.011.006.011,0,.01c.046.079,0,.051.089.151l0,.007.017.019.008.006.023.024.008.006,0,.005c.186.149.354.226.576.4.615.482.842,1.131,1.322,1.515a3.153,3.153,0,0,0,1.685.118,5.011,5.011,0,0,1,2.753-.294v0c.365-.788-.633-3.933,2.714-5.216a11.271,11.271,0,0,1,2.661-.388C157.02,35.714,159.415,35.191,160.2,36.378ZM137.13,33.187c.464.515.351.189,1.143,2.326.515,1.054.923,1.341.967,1.951,0,.5-.229.88-.229,1.238a3.43,3.43,0,0,0,.52,1.036c.9,1.393.621,1.507.458,2.092v.01l0,.018v.009l0,.008V41.9l0,.007v.014l0,.007v.021l0,.008v.007c.376,1.053,1.081,1.35,1.481,2.263a17.709,17.709,0,0,0,.492,1.858c.579,1.1,3,2.893,5.791,3.306,1.865.248,2.7-.331,8.14-1.132a9.971,9.971,0,0,0,3.67-.888c1.186-.7,1-1.458,1.982-2.918a2.273,2.273,0,0,0,.4-2.409c-.171-.793-.117-.889-.216-1.316a1.248,1.248,0,0,0-.083-.265,10.036,10.036,0,0,0-1.074-1.34c-1.017-1.093-1.069-.937-1.2-1.583a3,3,0,0,0-.075-.546l-.006-.01v0c-.512-.537-2.858-.073-3.645.006a10.7,10.7,0,0,0-2.007.255,3.442,3.442,0,0,0-1.327.819c-1.065,1.052-.416,2.357-.867,3.773-.3.914-.9.762-1.565.716h0c-2.405-.013-1.079.307-2.535.384-2.728.128-2.513-1.3-3.416-1.936a4.542,4.542,0,0,1-.729-.547,3.1,3.1,0,0,1-.587-1.428l-.011-.02,0-.009-.006-.009,0-.008-.005-.008-.006-.013,0-.006-.009-.015,0,0,0,0-.006,0,0-.005-.005,0,0-.005-.022-.019v0a.894.894,0,0,0-.146-.092,1.547,1.547,0,0,1-.782-.715,3.884,3.884,0,0,1-.151-1.768l0-.009v-.007l-.006-.017v-.009l0-.018-.006-.01,0-.021a7.588,7.588,0,0,1-.464-.894c-.152-.41-.613-4-.66-4.615a24.549,24.549,0,0,1-.025-4.286c.309-1.128.7-.813,1.769-.688a9.224,9.224,0,0,0,2.245-.66,3.373,3.373,0,0,0,1.053-.746c.262-.1.952-1.319,2.231-1.507.99-.11,1.379.264,2.387-.044,1.074-.352,2.508-1.449,3.114-1.607a4.552,4.552,0,0,1,2.49.632c.333.144,1.256-.518,1.87-.518.392.019.366.188.992.65,1.2.739,3.064-.117,3.064-1.242l0-.012v-.026l0-.012v-.013l0-.026v-.013c-.034-.156-.03-.13-.034-.151l-.006-.014,0-.015-.006-.012v0a2.3,2.3,0,0,0-.643-.389c-.742-.362-.238-.388-1.819-.037-.859.192-1.718.155-2.5.317a42.693,42.693,0,0,1-6.074.737c-2.244.25-4.11.705-6.289.829-3.167.167-5.768-.065-7.821.622-3.651,1.243-1.661.4-4.154,1.565a8.808,8.808,0,0,0-2.708,1.7l0,0-.009.008v0c-.1.114-.518,1-.685,1.3-.224.43-.961,1.2-.961,2.065l0,.011v.01l0,.01v.01l0,.01v.009l0,.009V29.2l.009.024v.008c.009.025.013.033.022.055l.005.006.012.023.005.006v0c.254.329.971.41.906,1.051a6.588,6.588,0,0,1-.277,1.136h0a3.821,3.821,0,0,0,.523,1.464c.04.068.02.069.078,0a4.987,4.987,0,0,1,2.27-2.036C134.406,29.683,135.31,30.922,137.13,33.187ZM161.414,20.4v0Z"/><path class="b" d="M128.116,28.75c-.336.168-3.9-2.287-5.009-7.187-1.043-4.605,3.125-8.876,6.842-11.2,2.809-1.754,5.909-2.216,9.062-2.943,6.5-1.5,6.881-2.282,13.607-1.721,2.236.187,5.718.252,7.418,1.95a7.634,7.634,0,0,1,1.909,5.275c0,.681-.229,1.363-.229,2.026,0,.1-.053.528.039.574.422.211,7.949-.438,8.654.708,1.325,2.15-14.353,3.752-17.179,4.223a44.5,44.5,0,0,0-12.156,3.478,7.458,7.458,0,0,1-1.758.115C134.377,24.666,131.745,26.936,128.116,28.75Z"/><path class="a" d="M170,15.347c.584.191,1.042.537,1.042,1.151,0,.789-.91,1.241-1.626,1.546-2.848,1.139-8.948,1.959-12.05,2.366a73.122,73.122,0,0,0-10.843,1.939,30.891,30.891,0,0,0-5.467,1.993c-.774.2-1.054-.221-3.983.478a21.76,21.76,0,0,0-4.743,1.891c-.1.055-3.881,2.237-4.226,2.271l0,.022c.122-.059.137-.061,0,0l0-.022a2.68,2.68,0,0,1-1.311-.723,12.239,12.239,0,0,1-4.179-7.86c-.231-4.671,4.566-9.3,8.542-11.228a32.021,32.021,0,0,1,7.155-2.119c4.359-1,6.307-1.718,8.3-1.943a50.912,50.912,0,0,1,9.49.367c3.491.524,4.785,1.756,5.749,3.984a9.4,9.4,0,0,1,.643,3.8c-.044.565-.218,1.177-.218,1.754C163.819,15.029,168.307,14.778,170,15.347Zm-41.975,13.2v0l.02-.01ZM145,6.47c-9.76,2.516-11.806,2.272-15.5,4.726-3.939,2.642-7.285,6.678-5.859,11.166.8,3,3.247,5.722,4.372,6.153.18.069,4.061-2.327,4.9-2.746a16.956,16.956,0,0,1,7.169-2.1c.786,0,.757-.048,1.076-.207,6.7-3.309,15.031-3.778,21.928-4.987,1.283-.229,5.892-1.052,6.814-1.974-1.247-.623-5.7-.368-7.594-.378-.572-.009-.961,0-1.132-.518a1,1,0,0,1-.033-.266c0-1.719.329-1.37.2-3.242a8.037,8.037,0,0,0-.722-2.643c-1.351-3.021-5-2.966-8.525-3.252A23.365,23.365,0,0,0,145,6.47Z"/><path class="a" d="M156.181,23.214c1.924,0,4.27,1.409,4.791,3.318,0,.124,1.071,3.184.039,5.142-1.641,3.095-6.187,3.146-7.862,1.186a9.063,9.063,0,0,1-1.029-6.58A4.24,4.24,0,0,1,156.181,23.214Zm.193.907a3.362,3.362,0,0,0-3.276,2.692c-.266,1.506,0,4.318,1.018,5.466a3.754,3.754,0,0,0,2.021.8,4.268,4.268,0,0,0,4.184-1.917,7.358,7.358,0,0,0,.232-4.462h0a.419.419,0,0,1-.014-.049h0a1.893,1.893,0,0,0-.109-.269A4.827,4.827,0,0,0,156.374,24.121Z"/><path class="e" d="M156.791,29.486a.559.559,0,0,1-.559-.559c0-.373-.154-1.017-.154-1.279,0-.1-.084-.065.557-.114l.348-.437c.239.191.2.393.247.782a8.046,8.046,0,0,1,.12,1.048A.559.559,0,0,1,156.791,29.486Z"/><path class="a" d="M156.411,24.815l.209.239c-.344.3.167.1-2.415.651-.759.167-1.414.4-2,.585-.163.05-1.055.284-1.3.352-.26.075-.124.082-.509-.026.1-.354.049-.272.255-.446a5.875,5.875,0,0,1,2.63-1.38A5.284,5.284,0,0,1,156.411,24.815Z"/><path class="e" d="M140.881,29.941a58.12,58.12,0,0,1,11.579-1.366.559.559,0,0,1,.546.572.549.549,0,0,1-.572.545,57.36,57.36,0,0,0-11.341,1.347A.559.559,0,0,1,140.881,29.941Z"/><path class="b" d="M158.747,40.144l-.019.315a2.281,2.281,0,0,1-.774.882,2.72,2.72,0,0,1-2.116.206,3.117,3.117,0,0,1-.576-.306c-.141-.1-.075-.018-.266-.349.337-.2.139-.135.8-.226.264-.037.075-.018.417-.054h0a4.54,4.54,0,0,0,1.3-.229h0C158.705,40.1,158.216,40.12,158.747,40.144Z"/><path class="b" d="M144.914,52.716c1.893.822,3.7,1.708,5.437,2.644A135.8,135.8,0,0,1,157.21,71s-3.849,2.028-3.754,2.108c1.319,1.133,3.723,3.28,3.723,3.28s-1.515,14.879-4.391,21.929c.886-7.047-.254-18.062-1.839-25.065C149.7,67.726,145.722,54.039,144.914,52.716Z"/><path class="a" d="M150.53,55.117a64.989,64.989,0,0,1,2.982,5.8q2.1,4.567,3.908,9.273c.53,1.383.666.792-3.12,2.971.378.336.237.191,2.835,2.482.426.378.573.427.573.8-.063.484.02.04-.392,3.355-.693,5.408-1.924,13.283-3.874,18.386-.155.4-.169.477-.383.621a.555.555,0,0,1-.687-.118c-.325-.438.026-.186.153-4.519a91.828,91.828,0,0,0-.9-14.159c-1.2-9.608-6.617-27.015-6.831-27.036a2.3,2.3,0,0,1-.1-.212.221.221,0,0,1,.305-.248c-.077.172-.049.11,0,0C146.752,53.255,149.972,54.765,150.53,55.117Zm.36,15.945a90.492,90.492,0,0,1,2.756,22.546c0,.34-.07.488.241-.716A144.189,144.189,0,0,0,156.626,76.6c-3.765-3.349-3.622-3.132-3.679-3.424,0-.518-.024-.474,3.662-2.411a127.514,127.514,0,0,0-6.479-15.182l-.084-.045v0c-1.262-.692-2.725-1.468-4.668-2.361C146.667,56.155,149.713,66.647,150.89,71.062Z"/><path class="a" d="M79.718,104.115c17.274,10.153,49.619,13.561,49.619,13.561s3.175-10.332,2.753-10.742C118.238,93.5,96.732,91.712,96.712,91.867"/><path class="a" d="M85.174,106.573c12.563,5.383,30.972,9.056,43.766,10.5,0-.1,2.633-8.638,2.633-9.87a51.12,51.12,0,0,0-15.113-9.8c-8.576-3.748-17.943-5.363-19.7-5.319h0a.221.221,0,0,0,.109-.059c.072-.1.111-.1-.238.05l-.123-.288h0c.2-.471,5.613.432,8.693,1.113,9.443,2.1,18.942,6.108,26.1,12.553,1.384,1.256,1.43,1.174,1.353,2.015-.271,2.027-2.188,8.445-2.79,10.374a.552.552,0,0,1-.59.391c-14.077-1.532-37.184-6.25-49.51-13.823-.2-.123-.146-.038-.243-.406C80.251,103.812,79.051,103.87,85.174,106.573Z"/><path class="b" d="M77.823,103.543a66.546,66.546,0,0,0,11.041,4.811c11.689,4.053,27.894,7.234,40.076,8.715.232-.615,2.439-8.19,2.622-9.749.019-.148.052-.084-.176-.3a53.245,53.245,0,0,0-16.914-10.457,63.1,63.1,0,0,0-17.707-4.481h-.011a.209.209,0,0,0,.115-.059c.072-.1.111-.1-.238.05l-.123-.288h0c.058-.14.172-.155.464-.146a63.17,63.17,0,0,1,10.406,1.777c8.444,2.154,16.493,5.732,23.158,11.364.1.089,1.584,1.371,1.985,1.812.286.378.126,1.067.005,1.639,0,.643-2.285,8.459-2.658,9.609a.555.555,0,0,1-.595.391c-14.886-1.7-38.945-6.582-51.844-14.394l-.079-.307C77.721,103.432,77.614,103.424,77.823,103.543Z"/><path class="a" d="M158.75,14.82a.664.664,0,0,1,.148.153l-.084.464h0l-.461-.082,0-.008,0,.011,0-.008.008.01-.008-.008.008.01-.006-.008.009.009-.009-.007.009.008-.009-.008.009.008-.009-.007.009.007c-.3-.249-2.037-.021-2.152-.006-5.527.691-18.54,4.68-26.781,9.4h0c-.174.1-.028.063-.765.153l-.506-.39,0,0-.076-.634c.308-.4.387-.54.526-.581C138.294,17.827,156.661,13.287,158.75,14.82Z"/></svg>