<svg xmlns="http://www.w3.org/2000/svg" viewBox="0 0 300 300"><defs><style>.a,.c{fill:#212121;}.a,.b{fill-rule:evenodd;}.b{fill:#fff;}</style></defs><title>Traveling</title><path class="a" d="M214.155,284.1a7.371,7.371,0,0,0,.994,5.954c2.037,2.513,6.636,2.353,8.419-.379.98-1.5.921-3.472.733-5.175"/><path class="a" d="M182.869,284.082a7.366,7.366,0,0,0,.994,5.954c2.037,2.513,6.635,2.353,8.418-.378.98-1.5.921-3.473.734-5.176"/><path class="a" d="M134.084,22.929c-1.748-1-4.65-.387-6.3.407-4.526,2.176-7.254,7.011-8.464,11.7a38.816,38.816,0,0,0-.674,4.322,3.134,3.134,0,0,0,.042,1.809c.75,1.263,9.185-1.208,10.472-2.061a12.637,12.637,0,0,0,1.647-1.516c3.358,1.393,7.254.5,10.532-2.8.142-.146,4.33,12.827,4.688,13.356.616.918,2.545.278,3.337,1.385,1.008,1.406-.09,4.085,2.617,3.633a2.3,2.3,0,0,0,.939-.38c4.289-2.825,6.364-7.2,7.5-12a17.592,17.592,0,0,0,.5-7.779c-1.491-6.985-9.068-14.876-16.85-14.615a17.747,17.747,0,0,0-4.153.936C137.567,20,134.084,22.929,134.084,22.929Z"/><path class="a" d="M144.671,17.964c7.913.082,15.4,7.989,16.889,14.971a13.057,13.057,0,0,1,.26,3.024h0a29.619,29.619,0,0,1-1.164,6.57,19.369,19.369,0,0,1-5.425,9.329,15.775,15.775,0,0,1-2.072,1.585,3.4,3.4,0,0,1-2.1.438c-2.33-.311-1.483-3.155-2.356-4.057-.65-.47-1.541-.285-2.531-.69-.938-.49-.76-.389-3.593-8.785-.121-.381-1.211-3.594-1.5-4.394-3,2.563-6.456,3.668-10.107,2.4-.1.04-.3.379-1.123,1.036a10.458,10.458,0,0,1-3.218,1.395c-1.764.525-6.984,2.059-8.262.909-.642-.609-.373-1.769-.271-2.551.084-.541.178-1.369.361-2.575,1.012-5.7,4.494-11.854,9.871-13.845,1.7-.61,4.265-.959,5.721-.13a31.648,31.648,0,0,1,3.486-2.529,9.82,9.82,0,0,1,2.652-1.2A13.341,13.341,0,0,1,144.671,17.964ZM130.515,22.84c-6.028,1.077-9.6,7.248-10.883,13.236-.061.389-.576,4.16-.524,4.492a.9.9,0,0,0,.048.251l.007.011,0,.009v0c1.276.572,7.905-1.38,9.3-2.089a4.721,4.721,0,0,0,1.244-.973c.738-.738.712-.823,1.119-.841a8.4,8.4,0,0,0,4.244.539c3.633-.561,5.511-3.075,6-3.319h0a.7.7,0,0,1,.368-.042h0c.557.132.6.532,1.053,1.765,1.9,5.48,3.924,11.628,4.126,11.911.652.424,2.191.115,3.152,1.15.968,1.077.693,3.014,1.161,3.45a1.68,1.68,0,0,0,1.244,0,10.232,10.232,0,0,0,1.707-1.2,17.732,17.732,0,0,0,5.342-8.616,28.206,28.206,0,0,0,1.279-6.661h0c.215-7.219-6.761-15.424-13.868-16.871h0a9.98,9.98,0,0,0-5.474.3c-1.513.429-2.6.568-6.107,3.172-.858.648-.852.726-1.067.671l-.042-.019c.132-.241.218-.4,0,0A5.418,5.418,0,0,0,130.515,22.84ZM119.184,40.87v0l0,0Zm-.007-.008,0,0,0,0Z"/><path class="a" d="M148.133,21.48c-5.215-3.814-4.409-11.227,1.2-14.3,5.293-2.9,12.356-1.48,16.516,2.838,4.915,5.1,3.5,15.662-3.951,17.717C157,29.091,148.133,21.48,148.133,21.48Z"/><path class="a" d="M169.415,17.4a12.273,12.273,0,0,1-2.176,7.352,9.162,9.162,0,0,1-5.085,3.539c-4.291,1.144-10.8-3.642-14.1-6.508v0l-.083-.074,0,0a8.568,8.568,0,0,1-3.778-6.757,9,9,0,0,1,3.056-7.019C154.853,1.354,169.415,6.439,169.415,17.4Zm-24.246-3.527a7.833,7.833,0,0,0,.208,3.191,8.057,8.057,0,0,0,3.034,4.29c.1.05,5.694,4.583,10.191,5.707a5.6,5.6,0,0,0,3.924-.167c6.107-2.47,7.145-11.559,3.135-16.05l0-.007a12.431,12.431,0,0,0-2.228-1.975C155.913,3.685,146.12,6.931,145.169,13.869Z"/><path class="a" d="M95.5,268.3c-2.422,11.125-2.221,10.331-2.4,12.213a12.669,12.669,0,0,1-.636,3,2.79,2.79,0,0,1-2.186,1.891c-3.64,1.041-16.464-.874-19.2-1.936-.639-.263-1.118-.5-1.164-1.189-.1-1.47,1.771-2.349,3.128-2.926,3.1-1.348,7.879-1.852,9.652-3.626a1.93,1.93,0,0,0,.368-.479h0c1.766-3.527,2.143-13.813,3.247-16.59a23.269,23.269,0,0,1,.653-3.594c.792-1.976,4.491-1.326,5.968-1.265a7.583,7.583,0,0,1,2.412.313c1.392.406,1.964.709,3.215,1.043.23.076.1-.066.379.368-.415.266-.271.216-.5.177-1.9-.475-3.361-1.157-4.887-1.157-1.093.1-3.16-.32-4.807.174-.895.357-.96.4-1.195,2.2-.349,4.009-.224-.41-1.408,10.1-1,8.542-2.04,8.888-1.9,8.888-1.761,2.643-5.977,3.084-9.071,4.115-.861.274-3.438,1.227-3.844,2.04,2.929,1.172,13.814,2.67,17.538,2.256.51-.054,1.768-.235,2.054-.664.769-.922.962-3.558,1.161-5,.263-1.847,4.62-19.711,5.846-22.439v0c.042-.083.04-.084.087-.177l.375-.126.126.376C97.7,258.173,95.927,266.314,95.5,268.3Z"/><path class="a" d="M138.815,257.5a26.727,26.727,0,0,1,4.372.337,6,6,0,0,1,2.134.695,2.564,2.564,0,0,1,.462.355c1.032.822-.062,5.112-.062,5.985l0,.017c-.037,2.034-.333,6.853-.333,7.4-.1,1.849-.1,4.8-.1,4.911a15.212,15.212,0,0,0-.049,3.611c.389,2.722,6.054,9.557,5.541,12.655a1.959,1.959,0,0,1-.588,1.137h0c-1.567,1.392-4.777-1.285-6.371-2.68-.836-.728-.779-.712-1.606-1.425a49.721,49.721,0,0,1-4.984-4.546,6.918,6.918,0,0,1-2.054-4.585,25.53,25.53,0,0,1,.619-5.575c.455-2.556.247-2.034.594-8.209.227-3.778.782-9.819.883-9.819C137.345,257.46,137.478,257.5,138.815,257.5Zm-1.592,14.285a21.868,21.868,0,0,1-.313,4.352c-.25,1.911-.819,4.426-.254,6.461.682,2.323,4.383,5.155,6.434,6.864.623.541,3.564,3.26,5.092,3.89a3.093,3.093,0,0,0,.775.253l.014,0h.017l.017,0h.032l.014,0h.062l.011,0h.031l.01,0h.007l.007,0h.011l.007,0h.01l.007,0h0l.007,0h0l0,0h0l0,0h0l0,0h0v0h0l0,0h0l.007-.007h0l0,0v0l.017-.018.01-.017.007-.007a.482.482,0,0,0,.059-.118l.007-.011.007-.027.007-.014c0-.017.022-.1.028-.129v-.021l0-.017a2.186,2.186,0,0,0,.007-.226,13.093,13.093,0,0,0-1.523-3.931c-1.4-2.6-3.27-5.28-3.969-7.841a14.129,14.129,0,0,1,.024-3.921c.121-2.32-.224.259.567-10.211a20.955,20.955,0,0,1,.316-3.3c.116-.638.766-3.679.355-4.227l0-.01,0,.007-.007-.014,0,0-.007-.014,0,.007,0-.007-.007-.007.007.007-.007-.007,0-.007a2.467,2.467,0,0,0-.935-.545,22.953,22.953,0,0,0-6.43-.859C137.4,262.442,137.286,267.4,137.223,271.789Z"/><path class="a" d="M206.441,150.991a4.043,4.043,0,0,1,.567,1.05h0a4.061,4.061,0,0,1-.205,2.846l-.278.282-.282-.278a4.265,4.265,0,0,1-.472-1.762,4.425,4.425,0,0,1,.128-2.016c.006-.011.209-.327.216-.337Z"/><path class="a" d="M210.452,150.828l0,.007a2.711,2.711,0,0,1,.768,2.106h0a2.672,2.672,0,0,1-.275,1.349c-.211.4-.068.233-.465.566-.394-.468-.178-.162-.407-.712a4.586,4.586,0,0,1-.16-.567l0-.007c-.042-.291-.088-.827-.112-1.178l0,0a2.95,2.95,0,0,1,.024-.723,2.726,2.726,0,0,0,.042-.271l0-.007a1.381,1.381,0,0,1,.233-.737Z"/><path class="a" d="M120.38,71.462a34.389,34.389,0,0,1,.156,5.3c-2.035,18.259-6.2,29.581-14.789,47.807-3.068,6.516-10.716,25.739-17.7,26.638-4.265.542-4.449-4.595-3.017-7.258,11.831-16.7,14.176-22.879,25.452-44.932,3.517-6.885,5.442-26.153,5.471-26.258A43.661,43.661,0,0,1,120.38,71.462Z"/><path class="a" d="M120.4,71.187a.271.271,0,0,1,.16.071l.031.033a.4.4,0,0,1,.045.078l.011.043c-.147.027-.444.082,0,0a35.638,35.638,0,0,1,.219,5.259c-.076,1-.606,5.387-.883,7.119-2.723,18.768-9.526,31.972-16.732,47.821-2.689,5.788-8.7,19.211-15,20.263a3.959,3.959,0,0,1-3.208-.726c-1.8-1.6-1.813-4.391-1.036-6.629.372-1.02.292-.695,2.951-4.57,1.736-2.517,4.349-6.41,5.871-8.889,2.677-4.329,8.032-14.4,8.032-14.52.536-1.019,9.289-18.093,9.343-18.212,2.042-4.142,3.83-14.2,4.522-18.767,1.02-6.673.832-6.66.928-6.931.09-.171.059-.154,1.751-.674C118.188,71.727,120.176,71.186,120.4,71.187Zm-4.157,1.8c-.008.068-.044.542-.049.61-.619,6.3-2.426,19.811-5.161,25.506-.049.1-6.351,12.79-6.84,13.763C95.755,129.617,92.523,134.441,86.95,142.4c-1.157,1.632-1.714,2.155-1.974,3.976-.178,1.189-.022,2.886.911,3.663a2.022,2.022,0,0,0,.81.421c1.522.38,2.92-.425,4.118-1.366,6.026-5.1,11.488-18.633,16.878-30.238,0-1.04,10.062-18.312,12.527-42.2a40.392,40.392,0,0,0-.073-4.858C119.293,72.009,117.768,72.452,116.247,72.991Z"/><path class="a" d="M132.18,98.738c1.5-.448,7.377-13.251,8.042-14.682,4.291-9.225,5.375-12.518,5.718-12.752.2-.089.2-.064.963.072a37.938,37.938,0,0,1,8.494,2.472c1.7.737.072-.352.751,10.884.779,10.8,1.679,11.352,4.824,21.9,2.952,10.432,5.289,25.43,6.295,36.834.62,7.987.7,15.022.584,17.076-.383,14.159-11.945,67.54-15.033,81.46-.6,2.732-4.658,20.962-4.838,21.486a.652.652,0,0,1-.313.341c-.284.115.641.123-11.688-.462a.679.679,0,0,1-.626-.5c-.143-.738.254,1.78-9.426-80.7-.493,1.429-2.216,6.5-2.405,7.055-25.336,74.64-23.894,71.712-24.622,71.94-.264.032-14.112-1.976-14.212-2a.663.663,0,0,1-.452-.706c.011-.1,11.495-98.522,12.968-114.225.907-9.033,2.912-30.38,5.47-39.02,1.878-5.719,6.668-11.108,9.68-18.268A36.589,36.589,0,0,0,115,76.392c.361-4.014-.371-3.478.737-3.868a44.634,44.634,0,0,1,4.4-1.294,20.937,20.937,0,0,1,2.218-.437.27.27,0,0,1,.08.039l.034.029.028.034a.306.306,0,0,1,.042.08h0C123.261,73.282,130.422,97.688,132.18,98.738ZM98.305,259.773c24.424-72.676-3.18,9.1,20.9-62.1,6.357-18.766,6.392-19.138,6.77-19.138a.915.915,0,0,1,.226-.059.741.741,0,0,1,.445.122c.339.262-.212-5.429,9.979,83.438.855,0-3.445-.165,10.194.486,3.975-16.756,18.748-83.026,19.812-102.154a177.356,177.356,0,0,0-.821-19.975,241.644,241.644,0,0,0-5.331-31.641c-3.1-11.287-4.583-12.318-5.3-24.25a57.583,57.583,0,0,1,.094-9.713,37.269,37.269,0,0,0-8.863-2.623c-.868,2.257-10.58,24.464-13.7,27.08-.56.383-.884.21-1.3-.284-2.278-3.162-6.756-19.39-9.336-27.583a44.029,44.029,0,0,0-6.4,1.79l0,.092h0a19.407,19.407,0,0,1-.132,3.662c-1.769,14.935-9.681,20.2-12.249,28.875-2.55,8.75-4.979,36.29-5.762,45.29-.368,3.491-1.242,10.351-2.388,21.167-2.392,22.572-5.44,51.016-9.527,85.728C86.085,257.98,98.373,259.874,98.305,259.773Z"/><path class="b" d="M88.984,101.022c6.315-16.976,26.4-28.059,26.4-28.059.024.822.055,1.555.024,2.04-.914,15.2-9.913,22.2-12.4,30.449-1.7,5.648-3.313,18.916-4.432,29.724-.059.593,4.546,3.96,4.717,5.3.243,1.908-1.738,5.387-2.805,7.027-.918,1.408-2.211-.938-2.93-1.887-4.2-5.569-14.211-12.51-12.735-27.844A69.439,69.439,0,0,1,88.984,101.022Z"/><path class="a" d="M88.831,100.623c0-.1.743-1.852.983-2.367,5.042-10.82,15.606-20.1,25.039-25.685.3-.174.4-.259.73-.174.4.184.4.434.41.851a16.127,16.127,0,0,1-.021,2.515c-1.047,12.033-6.226,18.04-9.426,23.8a25.52,25.52,0,0,0-3.66,9.2c-1.531,7.284-2.873,19.209-3.611,26.31.823,1.069,4.272,3.618,4.651,5.13a3.614,3.614,0,0,1,.014,1.251c-.187,1.68-1.716,4.592-2.625,5.981-.386.629-.717,1.168-1.518,1.168-1.107-.079-1.862-1.3-2.732-2.554-2.12-2.828-8.777-8.525-11.515-16.592a26.334,26.334,0,0,1-1.339-9.1C84.367,114,86.558,106.573,88.831,100.623Zm14.118-17.951c-5.808,5.171-10.918,11.253-13.7,18.448l0,0c-7.431,20.657-3.889,29.742,3.952,38.626.938,1.173,3.844,4.154,4.483,4.953,1.122,1.5,1.592,2.3,2.127,2.572h.007l.007,0v0c.17-.085,3.026-4.659,2.8-6.708h0v0h0v-.007l0,0v0l0-.007v0l-.007-.014v-.011l-.007-.017-.007-.007c-.277-.83-3.364-3.431-4.153-4.282-.682-.811-.6-.654-.382-2.634.72-7.157,2.027-18,3.489-25.093A24.242,24.242,0,0,1,104.193,101c3.492-6.566,7.808-11.415,9.736-20.054a33.337,33.337,0,0,0,.876-6.953A79.982,79.982,0,0,0,102.949,82.672Z"/><path class="a" d="M54.042,178.953a6.9,6.9,0,0,1-1.47,2.562v0a4.7,4.7,0,0,1-1.373,1.21l-.01,0-.393.052c-.063-.51-.081-.283.122-.917a5.679,5.679,0,0,1,.98-1.752,4.017,4.017,0,0,1,1.387-1.324.934.934,0,0,1,.737-.23Z"/><path class="a" d="M56.26,182.467v.007a5.235,5.235,0,0,1-1.276,2.7v0c-.261.344-.232.318-.4.507v0c-.976.975-.747.764-1.175.915a.919.919,0,0,1-.069-.772,4.175,4.175,0,0,1,.2-.772h0a4.415,4.415,0,0,1,.309-.615v0a6.214,6.214,0,0,1,1.54-1.929c.547-.4.162-.26.768-.428Z"/><path class="a" d="M59.308,185.783a7.511,7.511,0,0,1-1.244,2.481,9.162,9.162,0,0,1-1.811,2.082l-.382.1-.1-.383a6.859,6.859,0,0,1,1.321-2.825,6.144,6.144,0,0,1,1.762-1.773l.007,0,.389-.066Z"/><path class="a" d="M62.648,188.473a12.834,12.834,0,0,1-.636,1.773v0c-.071.143-.3.647-.358.768v0c-.031.065-.185.4-.226.486v0c-.066.127-.024.052-.1.205v0a3.678,3.678,0,0,1-.191.33l0,.011c-.674.981-.411.741-.893,1.018-.219-.379-.212-.232-.212-.942a3.906,3.906,0,0,1,.166-1.1l0,0a6.433,6.433,0,0,1,1.06-2.107,4.83,4.83,0,0,1,.959-.806l.39-.049C62.608,188.089,62.648,188.457,62.648,188.473Z"/><path class="a" d="M66.538,190.072a16.312,16.312,0,0,1-.5,1.731c-.08.2-.03.062-.1.243h0c-.1.23-.223.533-.236.563v0c-.023.05-.209.5-.23.556a17.532,17.532,0,0,1-.74,1.612c-.087.218-.016.118-.358.428l-.264-.3c-.02-.059-.081-.45-.087-.521a5.465,5.465,0,0,1,.66-2.913h0a3.892,3.892,0,0,1,.57-.914,6.408,6.408,0,0,1,.813-.792l.383-.087Z"/><path class="a" d="M70.663,192.133v.01a12.159,12.159,0,0,1-.34,1.7v.007c-.047.14.037-.107-.251.754v.007a5.941,5.941,0,0,1-.876,1.8l-.007.006-.33.212c-.256-.4-.209-.286-.229-.469a4.972,4.972,0,0,1,.4-2.777v0a3.57,3.57,0,0,1,1.157-1.533l.007,0,.382-.093Z"/><path class="a" d="M75.189,193.443a10.755,10.755,0,0,1-.623,3.2,7.458,7.458,0,0,1-.535,1.241c-.088.19-.011.107-.393.386-.279-.384-.225-.274-.253-.487a6.683,6.683,0,0,1-.073-1.38,9.67,9.67,0,0,1,.351-1.814,4.7,4.7,0,0,1,.983-1.846c.077-.1,0-.044.41-.226C75.292,193.055,75.189,192.7,75.189,193.443Z"/><path class="a" d="M78.894,192.905l0,.01c.018.4.024.436.024.591,0,.336,0,.538,0,.539a16.081,16.081,0,0,1-.5,2.408,15.81,15.81,0,0,1-.65,1.835l-.007.011-.3.26-.261-.295a7.033,7.033,0,0,1-.156-1,5.45,5.45,0,0,1,.159-1.624,7.213,7.213,0,0,1,1.109-2.791c.058-.1-.01-.041.376-.285Z"/><path class="a" d="M83.888,193.773a5.531,5.531,0,0,1-.059,1.888c-.06.324-.286,1.073-.316,1.175h0A6.037,6.037,0,0,1,82.7,198.5l-.007.007-.334.212-.208-.337,0-.01a4.828,4.828,0,0,1,.063-1.877h0a8.325,8.325,0,0,1,.646-2.037c.573-.971.457-.788.831-1.022Z"/><path class="a" d="M88.671,193.169l0,.01a7.124,7.124,0,0,1-.01,2.523,7.45,7.45,0,0,1-.946,2.871h0c-.126.21-.325.5-.393.6l-.358.166c-.209-.445-.173-.276-.139-.754a10.482,10.482,0,0,1,.264-2.057,18.107,18.107,0,0,1,.5-2.176c.14-.4.5-1.226.536-1.272l.312-.233Z"/><path class="a" d="M218.416,150.236a7.816,7.816,0,0,1,3.5.68,4.606,4.606,0,0,1,2.235,2.9,17.607,17.607,0,0,1,.818,2.922,41.75,41.75,0,0,1,.672,7.337c.453,18.9,1.52,28.875.971,41.569l-.314.3-.295-.318c.2-13.881-1.511-27.5-1.765-38.706-.084-4.381-.144-9.1-1.678-12.989h0c-.085-.216-.282-.6-.4-.816a2.1,2.1,0,0,0-.693-.714c-2.244-1.212-6.159-.575-14.974.733-3.571.561-6.059.7-6.147.714-2.544.162-5.5.167-7.4,1.891-2.012,1.871-2.232,6.89-2.315,9.633-.051,1.688-.037,2.834-.174,4.84-.007.1-1.66,20.053-1.66,25.129a59.178,59.178,0,0,1-.369,9.391c-.023.12.04.049-.372.343-.3-.423-.259-.327-.24-.442.541-4.5.031-6.982.111-11.071.077-1.962,0-1.719.372-10.289.526-10.832.819-12.55.871-15.877a48.73,48.73,0,0,1,.5-7.7c.512-2.781,1.39-4.937,3.853-6.139a13.23,13.23,0,0,1,4.622-1.092c3.251-.252,1.692,0,6.7-.634C207.817,151.413,214.735,150.236,218.416,150.236Z"/><path class="a" d="M219.254,156.012a3.2,3.2,0,0,1,1.516,1.745c1.8,3.9,1.357,9.679,1.654,16.428.306,8.2.9,15.233.655,25.047-.061,1.633.035,1.283-.306,1.612-.548-.586.049.781-.4-9.338-.272-6.251-.776-12.179-1.061-17.265-.372-5.973-.018-12.134-1.518-15.625a3.956,3.956,0,0,0-.547-1.053h0a1.422,1.422,0,0,0-.136-.144,1.583,1.583,0,0,0-.4-.293,7.338,7.338,0,0,0-3.745-.4c-5.819.5-8.119,1.17-12.076,1.542-2.81.266-4.382.107-6.256.945a3.979,3.979,0,0,0-2.2,2.768,28.413,28.413,0,0,0-.774,7.642c-.11,3.489-.444,4.653-1.289,19.242-.264,4.982.038,11.909-.414,13.869-.035.269,0,.189-.323.416-.45-.622-.012.367-.012-3.826,0-7.043-.681-5,.783-27.537.291-3.935-.371-10.159,2.39-12.8,2.447-2.067,5.081-1.562,9.516-2.127C210.96,156.013,216.6,154.646,219.254,156.012Z"/><path class="a" d="M197.008,151.168s-1.289,6.274-.024,7.553c1.1,1.112,3.889.469,5.269.494,3.882.08,7.654-.369,11.529-.351,1.442.006,3.695.691,4.842-.317.816-.716.782-2.523.851-3.312.414-4.692-.879-5.384-.879-5.384s-9.92-.215-11.977.052A94.833,94.833,0,0,0,197.008,151.168Z"/><path class="a" d="M214.394,149.128c4.546.032,4.289.012,4.539.132.321,0,1.659,1.464,1.241,5.923-.076,1.17-.105,2.764-.873,3.66l0,.007c-1.361,1.557-3.891.695-6.055.695-1.808,0-7.47.259-7.573.267-2.628.066-3.107-.033-4.275.018-1.424.087-3.144.26-4.3-.417a1.877,1.877,0,0,1-.675-.661c-.912-1.459-.025-5.933.317-7.639h0c.084-.251.219-.216.8-.365a48.882,48.882,0,0,1,5.415-.9A58.712,58.712,0,0,1,214.394,149.128Zm-11.654,1.623a41.68,41.68,0,0,0-5.485.647c-.25,1.35-.781,5.733-.017,6.878.711.945,3.092.433,4.956.348,2.628,0,4.308-.142,6.51-.257,5.659-.33,5.617-.139,7.41.017a2.868,2.868,0,0,0,2.1-.4l.007-.01.011-.007.007-.011,0,0a1.45,1.45,0,0,0,.157-.257,6.874,6.874,0,0,0,.361-2.162,15.379,15.379,0,0,0-.01-3.688,3.894,3.894,0,0,0-.39-1.244c-.054-.109-.013-.075-.705-.094C205.879,150.377,211.089,150.175,202.74,150.751Z"/><path class="a" d="M126.32,70.182c.991-.088.833-.019.882-.189a49.669,49.669,0,0,0,1.106-5.326,8.833,8.833,0,0,1-3-.923,31.745,31.745,0,0,1-3.893-2.709,13.807,13.807,0,0,1-3.81-11.986c.48-3.884,3.5-11.472,5.249-14.444a33.444,33.444,0,0,1,4.417-5.707,18.41,18.41,0,0,1,10.285-4.949c4.074-.362,5.773,1.284,7.692,2.313a6.159,6.159,0,0,1,1.654,1.182,7.7,7.7,0,0,1,1.491,2.766c1.47,4.462.807,11.324.237,15.977a4.46,4.46,0,0,1,2.652.755,4.437,4.437,0,0,1,1.192,2.526,4.721,4.721,0,0,1-.779,3.3,9.022,9.022,0,0,1-4.914,3.446c-1.2.324-.491-.209-1.3,1.148a16.227,16.227,0,0,1-5.77,5.957c1.169,6.4.9,4.644,1.342,6.982,1.582.173,3.1.356,4.88.654.418.07.635.071.838.445.128.347.136.3-.755,2.335-1.4,3.271-10.257,23.446-13.089,25.6a1.376,1.376,0,0,1-.615.3c-.524.075-.869-.3-1.168-.731-2.183-3.15-7.246-21.4-8.891-26.828-.27-.913-.416-1.108-.132-1.3A37.622,37.622,0,0,1,126.32,70.182Zm5.964,28.389.007,0-.007,0Zm0,0,0,0,0,0Zm0,0,0,0h0Zm0,0,0,0,0,0Zm0,0h0Zm0,0ZM130.7,27.794a15.939,15.939,0,0,0-4.292,3.91c-2.2,2.7-3.533,4.48-6.434,12.274-1.394,3.985-2.388,8.345-.764,12.227a17.533,17.533,0,0,0,2.342,3.86,20.953,20.953,0,0,0,4.779,3.382c1.125.459,2.376.566,2.555.687h0a.308.308,0,0,1,.132.272,52.484,52.484,0,0,1-1.366,6.046l-.069-.02.066.019a.293.293,0,0,1-.042.085l-.031.036-.039.03c-.274.154-1.079-.006-4.852.7,1.8,5.49,7.651,25.327,9.513,27.191,2.16-1.291,11.821-23.436,13-26.282-5.035-.787-4.873-.4-5.3-.876h0c-.134-.219-.114-.215-.181-.668-.206-1.394-.4-1.648-1.039-5.254-.464-2.623-.5-2.452-.327-2.81h0c.272-.359.267-.153,1.558-1.056a14.842,14.842,0,0,0,3.552-3.59v0c1.661-2.454,1.238-2.69,1.88-2.921a6.1,6.1,0,0,0,.89-.108,8.153,8.153,0,0,0,3.069-1.571,4.425,4.425,0,0,0,1.814-2.9c0-.021.013-.179.014-.186a3.455,3.455,0,0,0-.212-1.339,4.658,4.658,0,0,0-.334-.715c-.207-.394-.977-.555-1.425-.606-1.226-.145-1.683.239-1.991-.478-.122-.488,1.224-7.466.612-12.99-.656-5.9-2.291-6.169-3.855-7.081-.281-.03-.352-.138-.563-.3C139.759,23.905,134.644,25.388,130.7,27.794Z"/><path class="b" d="M155.748,74.5a45.089,45.089,0,0,1,4.206,2.476c5.94,4.32,9.058,12.136,12.825,18.2,2.781,4.47,9.28,17.943,12.68,21.983,2.857,3.393,13.006,11.872,17.851,16.805,3.194,3.248,6.746,5.168,8.769,9.445,1.206,2.554,3.361,8.5,1.738,11.257-1.561,2.642-2.729.164-3.347-.743-.365-.532-.313,2.321-2.3,2.2a2.31,2.31,0,0,1-1.765-2.085h0c-.261,1.758-1.04,3.072-2.955,1.678-2.137-1.557-.208-5.456-2.853-7.643-.178-.146-16.079-7.4-18.1-8.549-11.129-6.3-16.3-12.929-18.675-17.4-3.038-16.811-3.918-16.235-6.6-26.145C155.953,91.315,155.651,76.293,155.748,74.5Z"/><path class="a" d="M162.54,78.755c4.3,4.229,6.922,10.053,10.291,15.605,3.871,6.1,9.81,19.048,14.06,23.454,4.128,4.2,10.652,9.53,17.263,16.049,3.113,3.068,6.192,4.7,8.391,8.946,1.459,3.128,2.73,6.8,2.488,10.229a4.9,4.9,0,0,1-.744,2.18,2.723,2.723,0,0,1-1.515,1.282c-.963.239-1.673-.443-2.263-1.244a2.371,2.371,0,0,1-2.645,1.526,2.766,2.766,0,0,1-1.331-.842,2.078,2.078,0,0,1-.973.918,2.669,2.669,0,0,1-2.614-.65,3.164,3.164,0,0,1-1.042-1.522c-.475-1.5-.253-3.306-.782-4.72a3.217,3.217,0,0,0-.915-1.311c0-.1-6.87-3.135-14.674-6.871a46.4,46.4,0,0,1-6.725-3.693c-5.851-3.847-10.448-7.752-14.327-13.622-1.433-2.36-1.2-1.921-1.446-3.327C160.077,105,160.171,108.4,157.118,97.3c-1.626-4.631-1.814-22.625-1.606-22.937a.274.274,0,0,1,.365-.1v0A24.773,24.773,0,0,1,162.54,78.755Zm1.866,43.2c4.02,7.026,9.976,11.933,16.91,16.111a39.085,39.085,0,0,0,4.483,2.345c16.3,7.616,15.077,6.88,15.735,7.611,1.819,2.044,1.108,4.723,1.7,6.264a1.868,1.868,0,0,0,.476.757l.018.011a2.215,2.215,0,0,0,1.175.563l.013,0h.011l.01,0h.011l.01,0h.007c.328-.109.49-.559.612-.966.2-.6.03-.942.546-1.227a.689.689,0,0,1,.83.205.859.859,0,0,1,.146.6l.007.031v.014a1.934,1.934,0,0,0,1.064,1.172h.01l.007,0h.011l.007,0h.055l.017,0h.042l.011,0a.787.787,0,0,0,.472-.153c.428-.257.6-1.1.876-1.658a.773.773,0,0,1,1.311-.164,7.577,7.577,0,0,0,1.188,1.592.563.563,0,0,0,.184.1h.007l.007,0h.014l.007,0h.038l0,0h.014l0,0h.011l0,0h.007l0,0h.007l0,0h0l.013-.007,0,0h.007l.021-.01.007-.007c.017-.009.007,0,.024-.011a2.672,2.672,0,0,0,.831-1.143c1.137-3.029-1.127-9.129-2.882-11.936a22.007,22.007,0,0,0-4.153-4.393c-4.043-3.5-2.571-2.367-5.975-5.589-18.471-17.194-14.3-11.034-26.314-33.619-1.578-2.889-1.338-2.341-2.743-4.763-1.9-3.286-4.4-8.508-7.351-12.239a21.891,21.891,0,0,0-7.97-6.459c0,4.209.557,17.627,1.631,20.908,2.087,7.5,3.485,10.093,5.227,18.386,2.188,10.393,1.216,7.075,1.536,7.693Z"/><path class="a" d="M105.139,137.307a11.482,11.482,0,0,1-.24,2.736h0a12.9,12.9,0,0,1-.824,2.54h0c-.949,2.088-2.906,5.77-4.887,6.9l-.389-.056c.106-.794-.1.114,1-1.678,1.343-2.5,2.339-4.14,3.017-5.721h0c.1-.214.225-.507.288-.654l0,0c.072-.172.631-1.5.685-1.658h0c1.158-3.041.514-2.231,1.091-2.713Z"/><path class="a" d="M157.129,144.248h0c.021.17.307,1.58.344,1.76l0,0c.033.158.1.47.153.7h0c.075.356.362,1.446.477,1.84.007.023.572,1.8,1.351,4.364.7,1.9.7,1.066.65,1.843l-.392-.022c-1.731-1.514-2.908-5.488-3.428-7.732h0a12.765,12.765,0,0,1-.306-2.653h0a11.843,11.843,0,0,1,.3-2.729l.305-.248C157.088,141.988,156.6,141.084,157.129,144.248Z"/><path class="a" d="M83.28,280.986c3.74.272,7.028.549,8.547.549l.3.257-.261.3a33.881,33.881,0,0,1-3.469.372,37.622,37.622,0,0,1-5.217-.094c-1.166-.076-5.937-.514-7.337-.726a20.37,20.37,0,0,1-3.451-.782l-.212-.334.337-.208C75.991,280.663,75.632,280.4,83.28,280.986Z"/><path class="a" d="M78.932,278.3a5.222,5.222,0,0,1,2.092,1.262,6.33,6.33,0,0,1,1.547,1.807l.049.39-.393.052a4.738,4.738,0,0,1-1.658-.838h0a5.985,5.985,0,0,1-2.006-2.259l-.031-.389.393-.028Z"/><path class="a" d="M139.392,283.818c.049.041.563.487.594.515h0c4.282,3.691,2.3,1.9,4.564,3.82a36.9,36.9,0,0,1,4.466,4.247c.227.244.177.122.2.591-.554.019-.156.153-1.46-.772-3.955-2.808-9.045-6.542-11.612-10.642l.042-.393C136.922,281.262,135.891,280.8,139.392,283.818Z"/><path class="a" d="M145.54,287.5a3.518,3.518,0,0,1,2.263.587l.233.317a1.17,1.17,0,0,1-.7.333,4.59,4.59,0,0,1-.744.157,10.972,10.972,0,0,1-1.366-.045,2.91,2.91,0,0,1-1.261-.393c-.291-.145-.218-.1-.483-.448l.316-.237.007,0A4.412,4.412,0,0,1,145.54,287.5Z"/><path class="a" d="M126.945,153.122c-.11,1.544-.055,2.847-.038,3.934.1,3.327.094,2.472-.059,10.114-.326,14.83-.171,13.218-.591,13.67l-.292-.267a99.676,99.676,0,0,1-.5-13.43c.065-3.2.261-10.969.931-14.094l.313-.24Z"/><path class="a" d="M86.352,130.089c2.947,7.638,9.535,13.137,11.279,15.626-1.2,5.957,1.7,29.63-3.688,45.566-1.046,3.1-20.555,1.144-24.041.122-9.016-2.645-15.745-12.141-16.044-14.633-.431-3.569,5.586-10.444,7.563-13.273C64.456,159.148,85.768,131.005,86.352,130.089Z"/><path class="a" d="M86.53,129.877l.031.032a.313.313,0,0,1,.049.08c-.258.1-.421.163,0,0,2.814,7.107,9.322,12.905,10.7,14.577.235.266.293.382.393.483.741.988.221.128.125,3.1-.249,7.968.614,11.289-.17,25.394-.476,6.3-1.119,12.086-3.121,18.084a1.9,1.9,0,0,1-.362.518c-2.151,2.151-11.945,1.42-14.963,1.213-8.035-.66-9.623-1.18-12.168-2.284a30.432,30.432,0,0,1-10.785-8.717,17.15,17.15,0,0,1-3.014-5.179c-.891-3.582,5.035-10.532,7.518-13.847.459-.622,1.554-2.228,3.622-4.946.083-.11,21.734-28.34,21.734-28.448A.278.278,0,0,1,86.53,129.877Zm-.428,1.028c-9.411,12.969-20.086,27.228-21.629,29.37-3,4.135-1.438,2.153-4.616,6.378-1.564,2.051-5.345,7.09-5.345,9.659,0,2.525,6.1,10.248,12.623,13.277,3.034,1.46,5.09,1.65,9.048,2.1,3.054.318,14.129,1.27,16.766-.306.174-.1.15-.1.178-.115l.01-.01.01-.007.011-.011.01-.007.011-.01.01-.007.007-.011.011-.007.007-.007.006-.01.028-.028,0-.007.007-.007,0-.007.007,0,.007-.014,0,0,0-.007,0,0v0l0-.007,0,0v0l0,0v-.007l0,0v0c.05-.1.441-1.377.494-1.56.368-.982,1.06-4.312,1.262-5.342,2.966-15.429,1.025-34.646,2.082-38.341-1.374-1.879-6.542-6.712-9.506-12.267C85.95,130.392,86.441,130.441,86.1,130.905Z"/><path class="b" d="M176.272,201.26c-2.075,5.175-3.583,79.719-3.295,83.382.125,1.588,53.769,1.978,53.912,1.613,0,0,8.1-2.3,18.817-6.142,2-.712,3.306-53.407,2.777-62.875-.267-4.776.018-8.554-3.149-12.509-4.4-5.492-12.45-6.3-18.282-5.648C217.7,200.12,176.272,201.26,176.272,201.26Z"/><path class="a" d="M176.015,201.163c.163-.326,23.187-.8,45.361-2.148,6.248-.442,7.1-.727,9.618-.671a22.356,22.356,0,0,1,10.816,2.617c4.733,2.839,6.73,6.629,7.1,12.009,1.013,15.181-.464,55.131-1.8,64.728-.194,1.136-.346,2.55-.984,2.975-.314.2-7.632,2.673-8.5,2.954-2.789.922-5.534,1.8-8.738,2.756-2.159.652-.72.751-14.007.664-7.986-.051-33.6-.3-41.461-1.505a1.785,1.785,0,0,1-.855-.382c-.318-.318-.247-.351-.247-4.505.012-.776.112-11.287.6-27.079.121-4.478,1.447-48.3,3.094-52.417C176.278,201.262,176.226,201.241,176.015,201.163Zm50.443,84.557-.007.006.017-.013Zm3.771-86.278c-4.233,0,.027.3-18.56,1.046-24.877,1-35.145.829-35.233,1.182-1.523,6.593-2.3,45.893-2.461,52.831-.446,22.811-.467,29.745-.327,29.78,5.857,1.3,44.9,1.5,52.257,1.359a2.8,2.8,0,0,0,1.161-.153c3.9-1.145,8.619-2.631,14.532-4.661,4.136-1.451,3.665-1.231,3.75-1.429,1.616-4.308,2.871-47.725,2.52-61.4-.249-4.606.027-8.479-2.367-12C242.29,201.088,236.077,199.442,230.229,199.442Zm-3.674,86.212,0,0,.007,0Z"/><path class="a" d="M227.619,199.025c5.776-.535,13.458.386,17.715,5.7,3.167,3.955,2.882,7.733,3.149,12.509.529,9.468-.782,62.163-2.777,62.875-8.745,3.135-15.752,5.245-18.032,5.912C227.567,266.078,227.688,234.672,227.619,199.025Z"/><path class="a" d="M241.3,200.913a14.553,14.553,0,0,1,3.555,2.631,12.93,12.93,0,0,1,3.452,6.266c1.959,9.153.181,56.024-1,66.254a16.972,16.972,0,0,1-.678,3.851,1.487,1.487,0,0,1-.511.758c-.533.305-11.94,4.2-18.254,6.016a.691.691,0,0,1-.8-.326c-.337-.723.119-87.352.393-87.571l.042-.02a.258.258,0,0,1,.086-.021c.012.124.041.449,0,0A24.662,24.662,0,0,1,241.3,200.913Zm-11.147-1.721c-1.028,0-2.21.081-2.259.09.025.731.466,48.893.466,85.819,6.755-2.04,11.249-3.567,16.94-5.575,1.453-2.906,3.164-46.6,2.555-64.853a17.657,17.657,0,0,0-1.4-7.344c-1.906-3.667-4.373-5.447-8.206-6.907-.1-.03-.818-.274-1.154-.354A25.657,25.657,0,0,0,230.156,199.192Z"/><path class="a" d="M193.275,215.705l.282,1.022s-.582,1.987-2.51,49.765c-.221,5.322-.032,4.849-.743,5.144H190.3l-.379-.174-.16-.4c0-13.622-.083-30.543.473-44.444.126-3.882.458-10.243.566-10.243l.529-.921,1.021-.285A7.5,7.5,0,0,1,193.275,215.705Z"/><path class="a" d="M210.5,216.033l.282,1.022s-.582,1.988-2.51,49.765c-.222,5.322-.032,4.849-.744,5.144h-.007l-.378-.174-.16-.4c0-13.622-.083-30.543.472-44.443.127-3.883.458-10.243.567-10.243l.528-.921,1.022-.285C209.668,215.552,209.248,215.317,210.5,216.033Z"/><path class="a" d="M131.759,44.035a10.179,10.179,0,0,1-2.551,4.5c-.662.79-2.248,1.956-2.471,2.379l-.011.013h0l-.059.086,0,.009-.007.009,0,.008-.007.008-.01.021v.005l-.011.016v.005l-.007.01v.005l-.006.009v0l0,.006v.006l0,.005v.013l0,.006v.066l0,.01v.01l.007.022v.011l.006.024.007.012c0,.283.777,1,1.4,1.277.1.047.025-.028.267.359-.384.232-.313.208-.417.194a3.467,3.467,0,0,1-2.262-1.284v0a1.507,1.507,0,0,1-.007-1.609c.761-1.186,1.542-1.5,2.422-2.452a31.45,31.45,0,0,0,3.09-3.754c.165-.277.031-.171.487-.367Z"/><path class="c" d="M134.024,50.723a.7.7,0,0,1-.627-.992c.165-.35.374-.644.555-.95a.7.7,0,1,1,1.2.708c-.166.279-.377.587-.5.836A.693.693,0,0,1,134.024,50.723Z"/><path class="c" d="M124,47.786a.7.7,0,0,1-.622-1c.221-.444.415-.8.613-1.137a.7.7,0,0,1,1.2.71c-.18.3-.358.634-.563,1.046A.694.694,0,0,1,124,47.786Z"/><path class="a" d="M130.525,56.3l-.066.387a4.754,4.754,0,0,1-.917.839,4.886,4.886,0,0,1-2.562.752,4.506,4.506,0,0,1-2.871-.776l-.174-.354c.458-.227.245-.168.685-.161.318.005,1.843-.047,2.277-.08a24.151,24.151,0,0,0,2.558-.467C130.374,56.2,129.969,56.213,130.525,56.3Z"/><path class="b" d="M83.238,251.738c-.253,1.188-1.922,6.923-1.376,7.9.594,1.07,3.079,1.2,4.139,1.508a69.337,69.337,0,0,0,10.789,1.975c4.011.5,4.683.065,5.234-3.57.146-.987.842-2.927.48-3.921C101.583,253.09,83.238,251.738,83.238,251.738Z"/><path class="c" d="M96.7,263.81a76.728,76.728,0,0,1-11.866-2.2c-1.328-.246-2.982-.551-3.584-1.634-.73-1.309.906-6.52,1.3-8.384a.7.7,0,0,1,.731-.548c.046,0,4.662.348,9.332,1,9.818,1.369,10.321,2.757,10.536,3.35.453,1.248-.3,3.244-.446,4.26C102.133,263.555,101.2,264.377,96.7,263.81ZM83.776,252.476c-.213.85-1.6,6.018-1.3,6.844.372.666,2.782.887,3.717,1.159a70.191,70.191,0,0,0,10.816,1.968c3.44.435,3.853.161,4.3-2.835.179-1.208.8-3.019.538-3.744C101.319,254.624,92.192,253.133,83.776,252.476Z"/><path class="b" d="M133.936,257.043c-.11.955-1.01,5.6-.478,6.317.58.788,2.643.67,3.544.82a60.3,60.3,0,0,0,9.072.6c3.419.039,3.875-.41,4.025-3.259.038-.787.45-2.369.069-3.117C149.2,256.494,133.936,257.043,133.936,257.043Z"/><path class="c" d="M146.6,265.481a67.486,67.486,0,0,1-10.519-.69c-1.14-.077-2.559-.173-3.182-1.019-.771-1.04.155-5.118.347-6.809a.7.7,0,0,1,.665-.615c5.865-.211,15.856-.265,16.877,1.743.5.988.057,2.524,0,3.6C150.632,264.763,149.693,265.481,146.6,265.481Zm-12.059-7.763c-.111.711-.768,4.616-.5,5.272.29.384,2.353.386,3.072.5a61.09,61.09,0,0,0,9.082.594c2.829.038,3.085-.182,3.2-2.471.046-.906.4-2.415.151-2.9C148.965,258.027,143.08,257.445,134.541,257.718Z"/><path class="a" d="M119.313,109.708c5.964-.025,13.169,1.316,19.794,1.292,1.748-.007,7.271-.883,8.644.2,2.169,1.709.375,8.819.121,11.031-.636,5.581-.768,11.774-5.158,15.864-6.423,5.985-20.454,5.231-24.177-3.392-1.376-3.191-1.213-7.216-1.286-10.616C117.147,119.231,119.313,109.708,119.313,109.708Z"/><path class="a" d="M138.644,110.455c2.219-.02,5.116-.594,7.626-.343,1.52.16,2.465.683,2.885,2.209v.006c.925,2.909-.522,8.672-.608,9.933-.415,2.919-.452,9.487-3.268,13.813-2.732,4.2-7.07,6.09-12,6.538a17.2,17.2,0,0,1-11.831-3.167c-3.323-2.657-4.354-5.872-4.606-10.1-.092-1.542-.091-5.038-.062-6.1a84.289,84.289,0,0,1,2.325-13.715.311.311,0,0,1,.073-.058l.042-.019a.275.275,0,0,1,.09-.016v0C125.13,109.329,132.273,110.484,138.644,110.455Zm-20.889,11.918c-.052,1.971-.026.533.053,4.35a21.14,21.14,0,0,0,1.313,7.786c2.9,6.561,12.821,8.552,19.989,5.179,8.091-3.895,7.159-12.4,8.436-19.616.436-2.542.881-5.046.389-7.382l0,0a1.978,1.978,0,0,0-.538-.965c-.553-.54-3.165-.457-3.8-.434a45.776,45.776,0,0,1-8.613.082c-5.078-.375-11.065-1.322-15.449-1.377A93.392,93.392,0,0,0,117.755,122.373Z"/><path class="b" d="M91.62,158.924l.164.407c.116,6.863-.094,13.271-3.257,19.377a24.64,24.64,0,0,1-3.542,4.984c-.1.111.075.018-1.05.5-1.337-.522-.894-.339-.994-.389l-.417-.976.386-.988h0a20.51,20.51,0,0,0,3.364-4.372h0c2.757-4.878,3.754-10.6,4.234-16.162.211-2.416.1-1.877.354-2.4l.379-.16Z"/></svg>