<svg xmlns="http://www.w3.org/2000/svg" viewBox="0 0 300 300"><defs><style>.a{fill:#fc943f;}.b{fill:#ffc5ff;}.c{fill:#9ef2eb;}.d{fill:#fff;}.e{fill:#ffdb43;}</style></defs><title>Welcome_1</title><path class="a" d="M135.19,150.57l-8.339,4.83s-3.235,1.959-8.749,1.185a12.876,12.876,0,0,1-9.8-7.018c-1.276-2.6-11.393-22.1-11.393-22.1L89.94,153.349H62.645c2.369-1.595,1.184-4.921,1.184-4.921L50.387,127.922l-5.605-8.567L23.957,132.023l-6.79-10.481a18.185,18.185,0,0,1-.82-15.22A17.7,17.7,0,0,1,31.84,94.839h75.827l15.311,36.182,2.552-1.322Z"/><path class="b" d="M212.7,126.327c-2.962,0-6.015-1.549-8.567-4.375-6.334-7.017-7.382-18.455-2.507-27.2a26.237,26.237,0,0,1,2.507-3.691,44.08,44.08,0,0,0-5.97-4.01c-6.972-3.965-15.037-6.426-22.055-8.431l1.823-6.425c7.382,2.1,15.9,4.694,23.513,9.023a53.233,53.233,0,0,1,7.519,5.149,31.392,31.392,0,0,1,15.676-5.969c8.658-.775,17.772,1.913,25.7,7.518,6.607,4.694,12.349,11.347,17.179,19.868a51.178,51.178,0,0,1,6.243,16.177l-6.562,1.185a45.922,45.922,0,0,0-5.514-14.126c-4.329-7.656-9.433-13.58-15.22-17.726-6.607-4.694-14.172-6.972-21.235-6.334a24.188,24.188,0,0,0-11.346,3.964,37.307,37.307,0,0,1,5.878,8.749c2.962,6.2,3.645,12.714,1.959,18.41-1.184,4.01-3.508,6.744-6.607,7.7A4.831,4.831,0,0,1,212.7,126.327Zm-3.646-30.713a27.112,27.112,0,0,0-1.595,2.369c-3.509,6.289-2.825,14.491,1.641,19.458,1.367,1.549,3.053,2.37,4.055,2.051.866-.274,1.686-1.5,2.233-3.236a19.433,19.433,0,0,0-1.595-13.625A31.606,31.606,0,0,0,209.057,95.614Z"/><polygon points="6.732 246.036 34.392 219.834 55.992 236.33 55.992 246.036 6.732 246.036"/><polygon points="125.575 246.036 97.915 218.968 76.315 235.464 76.315 246.036 125.575 246.036"/><polygon class="b" points="132.547 245.17 144.122 237.15 155.742 245.17 132.547 245.17"/><polygon class="b" points="269.664 245.17 281.238 237.15 292.858 245.17 269.664 245.17"/><circle class="c" cx="171.417" cy="133.117" r="6.607"/><path class="c" d="M205.776,169.435l12.349-6.106H235.9l-2.369,9.159L245.786,187.8l-12.3,9.889-4.876-6.015-.774,3.053H208.055L214.844,177l-15.857,7.291s-5.6,2.187-8.886-2.461c-3.145-4.466-1.276-7.565-1.276-7.565l2.324-9.3h15.766Z"/><path class="d" d="M240.363,152.939a11.182,11.182,0,0,1-10.526,6.7l-1.14,3.645h-5.422l1.64-4.967a11.192,11.192,0,0,1-5.878-8.43c-.046-.547-.091-1.048-.091-1.595l-2.279-.683a2.229,2.229,0,0,1-1.5-2.78v-.046a2.228,2.228,0,0,1,2.78-1.5l1.96.592a11.27,11.27,0,0,1,8.749-6.562h0a16.292,16.292,0,0,0,11.711,15.63Z"/><path d="M240.363,152.939h0A16.306,16.306,0,0,1,228.652,137.4a11.191,11.191,0,0,1,11.711,15.539Z"/><path class="a" d="M227.832,194.726s-1.14,4.283-1.55,5.331a20.093,20.093,0,0,1-1.23,2.415l-1.367,1.869,14.81,17.635-9.889,7.337-13.26-16.4-3.008,7.427-4.329,11.347-12.349-4.6,12.349-32.354Z"/><polygon points="177.432 235.51 195.66 227.08 208.009 231.682 202.86 245.17 177.432 235.51"/><polygon points="220.86 245.17 228.652 229.313 238.495 221.976 247.927 233.186 233.528 245.17 220.86 245.17"/><circle class="a" cx="281.238" cy="197.642" r="6.699"/><polygon class="d" points="78.411 120.995 69.571 101.492 80.735 94.793 91.672 101.355 78.411 120.995"/><path class="d" d="M91.672,64.627v23.6L80.735,94.793,69.48,88.049V72.875l21.235-12.3h0a6.608,6.608,0,0,1,.638,1.96,18.864,18.864,0,0,1,.273,1.959v.046A.139.139,0,0,1,91.672,64.627Z"/><polygon class="c" points="97.231 104.682 80.735 94.793 97.231 84.95 97.231 104.682"/><polygon class="c" points="64.239 84.95 80.735 94.793 64.239 104.682 64.239 84.95"/><path class="d" d="M125.575,129.745l28.207-14.309,1.5-8.7,13.944,2.461s3.873,1.23,2.871,5.013a4.613,4.613,0,0,1-4.785,3.554s4.6,1.413,3.053,5.878c-1.276,3.737-5.149,2.78-5.149,2.78l-10.071-1.731-1.686,8.749,8.111,1.412s4.967,1.231,3.6,5.924-6.972,2.689-6.972,2.689L149.727,142l-14.491,8.521Z"/><path class="d" d="M206.915,164.969l5.2-20.688s.319-2.278-1.777-2.415a3.6,3.6,0,0,0-3.463,2.506,2.009,2.009,0,0,0-1.823-2.506,3.678,3.678,0,0,0-3.418,2.506,2.032,2.032,0,0,0-1.822-2.506,3.339,3.339,0,0,0-3.418,2.461c-.41,1.321-5.286,20.6-5.286,20.6h15.812Z"/><path class="d" d="M245.786,187.8l16.45,20.643-12.3,9.615-5.6-7.018v2.142s-.045,3.646-3.6,3.646a3.4,3.4,0,0,1-3.509-3.509V202.29l-3.737-4.6Z"/><path class="e" d="M90.761,60.571l-21.236,12.3V64.946A10.988,10.988,0,0,1,80.508,53.964h.227A10.981,10.981,0,0,1,90.761,60.571Z"/><path class="d" d="M62.645,153.349h0a.628.628,0,0,0-.183.137,4.235,4.235,0,0,1-4.83-.137h-.456a2.01,2.01,0,0,0,.091.228A4.008,4.008,0,0,1,55.445,158c-1.96,1.413-4.1.183-4.876-.41a5.712,5.712,0,0,1-.5-.592,7.354,7.354,0,0,1,.546,1.823,3.823,3.823,0,0,1-1.959,3.6,4.081,4.081,0,0,1-5.514-1.14c-.182-.273-.683-1.048-1.276-1.959-.911-1.413-2.324-3.509-3.873-5.924-5.377-8.2-13.124-20.05-13.9-21.19a.161.161,0,0,0-.045-.091h0L44.873,119.4l5.605,8.566,13.4,20.552C63.829,148.428,65.014,151.754,62.645,153.349Z"/><path class="c" d="M97.915,218.968,71.439,239.155l-5.286-63.021-5.286,63.887L34.392,219.834l7.428-60.561c.592.912,1.093,1.686,1.276,1.96a4.08,4.08,0,0,0,5.513,1.139,3.7,3.7,0,0,0,1.96-3.6,6.242,6.242,0,0,0-.547-1.823c.046.046.41.5.5.593.775.592,2.962,1.822,4.876.41,2.37-1.732,1.823-3.463,1.823-4.42a1.888,1.888,0,0,1-.091-.228h.455a4.306,4.306,0,0,0,4.831.136c.045-.045.136-.091.182-.136H89.9Z"/><circle cx="85.064" cy="73.376" r="1.458"/><circle cx="76.087" cy="73.376" r="1.458"/><path d="M86.659,82.9l-1.184-.638a5.53,5.53,0,0,1-4.922,2.916,5.673,5.673,0,0,1-4.921-2.916l-1.185.638a6.982,6.982,0,0,0,6.106,3.645A6.875,6.875,0,0,0,86.659,82.9Z"/><path d="M133.185,86.545a5.149,5.149,0,1,0-5.149-5.149A5.173,5.173,0,0,0,133.185,86.545Zm0-8.931A3.782,3.782,0,1,1,129.4,81.4,3.773,3.773,0,0,1,133.185,77.614Z"/><path d="M144.805,204.341h-1.367v32.445l-13.124,9.068h27.615l-13.124-9.068Zm-10.071,40.146,9.388-6.516,9.387,6.516Z"/><path d="M267.431,245.854H295l-13.124-9.068V204.979a7.376,7.376,0,1,0-8.066-7.337,5.771,5.771,0,0,0,.183,1.55,75.058,75.058,0,0,1-13.215,6.334l-26.521-33.22,2.46-9.661h-7.154l.729-2.324a12.763,12.763,0,0,0,1.322-.091,11.727,11.727,0,0,0,7.838-4.557,11.889,11.889,0,0,0-9.433-19.093c-.547,0-1.048.046-1.595.091A11.769,11.769,0,0,0,219.4,143.1l-1.412-.41a2.589,2.589,0,0,0-.821-.137,2.925,2.925,0,0,0-2.779,2.1v.045a2.88,2.88,0,0,0,1.959,3.6l1.823.547a10.5,10.5,0,0,0,.091,1.185A11.978,11.978,0,0,0,224,158.681l-1.276,3.964H217.9l-11.165,5.514,5.924-23.513a2.89,2.89,0,0,0-.456-2.461,2.68,2.68,0,0,0-2.141-1h-.046a3.985,3.985,0,0,0-2.825,1.276c-.046-.091-.137-.182-.182-.273a2.683,2.683,0,0,0-2.142-1h0a3.985,3.985,0,0,0-2.825,1.276c-.046-.091-.137-.182-.183-.273a2.681,2.681,0,0,0-2.141-1h-.046a4.273,4.273,0,0,0-3.919,3.1L188,174.812a8.492,8.492,0,0,0,2.826,8.658,8.406,8.406,0,0,0,5.422,2,8.933,8.933,0,0,0,3.555-.774l13.807-6.334-9.934,25.974c-1.732-.729-3.418-1.5-5.013-2.324a49.431,49.431,0,0,1-11.255-7.565c-11.848-10.754-15.448-27.751-16.359-40.1a73.079,73.079,0,0,1,.091-13.853h.273a7.382,7.382,0,1,0,0-14.764,6.4,6.4,0,0,0-1.868.273,4.766,4.766,0,0,0,1.686-2.916V123a5.076,5.076,0,0,0-.82-3.873,6.287,6.287,0,0,0-.912-1,5.008,5.008,0,0,0,3.236-3.737V114.3a5.08,5.08,0,0,0-.82-3.874,5.172,5.172,0,0,0-3.327-2.141l-13.9-2.37-1.55,8.977-29.8,15.129L108.122,94.11H97.869V83.72L92.31,87.047v-22.1A11.689,11.689,0,0,0,80.644,53.28h-.182A11.689,11.689,0,0,0,68.8,64.946V86.864l-5.24-3.144V94.11H33.344a18.93,18.93,0,0,0-15.858,29.3l23.559,35.908L33.708,219.47,5,246.674H56.629v-9.022l4.785,3.645,4.739-58.966,4.74,58.146,4.784-3.646v9.889h51.584L98.6,218.649,90.624,153.4,97.1,129.243l10.3,20.142a14.6,14.6,0,0,0,9.114,7.519,15.023,15.023,0,0,0,4.192.592,14.806,14.806,0,0,0,7.519-2.051l21.554-12.668,10.208,1.732a5.14,5.14,0,0,0,5.924-4.1v-.091a5.491,5.491,0,0,0-.046-2.279,7.024,7.024,0,0,0,3.873,2.279,76.093,76.093,0,0,0-.091,14.126c1.322,18.045,7.154,32.217,16.815,41.012a51.871,51.871,0,0,0,11.529,7.747c1.686.865,3.418,1.64,5.149,2.415l-8.02,20.961-19.458,8.977,27.569,10.527,11.8-30.85a11.024,11.024,0,0,1,.455-1.094l12.3,15.266-8.066,16.45h14.035l15.084-12.577-18.228-21.691c1,.046,2.005.046,3.008.046.957,0,1.914,0,2.871-.046v1.777a4.182,4.182,0,0,0,4.192,4.193h.091a4.182,4.182,0,0,0,4.192-4.193v-.319l4.785,6.016,13.443-10.481-1.549-1.914a74.717,74.717,0,0,0,12.759-6.106,7.426,7.426,0,0,0,6.106,4.465v31.807Zm-111.6-138.347,12.577,2.142a3.722,3.722,0,0,1,3.007,4.374v.092a3.648,3.648,0,0,1-4.283,2.87h0L154.6,114.844Zm-24.425,20,8.84,19.275-4.784,2.826-8.978-19.595Zm-52.86-7.884-8.111-17.863,10.3-6.151,9.98,5.969Zm3.509-24.835,14.491-8.658v17.316Zm7.792-34.5L70.163,71.69V66.632L87.024,56.88A9.8,9.8,0,0,1,89.849,60.3Zm-9.387-5.651h.228a10.574,10.574,0,0,1,5.058,1.322L70.163,64.991v-.045A10.318,10.318,0,0,1,80.462,54.647Zm-10.3,18.638L90.4,61.574a10.327,10.327,0,0,1,.592,3.417V87.912L80.735,94.064,70.163,87.73V73.285Zm-5.24,12.85,14.491,8.658-14.491,8.658ZM17.9,104.727a17.248,17.248,0,0,1,15.448-9.2H63.556v10.39l5.7-3.418,8.43,18.593-7.427,31.579H64.1a4.708,4.708,0,0,0-.046-5.1l-12.85-19.6,5.24-19.321-1.321-.364L50.2,126.418l-9.25-14.126-1.139.729,3.964,6.061-19.64,11.984-5.514-8.43A17.228,17.228,0,0,1,17.9,104.727Zm39.417,47.255-8.476-12.941-1.139.729,8.476,12.941a3.233,3.233,0,0,1,.455,2.507,3.152,3.152,0,0,1-1.458,2.1l-.045.045a3.234,3.234,0,0,1-2.507.456,3.152,3.152,0,0,1-2.1-1.458l-8.476-12.942-1.139.729,8.476,12.942a3.311,3.311,0,0,1-.957,4.6l-.045.046a3.313,3.313,0,0,1-4.6-.957L28.468,137.491l19.64-11.984L62.964,148.2a3.312,3.312,0,0,1-.957,4.6l-.046.046A3.223,3.223,0,0,1,57.313,151.982Zm-9.98-27.523-19.64,11.984-2.779-4.192,19.64-11.985Zm7.975,120.894H8.463l25.974-24.607,20.871,15.9Zm21.691,0v-9.524l20.87-15.9,26.02,25.473H77Zm-4.967-7.474L66.837,173.81l-.684.045-.683-.045-5.195,64.935-25.154-19.23,7.109-58.373.319.5a4.757,4.757,0,0,0,3.919,2.142,4.416,4.416,0,0,0,2.552-.775l.045-.046a4.593,4.593,0,0,0,2.1-4.1,4.094,4.094,0,0,0,1.048.365,6.885,6.885,0,0,0,.957.091,4.664,4.664,0,0,0,2.552-.775l.046-.045a4.514,4.514,0,0,0,2-2.962,4.823,4.823,0,0,0,.091-1.14,4.5,4.5,0,0,0,2.05.456,4.412,4.412,0,0,0,2.552-.775l.046-.045.045-.046H89.075l7.883,64.662Zm55.5-83.618a13.433,13.433,0,0,1-10.664,1.321,13.27,13.27,0,0,1-8.247-6.835L97.641,127.284l5.013-18.638-1.322-.364L89.393,152.666H71.713l7.336-31.352,12.8-19.047,6.015,3.6V95.477h9.342l15.448,36.5,2.6-1.322,9.023,19.64Zm37.093-14.218v.091a3.766,3.766,0,0,1-4.375,3.008l-10.663-1.823-8.066,4.739-8.886-19.139,21.235-10.8,12.987,2.232a3.723,3.723,0,0,1,3.008,4.375v.091a3.723,3.723,0,0,1-4.329,2.962l-10.891-1.914L152.6,133.983l8.886,1.549a3.841,3.841,0,0,1,2.507,1.595A3.93,3.93,0,0,1,164.628,140.043Zm-2.871-5.833-7.519-1.321,1.5-7.428,9.569,1.686a5.818,5.818,0,0,0,1.777,0,7.337,7.337,0,0,0-3.1,6.015,7.057,7.057,0,0,0,.41,2.415A4.95,4.95,0,0,0,161.757,134.21Zm3.6-1.093a6.015,6.015,0,1,1,6.015,6.015A6.009,6.009,0,0,1,165.357,133.117Zm79.472,54.591-11.256,9.023-4.238-5.241,4.512-17.544Zm-4.329-40.6a10.367,10.367,0,0,1-.547,5.013,15.765,15.765,0,0,1-10.618-14.081c.274,0,.5-.045.775-.045A10.51,10.51,0,0,1,240.5,147.106Zm-16.268,15.539,1.5-4.6-.5-.274a10.567,10.567,0,0,1-4.876-5.377,11.414,11.414,0,0,0,4.6.957,11.7,11.7,0,0,0,1.777-.136l-.228-1.367a9.916,9.916,0,0,1-6.7-1.322l-.136-.683c-.046-.5-.091-1-.091-1.5v-.5l-2.78-.82a1.544,1.544,0,0,1-1.048-1.914v-.045a1.56,1.56,0,0,1,1.458-1.094,1.538,1.538,0,0,1,.456.046l2.552.774.227-.546a10.322,10.322,0,0,1,7.474-6.016A17.18,17.18,0,0,0,239.315,153.4a10.414,10.414,0,0,1-7.929,5.514,9.927,9.927,0,0,1-1.641.091h-.5l-1.185,3.691Zm-27.205-18a2.863,2.863,0,0,1,2.6-2.1h.046a1.437,1.437,0,0,1,1.094.456,1.358,1.358,0,0,1,.182,1.276l-2.552,10.253,1.322.319,2.551-10.253a2.866,2.866,0,0,1,2.6-2.1h.045a1.433,1.433,0,0,1,1.094.456,1.358,1.358,0,0,1,.182,1.276l-2.551,10.253,1.321.318,2.552-10.252a2.863,2.863,0,0,1,2.6-2.1h.046a1.437,1.437,0,0,1,1.094.456,1.358,1.358,0,0,1,.182,1.276l-5.058,20.1H192.014ZM218.4,176.134l-.593-1.231-18.637,8.567a7.154,7.154,0,0,1-7.565-1,7.082,7.082,0,0,1-2.369-7.246l2.415-9.524H206l-1.276,5.059,13.534-6.653h16.724l-7.7,30.029H209.012l6.334-16.632ZM202.45,244.305l-23.286-8.886,16.5-7.61,11.438,4.238Zm5.2-13.534-11.074-4.1,11.939-31.261h18.456l-.547,2.188a16,16,0,0,1-6.289,9.068l-.091.045a17.135,17.135,0,0,0-6.243,7.975Zm8.567-17.954a15.428,15.428,0,0,1,4.6-4.967l.091-.046a17.3,17.3,0,0,0,2.78-2.415l13.853,16.5-8.749,6.471Zm17.088,31.67H221.953l7.246-14.719,9.2-6.835L246.97,233.1Zm-3.874-34.359-4.875-5.833a17.525,17.525,0,0,0,3.189-6.379l1.231-4.785,7.564,9.433v7.655C234.166,210.31,231.8,210.265,229.426,210.128Zm28.8.592-6.608-8.339-1.048.866,6.608,8.339-3.281,2.552-6.516-8.2-1.048.866,6.516,8.2-2.734,2.142-5.013-6.289v-7.564h-1.367v10.07a2.84,2.84,0,0,1-2.825,2.826h-.091a2.84,2.84,0,0,1-2.826-2.826V202.108l-3.463-4.284,11.256-9.022,15.63,19.549Zm13.625,33.767,9.387-6.516,9.387,6.516Zm3.782-44.657h0a5.846,5.846,0,0,1-.41-2.188,6.008,6.008,0,1,1,.41,2.188Z"/><rect x="224.316" y="142.493" width="1.367" height="5.65" transform="translate(11.32 306.822) rotate(-69.94)"/><path d="M230.247,151.754a4.474,4.474,0,0,0-1.6-3.007,4.324,4.324,0,0,0-1.96-.912l-.273,1.322a3.141,3.141,0,0,1,1.367.638,3.219,3.219,0,0,1,1.139,2.1,3.163,3.163,0,0,1-.683,2.279,3.2,3.2,0,0,1-.729.637l.729,1.14a5.035,5.035,0,0,0,1.048-.912A4.831,4.831,0,0,0,230.247,151.754Z"/><path d="M197.893,87.639a44.906,44.906,0,0,1,5.331,3.509,21.3,21.3,0,0,0-2.141,3.281c-5.013,8.977-3.919,20.734,2.6,27.979,2.643,2.962,5.878,4.6,9.068,4.6h0a8.931,8.931,0,0,0,2.689-.411c3.326-1.048,5.833-3.964,7.063-8.156,1.732-5.833,1-12.532-2-18.911a36.746,36.746,0,0,0-5.468-8.294,24.217,24.217,0,0,1,10.389-3.463c6.836-.593,14.355,1.64,20.78,6.2,5.7,4.056,10.754,9.934,15.038,17.5a44.465,44.465,0,0,1,5.422,13.9l.137.684,7.929-1.459-.137-.683a52.62,52.62,0,0,0-6.334-16.4c-4.876-8.612-10.709-15.357-17.362-20.1A39.965,39.965,0,0,0,227.7,79.619q-1.5,0-3.008.137A31.081,31.081,0,0,0,209.1,85.543a51.16,51.16,0,0,0-7.2-4.876c-7.7-4.375-16.268-6.972-23.65-9.114l-.729-.228-2.188,7.747.638.182C182.946,81.259,190.966,83.72,197.893,87.639Zm26.885-6.516q1.436-.137,2.871-.137a38.705,38.705,0,0,1,22.375,7.519c6.516,4.6,12.212,11.21,16.951,19.64a52.854,52.854,0,0,1,6.061,15.311l-5.241.957a46.7,46.7,0,0,0-5.468-13.671c-4.374-7.746-9.569-13.761-15.4-17.908A33.557,33.557,0,0,0,227.6,86.272c-.821,0-1.6.046-2.415.091a25.27,25.27,0,0,0-11.165,3.782c-1.23-1.367-3.007-2.916-3.919-3.782A31.151,31.151,0,0,1,224.778,81.123Zm-46.3-8.066c7.2,2.051,15.356,4.648,22.693,8.8a52.011,52.011,0,0,1,7.428,5.1h0c.091.091,2.688,2.278,4.329,4.055h0l.5.593a36.614,36.614,0,0,1,5.741,8.566c2.871,6.061,3.555,12.395,1.914,17.909-1.093,3.782-3.281,6.334-6.151,7.245a7.689,7.689,0,0,1-2.279.365c-2.78,0-5.65-1.458-8.02-4.147-6.152-6.835-7.154-17.954-2.415-26.43a22.372,22.372,0,0,1,2.05-3.053,42.66,42.66,0,0,1,3.919,3.646,18.729,18.729,0,0,0-1.276,2c-3.645,6.562-2.916,15.083,1.732,20.278a6.281,6.281,0,0,0,4.1,2.369,3.489,3.489,0,0,0,.684-.091c1.093-.364,2.1-1.731,2.643-3.691,1.276-4.238.683-9.25-1.641-14.126a30.192,30.192,0,0,0-4.83-7.2,33.078,33.078,0,0,0-4.42-4.238h0l-.274-.228c-.136-.136-.273-.182-.273-.228h0a47.807,47.807,0,0,0-6.015-4.055c-6.835-3.874-14.673-6.334-21.554-8.294ZM213.158,103c2.188,4.557,2.735,9.2,1.55,13.169-.5,1.686-1.276,2.6-1.777,2.78-.593.182-2.005-.365-3.327-1.868-4.283-4.785-4.921-12.623-1.549-18.684.319-.547.638-1.093,1-1.595A24.36,24.36,0,0,1,213.158,103Z"/><path d="M83.652,77.751v-.046a2.908,2.908,0,0,0-2.917-2.916H79.049v1.367h1.686a1.537,1.537,0,0,1,1.55,1.549v.046a1.577,1.577,0,0,1-1.55,1.595H79.049v1.367h1.686A2.947,2.947,0,0,0,83.652,77.751Z"/></svg>